<?xml version="1.0" encoding="iso-8859-1"?>
<!-- Uploaded to: SVG Repo, www.svgrepo.com, Generator: SVG Repo Mixer Tools -->
<svg height="800px" width="800px" version="1.1" id="Layer_1" xmlns="http://www.w3.org/2000/svg" xmlns:xlink="http://www.w3.org/1999/xlink" 
	 viewBox="0 0 512 512" xml:space="preserve">
<path style="fill:#B3D8F4;" d="M510.328,402.257c-4.628-11.175-17.441-16.48-28.614-11.852l-20.229,8.38L421.2,301.538
	c27.442-21.714,38.434-59.814,24.398-93.708l-8.401-20.282l-0.077-0.184L384.138,59.458c-4.628-11.175-17.439-16.48-28.614-11.852
	l-56.129,23.249L256,88.83l-47.169-19.537l-52.356-21.687c-5.367-2.222-11.395-2.222-16.761,0
	c-5.367,2.222-9.63,6.487-11.852,11.852L74.88,187.367l-0.073,0.177l-0.015,0.035c-0.001,0.001-0.003,0.003-0.003,0.006
	l-8.386,20.246c-14.038,33.892-3.046,71.993,24.395,93.708l-40.281,97.248l-20.231-8.38c-11.17-4.628-23.986,0.677-28.614,11.852
	c-4.628,11.175,0.679,23.985,11.852,28.614l37.214,15.415l3.247,1.345l0.004,0.001c0.001,0,0.004,0.001,0.004,0.001l40.462,16.759
	c2.742,1.134,5.579,1.673,8.372,1.673c8.593,0,16.749-5.091,20.241-13.525c4.628-11.175-0.679-23.985-11.852-28.614l-20.232-8.38
	l40.277-97.236c3.078,0.359,6.18,0.562,9.306,0.562c0.001,0,0.001,0,0.001,0s0,0,0.001,0c1.685,0,3.359-0.064,5.022-0.168
	c0.347-0.022,0.699-0.032,1.045-0.058c1.838-0.137,3.659-0.343,5.465-0.603c0.166-0.025,0.337-0.041,0.504-0.066
	c0.039-0.006,0.08-0.013,0.12-0.02c1.158-0.175,2.304-0.383,3.447-0.607c1.244-0.244,2.478-0.521,3.703-0.822
	c24.428-6.008,44.957-23.233,54.901-47.239c0.035-0.086,0.072-0.172,0.105-0.26l26.702-64.463l0.077-0.185l0.015-0.035
	c0.001-0.003,0.003-0.007,0.004-0.01L256,169.763l14.321,34.572c0.001,0.003,0.003,0.007,0.004,0.01l0.015,0.035l0.077,0.185
	l26.718,64.501c0.031,0.074,0.06,0.149,0.091,0.222c12.476,30.119,41.602,49.582,74.207,49.585c0.003,0,0.004,0,0.006,0h0.001
	c3.124,0,6.225-0.203,9.302-0.562l40.278,97.236l-20.232,8.38c-11.173,4.628-16.48,17.439-11.852,28.614
	c3.494,8.434,11.646,13.525,20.241,13.525c2.793,0,5.631-0.537,8.372-1.673l39.944-16.546l0.512-0.212
	c0.003-0.001,0.006-0.001,0.01-0.003c0.004-0.001,0.007-0.003,0.01-0.004l40.453-16.758
	C509.649,426.241,514.956,413.43,510.328,402.257z"/>
<path style="fill:#F2D23D;" d="M405.131,224.59l-2.786-6.726l-9.071-21.9l-9.072-21.9h-41.525h-37.487l9.072,21.9l9.071,21.9
	l14.336,34.61c0.029,0.073,0.06,0.147,0.089,0.22c0.315,0.752,0.658,1.486,1.019,2.207c0.115,0.232,0.244,0.457,0.365,0.686
	c0.254,0.483,0.511,0.964,0.784,1.432c0.153,0.263,0.317,0.518,0.477,0.778c0.261,0.422,0.526,0.841,0.803,1.25
	c0.178,0.263,0.359,0.52,0.545,0.778c0.279,0.393,0.568,0.778,0.861,1.158c0.194,0.25,0.388,0.496,0.587,0.74
	c0.311,0.378,0.631,0.747,0.953,1.111c0.199,0.225,0.396,0.451,0.6,0.67c0.362,0.388,0.736,0.761,1.114,1.131
	c0.181,0.177,0.355,0.361,0.539,0.533c0.568,0.534,1.148,1.053,1.746,1.549c0.001,0,0.003,0.001,0.004,0.003
	c0.597,0.493,1.215,0.967,1.842,1.421c0.209,0.15,0.423,0.289,0.635,0.435c0.429,0.296,0.86,0.59,1.301,0.869
	c0.257,0.162,0.517,0.314,0.778,0.469c0.409,0.244,0.822,0.485,1.242,0.712c0.279,0.152,0.561,0.298,0.844,0.442
	c0.418,0.213,0.838,0.418,1.263,0.615c0.289,0.133,0.578,0.266,0.872,0.391c0.441,0.19,0.886,0.368,1.334,0.54
	c0.283,0.109,0.566,0.222,0.853,0.324c0.496,0.177,0.999,0.334,1.501,0.491c0.25,0.076,0.493,0.161,0.745,0.232
	c0.752,0.215,1.51,0.409,2.278,0.575c0.383,0.083,0.769,0.139,1.155,0.209c1.279,0.234,2.572,0.423,3.885,0.52
	c0.91,0.067,1.826,0.102,2.749,0.102c0.001,0,0.003,0,0.003,0c4.316,0,8.558-0.775,12.639-2.291c0.435-0.162,0.87-0.324,1.302-0.502
	C403.971,264.579,412.833,243.184,405.131,224.59z"/>
<polygon style="fill:#DEDEE0;" points="352.054,96.451 316.335,111.247 284.614,124.387 305.191,174.064 342.678,174.064 
	384.203,174.064 "/>
<path style="fill:#F2D23D;" d="M164.896,174.064h-37.097l-9.072,21.9l-9.071,21.9l-2.786,6.726
	c-2.406,5.811-3.197,11.894-2.577,17.749c0.124,1.171,0.304,2.333,0.539,3.481c0.235,1.149,0.524,2.283,0.869,3.402
	c0.22,0.72,0.469,1.431,0.733,2.135c0.082,0.215,0.171,0.426,0.256,0.641c0.196,0.493,0.4,0.984,0.618,1.469
	c0.105,0.237,0.213,0.472,0.326,0.705c0.225,0.48,0.464,0.953,0.712,1.425c0.108,0.203,0.212,0.409,0.323,0.61
	c0.451,0.819,0.937,1.618,1.45,2.4c0.742,1.132,1.549,2.222,2.416,3.27c0.063,0.073,0.123,0.146,0.185,0.219
	c0.159,0.188,0.318,0.378,0.477,0.566c0.507,0.577,1.025,1.143,1.569,1.689c0.012,0.012,0.023,0.022,0.034,0.032
	c0.339,0.34,0.693,0.667,1.047,0.994c0.231,0.213,0.463,0.425,0.702,0.634c0.418,0.366,0.839,0.73,1.277,1.079
	c0.121,0.093,0.245,0.184,0.368,0.277c0.258,0.201,0.523,0.399,0.787,0.597c0.153,0.114,0.305,0.234,0.461,0.345
	c0.015,0.007,0.026,0.016,0.038,0.025c0.366,0.26,0.745,0.507,1.121,0.753c0.165,0.108,0.324,0.222,0.491,0.328
	c0.765,0.483,1.561,0.931,2.372,1.361c0.204,0.108,0.407,0.213,0.615,0.318c0.034,0.017,0.072,0.031,0.105,0.048
	c0.796,0.401,1.602,0.788,2.438,1.134c0.425,0.177,0.856,0.328,1.285,0.488c0.136,0.051,0.272,0.102,0.407,0.155
	c0.517,0.181,1.037,0.352,1.559,0.514c0.829,0.257,1.666,0.486,2.508,0.683c0.946,0.22,1.897,0.416,2.854,0.559
	c1.761,0.263,3.54,0.396,5.332,0.396c0.869,0,1.732-0.031,2.586-0.092c0.812-0.057,1.615-0.142,2.41-0.25
	c0.276-0.038,0.549-0.093,0.823-0.139c0.527-0.085,1.057-0.168,1.578-0.275c0.318-0.066,0.629-0.149,0.943-0.222
	c0.472-0.109,0.943-0.218,1.407-0.346c0.331-0.092,0.657-0.199,0.985-0.299c0.439-0.134,0.877-0.267,1.308-0.418
	c0.334-0.117,0.663-0.245,0.994-0.372c0.416-0.158,0.831-0.318,1.241-0.491c0.331-0.14,0.656-0.291,0.981-0.439
	c0.397-0.182,0.794-0.368,1.186-0.565c0.324-0.162,0.639-0.333,0.958-0.505c0.383-0.207,0.759-0.419,1.134-0.639
	c0.312-0.184,0.62-0.372,0.927-0.566c0.366-0.231,0.727-0.467,1.085-0.711c0.299-0.204,0.596-0.412,0.889-0.625
	c0.35-0.254,0.696-0.517,1.038-0.784c0.283-0.222,0.568-0.447,0.844-0.677c0.336-0.279,0.664-0.569,0.991-0.86
	c0.267-0.239,0.534-0.477,0.794-0.724c0.323-0.305,0.634-0.622,0.945-0.939c0.248-0.254,0.499-0.504,0.74-0.765
	c0.307-0.333,0.602-0.677,0.896-1.022c0.225-0.264,0.457-0.523,0.676-0.793c0.299-0.369,0.581-0.755,0.867-1.137
	c0.197-0.263,0.399-0.518,0.587-0.788c0.308-0.435,0.594-0.886,0.882-1.336c0.149-0.232,0.308-0.457,0.453-0.693
	c0.423-0.695,0.826-1.405,1.206-2.132c0.055-0.107,0.121-0.207,0.175-0.315c0.025-0.047,0.042-0.095,0.066-0.142
	c0.388-0.769,0.755-1.552,1.091-2.356c0.025-0.061,0.05-0.121,0.076-0.182h-0.001l14.336-34.61l9.071-21.9l9.072-21.9h-41.913
	V174.064z"/>
<polygon style="fill:#DEDEE0;" points="191.894,109.685 159.948,96.451 127.799,174.064 164.896,174.064 206.81,174.064 
	227.387,124.387 "/>
<g>
	<path style="fill:#E69629;" d="M368.684,274.971c-1.313-0.098-2.606-0.286-3.885-0.52
		C366.078,274.685,367.37,274.874,368.684,274.971z"/>
	<path style="fill:#E69629;" d="M363.661,274.245c0.375,0.082,0.761,0.136,1.139,0.206c-0.385-0.07-0.772-0.126-1.155-0.209
		C363.65,274.242,363.656,274.244,363.661,274.245z"/>
	<path style="fill:#E69629;" d="M270.42,204.572l-0.083-0.2l-0.016-0.038c0.001,0.003,0.003,0.007,0.004,0.01l0.015,0.035
		l0.077,0.185l26.718,64.501c0.031,0.074,0.06,0.149,0.091,0.222c-0.031-0.074-0.06-0.149-0.091-0.222L270.42,204.572z"/>
	<path style="fill:#E69629;" d="M371.438,318.872c3.124,0,6.225-0.203,9.302-0.562C377.663,318.67,374.561,318.872,371.438,318.872
		L371.438,318.872z"/>
	<path style="fill:#E69629;" d="M380.74,318.31c3.422-0.4,6.811-0.999,10.154-1.84C387.55,317.312,384.16,317.91,380.74,318.31z"/>
	<path style="fill:#E69629;" d="M140.569,318.872c1.685,0,3.359-0.064,5.022-0.168c-1.666,0.102-3.339,0.168-5.024,0.168
		C140.568,318.872,140.568,318.872,140.569,318.872z"/>
	<path style="fill:#E69629;" d="M121.209,316.487c3.311,0.822,6.666,1.428,10.053,1.824c3.078,0.359,6.18,0.562,9.306,0.562
		c0.001,0,0.001,0,0.001,0c-3.127,0-6.23-0.203-9.307-0.564C127.875,317.915,124.52,317.309,121.209,316.487z"/>
	<path style="fill:#E69629;" d="M241.583,204.572l-26.699,64.455c-0.034,0.088-0.07,0.174-0.105,0.261
		c0.035-0.086,0.072-0.172,0.105-0.26l26.702-64.463l0.077-0.185l0.015-0.035c0.001-0.003,0.003-0.007,0.004-0.01l-0.016,0.038
		L241.583,204.572z"/>
	<path style="fill:#E69629;" d="M143.126,274.985c0.01,0,0.019-0.001,0.028-0.003c-0.856,0.06-1.718,0.092-2.586,0.092
		C141.426,275.073,142.279,275.044,143.126,274.985z"/>
	<path style="fill:#E69629;" d="M126.624,272.28c0.561,0.232,1.124,0.444,1.692,0.642c-0.136-0.053-0.27-0.104-0.407-0.155
		C127.478,272.607,127.049,272.455,126.624,272.28z"/>
	<path style="fill:#E69629;" d="M130.298,273.569c0.194,0.058,0.387,0.127,0.581,0.181c0.498,0.139,1,0.253,1.501,0.369
		c-0.842-0.197-1.678-0.426-2.508-0.683C130.015,273.479,130.155,273.527,130.298,273.569z"/>
</g>
<polygon style="fill:#D6D5D8;" points="384.203,174.064 352.054,96.451 316.335,111.247 342.678,174.064 "/>
<path style="fill:#8CB7E8;" d="M458.012,447.631c0.004-0.001,0.007-0.003,0.01-0.004l40.453-16.758
	c11.173-4.628,16.48-17.439,11.852-28.614c-4.628-11.175-17.441-16.48-28.614-11.852l-20.229,8.38L421.2,301.537
	c27.442-21.714,38.434-59.814,24.398-93.708l-8.401-20.282l-0.077-0.184L384.138,59.457c-4.628-11.175-17.439-16.48-28.614-11.852
	l-56.129,23.249l16.939,40.393l35.719-14.795l32.15,77.613l9.072,21.9l9.071,21.9l2.786,6.726c7.7,18.594-1.161,39.989-19.754,47.69
	c-0.431,0.178-0.866,0.342-1.302,0.502l73.414,175.065l0.512-0.212C458.005,447.634,458.008,447.633,458.012,447.631z"/>
<path style="fill:#EEBF00;" d="M384.076,272.782c0.435-0.162,0.87-0.324,1.302-0.502c18.593-7.701,27.455-29.095,19.754-47.69
	l-2.786-6.726l-9.071-21.9l-9.072-21.9h-41.525L384.076,272.782z"/>
<g>
	<path style="fill:#8CB7E8;" d="M114.296,263.853c0.156,0.164,0.307,0.334,0.467,0.496c0,0,0.001,0,0.003,0.001
		c-0.001,0-0.003-0.001-0.003-0.001C114.602,264.187,114.453,264.018,114.296,263.853z"/>
	<path style="fill:#8CB7E8;" d="M115.471,265.022c0.126,0.12,0.251,0.237,0.377,0.356c-0.353-0.327-0.707-0.654-1.047-0.994
		C115.02,264.602,115.249,264.809,115.471,265.022z"/>
	<path style="fill:#8CB7E8;" d="M116.712,266.151c0.343,0.298,0.686,0.6,1.042,0.885c0.023,0.019,0.047,0.035,0.072,0.054
		c-0.438-0.349-0.86-0.712-1.277-1.079C116.602,266.058,116.658,266.104,116.712,266.151z"/>
	<path style="fill:#8CB7E8;" d="M113.395,262.897c0.291,0.326,0.597,0.639,0.901,0.956c0.156,0.164,0.307,0.334,0.467,0.496
		c0,0,0.001,0.001,0.003,0.001c-0.545-0.546-1.064-1.112-1.569-1.689C113.263,262.741,113.326,262.821,113.395,262.897z"/>
	<path style="fill:#8CB7E8;" d="M119.375,268.264c0.023,0.016,0.045,0.031,0.069,0.047c-0.156-0.112-0.308-0.231-0.461-0.345
		C119.112,268.065,119.241,268.167,119.375,268.264z"/>
	<path style="fill:#8CB7E8;" d="M121.073,269.405c0.001,0.001,0.004,0.001,0.006,0.003c0.004,0.003,0.01,0.004,0.015,0.007
		c-0.166-0.105-0.326-0.219-0.491-0.328C120.76,269.192,120.911,269.305,121.073,269.405z"/>
	<path style="fill:#8CB7E8;" d="M110.12,258.61c0.261,0.399,0.521,0.797,0.799,1.187c0.031,0.042,0.064,0.083,0.095,0.124
		c0.355,0.493,0.72,0.981,1.099,1.457c0.137,0.169,0.279,0.333,0.422,0.498c-0.869-1.048-1.676-2.139-2.416-3.27
		C110.119,258.607,110.119,258.609,110.12,258.61z"/>
</g>
<polygon style="fill:#D6D5D8;" points="127.799,174.064 164.896,174.064 191.894,109.685 159.948,96.451 "/>
<path style="fill:#8CB7E8;" d="M124.079,271.096c-0.207-0.105-0.41-0.212-0.615-0.318c-0.812-0.429-1.607-0.877-2.372-1.361
	c-0.004-0.003-0.01-0.004-0.015-0.007c-0.001-0.001-0.004-0.001-0.006-0.003c-0.161-0.101-0.312-0.213-0.47-0.317
	c-0.39-0.256-0.78-0.511-1.159-0.778c-0.023-0.016-0.045-0.031-0.069-0.047c-0.134-0.096-0.263-0.2-0.393-0.299
	c-0.391-0.286-0.778-0.575-1.155-0.875c-0.025-0.017-0.048-0.035-0.072-0.054c-0.356-0.286-0.699-0.587-1.042-0.885
	c-0.054-0.047-0.109-0.093-0.164-0.14c-0.111-0.092-0.222-0.182-0.33-0.279c-0.127-0.115-0.25-0.235-0.372-0.353
	c-0.126-0.12-0.251-0.238-0.377-0.356c-0.222-0.213-0.451-0.42-0.67-0.638c-0.012-0.012-0.023-0.022-0.034-0.032
	c-0.001,0-0.003-0.001-0.003-0.001c-0.161-0.162-0.311-0.333-0.467-0.496c-0.304-0.317-0.61-0.631-0.901-0.956
	c-0.069-0.077-0.131-0.156-0.199-0.235c-0.226-0.258-0.445-0.523-0.663-0.787c-0.143-0.165-0.285-0.328-0.422-0.498
	c-0.38-0.476-0.745-0.964-1.099-1.457c-0.031-0.042-0.064-0.083-0.095-0.124c-0.276-0.388-0.537-0.788-0.799-1.187
	c-0.001-0.001-0.001-0.003-0.003-0.004c-0.101-0.152-0.207-0.299-0.304-0.451c-0.404-0.638-0.783-1.289-1.146-1.949
	c-0.111-0.201-0.213-0.407-0.323-0.61c-0.248-0.47-0.488-0.943-0.712-1.425c-0.111-0.234-0.219-0.469-0.326-0.705
	c-0.216-0.485-0.422-0.974-0.618-1.469c-0.085-0.213-0.174-0.426-0.256-0.641c-0.264-0.704-0.512-1.415-0.733-2.135
	c-0.343-1.118-0.634-2.253-0.869-3.402c-0.235-1.149-0.415-2.31-0.539-3.481c-0.62-5.855,0.169-11.938,2.577-17.749l2.786-6.726
	l9.071-21.9l9.072-21.9l32.149-77.613l31.946,13.233l16.939-40.393l-52.356-21.687c-5.367-2.222-11.395-2.222-16.761,0
	c-5.367,2.222-9.63,6.487-11.852,11.852L74.88,187.367l-0.073,0.177l-0.015,0.035c-0.001,0.001-0.003,0.003-0.003,0.006
	l-8.386,20.246c-14.038,33.892-3.046,71.993,24.395,93.708l-40.281,97.248l-20.231-8.38c-11.17-4.628-23.986,0.677-28.614,11.852
	c-4.628,11.175,0.679,23.985,11.852,28.614l37.214,15.415l73.446-175.14C124.15,271.128,124.114,271.114,124.079,271.096z"/>
<path style="fill:#EEBF00;" d="M127.799,174.064l-9.072,21.9l-9.071,21.9l-2.786,6.726c-2.406,5.811-3.197,11.894-2.577,17.749
	c0.124,1.171,0.304,2.333,0.539,3.481c0.235,1.149,0.524,2.283,0.869,3.402c0.22,0.72,0.469,1.431,0.733,2.135
	c0.082,0.215,0.171,0.426,0.256,0.641c0.196,0.493,0.4,0.984,0.618,1.469c0.105,0.237,0.213,0.472,0.326,0.705
	c0.225,0.48,0.464,0.953,0.712,1.425c0.108,0.203,0.212,0.409,0.323,0.61c0.451,0.819,0.937,1.618,1.45,2.4
	c0.742,1.132,1.549,2.222,2.416,3.27c0.063,0.073,0.123,0.146,0.185,0.219c0.159,0.188,0.318,0.378,0.477,0.566
	c0.507,0.577,1.025,1.143,1.569,1.689c0.012,0.012,0.023,0.022,0.034,0.032c0.339,0.34,0.693,0.667,1.047,0.994
	c0.231,0.213,0.463,0.425,0.702,0.634c0.418,0.366,0.839,0.73,1.277,1.079c0.121,0.093,0.245,0.184,0.368,0.277
	c0.258,0.201,0.523,0.399,0.787,0.597c0.153,0.114,0.305,0.234,0.461,0.345c0.015,0.007,0.026,0.016,0.038,0.025
	c0.366,0.26,0.745,0.507,1.121,0.753c0.165,0.108,0.324,0.222,0.491,0.328c0.765,0.483,1.561,0.931,2.372,1.361
	c0.204,0.108,0.407,0.213,0.615,0.318c0.034,0.017,0.072,0.031,0.105,0.048l40.712-97.08h-37.097V174.064z"/>
<g>
	<path style="fill:#8CB7E8;" d="M112.533,261.876c0.218,0.264,0.437,0.527,0.663,0.787c-0.159-0.188-0.318-0.378-0.477-0.566
		C112.656,262.022,112.596,261.949,112.533,261.876z"/>
	<path style="fill:#8CB7E8;" d="M119.443,268.31c0.38,0.269,0.769,0.523,1.159,0.778c-0.377-0.247-0.755-0.493-1.121-0.753
		C119.468,268.326,119.457,268.318,119.443,268.31z"/>
	<path style="fill:#8CB7E8;" d="M116.22,265.732c0.107,0.096,0.218,0.187,0.33,0.279c-0.238-0.209-0.47-0.42-0.702-0.634
		C115.97,265.497,116.093,265.617,116.22,265.732z"/>
	<path style="fill:#8CB7E8;" d="M117.826,267.091c0.377,0.301,0.764,0.588,1.155,0.875c-0.264-0.199-0.529-0.396-0.787-0.597
		C118.071,267.274,117.947,267.183,117.826,267.091z"/>
	<path style="fill:#8CB7E8;" d="M109.813,258.155c0.096,0.152,0.203,0.299,0.304,0.451c-0.512-0.783-1-1.581-1.45-2.4
		C109.031,256.866,109.409,257.517,109.813,258.155z"/>
</g>
</svg>