<?xml version="1.0" standalone="no"?>
<!DOCTYPE svg PUBLIC "-//W3C//DTD SVG 1.1//EN" "http://www.w3.org/Graphics/SVG/1.1/DTD/svg11.dtd">
<svg xmlns="http://www.w3.org/2000/svg"><metadata>This SVG WebFont was generated by YouWorkForThem.
</metadata><defs><font horiz-adv-x="435" id="ywftsvg"><font-face ascent="800" bbox="-263.461 -353.661 1613.26 974.455" cap-height="779" descent="-200" font-family="National Forest" font-stretch="normal" font-weight="400" panose-1="0 0 0 0 0 0 0 0 0 0" underline-position="0" underline-thickness="0" unicode-range="U+000A-FB02" units-per-em="1000" x-height="468"/><missing-glyph d="M50 700h427v-700h-427v700zM78 680l185 -309l186 309h-371zM251 350l-180 300v-601zM264 329l-185 -308h370zM276 350l181 -303v605z" horiz-adv-x="527"/><glyph d="M768 205q16 -2 22.5 -23.5t4.5 -42.5q-1 -34 -37.5 -71.5t-76.5 -55.5q-53 -24 -114 -3l-13 3q-13 2 -24 10q-21 13 -24 18q-13 18 -17 25q-9 19 -13 36q-7 26 -7 49q0 20 1 27q0 10 3 21q4 21 9 38q0 1 7 19q9 23 10 26q7 18 9 28q4 12 -6 19q-4 3 -8 3q-11 -1 -27 -4 q-3 -5 -9 -13.5t-8 -12.5q-12 -22 -30.5 -36t-36 -19.5t-33 -8t-26 -2.5h-10.5q-2 -17 -3 -21q-16 -72 -23 -89t-20 -42l-15 -20q-7 -9 -30 -29q-16 -13 -32 -19q-25 -10 -51 -12q-33 -2 -51 1q-10 2 -20 8q-24 13 -39 28q-3 2 -13 11v1q-6 5 -14.5 16t-25 46t-22 72t6.5 92 t48 109q3 4 9.5 12.5t9.5 12.5l15 15q12 11 21 17q22 14 31 17q2 1 12 4.5t16 5.5q13 3 32 -1q23 -4 54 -20q17 -9 30 -22q15 -14 43 -44q2 -2 4.5 -6t3.5 -5t12 -16q49 -11 74 48q4 11 8 28q1 2 2 7.5t2 7.5q1 7 8.5 13t14.5 6q24 1 30 2q12 1 20 -8t12 -9.5t14 4.5 q8 5 31 10q21 5 38 8q2 0 36 2q14 1 17 1q16 2 36 -7q14 -6 19 -21q7 -20 3 -41q-3 -12 -12 -34q-3 -7 -10.5 -21.5t-10.5 -22.5q-3 -7 -6 -20t-4 -16q-7 -22 -14 -59q-9 -40 -9 -61q0 -10 1 -23q6 -20 23.5 -32.5t35.5 -10.5q10 3 19 8q17 10 48 43q22 23 39 46zM184 226 q3 14 -2 18q-36 18 -45 65q-1 1 -7 10q-9 -7 -10 -8q-10 -12 -23 -41q-9 -18 -11 -33q-5 -27 -4 -43q2 -25 13 -45q6 -13 12.5 -17t20.5 -4q35 17 47 53q3 9 9 45z" glyph-name="or.liga" horiz-adv-x="759" unicode="or"/><glyph d="M77 502q-54 -10 -65 45q-6 27 3.5 45t31.5 23l47 -2q25 -8 29 -41q5 -35 -16 -52q-2 -1 -30 -18zM589 581q7 -23 -18 -34q-8 -3 -48.5 -6t-81 -5t-43.5 -3q-24 -3 -25 -6q-2 -7 -6 -20.5t-6 -19.5q-5 -17 -9 -34t-6.5 -28t-5 -32.5t-3.5 -29t-3.5 -36t-3.5 -37.5 q-4 -43 1 -77q0 -3 1 -11.5t2 -13.5t2.5 -13.5t3.5 -13.5t4.5 -10.5t6 -8t8.5 -3.5q25 -2 40 21q5 7 9.5 21t6.5 24.5t4.5 27.5t2.5 19l3 9t2 8q2 3 4 11.5t3 12.5q8 26 13 37q6 13 24 21q16 -9 18 -10q9 -7 14 -13q13 -20 16 -29q5 -13 5 -21q-1 -28 -3 -62q-1 -19 -4 -40 q-3 -18 -24.5 -64t-41.5 -67l-1 -1q-19 -35 -73 -42q-36 -5 -76 7q-13 5 -36.5 34.5t-38.5 62.5q-31 -54 -41 -64q-43 -41 -78.5 -42.5t-77.5 39.5l-1.5 1.5l-3 3l-4 4l-5.5 5.5q-29 30 -39 70q-7 25 -4.5 123t11.5 139q11 51 36 68.5t75 6.5q15 -3 16 -18q2 -25 1 -38 q0 -15 -8.5 -106t-8.5 -109q-1 -41 20 -62q6 -6 14.5 -6t14.5 7q18 19 39 101q13 49 25 86q3 71 14 122q3 16 12.5 46.5t9.5 33.5q-1 3 -5 4t-9.5 1t-11 -1t-12 -1.5t-8.5 -1.5q-9 -1 -20.5 7.5t-20.5 21t-15 26.5t-4 25.5t12 16.5q5 4 49.5 10t50.5 6q16 -1 20 15 q3 12 5 17q1 3 2 5q4 3 10 10t11 12t11 8q5 3 9 4q21 2 35 -15q11 -12 19 -25q2 -4 6 -11t5.5 -9.5t5 -6t7.5 -4t10 0.5q4 0 25.5 1.5t32.5 4.5q9 1 48.5 2.5t47.5 -1.5q3 -2 5 -3.5t3.5 -3.5t2.5 -3t2 -3.5t2 -3.5t2 -4.5t2 -4.5q4 -9 11 -32z" glyph-name="it.liga" horiz-adv-x="472" unicode="it"/><glyph d="M320 504q-55 -6 -62 50q-3 27 7.5 44.5t33.5 20.5l47 -6q23 -10 26 -43q2 -35 -21 -50q-2 -2 -31 -16zM490 297q17 -18 13 -43q-3 -18 -6 -30.5t-6 -19.5t-10 -23t-12 -31q-9 -21 -21 -39q-47 -66 -56 -74q-45 -38 -81.5 -36.5t-73.5 45.5q-13 14 -13 15q-2 1 -5 5 q-5 -6 -9 -10q0 -1 -1 -2q-19 -34 -73 -42q-36 -5 -76 8q-18 5 -48.5 49t-37.5 81q-11 56 -9 144.5t15 152.5q3 16 12.5 47t9.5 33q-5 11 -108 2q-9 -1 -20.5 7t-20.5 21t-14.5 26.5t-4 25.5t12.5 16q3 3 18.5 4.5t35 3t25.5 2.5q17 2 43.5 3.5t30.5 2.5h8q17 0 21 15 q3 12 4 17q1 4 3 5q3 3 9 10t11 12t11 8q5 4 10 4q20 2 34 -15q11 -12 19 -25q2 -4 6 -11t5.5 -9.5t5 -6t7.5 -4t10 0.5q30 4 41 -3q3 -2 4.5 -3.5l3.5 -3.5l3 -3t2 -3.5t1.5 -3.5t2 -4.5t2.5 -4.5q4 -9 11 -32t-18 -34q-7 -5 -33 -4t-27 1q-24 -4 -25 -7q-2 -7 -6 -20 t-6 -20q-5 -17 -9 -34t-6.5 -28t-5 -32t-3.5 -29t-3.5 -36.5t-3.5 -37.5q-4 -43 1 -77q0 -3 1 -11.5t2 -13.5t2.5 -13t3.5 -13.5t4.5 -11t6.5 -8t8 -2.5q25 -2 41 20q10 15 22 46t15 47v6q6 60 9 70q6 37 12 56q15 50 41 65.5t76 0.5q14 -5 14 -20q0 -25 -2 -37 q-1 -15 -16.5 -105.5t-16.5 -107.5q-4 -41 15 -64q5 -6 13.5 -6.5t15.5 5.5q19 17 47 98q17 50 34 92q4 9 15.5 9t18.5 -8z" glyph-name="ti.liga" horiz-adv-x="439" unicode="ti"/><glyph d="M52 513q-55 -11 -66 44q-5 27 4 45.5t32 23.5l47 -3q24 -7 29 -40q5 -36 -16 -52q-2 -2 -30 -18zM570 511q-54 -11 -65 45q-5 27 4 45t31 23l46 -3q24 -7 29 -40q5 -36 -16 -52q-2 -2 -29 -18zM723 316q18 -17 16 -42q-1 -18 -3.5 -31t-4.5 -20t-8 -24t-10 -31 q-7 -23 -18 -41q-41 -70 -50 -78q-42 -42 -78 -43t-77 40q-1 0 -2 1.5t-3 3t-4.5 4t-4.5 5.5q-11 10 -20 23q-10 -17 -20 -27l-1 -2q-19 -34 -73 -42q-36 -5 -76 8q-13 4 -36.5 33.5t-38.5 62.5q-31 -54 -41 -64q-43 -41 -78.5 -42t-77.5 39q0 1 -1.5 2t-3 3t-4 4.5 t-5.5 4.5q-29 30 -39 71q-7 24 -4.5 122.5t11.5 139.5q11 51 36 68.5t75 6.5q15 -4 16 -18q2 -26 1 -38q0 -15 -8.5 -106.5t-8.5 -108.5q-1 -41 20 -62q6 -6 14.5 -6t14.5 6q18 19 39 102q13 48 25 86q3 71 14 122q3 15 12.5 46t9.5 34q-1 2 -5 3.5t-9.5 1l-11 -1t-12 -1.5 t-8.5 -1q-9 -1 -20.5 7t-20.5 21t-15 26.5t-4 25.5t12 17q5 3 49.5 9t50.5 6q16 0 20 16q4 11 5 16q1 4 2 5q4 3 10 10t11 12t11 9q5 3 9 3q21 2 35 -14q11 -13 19 -25q2 -5 6 -12t5.5 -9.5t5 -5.5t7.5 -4t10 0q3 1 17 4t20.5 4t13.5 -1q3 -2 5 -3.5t3.5 -3t2.5 -3t2 -3.5 l1.5 -3t2 -4.5t2.5 -5.5q4 -9 11 -31q7 -23 -18 -34q-13 -5 -70 -14q-24 -4 -25 -6q-2 -7 -6 -20.5t-6 -19.5q-5 -17 -9 -34t-6.5 -28.5t-5 -32.5t-3.5 -29t-3.5 -36.5t-3.5 -37.5q-4 -43 1 -77q0 -2 1 -11t2 -14t2.5 -13t3.5 -13.5t4.5 -10.5t6 -8t8.5 -3q25 -2 40 21 q47 68 58 141q1 12 3 24v0q4 37 9 56q11 51 35.5 68.5t75.5 6.5q15 -3 16 -18q1 -26 1 -38q-1 -16 -14 -107t-14 -108q0 -41 20 -62q6 -6 14.5 -6t14.5 7q18 18 40 101q13 51 27 94q3 10 14.5 11t19.5 -6z" glyph-name="iti.liga" horiz-adv-x="676" unicode="iti"/><glyph d="M785 347q0 -1 0.5 -1.5t1 -3l1 -5t1 -5.5l1 -6t0.5 -6v-5v-3.5t-1 -2.5t-21 -34.5t-40.5 -68t-20.5 -35.5q-3 -3 -8.5 -12.5t-9.5 -13.5q-3 -5 -9.5 -14.5t-12 -16.5t-11.5 -13q-3 -3 -8.5 -10.5t-7.5 -10.5q-32 -36 -55 -50q-25 -15 -36 -19q-3 -1 -9.5 -4t-9.5 -4 q-11 -3 -24 -3h-15q-49 -1 -82 31q-51 48 -41 128v15q-57 -36 -96 -11q-4 -12 -8 -22q-7 -16 -20 -41q-3 -5 -15 -20q-8 -10 -30 -29q-16 -14 -32 -20q-25 -9 -51 -11q-33 -2 -51 1q-10 2 -20 7q-24 13 -40 28q-2 3 -13 12q-5 6 -13.5 17t-25 46t-22 71.5t6.5 91.5t48 109 q3 5 9.5 13t9.5 12q1 2 15 15q12 11 21 17q22 15 31 18q1 0 11.5 4t16.5 5q17 3 32 0q23 -4 53 -20q18 -10 31 -23q3 -3 14 -12t17.5 -16t11.5 -15q12 -20 20 -41t10.5 -34t2.5 -14q14 -7 23.5 -8.5t20 5t18 14t23.5 26.5l9.5 13t14.5 19q11 10 33 43q5 6 4 6q19 27 36 43 q4 3 9.5 8.5t9 8t9.5 4.5q12 4 48.5 -9t37.5 -22q-3 -5 -0.5 -42.5t2.5 -41.5q0 -24 11.5 -61.5t13.5 -51.5q9 -20 13 -38v0q4 6 9 14q14 25 19 34q0 1 9 16t13 23q3 5 10 19q3 5 28 48q6 10 17.5 11t19.5 -8zM151 198q2 4 5.5 12t2.5 8.5t-1 5.5q-28 14 -46 102l-6 10 q-9 -8 -10 -8q-10 -12 -23 -41q-9 -18 -12 -33q-4 -27 -3 -43q2 -26 12 -46q7 -13 13.5 -17t20.5 -3q35 17 47 53zM465 163q30 -12 42 -8q-1 27 -3 45q-2 17 -9 44t-14 37q-5 7 -15 12q-7 -5 -13 -14q-6 -10 -12 -19q-1 -2 -1 -4q-5 -10 -10 -24q1 -1 1 -6q2 -11 12 -34.5 t22 -28.5z" glyph-name="os.liga" horiz-adv-x="716" unicode="os"/><glyph d="M749 207q17 -2 23 -23.5t5 -42.5q-2 -34 -38 -71t-76 -56q-20 -9 -67.5 -9.5t-68.5 11.5q-28 18 -36 29q-13 19 -17 26q-9 19 -13 36q-7 25 -7 49v26q1 10 4 21q4 21 9 38q0 1 7 20q9 23 10 25q7 18 9 28q4 12 -6 20q-4 2 -8 2q-13 -1 -20 -2q-13 -3 -18 -14 q-2 -5 -30 -67t-32 -71q-9 -18 -20 -34q-15 -27 -27.5 -42.5t-29.5 -30t-19 -16.5q-3 -3 -22 -16q-20 -12 -31 -17q-40 -17 -44 -18q-6 -2 -18 -3.5t-16 -2.5q-7 -2 -45 0q-6 0 -15.5 2.5t-11.5 2.5q-15 3 -35 14q-5 2 -7 4q-31 22 -32 24q-36 35 -52.5 73t-12.5 92 q2 37 3 45q2 9 5.5 27.5t5.5 27.5q7 34 30 67q3 5 10 16t10 16q21 29 42 39q0 1 10 6t16 7q10 4 23 7q20 4 34 3q1 0 8.5 -0.5t11.5 -1.5q13 -2 36 -8q5 -1 11 -4q33 -19 47 -35q19 -21 18 -53q0 -17 -7 -36q0 -1 -3.5 -13t-6.5 -18q-6 -16 -15 -36q-2 -3 -16 -29 q-2 -3 -3 -5q-3 -3 -8 -8.5t-9 -10.5t-7 -9t-7 -8t-9.5 -8t-8.5 -6q-1 -2 -35 -29q-9 -7 -26 -21l-1 -1q3 -5 14.5 -16t16.5 -13q16 -8 40 2t46 29.5t36 34t17 18.5q2 2 7 8q13 19 24.5 41t20.5 44t16.5 42.5t13 40.5t9 33.5t6.5 26l3 12.5q1 3 2 8t2 7q1 7 8.5 13t14.5 6 q24 2 30 2q12 1 20 -8q8 -8 12 -9t14 5q8 5 31 10q20 5 38 7q2 0 36 2q13 1 17 1q16 2 36 -6q14 -7 19 -21q7 -21 3 -41q-3 -12 -12 -34q-3 -7 -10.5 -22t-10.5 -23q-3 -7 -6 -20t-4 -16q-7 -21 -14 -58q-9 -41 -9 -61q0 -33 5 -43q15 -23 40 -27q26 5 43 16q12 10 36 35 q21 22 38 46zM63 227q6 2 21 14.5t18 18.5q2 3 12 16.5t14 22.5q12 22 11 43q-1 11 -18 16q-1 0 -9 1q-16 -11 -16 -12q-14 -17 -19 -29q-2 -5 -7 -16t-7.5 -18.5t-2.5 -16.5q-1 -27 3 -40z" glyph-name="er.liga" horiz-adv-x="739" unicode="er"/><glyph d="M498 328q13 -20 16 -29q5 -13 5 -21q-1 -28 -3 -62q-1 -19 -4 -40q-3 -18 -24.5 -64t-41.5 -67l-1 -1q-19 -35 -73 -42q-36 -5 -76 7q-10 3 -26 21t-31 42q-10 -17 -20 -27l-1 -1q-19 -35 -73 -42q-36 -5 -76 7q-18 6 -48.5 50t-37.5 81q-11 56 -9 144.5t15 152.5 q3 16 12.5 46.5t9.5 33.5q-5 11 -108 1q-9 -1 -20.5 7.5t-20.5 21t-14.5 26.5t-4 25.5t12.5 16.5q3 3 18.5 4.5t35 2.5t25.5 2q17 3 43.5 4.5t30.5 1.5q4 1 8 1q17 -1 21 15q3 12 4 17q1 3 3 5q3 3 9 10t11 12t11 8q5 3 10 4q20 2 34 -15q11 -12 19 -25q9 -16 24 -25.5 t30 -7.5q4 1 25.5 2.5t32.5 3.5q7 1 8 1q4 5 5 10q4 12 5 17q1 3 2 5q4 3 10 10t11 12t11 8q5 3 9 4q21 2 35 -15q11 -12 19 -25q2 -4 6 -11t5.5 -9.5t5 -6t7.5 -4t10 0.5q4 0 25.5 1.5t32.5 4.5q28 5 35 1q2 -2 4 -3.5t3.5 -3.5t2.5 -3t2.5 -3.5t2 -3.5t2 -4.5t1.5 -4.5 q4 -9 11 -32t-18 -34q-8 -3 -33 -6t-50.5 -5t-27.5 -3q-24 -3 -25 -6q-2 -7 -6 -20.5t-6 -19.5q-5 -17 -9 -34t-6.5 -28t-5 -32.5t-3.5 -29t-3.5 -36t-3.5 -37.5q-4 -43 1 -77q0 -3 1 -11.5t2 -13.5t2.5 -13.5t3.5 -13.5t4.5 -10.5t6 -8t8.5 -3.5q25 -2 40 21q5 7 9.5 21 t6.5 24.5t4.5 27.5t2.5 19l3 9t2 8q2 3 4 11.5t3 12.5q8 27 13 37q6 13 24 21q16 -9 18 -10q9 -7 14 -13zM127 139q25 -2 41 21q9 14 18.5 47t13.5 65q2 96 16 165q3 16 12.5 46.5t9.5 33.5q-4 9 -99 2q-1 -2 -4.5 -14t-5.5 -18q-5 -17 -9 -34t-6.5 -28t-5 -32.5t-3.5 -29 t-3.5 -36t-3.5 -37.5q-4 -43 1 -77q0 -3 1 -11.5t2 -13.5t2.5 -13.5t3.5 -13.5t4.5 -10.5t6.5 -8t8 -3.5z" glyph-name="tt.liga" horiz-adv-x="473" unicode="tt"/><glyph d="M839 202q17 -1 23 -22.5t5 -42.5q-2 -34 -38 -71t-76 -56q-19 -10 -67 -10t-69 12q-27 17 -35 29q-14 19 -17 26q-10 19 -14 35q-7 26 -6 49v27q1 10 3 21q5 21 9 38q1 1 8 19q9 24 10 26q6 18 9 28q3 12 -7 19q-4 3 -7 3q-14 -1 -21 -3q-12 -3 -17 -13t-61 -123 q-29 -59 -30 -60q0 -1 -18 -34q-3 -6 -10.5 -17t-10.5 -17q-8 -14 -24 -30q-13 -12 -16 -14q-22 -13 -37 -12q-33 1 -43 3q-29 4 -53 24q-10 8 -19 22q-1 2 -3.5 5t-4.5 6t-3 6q0 1 -7 9q-2 0 -5.5 -1.5t-4.5 -1.5q-19 -33 -52 -56q-26 -17 -58 -22q-12 -2 -29 1 q-11 2 -30 12q-13 6 -41 31q-16 14 -27 38q-15 34 -17 56q-1 2 -2.5 15.5t-1.5 21.5q1 17 6 36q3 12 7 26l7 21l12 28t8 16q13 23 19 32q13 19 30 43q2 3 8 10q3 2 12.5 13.5t15.5 16.5q3 2 11.5 10t15 12.5t13.5 8.5q3 1 11 5.5t12 6.5q14 5 26 8q9 3 15 3.5t15 1t16 1.5 q8 0 21 -3t18 -7q10 -11 14 -12l7 4q24 12 37 11q15 -1 22 -8l6 -6q8 -8 8 -16q0 -5 1 -16t1 -17t-4 -38q0 -4 -1 -9.5t-1 -7.5q-5 -35 -6 -36q-4 -19 -10 -43q-1 -4 -7.5 -29.5t-10.5 -36.5q-12 -35 -4 -55.5t27 -24.5q16 -4 67 77q25 38 54.5 119t36.5 111q1 2 2.5 7.5 t1.5 7.5q2 7 9 13t14 6q25 1 30 2q12 1 21 -8q7 -9 11.5 -9.5t13.5 5.5q8 4 31 10q21 4 39 7q1 0 36 2q13 1 16 1q16 2 36 -7q14 -6 19 -21q7 -20 3 -41q-2 -12 -12 -33q-3 -8 -10 -22.5t-10 -22.5q-3 -7 -6.5 -20t-4.5 -16q-6 -22 -14 -59q-9 -40 -9 -61q0 -32 5 -42 q15 -23 40 -27q27 5 43 16q13 10 36 34q22 23 38 46zM173 315q3 17 -2 23q-11 15 -31 10q-11 -3 -23 -13q-14 -11 -45 -47q-1 -1 -3 -4q-7 -11 -11 -19q-4 -6 -5 -8t-4.5 -11t-5.5 -14q-5 -9 -8 -34q-3 -21 1 -44q4 -21 19 -32q10 0 12 1q19 21 20 22q19 26 24 35q1 3 23 38 l3 5q12 22 17 33q10 20 11 24q6 17 8 35z" glyph-name="ar.liga" horiz-adv-x="821" unicode="ar"/><glyph d="M60 502q-35 -2 -54.5 11.5t-22.5 39.5q-2 28 13 45t44 20l60 -8q30 -10 31 -43q1 -36 -30 -50q-3 -1 -41 -15zM593 203q16 -2 22.5 -23.5t4.5 -42.5q-1 -34 -37 -70.5t-77 -56.5q-19 -9 -66.5 -9.5t-69.5 11.5q-27 18 -35 29q-14 19 -17 26q-9 19 -14 36q-6 25 -6 49v27 q1 10 3 21q5 21 10 38l7 19q9 23 10 26q6 18 9 28q3 12 -6 19q-4 3 -8 3q-13 -1 -21 -3q-12 -3 -17 -14q-1 -3 -6 -19.5t-12.5 -39.5t-15.5 -42q-22 -77 -58.5 -136.5t-67.5 -68t-52.5 -10.5t-48.5 9t-49 39q0 1 -2 3t-5 5.5t-6 7.5q-25 33 -30 74q-4 28 9.5 124t27.5 136 q18 49 43.5 63t76.5 -2q14 -5 13 -20q-1 -25 -3 -37q-2 -15 -21 -105t-21 -107q-8 -59 12 -64q16 -4 37 18.5t31 45.5q0 1 0.5 1.5t1 1.5l0.5 1q16 40 41 123t34 117q0 3 1.5 8.5t1.5 7.5q2 7 9.5 13t13.5 6q25 1 30 1q12 1 21 -8q7 -8 11.5 -8.5t14.5 4.5q8 5 31 10 q20 5 38 8q2 0 36 2q13 0 17 1q16 2 35 -7q14 -6 19 -21q8 -20 3 -41q-2 -12 -11 -34q-3 -7 -10.5 -22t-10.5 -23q-3 -6 -6 -19t-4 -16q-7 -22 -15 -59q-8 -40 -8 -61q-1 -32 4 -42q16 -23 41 -27q26 5 42 16q13 10 36 34q22 23 39 46z" glyph-name="ir.liga" horiz-adv-x="561" unicode="ir"/><glyph d="M843 206q17 -2 23 -23.5t5 -42.5q-2 -34 -38 -71t-76 -56q-19 -9 -67 -9.5t-69 11.5q-27 18 -36 29q-13 19 -16 26q-10 19 -14 36q-7 25 -7 49q0 20 1 26q0 10 3 21q5 21 9 38q0 1 8 20q9 23 9 25q7 18 10 28q3 12 -7 19q-4 3 -7 3q-14 -1 -21 -2q-12 -3 -17 -14 q-4 -7 -29.5 -83t-29.5 -84q-15 -41 -51 -87t-56 -52q-54 -19 -94.5 -10.5t-72.5 52.5l-1.5 2t-4 5.5t-4.5 6.5q-30 -26 -64.5 -43.5t-68 -20.5t-57.5 16h-0.5t-0.5 1q-6 4 -13 11q-31 28 -41.5 83t-5 114t15.5 114.5t21 90.5l10 36q6 0 15.5 2.5t17.5 3.5t14 1 q45 -1 58.5 -16.5t9.5 -59.5q-4 -36 -11.5 -101.5t-10.5 -88.5q-2 -16 -3 -55q0 -20 15.5 -20.5t34.5 14.5q14 10 38 45q5 58 15.5 123t22.5 93q19 47 46 59.5t76 -5.5q14 -6 12 -20q-2 -25 -5 -37q-15 -71 -42 -218q-8 -40 9 -64q5 -7 13.5 -8t15.5 4q15 11 43 68 q19 38 53 133t38 113q1 3 2 8t2 7q2 7 9 13t14 6q24 2 30 2q12 1 20 -8q8 -8 12 -9t14 5q8 4 31 10q21 5 39 7q1 0 36 2q13 1 16 1q16 2 36 -6q14 -7 19 -21q7 -21 3 -41q-2 -12 -12 -34q-3 -7 -10 -22t-11 -23q-2 -7 -5.5 -20t-4.5 -16q-6 -21 -14 -59q-9 -40 -9 -60 q0 -33 5 -43q15 -23 40 -27q26 5 43 16q13 10 36 35q22 22 38 46z" glyph-name="ur.liga" horiz-adv-x="856" unicode="ur"/><glyph d="M659 204q17 -2 23 -23.5t5 -42.5q-2 -34 -38 -71t-76 -56q-20 -9 -67.5 -9.5t-69.5 11.5q-27 18 -35 29q-14 19 -17 26q-9 19 -14 36q-6 25 -6 49v27q1 10 3 21q5 20 10 38l7 19q9 23 10 26l9 27q3 12 -6 20q-4 3 -8 2q-13 0 -21 -2q-12 -3 -17 -14q-2 -5 -30 -67 t-32 -70q-18 -37 -39 -73q-18 -38 -35 -58l-5 -5q-19 -35 -73 -42q-36 -5 -76 7q-18 6 -48.5 50t-37.5 81q-11 56 -9 144.5t15 152.5q3 16 12.5 46.5t9.5 33.5q-5 11 -108 1q-9 -1 -20.5 7.5t-20.5 21t-14.5 26t-4 25.5t12.5 17q3 3 18.5 4.5t35 2.5t25.5 2q17 3 43.5 4.5 t30.5 1.5q4 1 8 1q17 -1 21 15q3 12 4 17q1 3 3 5q3 3 9 10t11 12t11 8q5 3 10 4q20 2 34 -15q11 -12 19 -25q2 -4 6 -11t5.5 -9.5t5 -6t7.5 -4t10 0.5q4 0 26 2t32 4q28 5 35 1q2 -2 4 -3.5t3.5 -3.5t2.5 -3t2.5 -3.5t2 -3.5t2 -4.5t1.5 -4.5q5 -9 11 -32q7 -23 -17 -34 q-9 -3 -34 -6t-50.5 -5t-27.5 -3q-24 -3 -25 -6q-2 -7 -6 -20t-6 -20q-5 -17 -9 -34t-6.5 -28t-5 -32.5t-3.5 -29t-3.5 -36t-3.5 -37.5q-4 -43 1 -77q0 -3 1 -11.5t2 -13.5t2.5 -13.5t3.5 -13.5t4.5 -10.5t6.5 -8t8 -3.5q25 -2 41 21q6 10 19 32q10 15 20.5 39.5t18.5 49.5 t15.5 52.5t12.5 47t9 37l4 17.5q1 3 2 8.5t2 7.5q1 6 8.5 12t14.5 7q3 0 24 0.5t26 0.5q12 1 21 -8q8 -8 12 -8.5t14 4.5q8 5 31 10q20 5 38 7q2 1 36 3q13 0 17 1q16 2 35 -7q14 -6 19 -21q8 -20 3 -41q-2 -12 -11 -34q-3 -7 -10.5 -22t-10.5 -23q-3 -6 -6 -19t-4 -16 q-7 -22 -15 -59q-8 -41 -8 -61q-1 -32 4 -42q16 -23 41 -27q26 4 42 15q13 11 36 35q22 23 39 46z" glyph-name="tr.liga" horiz-adv-x="628" unicode="tr"/><glyph d="M899 348v-1.5t0.5 -3l1 -5t1 -5.5l1 -6t1 -5.5t0.5 -5t-0.5 -4l-0.5 -1.5q-2 -1 -22 -35t-40 -68.5t-21 -34.5q-2 -4 -8 -13t-9 -14q-4 -5 -10 -14t-11.5 -16.5t-11.5 -12.5q-4 -4 -9 -11.5t-8 -10.5q-31 -36 -55 -50q-25 -15 -36 -19q-3 -1 -9 -4t-10 -4q-11 -3 -24 -3 q-7 0 -32 1.5t-53 34.5q-12 14 -26 37q-2 2 -9 14.5t-12.5 21t-7.5 8.5q-21 -35 -56 -61q-9 -7 -21 -15t-48 -25q-22 -13 -38 -15q-13 -2 -18 -2q-5 1 -9 1h-4q-10 -1 -18 5q-16 5 -28 13q-19 13 -25 29q-1 4 -5.5 13.5t-6.5 15.5q-4 13 -10 44q-3 22 -2 56.5t3 50.5 q0 7 1.5 16.5t2 15t0.5 8.5l-4 7q-5 0 -8 -6q-4 -6 -15 -29.5t-13 -27.5t-22.5 -60.5t-25.5 -69.5q-3 -8 -10 -22.5t-9 -18.5q-10 -25 -39 -34l-4 -1q-9 -7 -24 -6q-27 3 -30 4q-18 6 -25 26q-7 18 -4 47q1 6 3 17.5t2 16.5q1 5 2 19q2 15 3 23q5 25 4 55q0 36 -1 41 q2 87 -18 163q-4 13 8 19q15 9 39 20q21 10 36 5t21 -9q17 -14 23 -27q15 -30 16 -71q1 -19 3 -26q3 -7 9 3.5t14 28t11 21.5l0.5 1t1.5 2q2 3 19 26q20 27 46 48q18 14 31 18q13 3 35 4q12 0 25.5 -10t22.5 -22q19 -24 16 -51q-3 -30 -5 -58q-1 -5 -1 -7t-0.5 -19.5 t-1.5 -26.5q0 -8 -1.5 -22.5t-1.5 -21.5q-2 -22 -1 -41q0 -3 2 -30q1 -9 8 -10q20 -3 48 30q12 15 21 28q2 2 5.5 7t5 7.5t4.5 7t7.5 12l7.5 12.5q2 4 5 8.5t4.5 7l1.5 2.5q14 21 40 63q0 1 7 10.5t16 21.5t13 18q10 13 30.5 38t27.5 30q21 16 46 15q11 -1 18 -8 q18 -17 23 -27q8 -15 17 -48q11 -36 13 -41q7 -19 14 -42q4 -11 8.5 -30.5t7 -34t2.5 -15.5q0 -5 6 -7q4 1 9 8q4 7 8 15q14 23 19 33q1 2 9.5 16.5t13.5 22.5q3 6 10 19q3 5 28 48q5 10 17 11t19 -8zM286 1h3h-1h-1h-1zM621 150q1 11 -3 52q-2 17 -9.5 43.5t-14.5 36.5 q-5 8 -15 12q-6 -5 -12 -14q-7 -10 -12 -19l-2 -4q-20 -49 -20 -60q-1 -18 2 -23q4 -8 10 -18t19.5 -21.5t26.5 -11.5q14 0 21 9t9 18z" glyph-name="ns.liga" horiz-adv-x="830" unicode="ns"/><glyph d="M645 347v-1t0.5 -3.5t1 -4.5t1 -5.5t1 -6t1 -5.5t0.5 -5.5t-0.5 -4l-0.5 -1.5q-2 -1 -22 -35l-40 -68t-21 -35q-2 -4 -8 -13t-9 -14q-4 -4 -10 -13.5t-11.5 -16.5t-11.5 -13q-3 -4 -8.5 -11.5t-8.5 -10.5q-31 -36 -55 -50q-25 -15 -36 -19q-3 -1 -9 -4t-10 -4 q-11 -2 -24 -3q-7 0 -32 1.5t-53 35.5q-12 13 -26 37q-2 2 -7 11t-8 14q-25 -40 -59 -68.5t-65 -30.5q-32 -1 -63 9q-18 5 -48.5 49t-37.5 81q-11 56 -9 144.5t15 152.5q3 16 12.5 47t9.5 33q-5 11 -108 2q-9 -1 -20.5 7t-20.5 20.5t-14.5 26.5t-4 25.5t12.5 16.5 q3 3 18.5 4.5t35 3t25.5 1.5q17 3 43.5 4.5t30.5 2.5h8q17 0 21 15q3 12 4 17q1 3 3 5q3 3 9 10t11 12t11 8q5 3 10 4q20 2 34 -15q11 -12 19 -25q2 -4 6 -11t5.5 -9.5t5 -6t7.5 -4t10 0.5q4 1 26 2.5t32 3.5q28 5 35 1q2 -2 4 -3.5t3.5 -3.5t2.5 -3t2.5 -3.5t2 -3.5l2 -4 t1.5 -5q5 -9 11 -31q7 -23 -17 -34q-9 -4 -34 -7t-50.5 -5t-27.5 -2q-24 -4 -25 -7q-2 -7 -6 -20t-6 -20q-5 -17 -9 -34t-6.5 -28t-5 -32t-3.5 -29t-3.5 -36.5t-3.5 -37.5q-4 -43 1 -77q6 -45 15 -60q8 -14 21.5 2.5t31 50.5t18.5 35q3 5 8.5 14t9.5 16l4 7q14 21 40 63 q1 1 7.5 10.5t15.5 21.5t14 18q9 14 29.5 38.5t27.5 30.5q21 15 46 14q11 0 19 -7q18 -18 22 -28q8 -15 17 -48q11 -35 13 -40q8 -20 14 -43q4 -11 8.5 -30.5t7.5 -34t2 -15.5q0 -5 6 -7q4 1 9 9q3 6 8 14q14 24 20 33q0 1 8.5 16.5t13.5 22.5q3 6 10 19q3 6 28 48 q6 10 17.5 11t19.5 -8zM367 150q1 10 -3 51q-2 17 -9.5 44t-14.5 37q-5 7 -14 11q-7 -4 -13 -14q-7 -10 -12 -19q-1 -2 -2 -3q-20 -50 -20 -61q0 -18 2 -23q4 -8 10 -18t19.5 -21.5t26.5 -11.5q14 0 21 9t9 19z" glyph-name="ts.liga" horiz-adv-x="598" unicode="ts"/><glyph d="M1066 279q53 -77 10 -122q-61 -64 -102 -83q-1 0 -4.5 -1.5t-7.5 -3.5l-8 -4q37 -116 -49 -238q-53 -74 -167 -111q-34 -14 -111.5 -12t-95.5 23q-29 32 -37 60.5t1 60.5q10 33 41 74t59 64q15 13 54 36.5t71 41.5l32 18q-62 15 -110 -20q-22 -15 -56 18q-34 32 -30 61 q2 15 18 21q19 6 75 28q35 12 64 17q19 14 32 33q14 19 11 57.5t-22 53.5q-60 45 -123 -16q-15 -15 -31 -55t-28.5 -79.5t-37.5 -79t-57 -56.5q37 -116 -49 -238q-53 -74 -167 -111q-34 -14 -111.5 -12t-95.5 23q-29 32 -37 60.5t1 60.5q10 33 41 74t59 64q15 13 54 36.5 t71 41.5l32 18q-62 15 -110 -20q-22 -15 -56 18t-30 61q2 15 18 21q19 6 75 28q34 12 64 17q19 14 32 33q14 20 6 64t-28 59q-25 21 -69 14.5t-69 -37.5q-8 -10 -6 -30q2 -4 -8 -13t-28 -16.5t-33 -6.5q-25 1 -33 15.5t-8 52.5q0 36 28.5 75t78.5 54q1 0 5 2q169 55 246 -82 q53 -107 9 -196q35 -15 64 -43q26 16 45.5 52t37 86t25.5 67q47 94 148 105q10 3 34.5 -0.5t50 -9.5t51 -25.5t38.5 -49.5q46 -94 3 -182q35 -15 64 -43q19 6 43 25t44 42q1 1 14.5 17.5t25.5 30.5t14 16q6 5 13.5 4t11.5 -8zM278 -136q20 17 48.5 64.5t42.5 80.5q0 2 -1 5 q-21 -5 -51 -17.5t-66 -33.5t-65.5 -45.5t-47.5 -56t-13 -62.5q30 -7 75 16t78 49zM775 -136q20 17 48.5 64.5t42.5 80.5q0 2 -1 5q-21 -5 -51 -17.5t-66 -33.5t-65.5 -45.5t-47.5 -56t-13 -62.5q30 -7 75 16t78 49z" glyph-name="zz.liga" horiz-adv-x="1053" unicode="zz"/><glyph d="M859 344v-1t0.5 -3t1 -4.5t1 -5.5l1 -6t0.5 -6t0.5 -5t0 -3.5t-1.5 -2.5t-21 -34t-40 -67.5t-20 -35.5q-3 -3 -8.5 -12t-9.5 -14q-14 -23 -32 -43q-4 -3 -9 -10.5t-8 -10.5q-23 -29 -54 -50q-17 -11 -36 -19q-3 -1 -9 -4t-10 -4q-12 -2 -24 -3q-7 0 -31.5 1.5t-53.5 34.5 q-14 18 -26 37l-6 12q-7 21 -17 41q-4 -6 -9.5 -17l-6.5 -13q-3 -6 -10.5 -16.5t-10.5 -16.5q-9 -17 -24 -30q-7 -8 -16 -14q-16 -12 -36 -12q-33 1 -43 3q-30 4 -53 24q-10 10 -18 22q-7 7 -11 17l-8 9l-9 -4q-20 -33 -52 -55q-26 -17 -57 -22q-15 -2 -29 1q-16 4 -30 12 q-23 12 -41 31q-17 16 -26 38q-14 26 -17 55q-3 18 -4 36q1 19 5 36q4 12 8 27q3 9 7 20q8 20 11.5 28t8.5 16q13 23 19 32q12 19 29 42q4 5 9 10q12 16 27 30q18 18 39 30q12 7 24 12q12 4 25 8q9 3 15 4t15 1t16 1q8 1 21 -2t17 -8q11 -11 15 -12q6 4 7 4q16 11 36 12 q13 -1 22 -9q2 -1 4 -3t2 -3q8 -6 8 -16q0 -5 1 -15.5t1 -16.5t-4 -38q0 -3 -1 -9t-1 -8q-6 -35 -6 -36q-4 -18 -10 -42q-10 -29 -4 -60q1 -4 1.5 -12.5t1.5 -12.5l8 -18q17 2 27 16l5 7.5t5 6.5q1 2 4 6t3 5q28 37 28 38q67 105 89 130l9 12q10 13 30.5 38t26.5 30 q21 15 46 14q11 0 18 -7q14 -12 23 -27q10 -23 17 -48q5 -20 12 -40q8 -20 15 -42q3 -11 7.5 -30.5t7.5 -33.5t3 -15q-1 -3 0.5 -5t4.5 -3q4 1 9 9l8 14q16 27 19 33q1 1 9.5 16t12.5 23q3 4 11 18q4 9 27 48q6 10 17.5 11t19.5 -8zM183 311q4 12 -2 23q-12 17 -31 9 q-12 -4 -22 -12q-25 -21 -46 -47l-2 -4q-8 -14 -11 -19q-3 -3 -5 -7q-1 -3 -4.5 -12t-5.5 -14q-7 -16 -8 -34q-3 -22 1 -43q3 -20 19 -32l12 1q19 21 20 22q13 16 23 35q11 19 23 37l3 5q12 23 17 33q7 12 11 24q6 17 8 35zM583 149q1 10 -3 50q-2 17 -9 43.5t-15 37.5 q-5 7 -14 11q-8 -6 -13 -14q-6 -9 -12 -19v-1q-4 -11 -10 -24q-8 -18 -12 -38q-1 -12 3 -23q3 -8 9.5 -18t20 -21.5t25.5 -11.5q12 1 20 8.5t10 19.5z" glyph-name="as.liga" horiz-adv-x="790" unicode="as"/><glyph d="M808 381l4 -37q-2 -1 -22 -34.5t-40 -67.5t-20 -35q-3 -4 -8.5 -13t-9.5 -14q-14 -22 -32 -43q-4 -3 -9 -10.5t-8 -10.5q-23 -29 -54 -50q-17 -11 -36 -19q-3 0 -9 -3t-10 -4q-12 -3 -24 -3q-6 0 -31 1q-15 1 -39.5 13t-34.5 22q-26 26 -50 74.5t-25 99.5q-20 -2 -40 -2 q14 -97 -47 -172q-66 -77 -146 -76q-36 -1 -69 11.5t-54 36.5l-2 2t-5 5.5t-6 6.5q-29 31 -35 72q-3 26 -3 47.5t2 44.5t5 43.5t8.5 56.5t9.5 70q30 262 41 302q14 50 39.5 65.5t75.5 1.5q14 -4 14 -19q0 -19 -1 -37q-2 -17 -14 -109t-15 -107q-2 -6 -3 -11q62 13 97 -26 q25 -29 50 -62q11 -15 20 -31q25 -5 40.5 -6.5t29.5 3t21 9t25 18t32 23.5h1q7 10 11 16q10 14 30.5 38.5t27.5 29.5q20 15 45 15q11 0 18 -8q14 -12 23 -27q11 -23 17 -48q5 -20 12 -40q8 -19 15 -42q3 -11 7.5 -30.5t7.5 -33.5t3 -15q-1 -3 0.5 -5t4.5 -2q5 0 9 8l8 14 q16 27 19 33q20 34 22.5 39t10.5 19q4 8 27 47q6 10 17.5 11t19.5 -8zM162 147q13 21 16.5 55t-2.5 66q-49 19 -74 65q-10 -7 -17 -18q3 -14 -5.5 -60.5t-8.5 -84.5t23 -48q42 -18 68 25zM532 185q1 9 -3 50q-2 17 -9 44t-14 37q-6 7 -15 11q-8 -6 -13 -14q-6 -9 -11 -19 q-1 -1 -2 -3q-13 -29 -20 -60q-2 -12 2 -23q3 -8 9.5 -18t20 -21.5t26.5 -11.5q11 1 19.5 8.5t9.5 19.5z" glyph-name="bs.liga" horiz-adv-x="738" unicode="bs"/><glyph d="M752 349q1 -1 1 -1.5t0.5 -3l1 -5t1 -5.5l1 -6t0.5 -5.5v-5v-4t-1 -1.5q-1 -1 -21 -34.5t-40 -67.5t-21 -35q-2 -4 -8 -13t-9 -14q-15 -22 -33 -43q-3 -3 -8.5 -10.5t-7.5 -10.5q-24 -29 -55 -50q-17 -11 -36 -18q-2 -1 -8.5 -4t-9.5 -4q-12 -3 -24 -3q-7 0 -32 1 q-25 2 -53 35q-14 17 -26 36q-1 2 -7 12q-9 26 -21 51q-30 -39 -64 -73q-65 -61 -138.5 -57.5t-135.5 70.5q-31 37 -42.5 81t-8 78t17 69.5t23 51.5t18.5 29q25 33 51 61q38 42 108 26q50 -11 71 -57.5t-4 -90.5q-14 -29 -45 -29q-7 -1 -11.5 4t-3.5 11q0 16 -13 26 q-15 10 -31 2q-25 -13 -37 -49.5t-9 -75.5t19 -63q27 -41 69 -23q44 19 132 150v1q17 25 39 60q0 1 7 10t16 21t13 18q10 14 30 38.5t27 29.5q20 15 46 15q10 0 18 -8q14 -11 23 -27q10 -23 17 -48q5 -20 12 -40q8 -19 14 -42q4 -11 8.5 -30.5t7 -33.5t2.5 -15q0 -3 1.5 -5 t4.5 -2q4 1 9 8l8 14q16 27 19 33q0 1 9 16t13 23q2 4 10 19q5 8 28 47q6 10 17.5 11.5t18.5 -7.5zM476 153q2 10 -3 51q-1 16 -8.5 43t-14.5 37q-6 7 -14 11q-8 -5 -13 -14q-6 -9 -12 -19q-1 -1 -2 -3q-12 -29 -20 -60q-1 -12 2 -23q4 -8 10.5 -17.5t19.5 -21.5t26 -12 q12 1 20 9t9 19z" glyph-name="cs.liga" horiz-adv-x="684" unicode="cs"/><glyph d="M895 349v-1.5t0.5 -3l1 -5t1 -5.5l1 -6t1 -5.5t0.5 -5t-0.5 -4l-0.5 -1.5q-2 -1 -22 -34.5t-40 -67.5t-20 -35q-3 -4 -8.5 -13t-9.5 -14q-14 -22 -32 -43q-4 -3 -9 -10.5l-7 -10.5q-24 -29 -55 -50q-17 -11 -36 -18q-3 -1 -9 -4t-10 -4q-11 -3 -24 -3q-7 0 -31 1 q-25 2 -53 35q-15 17 -26 36q-2 2 -7 12q-12 31 -27 61q-7 -20 -19 -37q-45 -67 -54 -74q-43 -39 -80 -38t-74 44l-7 7q-14 -15 -33 -25q-84 -34 -151 -3t-98 118q-11 34 -11 68t8 60.5t23 52t29.5 43t32 33.5t27 23.5t18.5 12.5q35 22 70 39q37 19 76 3q23 189 31 218 q14 50 39.5 65.5t75.5 1.5q14 -4 14 -19q1 -19 -1 -37q-1 -17 -13.5 -109.5t-15.5 -106.5q-7 -32 -22.5 -141t-18.5 -159q-3 -41 16 -63q5 -6 13.5 -6.5t15.5 5.5q8 8 54 99.5t63 112.5l2 4q1 1 8 10t15.5 21t12.5 18q10 14 30.5 38.5t27.5 29.5q20 15 45 15q11 0 19 -8 q13 -11 22 -27q11 -23 17 -48q5 -20 12 -40q8 -19 15 -42q3 -11 7.5 -30.5t7.5 -33.5t3 -15q-1 -3 1 -5t4 -2q5 1 9 8l8 14q16 27 20 33q0 1 8.5 16t13.5 23q2 4 10 19q5 8 27 47q6 10 17.5 11.5t19.5 -7.5zM204 278q5 29 6 40q-5 11 -14 19t-18 7q-28 -3 -53.5 -33 t-37.5 -68.5t-7 -67.5q9 -50 56 -48q13 1 23.5 11t17 28.5t11 35t9 41t7.5 35.5zM619 153q1 10 -3 51q-2 16 -9 43t-14 37q-6 7 -15 11q-8 -5 -12 -14q-6 -9 -12 -19q-1 -1 -2 -3q-13 -29 -20 -60q-2 -12 2 -23q4 -8 10 -17.5t19.5 -21.5t26.5 -12q11 1 19.5 9t9.5 19z" glyph-name="ds.liga" horiz-adv-x="826" unicode="ds"/><glyph d="M684 349v-1.5t0.5 -3l1 -5t1 -5.5l1 -6t1 -5.5t0.5 -5t-0.5 -4l-0.5 -1.5q-2 -1 -22 -34.5t-40 -68l-20 -34.5q-3 -4 -8.5 -13t-9.5 -14q-14 -23 -32 -43q-4 -3 -9 -10.5t-8 -10.5q-23 -29 -54 -50q-17 -11 -36 -19q-3 -1 -9 -3.5t-10 -3.5q-11 -3 -24 -3q-7 0 -31 1 q-25 2 -53 35q-15 17 -26 36q-2 2 -7 12q-5 15 -17 40.5t-14 30.5q-38 -34 -85 -53q-1 0 -2.5 -0.5l-1.5 -0.5q6 -20 14.5 -50t22.5 -94.5t12 -93.5q-4 -50 -11.5 -78.5t-25.5 -61.5q-36 -65 -133 -62q-74 3 -103 78q-9 23 -15 47t-10 42.5t-5 44.5t-1.5 40.5t1.5 43t3 38.5 t5 41t5 38v1v2q1 5 1 11q26 221 39 289q3 39 11 121q14 141 107 212q2 2 6 5q12 9 18 13t16.5 10t18.5 8t19 1.5t23 -3.5q31 -8 53.5 -31t29.5 -54q1 -3 3 -8q7 -26 10 -40t3.5 -36t-6.5 -42q-15 -45 -78 -138t-102 -129q15 -19 35.5 -27.5t38.5 -1.5q42 15 67 51 q14 22 27 42l0.5 1.5t1.5 1.5v1l2 3q1 1 7.5 10t15.5 21t13 18q27 36 58 68q20 15 45 15q11 0 18 -8q14 -11 23 -27q11 -23 17 -48q5 -20 12 -40q8 -19 15 -42q3 -11 7.5 -30.5t7.5 -33.5t3 -15q-1 -3 0.5 -5t4.5 -2q5 1 9 8q3 5 8 14q16 26 20 33q0 1 8.5 16t13.5 23 q2 4 10 19q4 8 27 47q6 10 17.5 11.5t19.5 -7.5zM79 479q-11 -59 -7 -85q14 13 33 40.5t38 65t22.5 72t-13.5 61.5q-7 -3 -13 -6t-10.5 -8.5t-7.5 -8.5t-6.5 -10.5t-5 -10.5t-5 -12t-3.5 -11q-15 -43 -22 -87zM56 -190q30 18 41 61t4.5 90.5t-17 86.5t-21.5 59 q-6 -10 -10 -19t-7 -22t-4 -17.5t-4 -21.5l-3 -17q-10 -53 -11 -106v-14t0.5 -15t1.5 -13t3 -15t5.5 -12.5t9 -13.5t12.5 -11zM408 153q1 11 -3 51q-2 16 -9 43t-14 37q-6 7 -15 11q-8 -5 -12 -14q-7 -9 -12 -19q-1 -1 -2 -3q-13 -29 -20 -60q-2 -12 2 -23q3 -8 9.5 -17.5 t20 -21.5t26.5 -12q11 1 19.5 9t9.5 19z" glyph-name="fs.liga" horiz-adv-x="616" unicode="fs"/><glyph d="M852 338v-1t0.5 -3.5t1 -4.5t1 -5.5t1 -6t1 -5.5t0.5 -5t-0.5 -3.5t-1.5 -2.5t-21 -34.5t-40 -67.5t-20 -35q-3 -3 -8.5 -12.5t-9.5 -13.5q-14 -23 -32 -43q-4 -4 -9 -11.5t-8 -9.5q-23 -30 -54 -50q-17 -12 -36 -19q-3 -1 -9 -4t-10 -4q-12 -3 -24 -3q-7 0 -31 2 q-25 1 -54 34q-14 18 -25 37q-2 2 -7 12q-7 19 -16 36q-10 -15 -24 -28q-81 -75 -119 -81q-9 -2 -19 -2q-31 2 -58 19q-17 10 -25 28q-1 5 -5.5 14.5t-6.5 14.5q-4 14 -10 44q-2 22 -1.5 56t2.5 50q1 7 2 16.5t2 15t0 8.5q-1 4 -3 7q-5 0 -9 -6q-3 -6 -14 -29t-14 -28 q-1 -3 -21.5 -59t-25.5 -70q-3 -8 -9.5 -21.5t-8.5 -18.5q-12 -26 -24 -33t-43 -7q-16 -1 -30 3q-19 7 -25 26q-8 23 -4 46q1 6 3 17.5t3 16.5q0 5 2 19q3 54 10 108q3 27 20 165q6 51 13 106q20 161 27 187q14 50 39.5 65.5t75.5 1.5q14 -4 14 -19q1 -19 -1 -37 q-1 -17 -13.5 -109t-15.5 -107q-9 -38 -26 -162q4 6 12 23.5t11 21.5l0.5 1t0.5 2q3 2 20 26q19 26 45 47q14 12 31 18q17 4 34 4q15 0 26 -9q13 -10 22 -22q19 -22 17 -51l-6 -58l-1 -6q0 -4 -0.5 -21t-0.5 -26q-1 -7 -2.5 -21.5t-1.5 -21.5q-1 -21 -1 -40q0 -4 3 -31 q1 -9 7 -9q17 -3 40.5 27.5t39.5 66.5q3 7 8 12q36 65 37 66t7.5 10.5t15.5 21.5t13 17q26 37 58 69q20 15 45 14q11 0 18 -7q14 -12 23 -28q11 -23 17 -47q5 -21 12 -40q8 -20 15 -43q3 -11 7.5 -30t7.5 -33.5t3 -15.5q-1 -2 0.5 -4.5t4.5 -2.5q4 1 9 9q4 6 8 14 q15 25 19 33q1 0 9.5 15.5t12.5 23.5q3 4 11 18q4 8 27 48q6 10 17.5 11t19.5 -8zM576 142q1 11 -3 51q-2 17 -9 43.5t-15 36.5q-5 8 -14 11q-8 -5 -13 -13q-6 -11 -12 -19q-1 -2 -1 -4q-9 -22 -16 -41q0 -1 -1 -4q-3 -7 -4 -14q-1 -12 3 -24q3 -7 9.5 -17t20 -21.5 t25.5 -11.5t20 8t10 19z" glyph-name="hs.liga" horiz-adv-x="783" unicode="hs"/><glyph d="M60 509q-72 -5 -76 51q-2 27 12.5 44t43.5 20l60 -8q14 -4 22.5 -16t7.5 -27q1 -16 -7 -29.5t-22 -19.5q-20 -9 -41 -15zM625 359q1 0 1 -1t0.5 -3t1 -4.5t1 -5.5l1 -6t0.5 -6v-5v-3.5t-1 -2.5t-21 -34.5t-40 -67.5t-20 -35q-3 -3 -8.5 -12t-9.5 -14q-14 -23 -32 -43 q-4 -3 -9 -10.5t-8 -10.5q-23 -29 -54 -50q-17 -12 -36 -19q-3 -1 -9 -4t-10 -4q-12 -2 -24 -3q-7 0 -32 1.5t-53 34.5q-14 18 -26 37l-6 12q-10 26 -22 51q-9 -19 -22 -36q-49 -64 -58 -71q-46 -36 -82.5 -33t-71.5 48q-3 4 -12 15q-25 33 -30 74q-4 28 9.5 123t27.5 135 q17 49 43 62.5t76 -2.5q14 -5 13 -19q-1 -19 -3 -38q-3 -15 -21.5 -104t-20.5 -105q-6 -41 12 -64q5 -7 13.5 -7.5t15.5 4.5q19 17 50 96q26 63 63 120l2 3q1 0 1 1t7 10t16 21t13 18q10 13 30 38t27 30q21 15 46 14q10 0 18 -7q14 -12 23 -27q10 -23 17 -48q5 -20 12 -40 q8 -20 14 -42q4 -11 8.5 -30.5t7 -33.5t2.5 -15q0 -3 1.5 -5t4.5 -3q4 1 9 9l8 14q15 26 19 33q20 34 22.5 39t9.5 18q5 9 28 48q6 10 17.5 11t18.5 -8zM349 164q2 10 -2 50q-2 17 -9.5 43.5t-14.5 37.5q-5 7 -14 11q-8 -6 -13 -14q-6 -9 -12 -19q-1 -2 -2 -3 q-12 -29 -20 -60q-1 -12 2 -23q4 -8 10.5 -18t19.5 -21.5t26 -11.5q12 1 20 8.5t9 19.5z" glyph-name="is.liga" horiz-adv-x="557" unicode="is"/><glyph d="M-18 489q-12 10 -16 25.5t1 30.5q3 14 14.5 23t26.5 10l59 -8q28 -11 37.5 -31t0.5 -46q-19 -52 -87 -29q-19 12 -36 25zM631 349v-1.5t0.5 -3l1 -5t1 -5.5l1 -6t1 -5.5t0.5 -5t-0.5 -4t-1.5 -1.5q-1 -1 -21 -34.5t-40 -67.5t-20 -35q-3 -4 -8.5 -13t-9.5 -14 q-14 -22 -32 -43q-4 -3 -9 -10.5t-8 -10.5q-23 -29 -54 -50q-17 -11 -36 -19q-3 0 -9 -3t-10 -4q-12 -3 -24 -3q-7 0 -31 1q-25 2 -54 35q-14 17 -25 36q-2 3 -7 12q-7 21 -17 41q-19 -26 -46 -44q-19 -15 -62 -43t-53 -27q0 -58 -2 -84q-11 -145 -108 -253q-40 -45 -93 -28 q-80 24 -88 74q-11 58 5 115q13 35 34 64q2 3 6 8.5t6 7.5q40 42 63 62q4 2 14 10.5t14.5 12.5t11 11.5t11.5 16.5q4 7 7 15q4 15 7.5 41.5t6 53.5t2.5 28q2 17 8.5 103t7.5 100q2 17 5 33q1 6 11.5 10.5t19.5 4.5q48 4 65 -20.5t21 -81.5q2 -77 -8 -154q6 5 29 35.5 t54.5 73t48.5 63.5v1q1 1 1.5 2l0.5 1q1 1 7.5 10t15.5 21t13 18q10 14 30.5 38.5t27.5 29.5q20 15 45 15q11 0 18 -8q14 -11 23 -27q11 -23 17 -48q5 -20 12 -40q8 -19 15 -42q3 -11 7.5 -30.5t7.5 -33.5t3 -15q-1 -3 0.5 -5t4.5 -2q5 1 9 8q3 5 8 14q16 26 20 33 q0 1 8.5 16t13.5 23q2 5 10 19q5 9 27 47q6 10 17.5 11.5t19.5 -7.5zM-53 -123q8 30 2 60q-12 -9 -26.5 -27.5t-28.5 -43.5t-15.5 -49t14.5 -44q6 1 11 3t9 5.5t6.5 5.5t5 7.5t3 7t3 8t3.5 7.5q10 29 13 60zM355 153q1 10 -3 51q-2 16 -9 43t-14 37q-6 7 -15 11 q-8 -5 -12 -14q-7 -10 -12 -19q-1 -1 -2 -3q-13 -29 -20 -60q-2 -12 2 -23q3 -8 9.5 -17.5t20 -21.5t26.5 -12q11 1 19.5 9t9.5 19z" glyph-name="js.liga" horiz-adv-x="562" unicode="js"/><glyph d="M812 349q1 -1 1 -1.5t0.5 -3l1 -5t1 -5.5l1 -6t0.5 -5.5v-5v-4t-1 -1.5q-1 -1 -21 -34.5t-40 -67.5t-21 -35q-2 -4 -7.5 -13t-9.5 -14q-14 -22 -32 -43q-4 -3 -9 -10.5t-8 -10.5q-23 -29 -54 -50q-17 -11 -36 -19q-3 0 -9 -3t-10 -4q-12 -3 -24 -3q-7 0 -32 1 q-25 2 -53 35q-14 17 -26 36q-1 2 -7 12q-6 19 -15 38q-17 -26 -39 -48q-84 -71 -122 -76q-10 -2 -19 -1h-0.5h-1.5q-18 -2 -36 3q-19 5 -31 20l-10.5 10.5t-10.5 12.5q-8 11 -25 38q-10 17 -17 36v-1q-10 -27 -12.5 -35t-9.5 -22l-9 -18q-11 -27 -23 -33.5t-44 -7.5 q-15 -1 -30 4q-19 7 -25 26q-7 22 -3 46q0 6 2.5 17.5t2.5 16.5q1 5 2 19q4 54 10 108q3 27 20 165q6 53 13 105q20 161 28 187q14 50 39.5 66t74.5 2q15 -4 15 -19q0 -19 -1 -38q-2 -16 -14 -108.5t-16 -107.5q-8 -37 -25 -160l1.5 2.5t2.5 4.5l6.5 13t7 15t4.5 8 q1 1 1.5 2l0.5 1q2 3 19 26q20 27 46 48q13 12 31 18q17 4 34 4q14 0 26 -10q12 -9 22 -22q19 -22 16 -51q-69 2 -139 -108q-4 -5 -5 -8l-2 -3q1 -4 2 -4q2 -7 6 -20.5t7 -20.5q7 -21 14 -38q6 -14 14 -27q11 -17 24 -23t19 -4.5t9 3.5q21 10 47 33t37 48q1 1 11 24.5 t16 35.5v1l2 3q4 10 5 12q2 3 5 4q17 28 26 41q0 1 7 10t16 21t13 18q10 14 30 38.5t27 29.5q21 15 46 15q10 0 18 -8q14 -11 23 -27q10 -23 17 -48q5 -20 12 -40q8 -19 15 -42q3 -11 7.5 -30.5t7 -33.5t2.5 -15q0 -3 1.5 -5t4.5 -2q4 1 9 8l8 14q16 28 19 33q20 36 22 39 q3 5 10 19q3 5 28 47q6 10 17.5 11.5t18.5 -7.5zM536 153q2 10 -2 51q-2 16 -9.5 43t-14.5 37q-5 7 -14 11q-8 -5 -13 -14q-6 -9 -12 -19q-1 -1 -2 -3q-12 -29 -20 -60q-1 -12 2 -23q4 -8 10.5 -17.5t19.5 -21.5t26 -12q12 1 20 9t9 19z" glyph-name="ks.liga" horiz-adv-x="744" unicode="ks"/><glyph d="M712 349v-1.5t0.5 -3l1 -5t1 -5.5l1 -6t1 -5.5t0.5 -5t-0.5 -4l-0.5 -1.5q-1 -1 -21 -34.5t-40.5 -67.5t-20.5 -35q-2 -3 -8 -12.5t-9 -14.5q-15 -22 -33 -43q-3 -3 -8.5 -10.5t-7.5 -10.5q-24 -29 -55 -50q-17 -11 -36 -18q-3 -1 -9 -4t-9 -4q-12 -3 -24 -3q-7 0 -32 1 q-25 2 -53 35q-15 17 -26 36q-1 2 -7 12q-6 18 -14 35q-26 -48 -64 -85q-38 -36 -90.5 -38.5t-92.5 30.5q-47 38 -62 66q-24 44 -31 95q-2 16 -6.5 48t-7.5 57.5t-5 48.5q-12 203 81 363q18 31 42.5 44t63.5 13q36 0 64.5 -27.5t43 -67.5t21 -78t4.5 -66 q-3 -61 -49.5 -161.5t-115.5 -160.5q18 -34 40.5 -47t46.5 4q4 5 12.5 16t19 28t19.5 31.5t21.5 34.5l17.5 28q10 19 24 42q1 1 8 10t15.5 21t13.5 18q9 14 29.5 38.5t27.5 29.5q20 15 45 15q11 0 19 -8q13 -11 22 -27q11 -23 17 -48q5 -20 12 -40q8 -19 15 -42 q3 -11 7.5 -30.5t7.5 -33.5t3 -15q0 -3 1.5 -5t3.5 -2q5 1 9 8l8 14q16 27 20 33q19 34 22 39q2 4 10 19q5 8 27 47q6 10 17.5 11.5t19.5 -7.5zM60 431q-2 -20 -1 -48.5t8 -52.5q14 19 30 55t30 81t11.5 89.5t-25.5 68.5q-8 -4 -14 -9t-10 -11.5t-7 -11t-5.5 -14t-3.5 -13 t-3 -15t-2 -12.5q-8 -53 -8 -107zM436 153q1 10 -3 51q-2 16 -9 43t-14 37q-6 7 -15 11q-7 -5 -12 -14q-6 -9 -12 -19q-1 -1 -2 -3q-13 -29 -20 -60q-2 -12 2 -23q4 -8 10 -17.5t19.5 -21.5t26.5 -12q11 1 19.5 9t9.5 19z" glyph-name="ls.liga" horiz-adv-x="643" unicode="ls"/><glyph d="M1123 349q0 -1 0.5 -1.5t1 -3l1 -5t1 -5.5l1 -6t0.5 -5.5v-5v-4t-1 -1.5q-1 -1 -21 -34.5t-40 -67.5t-21 -35q-2 -3 -8 -12.5t-9 -14.5q-15 -22 -33 -43q-3 -3 -8.5 -10.5t-7.5 -10.5q-23 -29 -55 -50q-16 -11 -36 -18q-2 -1 -8.5 -4t-9.5 -4q-12 -3 -24 -3q-7 0 -32 1 q-25 2 -53 35q-14 17 -26 36q-1 3 -7 12q-6 18 -14 35q-13 -19 -29 -36q-82 -74 -120 -81q-9 -2 -18 -1q-32 2 -59 18q-17 10 -24 29q-2 4 -6 13.5t-6 15.5q-4 14 -10 44q-3 22 -2 56t3 50q0 6 1.5 16t2 15.5t0.5 7.5q-1 4 -4 8q-5 0 -8 -7q-4 -6 -15 -29t-13 -27t-22.5 -60 t-24.5 -69q-3 -8 -10 -22l-9 -18q-10 -27 -37 -37q-15 -4 -30 -4t-30 4t-27 16q-9 12 -13 27q-1 4 -5.5 13.5t-6.5 15.5q-4 14 -10 44q-3 22 -2 56t3 49q0 7 1.5 17t2 15.5t0.5 7.5q-1 4 -3 8q-6 0 -9 -7q-3 -6 -14 -29t-14 -27q-2 -4 -22.5 -60t-24.5 -69q-3 -9 -10 -22.5 t-9 -18.5q-11 -26 -39 -33l-4 -2q-11 -7 -24 -5q-15 0 -30 4q-19 6 -24 26q-8 22 -4 45q1 7 3 18.5t2 16.5q1 5 2 18q2 15 3 23q5 27 4 55q-1 35 -1 41q1 82 -18 161q-4 13 8 19q14 9 38 20q17 10 36 5q11 -3 21 -9q15 -11 23 -27q16 -33 16 -70q-1 -13 3 -27q3 -6 9 4.5 t14 27.5t11 21q0 1 0.5 2l0.5 1q3 3 19 26q20 27 46 48q14 12 31 17t34 5q16 -2 31 -9q14 -7 25 -17q13 -12 20 -29q16 -33 16 -70q-1 -13 3 -26q2 -7 8.5 3.5t14.5 27.5t10 21q1 1 1.5 2l0.5 1q2 3 19 26q20 27 46 48q13 12 31 18q17 4 34 4q14 -1 26 -10t22 -22 q19 -22 16 -51q-3 -28 -6 -57v-3.5v-3.5q0 -4 -0.5 -20.5t-1.5 -25.5q0 -7 -1.5 -21.5t-2.5 -21.5q-1 -22 -1 -41q1 -4 3 -30q1 -9 7 -10q20 -3 35 8.5t28 42.5q4 10 28 58.5t36 68.5l1 2q1 1 1 2q1 1 8 10t16 21t13 18q10 14 30 38.5t27 29.5q20 15 46 15q10 0 18 -8 q14 -11 23 -27q10 -23 16 -48q5 -20 13 -40q8 -19 14 -42q4 -11 8 -30.5t7 -33.5t3 -15q0 -3 1.5 -5t4.5 -2q4 1 8 8q5 7 9 14q15 27 19 33q0 1 9 16t13 23q2 4 10 19q5 8 28 47q5 10 17 11.5t19 -7.5zM847 153q2 10 -3 51q-1 16 -8.5 43t-14.5 37q-6 7 -15 11 q-7 -5 -12 -14q-6 -9 -12 -19q-1 -1 -2 -3q-12 -29 -20 -60q-1 -12 2 -23q4 -8 10.5 -17.5t19.5 -21.5t26 -12q11 1 19.5 9t9.5 19z" glyph-name="ms.liga" horiz-adv-x="1055" unicode="ms"/><glyph d="M872 349v-1.5t0.5 -3l1 -5t1 -5.5l1 -6t1 -5.5t0.5 -5t-0.5 -4t-1.5 -1.5q-1 -1 -21 -34.5t-40 -67.5t-20 -35q-3 -4 -8.5 -13t-9.5 -14q-14 -22 -32 -43q-4 -3 -9 -10.5t-8 -10.5q-23 -29 -54 -50q-17 -11 -36 -18q-3 -1 -9 -4t-10 -4q-12 -3 -24 -3q-7 0 -31 1 q-25 2 -54 35q-14 17 -25 36q-2 3 -7 12q-7 20 -16 38q-24 -35 -63 -69t-69 -48q-19 -9 -66.5 -9.5t-68.5 11.5q-19 12 -35 29q-10 12 -17 25q-9 18 -14 36q-6 24 -6 48v27q1 11 3 21q5 20 10 37q0 1 7 20q8 21 10 25q6 18 9 28q4 12 -7 19q-3 2 -7 3q-10 -1 -21 -3 q-11 -3 -17 -13q-2 -6 -29.5 -67.5t-32.5 -69.5q-17 -35 -44 -64q-9 -10 -21 -17q-7 -5 -14.5 -2t-9.5 11l-19 80q-2 11 6.5 19.5t17 21t16 27t14 30.5t12.5 33t11 31.5t9 30t6.5 25t4.5 18.5t2 10q1 2 2.5 7.5t1.5 7.5q6 16 23 19q24 1 30 1q12 1 20 -8q8 -8 12 -8.5 t13 4.5q15 7 31 10q19 5 39 7q1 0 35 2q13 1 17 2q18 1 35 -7q14 -6 19 -21q7 -20 3 -40q-4 -18 -12 -34q-3 -7 -10 -22t-10 -23q-3 -6 -6.5 -19t-4.5 -16q-6 -22 -14 -58q-7 -30 -8 -61q-1 -21 4 -42q41 -56 154 136q22 37 24 39q1 1 2 1q15 23 22 34q1 1 7.5 10t15.5 21 t13 18q26 36 57 68q21 15 46 15q11 0 18 -8q14 -11 23 -27q11 -23 17 -48q5 -20 12 -40q8 -19 15 -42q3 -11 7.5 -30.5t7.5 -33.5t3 -15q-1 -3 0.5 -5t4.5 -2q4 1 9 8q3 5 8 14q15 26 19 33q1 1 9.5 16t12.5 23q3 4 11 19q4 8 27 47q6 10 17.5 11.5t19.5 -7.5zM596 153 q1 10 -3 51q-2 16 -9 43t-15 37q-5 7 -14 11q-8 -5 -13 -14q-6 -9 -11 -19q-2 -1 -2 -3q-13 -29 -21 -60q-1 -12 3 -23q3 -8 9.5 -17.5t20 -21.5t25.5 -12q12 1 20 9t10 19z" glyph-name="rs.liga" horiz-adv-x="803" unicode="rs"/><glyph d="M873 359l0.5 -1t1 -3t0.5 -4.5t1 -5.5t1 -6t0.5 -6t0.5 -5v-3.5t-1 -2.5t-21 -34.5t-40 -67.5t-21 -35l-8 -12t-9 -14q-15 -23 -33 -43q-3 -3 -8.5 -10.5t-7.5 -10.5q-24 -29 -55 -50q-17 -11 -36 -19q-2 -1 -8.5 -4t-9.5 -4q-12 -2 -24 -3q-7 0 -32 1.5t-53 34.5 q-14 18 -26 37q-1 2 -7 12q-9 27 -23 53l-8 -16q-10 -20 -24 -37q-52 -60 -62 -67q-47 -33 -83 -28t-69 51l-11 14q-29 -27 -63 -44t-67.5 -20t-56.5 16h-1h-1q-5 5 -13 12q-30 27 -40.5 82t-5 113.5t15.5 113t20 89.5l11 36q23 6 47 7q44 -1 57.5 -16.5t8.5 -58.5 q-3 -36 -10.5 -101t-10.5 -88q-2 -16 -3 -54q0 -20 15 -20.5t34 14.5q22 20 38 45q5 57 15.5 121.5t22.5 91.5q19 48 45.5 60.5t75.5 -6.5q14 -5 12 -20q-1 -18 -5 -37q-15 -72 -42 -215q-8 -40 9 -64q5 -7 13.5 -8t15.5 4q20 15 55 92q38 84 48 102q0 1 1 2q2 4 10.5 16 t11.5 18q1 1 8 10t16 21t13 18q10 13 30 38t27 30q20 15 46 14q10 0 18 -7q14 -12 23 -27q10 -23 16 -48q5 -20 13 -40q7 -20 14 -42q4 -11 8 -30.5t7 -33.5t3 -15q0 -3 1.5 -5t3.5 -3q5 1 9 9q4 7 9 14q15 26 19 33q19 34 22 39q2 4 10 18q5 9 27 48q6 10 18 11t19 -8z M597 164q1 10 -3 50q-2 17 -9 43.5t-14 37.5q-6 7 -15 11q-7 -6 -12 -14q-6 -9 -12 -19q-1 -2 -2 -3q-12 -29 -20 -60q-2 -12 2 -23q4 -8 10 -18t19.5 -21.5t26.5 -11.5q11 1 19.5 8.5t9.5 19.5z" glyph-name="us.liga" horiz-adv-x="805" unicode="us"/><glyph d="M845 346l4 -37q-2 -1 -21.5 -34.5t-40 -67.5t-20.5 -35l-8 -12t-9 -14q-15 -23 -33 -43q-3 -3 -8.5 -10.5t-7.5 -10.5q-24 -29 -55 -50q-17 -11 -36 -19q-3 -1 -9 -4t-9 -4q-12 -2 -25 -3q-6 0 -31 2q-14 1 -39 13t-34 22q-31 31 -56.5 88t-18.5 113q1 7 3 13 q-52 13 -96 43l-1 -3l-1 0.5l-1 0.5q-64 -120 -83 -159q-23 -46 -40 -95q-11 -29 -20.5 -34t-53.5 -6q-16 0 -26.5 4t-16 14t-7.5 17t-4.5 23.5t-3.5 22.5q-17 89 -66 274q-3 13 -8.5 27t-13.5 32l-12 27q17 30 52 35q34 6 62.5 -7t34.5 -39q15 -65 23 -130q11 -54 13 -109 q25 41 48 86q12 25 41 97q-4 38 26 70.5t55 25.5q20 -5 39 -12q32 -14 22 -44q-10 -13 -17 -28q60 -55 120 -12q2 2 4 1q6 8 10 14q9 13 29.5 38t27.5 30q20 15 45 14q11 0 19 -7q13 -12 22 -28q11 -23 17 -47q5 -20 12 -40q8 -20 15 -42q3 -11 7.5 -30.5t7.5 -34l3 -14.5 q0 -3 1.5 -5t3.5 -3q5 1 9 9q3 5 8 14q16 26 20 33q0 1 8.5 16t13.5 23q2 4 10 18q5 9 27 48q6 10 17.5 11t19.5 -8zM569 150q1 11 -3 51q-2 17 -9 43.5t-14 36.5q-6 8 -15 12q-7 -6 -12 -14q-6 -10 -12 -19l-2 -4q-13 -29 -20 -59q-2 -12 2 -24q4 -7 10 -17t19.5 -21.5 t26.5 -11.5q11 0 19.5 8t9.5 19z" glyph-name="vs.liga" horiz-adv-x="776" unicode="vs"/><glyph d="M1030 346l4 -37q-1 -1 -21 -34.5t-40 -67.5t-21 -35l-8 -12t-9 -14q-15 -23 -33 -43q-3 -3 -8.5 -10.5t-7.5 -10.5q-24 -29 -55 -50q-17 -12 -36 -19q-3 -1 -9 -4t-9 -4q-12 -2 -24 -3q-7 0 -32 2q-14 1 -39 13t-34 22q-31 30 -56.5 87t-18.5 114q1 9 4 16q-34 11 -63 29 l-1 -2q-18 -42 -49.5 -107.5t-37.5 -76.5q-1 -1 -1 -3q-2 -3 -16 -25q-17 -27 -41 -48q-12 -12 -29 -18q-16 -4 -34 -4q-16 3 -32 9q-14 7 -26 18q-15 11 -24 28q-19 32 -24 70q-1 13 -7 26q-3 8 -11 -11q-2 -6 -7 -20q-6 -17 -9 -21q0 -1 -0.5 -2l-0.5 -1q-2 -3 -16 -26 q-17 -27 -41 -47q-12 -12 -28 -18q-17 -4 -34 -4q-15 1 -27 10q-14 9 -25 22q-20 22 -28 51q-4 32 -3 63q-2 25 -6 90q-4 76 -6 77q-1 10 -5 27t-6.5 30t-5.5 29t-3 28t2 22.5t8 16t17 6.5h20t26 -1q12 -3 21 -10q19 -10 28 -28q3 -7 11 -24q8 -21 6 -66q0 -13 1.5 -44.5 t1.5 -33.5q1 -32 5 -63v-6.5t0.5 -10.5t3 -9.5t6.5 -4.5q3 0 5.5 1t4.5 4.5t3.5 6t3.5 8.5l3 9q13 29 22 60q2 13 13.5 52t12.5 45q2 8 7.5 22t6.5 18q7 27 33 37l30 4q35 1 47 -13q5 -5 10 -21.5t7 -26.5q1 -7 5 -45.5t8.5 -73t6.5 -46.5q4 -21 7 -26.5t13 -6.5t16 12 q1 4 12 26t17 37q16 38 26 77q-22 32 -13.5 62.5t32 53t42.5 21.5l1 -1q30 3 60 -3q19 -7 27 -26q3 -5 5 -11q-1 -7 -3 -14q-2 -13 -7 -28q0 -4 -2 -8q46 -34 92 -8q10 12 14 18q26 36 57 68q20 15 45 14q11 0 19 -7q13 -12 22 -28q11 -23 17 -47q5 -20 12 -40q8 -20 15 -42 q3 -11 7.5 -30.5t7.5 -34l3 -14.5q0 -3 1.5 -5t3.5 -3q5 1 9 9l8 14q16 27 20 33q0 1 9 16t13 23q2 4 10 18q3 6 27 48q6 10 17.5 11t19.5 -8zM754 150q1 11 -3 51q-2 17 -9 43.5t-14 36.5q-6 8 -15 12q-7 -6 -12 -14q-6 -10 -12 -19l-2 -4q-13 -29 -20 -59q-2 -12 2 -24 q4 -7 10 -17t19.5 -21.5t26.5 -11.5q11 0 19.5 8t9.5 19z" glyph-name="ws.liga" horiz-adv-x="961" unicode="ws"/><glyph d="M823 349v-1.5t0.5 -3l1 -5t1 -5.5l1 -6t1 -5.5t0.5 -5t-0.5 -4t-1.5 -1.5q-1 -1 -21 -34.5t-40 -67.5t-20 -35q-3 -4 -8.5 -13t-9.5 -14q-14 -22 -32 -43q-4 -3 -9 -10.5t-8 -10.5q-23 -29 -54 -50q-17 -11 -36 -18q-3 -1 -9 -4t-10 -4q-12 -3 -24 -3q-7 0 -31 1 q-25 2 -54 35q-14 17 -25 36q-2 2 -7 12q-6 18 -15 36q-14 -23 -33 -42q-63 -57 -98 -74l-3 -1q-1 0 -3 -1q-1 0 -1.5 -0.5t-1.5 -0.5l-1 -1q-4 -1 -9 -2l-1 -0.5l-1 -0.5q-3 0 -7 -1h-1h-7q-34 0 -62 18q-14 8 -22 22q-11 14 -19 30q-7 13 -47 76q-1 -2 -2.5 -4.5 t-3.5 -4.5q-25 -40 -45 -82q-22 -44 -35 -48q-7 -4 -21.5 -5t-31.5 2.5t-30 16t-14 33.5q16 21 120 189q-31 47 -62 93q-9 12 -19.5 25t-25.5 29t-22 24q4 36 36 53q29 17 62 12t49 -30q30 -46 51 -86q27 50 40 72q20 33 69 43q22 -7 42 -16q32 -16 23 -42l-85 -133 q-12 -17 -23 -35q3 -5 50 -78l1 -2q14 -22 22 -34q11 -12 28 -12t40.5 30.5t38.5 66.5q3 5 25 47t25 46q0 1 1 2q9 18 12 23q1 1 7.5 10t15.5 21t13 18q10 14 30.5 38.5t27.5 29.5q20 15 45 15q11 0 18 -8q14 -11 23 -27q11 -23 17 -48q5 -20 12 -40q8 -19 15 -42 q3 -11 7.5 -30.5t7.5 -33.5t3 -15q-1 -3 0.5 -5t4.5 -2q5 1 9 8l8 14q16 27 19 33q1 1 9.5 16t13.5 23q2 4 10 19q3 6 27 47q6 10 17.5 11.5t19.5 -7.5zM547 153q1 10 -3 51q-2 16 -9 43t-15 37q-5 7 -14 11q-8 -5 -13 -14q-6 -10 -11 -19q-2 -1 -2 -3q-13 -29 -21 -60 q-1 -12 3 -23q3 -8 9.5 -17.5t20 -21.5t26.5 -12q11 1 19.5 9t9.5 19z" glyph-name="xs.liga" horiz-adv-x="754" unicode="xs"/><glyph d="M853 349v-1.5t0.5 -3l1 -5t1 -5.5l1 -6t0.5 -5.5v-5v-4t-1 -1.5q-1 -1 -21 -34.5t-40 -67.5t-21 -35q-2 -3 -7.5 -12.5t-9.5 -14.5q-15 -22 -33 -43q-3 -3 -8 -10.5t-8 -10.5q-23 -29 -55 -50q-16 -11 -36 -18q-2 -1 -8.5 -4t-9.5 -4q-12 -3 -24 -3q-7 0 -32 1 q-25 2 -53 35q-14 17 -26 36q-1 2 -7 12q-9 28 -23 54q-6 -9 -7 -9q-3 -5 -19 -20.5t-20 -21.5q-5 -9 -56 -37t-61 -26q-1 -70 -3 -88q-12 -132 -107 -223q-18 -19 -43.5 -25.5t-49.5 1.5q-70 18 -79 65q-11 51 6 101q58 112 96 141q14 11 24 19q-71 -30 -111 1l-2 1 q-6 5 -13 11q-30 28 -40.5 82.5t-5 113t15.5 113.5t20 90l11 35q23 6 47 8q44 -2 57.5 -17t8.5 -59q-3 -35 -10.5 -100t-10.5 -89q-2 -15 -3 -54q0 -19 15 -20t34 14q22 20 38 45q5 57 15.5 121.5t22.5 92.5q19 47 45.5 59.5t75.5 -6.5q14 -5 12 -19q-1 -19 -5 -37 q-14 -70 -42 -216q-3 -16 -1 -32q19 5 56.5 50t60 79t32.5 51q1 2 2 3l1 1q0 1 7 10t16 21t13 18q10 14 30 38.5t27 29.5q21 15 46 15q10 0 18 -8q14 -11 23 -27q10 -23 17 -48q5 -20 12 -40q8 -19 14 -42q4 -11 8.5 -30.5t7 -33.5t2.5 -15q0 -3 1.5 -5t4.5 -2q4 1 9 8l8 14 q16 27 19 33q20 34 22.5 39l9.5 19q5 8 28 47q6 10 17.5 11.5t18.5 -7.5zM157 -117q7 23 1 46q-10 -6 -23.5 -20.5t-26 -34.5t-13.5 -39t14 -35q5 1 9.5 3t7.5 4.5t5.5 4t4.5 5.5t3 5.5t3 6.5t3 6q9 23 12 48zM576 153q2 10 -2 51q-2 16 -9.5 43t-14.5 37q-5 7 -14 11 q-8 -5 -13 -14q-6 -9 -12 -19q-1 -1 -1 -3q-13 -29 -21 -60q-1 -12 2 -23q4 -8 10.5 -17.5t19.5 -21.5t26 -12q12 1 20 9t9 19z" glyph-name="ys.liga" horiz-adv-x="784" unicode="ys"/><glyph d="M980 349q0 -1 0.5 -1.5t1 -3t0.5 -5t1 -5.5t1 -6t0.5 -5.5t0.5 -5t-0.5 -4l-0.5 -1.5q-2 -1 -21.5 -34.5t-40 -67.5t-20.5 -35q-2 -4 -8 -13t-9 -14q-15 -22 -33 -43q-3 -3 -8.5 -10.5t-7.5 -10.5q-24 -29 -55 -50q-17 -11 -36 -19q-3 0 -9 -3t-9 -4q-12 -3 -25 -3 q-6 0 -31 1q-25 2 -53 35q-15 17 -26 36q-2 3 -7 12q-11 30 -26 59q-56 -57 -93 -74q-1 0 -4.5 -2t-7.5 -3.5t-8 -3.5q37 -115 -49 -236q-52 -73 -165 -111q-34 -13 -111 -11t-95 22q-28 33 -36 61t1 59q10 33 40.5 73.5t58.5 64.5q15 12 53.5 35.5t70.5 41.5l32 18 q-59 16 -110 -20q-21 -16 -56 18q-34 34 -29 62q3 14 19 19q18 6 74 28q30 11 63 16q18 14 31 33q14 20 6.5 63.5t-27.5 58.5q-25 21 -68.5 15t-67.5 -38q-11 -13 -6 -30q1 -3 -9 -12t-27.5 -16.5t-33.5 -6.5q-24 1 -32 15.5t-8 52.5q0 35 28.5 74t77.5 54q1 0 6 1 q167 55 243 -81q52 -106 9 -194q36 -15 64 -43q18 6 42 25t43 41q1 1 23 28.5t29 35.5v1q17 25 38 60q1 1 8 10t15.5 21t13.5 18q26 36 57 68q20 15 45 15q11 0 19 -8q13 -11 22 -27q11 -23 17 -48q5 -20 12 -40q8 -19 15 -42q3 -11 7.5 -30.5t7.5 -33.5t3 -15q0 -3 1.5 -5 t3.5 -2q5 1 9 8q3 5 9 14q14 25 19 33q0 1 9 16t13 23q3 5 10 19q3 6 27 47q6 10 18 11.5t19 -7.5zM268 -134q21 17 49 63.5t42 80.5q-1 2 -1 4q-21 -5 -51 -17.5t-65.5 -33t-64.5 -44.5t-47 -55.5t-14 -62.5q31 -7 75.5 16t76.5 49zM704 153q1 10 -3 51q-2 16 -9 43t-14 37 q-6 7 -15 11q-7 -5 -12 -14q-7 -10 -12 -19q-1 -1 -2 -3q-13 -29 -20 -60q-2 -12 2 -23q4 -8 10 -17.5t19.5 -21.5t26.5 -12q11 1 19.5 9t9.5 19z" glyph-name="zs.liga" horiz-adv-x="911" unicode="zs"/><glyph d="M738 347v-1.5t0.5 -3l1 -5t1 -5.5l1 -6l1 -6t0.5 -5t-0.5 -3.5t-0.5 -2.5q-2 0 -22 -33.5t-40 -68l-20 -34.5q-3 -4 -8.5 -13t-9.5 -14q-14 -23 -32 -43q-4 -3 -9 -10.5t-8 -10.5q-23 -29 -54 -50q-17 -11 -36 -19q-3 -1 -9 -4t-10 -3q-12 -3 -24 -3q-6 -1 -31 1t-54 35 q-14 17 -25 36q-2 2 -7 12q-7 20 -16 38l-1 -1.5t-2 -2.5q-5 -8 -13 -18t-12.5 -14.5t-17 -16t-14.5 -14.5q-10 -8 -22 -15q-14 -10 -30 -17q-40 -17 -44 -18q-6 -2 -17.5 -4t-16.5 -3q-22 -3 -45 1q-13 2 -26 5q-18 4 -35 13q-4 2 -7 5q-17 10 -32 23q-36 35 -52 73t-12 91 q0 23 3 45q2 9 5.5 27t5.5 27q8 36 30 67q3 5 9.5 15.5t10.5 16.5q16 24 41 39q1 0 10.5 5t15.5 7q11 5 23 7q17 3 34 3q10 0 19 -2q13 -2 36 -8q6 -1 11 -4q26 -13 47 -34q19 -23 18 -53q-1 -18 -7 -36q-1 -1 -4.5 -13t-5.5 -18q-6 -16 -16 -35q-2 -4 -15 -29q-2 -3 -3 -5 l-24 -28q-11 -12 -24 -22q-2 -2 -36 -29l-25 -20q0 -1 -1 -2q5 -9 15 -8q2 0 41 3q5 0 5 1q3 2 11 5.5t12 6.5q2 2 7 5t7 5q16 13 31 28q12 14 23 29q4 5 8 11q17 23 19 27t21 35l2 4q1 1 8 11.5l11 16.5t11.5 18.5l10.5 17.5q2 3 21.5 27.5t26.5 31.5q2 3 4 5q18 24 39 44 q20 15 45 15q11 0 18 -8q14 -12 23 -27q11 -23 17 -48q5 -20 12 -40q8 -19 15 -42q3 -11 7.5 -30.5t7.5 -33.5t3 -15q-1 -3 0.5 -5t4.5 -3q5 1 9 9l8 14q15 26 20 33q0 1 8.5 16t13.5 23q2 4 10 19q3 5 27 47q6 10 17.5 11t19.5 -8zM49 225q22 13 39 33q2 3 11.5 16.5 t14.5 22.5q12 19 10 42q0 11 -18 16q-4 1 -8 1q-9 -5 -16 -12q-12 -13 -19 -29q-2 -5 -7 -15.5t-7.5 -18t-2.5 -16.5q-2 -20 3 -40zM462 151q1 10 -3 50q-2 17 -9 44t-14 37q-6 7 -15 11q-8 -6 -12 -14q-7 -10 -12 -19q-1 -1 -2 -3q-13 -29 -20 -60q-2 -12 2 -23 q3 -8 9.5 -18t20 -21.5t26.5 -11.5q11 1 19.5 8.5t9.5 19.5z" glyph-name="es.liga" horiz-adv-x="669" unicode="es"/><glyph d="M821 180q17 -1 23 -22.5t5 -42.5q-4 -63 -93 -106q-19 -9 -66.5 -9t-68.5 12q-19 12 -35 28q-10 12 -17 26q-9 17 -14 36q-6 23 -6 48v27q1 10 3 21q5 20 10 37q0 1 7 19q9 23 10 26l9 27q4 12 -7 20q-3 2 -7 2q-10 0 -21 -2q-11 -3 -17 -14q-2 -5 -29.5 -66.5 t-32.5 -69.5q-17 -36 -44 -65l-10 -12t-20.5 -23.5t-25 -25t-25.5 -20.5q-17 -12 -37 -21q-19 -10 -66.5 -10t-68.5 12q-19 12 -35 28q-10 12 -17 26q-8 17 -14 36q-6 23 -6 48v27q1 10 4 21q4 20 9 37q0 1 7 19q9 23 10 26l9 27q4 12 -6 20q-4 2 -8 2q-10 0 -20 -2 q-12 -3 -17 -14q-3 -5 -30.5 -66.5t-31.5 -69.5q-18 -36 -45 -65q-9 -10 -20 -17q-7 -4 -15 -1t-10 11l-18 79q-3 12 5.5 20t17 20.5t16 27.5t14.5 30.5t12.5 32.5t10.5 32t9 30t6.5 25t5 19l2.5 9q0 3 1.5 8t1.5 8q6 16 23 18q25 2 30 2q12 1 20 -8q8 -8 12 -9t14 5 q14 7 30 10q19 4 39 7q1 0 35 2q13 1 17 1q18 2 35 -6q14 -6 19 -21q7 -20 3 -41q-4 -17 -12 -33q-3 -7 -10 -22t-10 -23q-3 -6 -6 -19t-4 -16q-7 -22 -15 -59q-7 -29 -8 -60q-1 -21 5 -42q2 -4 5.5 -7t8.5 -4.5t7.5 -2t9.5 -1.5t9 -1q18 2 51 40.5t57 85.5q1 4 12.5 25.5 t16.5 32.5t14.5 33.5t17.5 46t15 50.5q0 3 1.5 8t1.5 8q6 16 23 18q25 2 30 2q12 1 20 -8q8 -8 12 -9t14 5q14 7 30 10q19 4 39 7q1 0 35 2q13 1 17 1q18 2 35 -6q14 -6 19 -21q7 -20 3 -41q-4 -17 -12 -33q-3 -7 -10 -22t-10 -23q-3 -6 -6 -19t-4 -16q-7 -22 -15 -59 q-7 -29 -8 -60q-1 -21 4 -42q15 -22 40 -27q23 4 43 16q19 16 35 34q11 12 18 25z" glyph-name="rr.liga" horiz-adv-x="828" unicode="rr"/><glyph d="M1272 180q17 -1 23 -22.5t5 -42.5q-3 -63 -93 -106q-19 -9 -66 -9t-69 12q-19 12 -35 28q-9 12 -17 26q-8 17 -13 36q-7 23 -7 48q0 20 1 27q1 10 3 21q4 20 9 37q0 1 8 19q8 23 9 26q7 18 9 27q4 12 -6 20q-3 2 -7 2q-11 0 -21 -2q-12 -3 -17 -14q-2 -5 -30 -66.5 t-32 -69.5q-17 -36 -44 -65q-1 0 -11 -12t-20 -23.5t-24.5 -25t-25.5 -20.5q-18 -12 -37 -21q-20 -10 -67 -10t-68 12q-20 12 -36 28q-9 12 -16 26q-9 17 -14 36q-6 23 -6 48v27q1 10 3 21q5 20 9 37q1 1 8 19q9 23 9 26q7 18 9 27q4 12 -6 20q-3 2 -7 2q-11 0 -21 -2 q-12 -3 -17 -14q-2 -5 -30 -66.5t-32 -69.5q-8 -17 -19 -33q-5 -10 -5 -11q-10 -16 -18 -33q-3 -6 -10.5 -16.5t-10.5 -16.5q-9 -17 -24 -30q-7 -8 -16 -14q-16 -12 -36 -12q-33 1 -43 3q-30 4 -53 24q-10 10 -18 22q-7 7 -11 17l-8 9l-9 -4q-20 -33 -52 -55 q-26 -17 -57 -22q-15 -2 -29 1q-16 4 -30 12q-23 12 -41 31q-17 16 -26 38q-14 26 -17 55q-3 18 -4 36q1 19 5 36q4 12 8 27q3 9 7 20q8 21 11 28q4 8 9 16q13 23 19 32q12 19 29 42q4 5 9 10q12 16 27 30q18 18 39 30q12 7 24 12t25 8q9 3 15 4t15 1t16 1q8 1 21 -2t17 -8 q11 -11 15 -12q6 4 7 4q16 11 36 12q13 -1 22 -9q2 -1 4 -3t2 -3q8 -6 8 -16q0 -5 1 -15.5t1 -16.5t-4 -38q0 -3 -1 -9t-2 -8q-5 -35 -5 -36q-4 -18 -10 -42q-10 -46 -11 -93q5 -17 21 -23t31 4q5 4 10 9q12 14 22 28q43 71 85 232q1 3 2 8t2 8q6 16 23 18q25 2 29 2 q12 1 21 -8q7 -8 11 -9t14 5q15 7 31 10q19 5 38 7q1 0 36 2q13 1 16 1q19 2 36 -6q14 -6 19 -21q7 -20 3 -41q-4 -17 -12 -33q-3 -7 -10 -22t-11 -23q-2 -6 -5.5 -19t-4.5 -16q-6 -22 -14 -59q-7 -29 -9 -60q0 -21 5 -42q3 -4 6 -7t8 -4.5t7.5 -2t10 -1.5t8.5 -1 q19 2 52 40.5t56 85.5q2 4 13 25.5t16.5 33t15 33.5t17 45.5t14.5 50.5q1 3 2 8t2 8q6 16 22 18q26 2 30 2q12 1 21 -8q7 -8 11 -9t14 5q15 7 31 10q19 5 38 7q1 0 36 2q13 1 16 1q19 2 36 -6q14 -6 19 -21q7 -20 3 -41q-5 -17 -12 -33q-3 -7 -10.5 -22t-10.5 -23 q-3 -6 -6 -19t-4 -16q-7 -22 -14 -59q-8 -29 -9 -60q0 -21 5 -42q14 -22 40 -27q23 4 42 16q19 16 36 34q10 12 17 25zM192 315q4 12 -2 23q-12 17 -31 9q-12 -4 -22 -12q-25 -21 -46 -47l-2 -4q-8 -13 -12 -19q-2 -3 -4 -7q-1 -3 -4.5 -12t-5.5 -14q-7 -16 -8 -34 q-3 -22 1 -43q3 -20 19 -32l12 1q18 20 20 22q13 16 23 35q11 19 23 37q1 1 1 2q2 2 2 3q12 23 17 33q7 12 11 24q6 17 8 35z" glyph-name="arr.liga" horiz-adv-x="1281" unicode="arr"/><glyph d="M1149 180q17 -1 23 -22.5t4 -42.5q-3 -63 -92 -105q-20 -10 -67 -10t-68 12q-20 12 -36 28q-9 12 -16 26q-9 17 -14 36q-6 23 -6 48v27q1 10 3 21q5 20 9 37q1 1 8 19q9 23 10 26l9 27q4 12 -7 20q-3 2 -7 2q-11 0 -21 -2q-12 -3 -17 -14q-2 -5 -30 -66.5t-32 -69.5 q-17 -36 -44 -65l-10 -12t-20.5 -23.5t-25 -25t-25.5 -20.5q-18 -12 -37 -21q-19 -10 -66.5 -10t-68.5 12q-20 12 -35 28q-10 13 -17 26q-9 17 -14 36q-6 23 -6 48v27q1 10 3 21q5 20 10 37q0 1 7 19q9 23 10 26l9 27q4 12 -7 20q-3 2 -7 2q-11 0 -21 -2q-12 -3 -17 -14 q-2 -5 -30 -66.5t-32 -69.5q-10 -21 -24 -40q-6 -11 -10 -17q-5 -8 -13 -17.5t-12.5 -14.5t-17 -16.5t-14.5 -14.5q-10 -8 -22 -15q-14 -10 -30 -17q-40 -17 -44 -18q-6 -2 -17.5 -3.5t-16.5 -2.5q-22 -3 -45 0q-13 2 -26 5q-18 4 -35 14q-4 1 -7 4q-17 10 -32 23 q-36 35 -52 73t-12 91q0 23 3 45q2 9 5.5 27t5.5 27q8 37 30 67q3 5 9.5 16t10.5 16q16 25 41 39q1 0 10.5 5t15.5 7q11 5 23 7q17 4 34 3q10 0 19 -1q13 -3 36 -9q6 -1 11 -4q26 -13 47 -34q19 -23 18 -53q-1 -18 -7 -35q-1 -2 -4.5 -13.5t-5.5 -17.5q-6 -17 -16 -36 q-2 -4 -15 -29q-2 -2 -3 -5l-24 -28q-11 -12 -24 -22q-2 -1 -36 -28q-7 -6 -25 -21q0 -1 -1 -2q1 0 2.5 -8t6 -12t14.5 -4q27 0 59.5 10t53.5 31q32 32 78 126q29 76 50 155q0 3 1.5 8t1.5 8q6 16 23 18q25 2 30 2q12 1 20 -8q8 -8 12 -9t14 5q14 7 30 10q19 5 39 7 q1 0 35 2q13 1 17 1q18 2 35 -6q14 -6 19 -21q7 -20 3 -41q-4 -17 -12 -33q-3 -7 -10 -22t-10 -23q-3 -6 -6.5 -19t-3.5 -16q-7 -22 -15 -59q-7 -29 -8 -60q-1 -21 4 -42q3 -4 6.5 -7t8.5 -4.5t7 -2t9.5 -1.5t8.5 -1q19 2 52 40.5t57 85.5q1 4 12.5 25.5t16.5 33t14.5 33.5 t17.5 45.5t15 50.5q0 3 1.5 8t1.5 8q6 16 23 18q25 2 30 2q12 1 20 -8q8 -8 12 -9t14 5q14 7 30 10q19 5 39 7q1 0 35 2q13 1 17 1q18 2 35 -6q14 -6 19 -21q7 -20 3 -41q-4 -17 -12 -33q-3 -7 -10 -22t-10 -23q-3 -6 -6.5 -19t-3.5 -16q-7 -22 -15 -59q-7 -29 -8 -60 q-1 -21 4 -42q15 -22 40 -27q23 4 43 16q19 16 35 34q10 12 18 25zM49 224q22 13 39 33q2 3 11.5 16.5t14.5 22.5q12 20 10 42q0 11 -18 16q-4 1 -8 1q-9 -4 -16 -11q-12 -14 -19 -30q-2 -5 -7 -15.5t-7.5 -18t-2.5 -16.5q-2 -20 3 -40z" glyph-name="err.liga" horiz-adv-x="1157" unicode="err"/><glyph d="M1021 191q17 -2 23 -23.5t4 -42.5q-3 -63 -92 -105q-19 -9 -66.5 -9.5t-68.5 11.5q-20 12 -35 29q-10 12 -17 25q-9 18 -14 36q-6 24 -6 48v27q1 11 3 21q5 20 10 37q0 1 7 20q9 23 10 25q6 18 9 28q4 12 -7 19q-3 2 -7 3q-10 -1 -21 -3q-11 -3 -17 -13 q-2 -6 -29.5 -67.5t-32.5 -69.5q-17 -35 -44 -65l-10 -11.5t-20.5 -23.5t-25 -25.5t-25.5 -20.5q-17 -12 -37 -21q-19 -9 -66.5 -9.5t-68.5 11.5q-19 12 -35 29q-10 12 -17 25q-9 18 -14 36q-6 24 -6 48v27q1 11 4 21q4 20 9 37q0 1 7 20q9 23 10 25q6 18 9 28q4 12 -7 19 q-3 3 -7 3q-10 -1 -21 -3q-11 -3 -17 -13q-2 -5 -29.5 -67t-31.5 -70l-6 -10q-9 -20 -15 -34q-9 -21 -23 -38q-49 -64 -58 -71q-46 -36 -82.5 -33t-71.5 48q-3 3 -12 15q-25 33 -30 74q-4 27 9.5 122.5t27.5 135.5q17 49 43 62.5t76 -2.5q14 -5 13 -19q-1 -19 -3 -38 q-3 -15 -21.5 -104t-20.5 -106q-6 -40 12 -63q5 -7 13.5 -7.5t15.5 4.5q19 17 50 95q11 29 21 51q33 96 53 172q0 2 1.5 7.5t1.5 7.5q6 16 23 19q25 1 30 1q12 1 20 -8q8 -8 12 -8.5t14 4.5q14 8 30 10q19 5 39 7q1 1 35 3q13 0 17 1q18 1 35 -7q14 -6 19 -21q7 -20 3 -40 q-4 -18 -12 -34q-3 -7 -10 -22t-10 -22t-6.5 -20t-3.5 -16q-7 -22 -15 -58q-7 -30 -8 -61q-1 -21 4 -42q3 -4 6.5 -6.5t8.5 -4.5t7 -2.5t9.5 -1.5t8.5 -1q19 2 52 40.5t57 86.5q1 3 12.5 24.5t16.5 33t14.5 33.5t17.5 46t14 51q1 2 2.5 7.5t1.5 7.5q6 16 23 19q25 1 30 1 q12 1 20 -8q8 -8 12 -8.5t14 4.5q14 8 30 10q19 5 39 7q1 0 35 3q13 0 17 1q18 1 35 -7q14 -6 19 -21q7 -20 3 -40q-4 -18 -12 -34q-3 -7 -10 -22t-10 -22t-6.5 -20t-3.5 -16q-7 -22 -15 -58q-7 -30 -8 -61q-1 -21 4 -42q15 -21 40 -26q23 3 43 15q19 16 35 34q10 12 18 26z M60 499q-35 -2 -54.5 11t-21.5 40t12.5 44t43.5 20l60 -8q14 -4 22.5 -16t7.5 -27q1 -16 -7 -29.5t-22 -19.5q-20 -9 -41 -15z" glyph-name="irr.liga" horiz-adv-x="1029" unicode="irr"/><glyph d="M1221 191q16 -2 22 -23.5t5 -42.5q-3 -63 -92 -105q-20 -9 -67 -9.5t-68 11.5q-20 12 -36 29q-9 12 -16 25q-9 18 -14 36q-6 24 -6 48v27q1 11 3 21q5 20 9 37q1 1 8 20q9 23 9 25q7 18 9 28q4 12 -6 19q-3 3 -7 3q-11 -1 -21 -3q-12 -3 -17 -13q-2 -5 -30 -67t-32 -70 q-17 -35 -44 -64q0 -1 -10.5 -12.5t-20.5 -23.5t-24.5 -25.5t-25.5 -20.5q-18 -12 -37 -21q-20 -9 -67 -9.5t-68 11.5q-20 12 -35 29q-10 12 -17 25q-9 18 -14 36q-6 24 -6 48v27q1 11 3 21q5 20 10 37q0 1 7 20q9 23 10 25q6 18 9 28q4 12 -7 19q-3 3 -7 3q-11 -1 -21 -3 q-12 -2 -17 -13q0 -2 -5 -16.5t-11.5 -28t-17.5 -30t-29.5 -29.5t-41.5 -19q-4 -1 -7 -1q-31 -9 -80 3q-6 -36 -19 -70q-7 -17 -20 -41q-6 -11 -14 -20q-14 -16 -30 -29q-14 -13 -32 -20q-24 -9 -51 -11q-25 -2 -50 1q-11 2 -20 7q-21 12 -39 28q-3 3 -13 12q-6 6 -14 16.5 t-24.5 45.5t-22 71.5t6 91t47.5 107.5q4 5 10 13l9 12q7 8 15 15q10 10 21 17q14 11 31 18q2 0 12 3.5t15 5.5q16 3 32 -1q29 -5 53 -20q17 -9 31 -22t42 -43q5 -5 8 -11q15 -17 20 -65q35 -16 67 3t44 51q6 36 6 73q1 7 4 15q6 16 23 19q25 1 30 1q12 1 20 -8 q7 -8 11.5 -8.5t13.5 4.5q15 8 31 10q19 5 38 7q2 1 36 3q13 0 16 1q19 1 36 -7q14 -6 19 -21q7 -20 3 -40q-4 -18 -12 -34q-3 -7 -10 -22t-11 -22q-2 -7 -5.5 -20t-4.5 -16q-6 -22 -14 -58q-7 -30 -9 -61q0 -21 5 -42q3 -4 6 -6.5t8.5 -4.5t7.5 -2.5t9.5 -1.5t8.5 -1 q19 2 52 40.5t56 86.5q2 3 13 24.5t16.5 33t15 33.5t17 46t14.5 51q1 2 2 7.5t2 7.5q6 16 23 19q25 1 29 1q13 1 21 -8q7 -8 11.5 -8.5t13.5 4.5q15 8 31 10q19 5 38 7q2 0 36 3q13 0 16 1q19 1 36 -7q14 -6 19 -21q7 -20 3 -40q-4 -18 -12 -34q-3 -7 -10 -22t-11 -22 q-2 -7 -5.5 -20t-4.5 -16q-6 -22 -14 -58q-7 -30 -9 -61q0 -21 5 -42q14 -21 40 -26q23 3 43 15q18 16 35 34q10 12 18 26zM178 233q3 14 -2 18q-40 21 -45 65l-6 10l-10 -8q-15 -19 -24 -41q-7 -16 -11 -33q-4 -21 -3 -42q1 -24 12 -46q7 -12 13 -16t20 -4q35 16 48 53 q6 21 8 44z" glyph-name="orr.liga" horiz-adv-x="1229" unicode="orr"/><glyph d="M1263 180q16 -1 22 -22.5t5 -42.5q-3 -63 -92 -106q-20 -9 -67 -9t-68 12q-20 12 -36 28q-9 12 -16 26q-9 17 -14 36q-6 23 -6 48v27q1 10 3 21q5 20 9 37q1 1 8 19q9 23 9 26q7 18 9 27q4 12 -6 20q-3 2 -7 2q-11 0 -21 -2q-12 -3 -17 -14q-2 -5 -30 -66.5t-32 -69.5 q-17 -36 -44 -65l-10.5 -12t-20.5 -23.5t-24.5 -25t-25.5 -20.5q-18 -12 -37 -21q-20 -10 -67 -10t-68 12q-20 12 -35 28q-10 12 -17 26q-9 17 -14 36q-6 23 -6 48v27q1 10 3 21q5 20 10 37q0 1 7 19q9 23 10 26l9 27q4 12 -7 20q-3 2 -7 2q-11 0 -21 -2q-12 -3 -17 -14 q-2 -5 -30 -68q-10 -28 -24 -54q-62 -125 -103 -155q-47 -34 -91.5 -29.5t-76.5 49.5l-1 1.5t-2.5 3t-3.5 4.5t-4 5q-29 -26 -63 -43t-67.5 -20t-56.5 15q-1 0 -1 0.5t-1 0.5q-5 4 -13 11q-30 28 -40.5 82.5t-5 113t15.5 113.5t20 90l11 35q23 6 47 8q44 -2 57.5 -17 t8.5 -59q-3 -35 -10.5 -100t-10.5 -89q-2 -15 -3 -54q0 -19 15 -20t34 14q22 20 38 45q5 57 15.5 121.5t22.5 92.5q19 47 45.5 59.5t75.5 -5.5q14 -6 12 -20q-1 -19 -5 -37q-15 -75 -42 -216q-8 -39 9 -63q8 -12 21 -8q34 35 80 153t56 157q1 3 2.5 8t1.5 8q6 16 23 18 q25 2 30 2q12 1 20 -8q7 -8 11.5 -9t13.5 5q15 7 31 10q19 5 38 7q2 0 36 2q13 1 16 1q19 2 36 -6q14 -6 19 -21q7 -20 3 -41q-4 -17 -12 -33q-3 -7 -10 -22t-10 -23q-3 -6 -6.5 -19t-4.5 -16q-6 -22 -14 -59q-7 -29 -9 -60q0 -21 5 -42q3 -4 6 -7t8.5 -4.5t7.5 -2t9.5 -1.5 t8.5 -1q19 2 52 40.5t56 85.5q2 4 13 25.5t16.5 33t15 33.5t17 45.5t14.5 50.5q1 3 2 8t2 8q6 16 23 18q25 2 29 2q13 1 21 -8q7 -8 11.5 -9t13.5 5q15 7 31 10q19 5 38 7q2 0 36 2q13 1 16 1q19 2 36 -6q14 -6 19 -21q7 -20 3 -41q-4 -17 -12 -33q-3 -7 -10 -22t-11 -23 q-2 -6 -5.5 -19t-4.5 -16q-6 -22 -14 -59q-7 -29 -9 -60q0 -21 5 -42q14 -22 40 -27q23 4 43 16q18 16 35 34q10 12 18 25z" glyph-name="urr.liga" horiz-adv-x="1271" unicode="urr"/><glyph d="M1016 263q53 -77 10 -121q-61 -63 -102 -82q-1 0 -4 -1.5l-7 -3.5l-8 -4q37 -115 -49 -236q-52 -73 -165 -111q-34 -13 -111 -11t-95 22q-29 33 -37 61t2 59q9 33 40 73.5t59 64.5q14 12 53 35.5t71 41.5l32 18q-60 16 -110 -20q-22 -16 -56 18t-29 62q3 14 18 19 q18 6 75 28q30 11 62 16q19 14 32 33q14 20 6.5 64t-27.5 58q-25 21 -68.5 15t-68.5 -38q-9 -14 -15 -30q-4 -19 -13 -45v-1q-4 -13 -10 -29q-42 -86 -43 -87q-10 -16 -18 -33q-3 -6 -10.5 -17t-10.5 -17q-9 -16 -24 -29q-7 -9 -16 -15q-16 -11 -36 -12q-33 2 -43 3 q-30 4 -53 25q-10 9 -18 21q-7 8 -11 17q0 1 -8 9l-9 -3q-20 -34 -52 -55q-26 -18 -57 -23q-15 -2 -29 2q-16 4 -30 11q-23 13 -41 31q-17 17 -26 38q-14 26 -17 56q-3 18 -4 36q1 18 5 36q4 12 8 26q3 9 7 20q8 20 11 28q4 9 9 16q13 23 19 32q12 19 29 42q4 6 9 10 q12 16 27 30q18 18 39 30q12 7 24 13q12 4 25 8q9 2 15 3t15 1.5t16 0.5q8 1 21 -2t17 -7q11 -12 15 -13q5 4 7 5q16 11 36 11q13 0 22 -9q2 -1 4 -3t2 -3q8 -6 8 -15q0 -5 1 -16t1 -17t-4 -38q0 -3 -1 -9t-1 -7q-6 -35 -6 -36q-4 -19 -10 -42q-10 -30 -4 -60 q1 -4 1.5 -12.5t1.5 -13.5l8 -18q24 0 50.5 38.5t35.5 74.5q2 9 5.5 24.5t5.5 24.5t6.5 22t11.5 25q30 59 93 78q1 0 5 1q168 55 243 -81q53 -106 9 -194q36 -15 64 -43q19 6 43 25t43 41q1 1 14.5 17.5t25.5 30.5t14 16q5 5 13 4t12 -8zM192 312q4 12 -2 23q-12 17 -31 10 q-12 -4 -22 -13q-25 -21 -46 -47l-2 -4q-8 -13 -12 -18l-4 -8q-1 -3 -4.5 -11.5t-5.5 -13.5q-7 -17 -8 -34q-3 -22 1 -44q3 -20 19 -32l12 1q18 21 20 23q13 16 23 34q11 19 23 37q1 1 1 2q2 2 2 3q11 22 17 33q7 12 11 24q6 18 8 35zM727 -148q20 17 48.5 63.5t42.5 80.5 l-2 4q-20 -5 -50 -17.5t-65.5 -33t-65 -44.5t-47 -55.5t-13.5 -62.5q30 -7 74.5 16t77.5 49z" glyph-name="az.liga" horiz-adv-x="1010" unicode="az"/><glyph d="M913 297q52 -77 10 -122q-61 -63 -102 -82q-1 0 -4 -1.5l-7 -3.5t-9 -4q38 -115 -48 -236q-52 -73 -165 -111q-34 -13 -111 -11t-95 22q-29 33 -37 61t2 59q9 33 40 73.5t59 64.5q14 12 53 35.5t71 41.5l31 18q-59 16 -109 -20q-22 -15 -56 19q-34 33 -29 61q3 14 18 19 q18 6 74 28q31 11 63 17q19 13 32 32q14 20 6.5 64t-27.5 58q-25 21 -68.5 15t-68.5 -37q-3 -5 -38 -75q-2 -2 -17 -38t-31.5 -73.5t-25.5 -50.5q-5 -9 -13 -18.5t-12.5 -14t-17 -16.5t-14.5 -14q-10 -9 -22 -15q-14 -10 -30 -17q-40 -17 -44 -19q-6 -2 -17.5 -3.5 t-16.5 -2.5q-22 -3 -45 1q-13 1 -26 5q-18 4 -35 13q-4 2 -7 5q-17 10 -32 23q-36 34 -52 72t-12 92q0 22 3 44q2 10 5.5 28t5.5 27q8 36 30 67q3 5 9.5 15.5t10.5 16.5q16 24 41 38q1 1 10.5 6t15.5 7q11 5 23 7q17 3 34 2q10 0 19 -1q13 -2 36 -8q6 -2 11 -4 q26 -13 47 -34q19 -23 18 -53q-1 -18 -7 -36q0 -1 -4 -13l-6 -18q-6 -16 -16 -35q-2 -4 -15 -29q-2 -3 -3 -5l-24 -28q-11 -12 -24 -22q-2 -2 -36 -29q-6 -5 -25 -20q0 -1 -1 -2q4 -9 15 -8q2 0 40 3h6q3 2 11 6t12 7q2 2 7 5t7 5q16 13 31 28q12 14 23 28l8 12q5 7 25 42.5 t23 42.5q7 16 14 42t14.5 44.5t18.5 32.5q31 48 86 65q1 0 5 2q168 54 243 -82q53 -106 9 -194q36 -15 64 -42q19 6 43 24.5t43 41.5q1 1 14.5 17t25.5 30.5t14 15.5q5 5 13 4t12 -7zM49 224q22 13 39 33q2 3 11.5 16.5t14.5 21.5q12 20 10 43q0 11 -18 16q-4 1 -8 1 q-9 -5 -17 -12q-11 -13 -18 -29q-2 -5 -7 -16t-7.5 -18t-2.5 -16q-2 -21 3 -40zM624 -115q20 17 48.5 63.5t42.5 80.5q-1 3 -2 4q-20 -5 -50 -17t-65.5 -33t-65 -45t-47.5 -55.5t-13 -61.5q30 -8 74.5 15t77.5 49z" glyph-name="ez.liga" horiz-adv-x="907" unicode="ez"/><glyph d="M60 489q-35 -2 -54.5 11.5t-21.5 39.5q-2 27 12.5 44t43.5 20l60 -8q14 -4 22.5 -16t7.5 -27q1 -15 -7 -29t-22 -20q-20 -9 -41 -15zM795 309q53 -77 10 -122q-61 -63 -102 -82l-3.5 -1.5t-7.5 -3.5l-8 -4q37 -115 -49 -236q-52 -73 -165 -111q-34 -13 -111 -11t-95 23 q-28 32 -36 60t1 60q9 33 40 73.5t59 63.5q14 12 53 36t71 41l32 18q-60 16 -110 -20q-21 -15 -56 19q-34 33 -29 61q3 14 18 19q19 6 75 28q30 11 62 17q19 14 32 32q14 21 6.5 64.5t-27.5 58.5q-18 13 -42.5 17.5t-50 -3.5t-41.5 -29q-3 -4 -20 -30v-1q-18 -34 -40 -113 t-31 -100q-9 -20 -22 -38q-49 -64 -59 -71q-45 -36 -92 -32.5t-82 47.5l-12 16q-25 32 -30 73q-4 28 9.5 123t27.5 135q17 49 43 63t76 -3q14 -4 13 -19q-1 -19 -3 -38q-3 -14 -21.5 -103t-20.5 -106q-6 -41 12 -64q5 -6 13.5 -7t15.5 5q19 16 50 95q2 6 29 99.5t44 120.5 q30 52 88 70q1 0 5 2q168 54 244 -82q52 -106 8 -194q37 -15 64 -42q19 6 43 24.5t43 41.5q1 1 14.5 17t25.5 30.5t14 15.5q6 5 13.5 4t11.5 -7zM506 -103q20 17 48.5 63.5t42.5 80.5q-1 3 -2 4q-20 -5 -50 -17t-65.5 -33t-65 -45t-47 -55.5t-13.5 -61.5q31 -8 75.5 15 t76.5 49z" glyph-name="iz.liga" horiz-adv-x="789" unicode="iz"/><glyph d="M974 297q53 -77 10 -122q-61 -63 -102 -82l-3.5 -1.5t-7.5 -3.5l-8 -4q37 -115 -49 -236q-52 -73 -165 -111q-34 -13 -111 -11t-95 23q-28 32 -36 60t1 60q10 33 40.5 73.5t58.5 63.5q15 12 53.5 36t70.5 41l32 18q-60 16 -110 -20q-21 -15 -56 19q-34 33 -29 61 q3 14 18 19q19 6 75 28q30 11 63 17q18 14 31 32q14 21 6.5 64.5t-27.5 58.5q-16 12 -43 13t-48.5 -5t-31.5 -13q-23 -19 -33 -48q-9 -43 -21 -69.5t-39 -47.5q-18 -13 -52.5 -19t-65.5 1q-6 -36 -19 -70q-7 -17 -20 -42q-6 -10 -14 -19q-14 -16 -30 -29q-14 -13 -32 -20 q-24 -9 -51 -11q-25 -3 -50 1q-11 2 -20 7q-21 11 -39 28q-3 3 -13 11v1q-6 5 -14 16t-24.5 45.5t-22 71.5t6 91.5t47.5 107.5q4 4 10 12.5t9 12.5q7 8 15 15q10 9 21 17q14 11 31 17q2 1 12 4.5t15 4.5q16 4 32 0q29 -6 53 -20q17 -9 31 -22t42 -43q5 -6 8 -12 q21 -37 25 -79q13 -8 24 -5t18.5 8.5t13.5 19t10 25.5t7 28q3 35 31 72t75 51q1 0 6 2q167 54 243 -82q52 -106 9 -194q36 -15 64 -42q18 6 42 24.5t43 41.5q1 1 14.5 17t25.5 30.5t14 15.5q6 5 13.5 4t11.5 -7zM178 221q3 14 -2 19q-40 20 -45 64q0 1 -6 10q-5 -3 -10 -8 q-15 -18 -24 -40q-7 -16 -11 -33q-4 -21 -3 -43q1 -24 12 -45q7 -13 13 -17t20 -4q35 17 48 53q6 22 8 44zM685 -115q21 17 49 63.5t42 80.5q-1 3 -2 4q-20 -5 -50 -17t-65.5 -33t-65 -45t-47 -55.5t-13.5 -61.5q31 -8 75.5 15t76.5 49z" glyph-name="oz.liga" horiz-adv-x="968" unicode="oz"/><glyph d="M1047 290q53 -77 10 -122q-61 -63 -102 -82l-3.5 -1.5t-7.5 -3.5l-8 -4q37 -115 -49 -236q-52 -73 -165 -111q-34 -13 -111 -11t-95 23q-28 32 -36 60t1 60q10 33 40.5 73.5t58.5 63.5q15 12 53.5 36t70.5 41l32 18q-60 16 -110 -20q-21 -15 -56 19q-34 33 -29 61 q3 14 18 19q19 6 75 28q30 11 63 17q18 14 31 32q14 21 6.5 64.5t-27.5 58.5q-18 13 -42 17.5t-49.5 -3.5t-42.5 -29q-2 -3 -7.5 -11.5t-13.5 -20t-13 -18.5q-12 -23 -26 -61.5t-22 -53.5q-2 -3 -9 -21.5t-17 -40t-21 -38.5q-53 -61 -62 -67q-47 -34 -94 -28.5t-79 50.5 l-1 1.5t-2.5 3t-3.5 4.5t-4 5q-29 -26 -63 -43t-67.5 -20t-56.5 15q-1 0 -1 0.5t-1 0.5q-5 4 -13 11q-30 28 -40.5 82.5t-5 113t15.5 113.5t20 90l11 35q23 6 47 8q44 -2 57.5 -17t8.5 -59q-3 -35 -10.5 -100t-10.5 -89q-2 -15 -3 -54q0 -19 15 -20t34 14q22 20 38 45 q5 57 15.5 121.5t22.5 92.5q19 47 45.5 59.5t75.5 -5.5q14 -6 12 -20q-1 -19 -5 -37q-15 -75 -42 -216q-8 -39 9 -63q5 -7 13.5 -8.5t15.5 4.5q20 15 55 91q3 7 27.5 71t41.5 99q11 37 38 64.5t64 38.5q1 0 6 2q167 54 243 -82q52 -106 9 -194q36 -15 64 -42q18 6 42 24.5 t43 41.5q1 1 14.5 17t25.5 30.5t14 15.5q6 5 13.5 4t11.5 -7zM758 -122q21 17 49 63.5t42 80.5q-1 3 -2 4q-20 -5 -50 -17t-65.5 -33t-65 -45t-47 -55.5t-13.5 -61.5q31 -8 75.5 15t76.5 49z" glyph-name="uz.liga" horiz-adv-x="1041" unicode="uz"/><glyph d="M1573 263q53 -77 10 -121q-60 -63 -101 -82q-1 0 -4.5 -1.5t-7.5 -3.5l-8 -4q37 -115 -49 -236q-52 -73 -165 -111q-34 -13 -111 -11t-95 22q-28 33 -36 61t1 59q10 33 40.5 73.5t58.5 64.5q15 12 53.5 35.5t70.5 41.5l32 18q-59 16 -110 -20q-21 -16 -56 18 q-34 34 -29 62q3 14 19 19q18 6 74 28q30 11 63 16q18 14 31 33q14 20 6.5 64t-27.5 58q-25 21 -68.5 15t-67.5 -38q-10 -14 -17 -30l-0.5 -1t-0.5 -2q-9 -20 -20 -47.5t-17 -42t-15.5 -32.5t-19.5 -32q-20 -27 -54.5 -53t-47.5 -32q37 -115 -49 -236q-52 -73 -165 -111 q-34 -13 -111 -11t-95 22q-29 33 -37 61t2 59q9 33 40 73.5t59 64.5q14 12 53 35.5t71 41.5l32 18q-60 16 -110 -20q-22 -16 -56 18t-29 62q3 14 18 19q18 6 75 28q30 11 62 16q19 14 32 33q14 20 6.5 64t-27.5 58q-25 21 -68.5 15t-68.5 -38q-9 -14 -15 -30q-4 -19 -13 -45 v-1q-4 -13 -10 -29q-42 -86 -43 -87q-10 -16 -18 -33q-3 -6 -10.5 -17t-10.5 -17q-9 -16 -24 -29q-7 -9 -16 -15q-16 -11 -36 -12q-33 2 -43 3q-30 4 -53 25q-10 9 -18 21q-7 8 -11 17q0 1 -8 9l-9 -3q-20 -34 -52 -55q-26 -18 -57 -23q-15 -2 -29 2q-16 4 -30 11 q-23 13 -41 31q-17 17 -26 38q-14 26 -17 56q-3 18 -4 36q1 18 5 36q4 12 8 26q3 9 7 20q8 20 11 28q4 9 9 16q13 23 19 32q12 19 29 42q4 6 9 10q12 16 27 30q18 18 39 30q12 7 24 13q12 4 25 8q9 2 15 3t15 1.5t16 0.5q8 1 21 -2t17 -7q11 -12 15 -13q5 4 7 5q16 11 36 11 q13 0 22 -9q2 -1 4 -3t2 -3q8 -6 8 -15q0 -5 1 -16t1 -17t-4 -38q0 -3 -1 -9t-1 -7q-6 -35 -6 -36q-4 -19 -10 -42q-10 -30 -4 -60q1 -4 1.5 -12.5t1.5 -13.5l8 -18q24 0 50.5 38.5t35.5 74.5q2 9 5.5 24.5t5.5 24.5t6.5 22t11.5 25q30 59 93 78q1 0 5 1q168 55 243 -81 q53 -106 9 -194q36 -15 64 -43q21 7 46 31t48 60q1 4 10 27t15 37.5t17 39t21 41.5t23 35t27 29.5t29 16.5q1 0 6 1q167 55 243 -81q52 -106 9 -194q36 -15 64 -43q18 6 42 25t43 41q1 1 14.5 17.5t25.5 30.5t14 16q6 5 13.5 4t11.5 -8zM192 312q4 12 -2 23q-12 17 -31 10 q-12 -4 -22 -13q-25 -21 -46 -47l-2 -4q-8 -13 -12 -18l-4 -8q-1 -3 -4.5 -11.5t-5.5 -13.5q-7 -17 -8 -34q-3 -22 1 -44q3 -20 19 -32l12 1q18 21 20 23q13 16 23 34q11 19 23 37q1 1 1 2q2 2 2 3q11 22 17 33q7 12 11 24q6 18 8 35zM727 -148q20 17 48.5 63.5t42.5 80.5 l-2 4q-20 -5 -50 -17.5t-65.5 -33t-65 -44.5t-47 -55.5t-13.5 -62.5q30 -7 74.5 16t77.5 49zM1284 -148q21 17 49 63.5t42 80.5q-1 2 -1 4q-21 -5 -51 -17.5t-65.5 -33t-65 -44.5t-47 -55.5t-13.5 -62.5q31 -7 75.5 16t76.5 49z" glyph-name="azz.liga" horiz-adv-x="1567" unicode="azz"/><glyph d="M1450 255q52 -77 10 -121q-61 -63 -102 -82q-1 -1 -4 -2.5t-7.5 -3t-8.5 -3.5q37 -115 -48 -236q-53 -73 -166 -111q-33 -13 -110.5 -11t-94.5 22q-29 33 -37 61t1 59q10 33 40.5 73.5t59.5 64.5q14 12 53 35.5t70 41.5l32 18q-59 15 -109 -20q-22 -16 -56 18 q-35 34 -29 62q2 14 18 19q18 6 74 28q31 11 63 16q18 14 32 33q14 20 6 63.5t-27 58.5q-26 21 -69.5 15t-67.5 -38q-10 -14 -17 -30l-0.5 -1t-0.5 -2q-9 -20 -20 -47.5t-16.5 -42t-15 -32.5t-20.5 -33q-20 -26 -54.5 -52t-47.5 -32q37 -115 -49 -236q-52 -73 -165 -111 q-34 -13 -111 -11t-95 22q-28 33 -36 61t1 59q9 33 40 73.5t59 64.5q14 12 53 35.5t71 41.5l32 18q-60 16 -110 -20q-21 -16 -56 18q-34 34 -29 62q3 14 18 19q19 6 75 28q30 11 62 16q19 14 32 33q14 20 6.5 63.5t-27.5 58.5q-25 21 -68.5 15t-68.5 -38q-3 -3 -7.5 -13 t-11 -24t-9.5 -22q-49 -115 -63 -136q-5 -9 -13 -18.5t-12.5 -14t-17 -16.5t-14.5 -14q-10 -9 -22 -15q-14 -10 -30 -17q-40 -17 -44 -19q-6 -2 -17.5 -3.5t-16.5 -2.5q-22 -3 -45 1q-13 1 -26 5q-18 4 -35 13q-4 2 -7 5q-17 10 -32 23q-36 35 -52 72.5t-12 91.5q0 22 3 44 q2 10 5.5 28t5.5 27q8 36 30 67q3 5 9.5 15.5t10.5 16.5q16 24 41 38q1 1 10.5 6t15.5 7q11 5 23 7q17 3 34 2q10 0 19 -1q13 -2 36 -8q6 -2 11 -4q26 -13 47 -34q19 -23 18 -53q-1 -18 -7 -36q0 -1 -4 -13l-6 -18q-6 -16 -16 -35q-2 -4 -15 -29q-2 -3 -3 -5l-24 -28 q-11 -12 -24 -22q-2 -2 -36 -29q-6 -5 -25 -20q0 -1 -1 -2q4 -9 15 -8q2 0 40 3h6q3 3 11 6.5t12 6.5q2 2 7 5t7 5q16 13 31 28q12 14 23 28l8 12t23.5 49.5t24.5 56.5q5 11 11 22q11 36 38 62.5t63 37.5q1 0 5 1q168 55 244 -81q52 -106 9 -194q36 -15 63 -43q21 7 46.5 31 t47.5 60q2 4 10.5 27t14.5 37.5t17 39t21 41.5t23 35t27.5 29.5t28.5 16.5q2 0 6 1q167 55 243 -81q53 -106 9 -194q36 -15 64 -43q19 6 43 25t43 41q1 1 14 17.5t25 30.5t14 16q6 5 13.5 4t12.5 -8zM49 224q22 13 39 33q2 3 11.5 16.5t14.5 21.5q12 20 10 43q0 11 -18 16 q-4 1 -8 1q-9 -5 -17 -12q-11 -13 -18 -29q-2 -5 -7 -16t-7.5 -18t-2.5 -16q-2 -21 3 -40zM603 -156q21 17 49 63.5t42 80.5l-2 4q-20 -5 -50 -17.5t-65.5 -33t-65 -44.5t-47 -55.5t-13.5 -62.5q31 -7 75.5 16t76.5 49zM1160 -156q21 17 49 63.5t42 80.5q0 2 -1 4 q-21 -5 -50.5 -17.5t-65.5 -33t-65 -44.5t-47 -55.5t-13 -62.5q30 -7 74.5 16t76.5 49z" glyph-name="ezz.liga" horiz-adv-x="1443" unicode="ezz"/><glyph d="M60 496q-35 -3 -54.5 10.5t-21.5 39.5q-2 27 12.5 44t43.5 20l60 -7q14 -5 22.5 -17t7.5 -26q1 -16 -7 -29.5t-22 -20.5q-20 -8 -41 -14zM1332 263q53 -77 10 -121q-61 -63 -102 -82q-1 0 -4 -2t-7 -3.5t-8 -3.5q37 -115 -49 -236q-52 -73 -165 -111q-34 -13 -111 -11 t-95 22q-29 33 -37 61t2 59q9 33 40 73.5t59 64.5q14 12 53 35.5t71 41.5l32 18q-60 16 -110 -20q-22 -16 -56 18t-29 62q3 14 18 19q18 6 75 28q30 11 62 16q19 14 32 33q14 20 6.5 63.5t-27.5 58.5q-25 21 -68.5 15t-68.5 -38q-9 -14 -17 -30v-1t-1 -2l-19 -47.5t-17 -42 t-15.5 -32.5t-20.5 -32q-20 -27 -54.5 -53t-47.5 -32q37 -115 -48 -236q-53 -73 -166 -111q-33 -13 -110.5 -11t-95.5 22q-28 33 -36 61t1 59q10 33 40.5 73.5t58.5 64.5q15 12 54 35.5t70 41.5l32 18q-59 16 -109 -20q-22 -16 -57 18q-34 34 -28 62q2 14 18 19q18 6 74 28 q31 11 63 16q18 14 32 33q14 20 6 64t-27 58q-26 21 -69.5 15t-67.5 -38q-3 -3 -8 -13.5t-11.5 -24.5t-10.5 -22q-32 -109 -38 -123q-9 -21 -22 -39q-49 -63 -59 -71q-45 -36 -92 -32.5t-82 47.5l-12 16q-25 33 -30 74q-4 27 9.5 122.5t27.5 134.5q17 49 43 63t76 -2 q14 -5 13 -20q-1 -19 -3 -37q-3 -15 -21.5 -104t-20.5 -106q-6 -40 12 -63q5 -7 13.5 -8t15.5 5q19 16 50 95q4 10 15 56t21 72q10 40 37.5 69.5t66.5 41.5q2 0 6 1q167 55 243 -81q53 -106 9 -194q36 -15 64 -43q20 7 45.5 31t47.5 60q2 4 10.5 27t14.5 37.5t17 39 t21.5 41.5t23 35t27 29.5t29.5 16.5q1 0 5 1q168 55 243 -81q53 -106 9 -194q36 -15 64 -43q19 6 43 25t43 41q1 1 14.5 17.5t25.5 30.5t14 16q5 5 13 4t12 -8zM485 -148q21 17 49 63.5t42 80.5q-1 2 -1 4q-21 -5 -51 -17.5t-65.5 -33t-64.5 -44.5t-47 -55.5t-14 -62.5 q31 -7 75.5 16t76.5 49zM1043 -148q20 17 48.5 63.5t42.5 80.5l-2 4q-20 -5 -50 -17.5t-65.5 -33t-65 -44.5t-47 -55.5t-13.5 -62.5q30 -7 74.5 16t77.5 49z" glyph-name="izz.liga" horiz-adv-x="1326" unicode="izz"/><glyph d="M1521 255q53 -77 10 -121q-60 -63 -101 -82q-1 0 -4.5 -1.5t-7.5 -3.5l-8 -4q37 -115 -49 -236q-52 -73 -165 -111q-33 -13 -110.5 -11t-95.5 22q-28 33 -36 61t1 59q10 33 40.5 73.5t58.5 64.5q15 12 53.5 35.5t70.5 41.5l32 18q-59 16 -110 -20q-21 -16 -56 19 q-34 33 -29 61q3 14 19 19q18 6 74 28q31 11 63 17q18 13 31 32q14 20 6.5 64t-27.5 58q-25 21 -68.5 15t-67.5 -37q-10 -15 -17 -31l-0.5 -1l-0.5 -1q-9 -21 -20 -48.5t-17 -42t-15.5 -32.5t-19.5 -32q-20 -27 -54.5 -53t-47.5 -32q37 -115 -49 -236q-52 -73 -165 -111 q-34 -13 -111 -11t-95 22q-29 33 -37 61t2 59q9 33 40 73.5t59 64.5q14 12 53 35.5t71 41.5l32 18q-60 16 -110 -20q-22 -15 -56 19q-34 33 -29 61q3 14 18 19q18 6 75 28q30 11 62 17q19 13 32 32q14 20 6.5 64t-27.5 58q-25 21 -68.5 15t-68.5 -37q-4 -6 -18.5 -37.5 t-19.5 -37.5q-1 -1 -2 -1q-12 -17 -29 -30q-18 -13 -52.5 -19t-65.5 1q-6 -36 -19 -70q-7 -17 -20 -42q-6 -10 -14 -19q-14 -16 -30 -29q-14 -13 -32 -20q-24 -9 -51 -11q-25 -3 -50 1q-11 2 -20 7q-21 11 -39 28q-3 3 -13 11v1q-6 5 -14 16t-24.5 45.5t-22 71.5t6 91.5 t47.5 107.5q4 4 10 12.5t9 12.5q7 8 15 15q10 9 21 17q14 11 31 17q2 1 12 4.5t15 4.5q16 4 32 0q29 -6 53 -20q17 -9 31 -22t42 -43q5 -6 8 -12q21 -37 25 -79q35 -16 64 34q1 1 5.5 12.5t6 15.5t7 15.5t9 17t10 15t13 15.5t15 13t18 11.5t21.5 8.5q1 0 5 1q168 55 243 -81 q53 -106 9 -194q37 -15 64 -43q21 7 46.5 31t47.5 60q1 4 10 27t15 37.5t17 39t21 41.5t23 35t27 29.5t29 16.5q2 0 6 1q167 55 243 -81q52 -106 9 -194q36 -15 64 -43q18 6 42.5 25t42.5 41q1 1 14.5 17.5t25.5 30.5t14 16q6 5 13.5 4t11.5 -8zM178 222q3 13 -2 18 q-39 20 -45 64q0 1 -6 10q-5 -3 -10 -8q-15 -18 -24 -40q-7 -16 -11 -33q-4 -21 -3 -43q1 -24 12 -45q7 -13 13 -17t20 -4q35 17 48 53q6 22 8 45zM675 -156q20 17 48.5 63.5t42.5 80.5l-2 4q-20 -5 -50 -17.5t-65.5 -33t-65 -44.5t-47 -55.5t-13.5 -62.5q30 -7 75 16t77 49 zM1232 -156q21 17 49 63.5t42 80.5q-1 2 -1 4q-21 -5 -51 -17.5t-65.5 -33t-64.5 -44.5t-47 -55.5t-14 -62.5q31 -7 75.5 16t76.5 49z" glyph-name="ozz.liga" horiz-adv-x="1515" unicode="ozz"/><glyph d="M1584 263q53 -77 10 -121q-61 -63 -102 -82l-3.5 -2t-7.5 -3.5t-8 -3.5q37 -115 -49 -236q-52 -73 -165 -111q-34 -13 -111 -11t-95 22q-28 33 -36.5 61t1.5 59q9 33 40 73.5t59 64.5q14 12 53 35.5t71 41.5l32 18q-60 16 -110 -20q-21 -16 -56 18q-34 34 -29 62 q3 14 18 19q19 6 75 28q30 11 62 16q19 14 32 33q14 20 6.5 64t-27.5 58q-25 21 -68.5 15t-68.5 -38q-9 -14 -17 -30v-1t-1 -2l-19 -47.5t-17 -42t-15.5 -32.5t-20.5 -32q-20 -27 -54.5 -53t-47.5 -32q37 -115 -48 -236q-53 -73 -166 -111q-33 -13 -110 -11t-95 22 q-29 33 -37 61t1 59q10 33 41 73.5t59 64.5q14 12 53 35.5t70 41.5l32 18q-59 16 -109 -20q-22 -16 -56 18q-35 34 -29 62q2 14 18 19q18 6 74 28q31 11 63 16q18 14 32 33q14 20 6 64t-27 58q-26 21 -69.5 15t-67.5 -38q-4 -5 -18 -35.5t-20 -37.5q-9 -27 -21 -52 q-2 -4 -9 -22.5t-17 -40t-21 -38.5q-53 -60 -62 -67q-47 -33 -94 -28t-79 51l-1 1.5t-2.5 3t-3.5 4t-4 5.5q-29 -27 -63 -44t-67.5 -19.5t-56.5 15.5h-1l-1 1q-5 4 -13 11q-30 27 -40.5 82t-5 113.5t15.5 113t20 90.5l11 35q23 6 47 7q44 -1 57.5 -16.5t8.5 -58.5 q-3 -36 -10.5 -100.5t-10.5 -88.5q-2 -15 -3 -54q0 -20 15 -20.5t34 14.5q22 20 38 45q5 57 15.5 121.5t22.5 91.5q19 48 45.5 60.5t75.5 -6.5q14 -5 12 -20q-1 -18 -5 -37q-15 -74 -42 -215q-8 -40 9 -64q5 -7 13.5 -8t15.5 4q20 16 55 92q4 9 17.5 43t21.5 54q2 9 5 17 q1 2 7 17t9 22t10 19.5t14.5 23t17.5 18.5q4 5 9 9l1 -1q17 13 38 20q2 0 6 1q167 55 243 -81q53 -106 9 -194q36 -15 64 -43q21 7 46 31t47 60q2 4 10.5 27t14.5 37.5t17 39t21.5 41.5t23 35t27 29.5t29.5 16.5q1 0 5 1q168 55 243 -81q53 -106 9 -194q37 -15 64 -43 q19 6 43 25t43 41q1 1 14.5 17.5t25.5 30.5t14 16q6 5 13.5 4t11.5 -8zM737 -148q21 17 49 63.5t42 80.5q-1 2 -1 4q-21 -5 -50.5 -17.5t-65.5 -33t-65 -44.5t-47 -55.5t-13 -62.5q30 -7 74.5 16t76.5 49zM1295 -148q20 17 48.5 63.5t42.5 80.5l-2 4q-20 -5 -50 -17.5 t-65.5 -33t-65 -44.5t-47 -55.5t-13.5 -62.5q31 -7 75.5 16t76.5 49z" glyph-name="uzz.liga" horiz-adv-x="1578" unicode="uzz"/><glyph d="M795 257q52 -77 10 -122q-61 -63 -102 -82q-1 0 -4 -1.5l-7 -3.5t-9 -4q38 -115 -48 -236q-52 -73 -166 -111q-33 -13 -110 -11t-95 23q-29 32 -37 60t1 60q10 33 41 73.5t59 63.5q14 12 53 36t71 41l31 18q-59 16 -109 -20q-22 -15 -56 19q-35 33 -29 61q2 14 18 19 q18 6 74 28q31 11 63 17q18 14 32 32q14 21 6 64.5t-27 58.5q-26 20 -69 14t-68 -37q-9 -15 -15 -31l-1 -1q-20 -52 -38 -110q-8 -27 -27 -68.5t-38 -61.5l-1 -1q-19 -35 -72 -42q-39 -6 -76 8q-17 5 -47.5 48.5t-38.5 80.5q-10 55 -8 143t15 152q3 15 12.5 46t9.5 33 q-5 11 -108 1q-9 0 -20 8t-20 20.5t-14.5 26t-4 25.5t11.5 16q4 3 19 4.5t34.5 3t25.5 2.5q17 2 43.5 3.5t29.5 2.5h8q8 -1 14 3.5t7 11.5q3 12 5 17q0 2 2 5q13 17 31 30q4 3 10 3q21 3 34 -14q10 -12 19 -25l5.5 -11t5.5 -9.5t5 -6t7 -4t10 0.5q5 1 26.5 2.5t31.5 3.5 q28 5 34 1q14 -10 19 -26q6 -15 11 -31q3 -10 -2 -20t-16 -14q-8 -3 -33 -6t-50 -5t-27 -2q-24 -4 -25 -7q-2 -7 -6 -20t-6 -20q-5 -16 -9 -33t-6.5 -28t-5 -32t-3.5 -29t-3.5 -36.5t-3.5 -36.5q-4 -39 1 -76q0 -3 1 -11.5t2 -14t2.5 -13.5t3.5 -13t4.5 -10.5t6 -8t8.5 -3.5 q27 -2 40 21q5 7 9 21t6 24.5t4.5 27.5t3.5 19q2 8 5 16l3 12l3 12q12 34 27 65q4 7 7 13v0.5t1 0.5v1q29 57 91 76q2 0 6 2q167 54 243 -81q53 -107 9 -195q36 -15 64 -42q19 6 43 24.5t43 41.5q1 1 14 17t25 30.5t14 15.5q6 5 13.5 4t12.5 -7zM505 -155q21 17 49 63.5 t42 80.5q-1 3 -1 4q-21 -5 -50.5 -17t-65.5 -33t-65 -45t-47 -55.5t-13 -61.5q30 -8 74.5 15t76.5 49z" glyph-name="tz.liga" horiz-adv-x="788" unicode="tz"/><glyph d="M671 366q23 -5 28.5 -35t0.5 -58q-7 -46 -60.5 -91.5t-110.5 -66.5q-1 0 -2.5 -0.5l-1.5 -0.5q6 -19 14.5 -49.5t22.5 -95.5t12 -95q-4 -50 -11.5 -79t-25.5 -62q-36 -66 -134 -62q-75 3 -104 78q-9 23 -15.5 47.5t-10 43.5t-4.5 45t-1.5 40.5t1.5 43t3 39t5 41.5t5 38v1 v2q1 6 1 11q5 44 11 88q-53 -50 -119 -74q-1 0 -2.5 -0.5t-2.5 -0.5q6 -19 15 -49.5t23 -95.5t12 -95q-4 -50 -11.5 -79t-26.5 -62q-35 -66 -133 -62q-75 3 -104 78q-9 23 -15.5 47.5t-10 43.5t-5 45t-2 40.5t2 43t3.5 39t4.5 41.5t4.5 38l0.5 1t0.5 2q0 6 1 11 q25 222 39 291q3 40 11 122q14 143 108 214q2 2 6 5l18 13.5t16.5 10.5t18.5 7.5t19.5 1.5t23.5 -4q34 -11 54 -31t30 -55q0 -2 2 -8q8 -25 11 -39.5t3 -37t-7 -42.5q-15 -45 -78.5 -139t-101.5 -129q14 -19 34.5 -27.5t39.5 -2.5q26 9 83 57q32 28 58 58q3 16 5 26 q3 40 12 122q14 143 108 214q1 2 5 5l18 13.5t17 10.5t19 7.5t19 1.5t23 -4q34 -11 54 -31t30 -55q1 -2 2 -8q8 -25 11 -39.5t3.5 -37t-6.5 -42.5q-16 -45 -79 -139t-102 -129q14 -19 34.5 -27.5t39.5 -2.5q27 9 83 57q33 28 58 58zM80 490q-11 -59 -7 -86q14 14 33.5 41.5 t38 65.5t22 72.5t-13.5 61.5q-7 -2 -13 -5.5t-10.5 -8.5t-7.5 -8.5t-6.5 -11t-5 -10.5t-4.5 -12t-4 -11q-11 -30 -22 -88zM57 -185q30 19 41 62.5t4.5 91t-17.5 87t-22 59.5q-5 -9 -9 -18.5t-7.5 -22.5t-4.5 -17.5t-3.5 -21.5t-2.5 -18q-12 -69 -11 -107v-13.5v-15t1 -13.5 t3 -15t5.5 -12.5t9 -13.5t13.5 -12zM434 490q-11 -59 -7 -86q14 14 33.5 41.5t38.5 65.5t22.5 72.5t-13.5 61.5q-8 -2 -13.5 -5.5t-10.5 -8.5t-8 -8.5t-6.5 -11t-4.5 -10.5t-4.5 -12t-4.5 -11q-11 -30 -22 -88zM411 -185q30 19 41 62.5t4.5 91t-17 87t-21.5 59.5 q-6 -9 -10 -18.5t-7 -22.5t-4 -17.5t-4 -21.5t-3 -18q-12 -69 -11 -107v-13.5t0.5 -15t1 -13.5t3 -15t5.5 -12.5t8.5 -13.5t13.5 -12z" glyph-name="ff.liga" horiz-adv-x="656" unicode="ff"/><glyph d="M693 245q11 -45 -22 -107t-79 -103q-39 -35 -92 -35.5t-93 34.5q-45 40 -59 68q-9 19 -17 43q-94 -30 -156 -12q-1 0 -5 -1q6 -19 15 -49.5t23 -95.5t12 -95q-4 -50 -11.5 -79t-26.5 -62q-35 -66 -133 -62q-75 3 -104 78q-9 23 -15.5 47.5t-10 43.5t-5 45t-2 40.5t2 43 t3.5 39t4.5 41.5t4.5 38l0.5 1t0.5 2q0 6 1 11q25 221 39 291q3 43 11 122q14 143 108 214q2 2 6 5l18 13.5t16.5 10.5t18.5 7.5t19.5 1.5t23.5 -4q34 -11 54 -31t30 -55q0 -2 2 -8q7 -25 10.5 -39.5t3.5 -37t-7 -42.5q-15 -45 -78.5 -139t-102.5 -129q15 -20 47 -37t60 -17 q32 0 104 27q-5 50 -6 83q-5 204 94 363q19 31 44 43t65 10q37 -1 64.5 -29.5t40.5 -69.5t18 -79.5t3 -66.5q-5 -61 -55.5 -160.5t-122.5 -157.5q18 -36 40 -49.5t46 3.5q21 18 56 83q20 38 32 76q23 4 39 -22t23 -54zM80 508q-11 -59 -7 -86q14 14 33.5 41.5t38 65.5 t22 72.5t-13.5 61.5q-7 -2 -13 -5.5t-10.5 -8.5t-7.5 -8.5t-6.5 -11t-5 -10.5t-5 -12t-3.5 -11q-11 -30 -22 -88zM56 -167q31 19 42 62.5t4.5 91t-17.5 87t-22 59.5q-5 -9 -9 -18.5t-7.5 -22.5t-4.5 -17.5t-3.5 -21.5t-2.5 -18q-12 -69 -11 -107v-13.5v-15t1 -13.5t3 -15 t5.5 -12.5t9 -13.5t12.5 -12zM426 437q-3 -20 -3 -49t7 -53q14 18 31.5 54t33 81t15 89.5t-24.5 69.5q-7 -4 -13 -8.5t-11 -11t-7.5 -11t-5.5 -14t-4 -13t-3.5 -15t-2.5 -12.5q-9 -37 -12 -107z" glyph-name="fl.liga" horiz-adv-x="649" unicode="fl"/><glyph d="M50 700h427v-700h-427v700zM78 680l185 -309l186 309h-371zM251 350l-180 300v-601zM264 329l-185 -308h370zM276 350l181 -303v605z" glyph-name=".notdef" horiz-adv-x="527"/><glyph glyph-name=".null" horiz-adv-x="0"/><glyph glyph-name=".null" horiz-adv-x="0"/><glyph glyph-name="nonmarkingreturn" horiz-adv-x="333"/><glyph glyph-name="controlLF" horiz-adv-x="0" unicode="&#x0a;"/><glyph glyph-name="controlCR" horiz-adv-x="0" unicode="&#x0d;"/><glyph glyph-name="space" horiz-adv-x="322" unicode=" "/><glyph d="M291 141q16 -7 29 -26t12 -39q-1 -45 -37 -61q-12 -5 -29 -11q-30 -8 -56 -1q-48 14 -49 65q-1 33 19 53.5t50 25.5q20 2 33 1t20 -4zM195 208q-24 25 -30 48q-6 20 -6 59v48q2 21 2 26q3 71 2 82v2q6 100 16 225q1 6 1 12v8v-8q1 3 1 11t1 10q1 18 24 24l80 12 q18 4 33 -5t13 -23q-4 -29 -6 -68q-3 -23 -2 -38l-1 -14q-2 -95 4 -191v-2q0 -19 1 -54t1 -45q1 -34 4 -57q8 -51 -39 -71q-65 -26 -99 9z" glyph-name="exclam" horiz-adv-x="416" unicode="!"/><glyph d="M859 467q15 -8 22 -17t6.5 -18.5t-5 -18.5t-12.5 -19q-27 -35 -97 -27q-31 3 -78 4q-14 0 -36 1q-14 -55 -24 -99q97 -4 104 -4q20 -1 34.5 -3.5t22.5 -5t13.5 -7.5t7 -7.5t3 -8t2.5 -6.5l11 -44q2 -9 -1.5 -16t-12 -10.5t-17 -5.5t-23.5 -2t-24.5 0.5t-27 2t-24.5 2.5 q-32 1 -53 1h-19h-24q-10 -37 -14 -62q-9 -58 -52 -79q-18 -9 -36 -14t-36 -2.5t-24 18.5q-6 12 23 127q1 2 2 6t2 6q-58 -1 -102 -3h-2h-17q-10 -35 -13 -59q-10 -58 -55 -79q-23 -14 -45.5 -13.5t-32.5 23.5q-13 28 -11 53q2 22 14 66q0 1 0.5 3.5t1.5 3.5q-32 0 -55 -2 q-71 -6 -97 30q-11 15 -17.5 30.5t-3 34t22.5 28.5q15 8 156 10h18.5h14.5q7 21 10 36q1 1 1 2q9 28 19 60h-2q-21 1 -52 0q-53 -1 -92 -4h-1q-20 0 -31.5 11t-5.5 24l17 59q8 17 33 18h14h14h-10h11q9 1 16 1q61 1 126 3q14 40 26 78q2 4 5 13l2 9l-2 -8q1 2 3.5 11t3.5 12 q7 20 28 26l70 13q16 5 25.5 -5t3.5 -25v-1q-13 -32 -26 -75q-10 -26 -14 -43l-1 -3q29 0 58 1h2q21 -1 74 -1q21 67 24 76q5 16 10.5 28t10.5 18t11 10.5t9 6t9 2.5t7 2l48 9q8 1 13.5 -0.5t8.5 -5.5t4.5 -9t0.5 -12.5t-2.5 -14t-4.5 -16t-5.5 -16.5t-6 -17t-5.5 -15 q-9 -26 -13 -43l-1 -2q21 -1 22 -1q53 -1 81 -6q31 -5 64 -24zM519 323q7 22 16 53q-62 3 -127 5q-14 -53 -25 -100h47h2q36 -1 75 -3q7 27 11 42q0 1 1 3z" glyph-name="numbersign" horiz-adv-x="923" unicode="#"/><glyph d="M534 366q29 -46 27 -123q-1 -35 -12 -61t-34.5 -44.5t-47.5 -30.5t-63 -25q-22 -8 -44 -13q-4 -36 -25 -53q-9 -8 -16.5 -11.5t-16 -4t-16 6t-14.5 21.5q-10 21 -15 42q-79 16 -154 84q-23 21 -43.5 59.5t-23.5 79.5q-2 27 15.5 48t44.5 23q22 2 42 -3t24 -26q1 -6 3 -17 t3.5 -19.5t2.5 -12.5q6 -57 78 -85v31q1 28 1 34q2 88 2 99q-61 10 -103.5 33t-62 52t-21.5 62t14.5 63.5t50 56.5t79.5 41q31 10 54 15v1v1v11v-11v14v13q1 25 16 32l52 16q11 5 20.5 -6.5t8.5 -30.5q-1 -12 -2 -30h1.5h1.5q87 -6 100 -10q25 -8 38 -44.5t9 -76t-25 -57.5 q-24 -21 -50.5 -11t-43.5 45q-9 17 -35 29v-4v-105q65 -12 110.5 -33.5t69.5 -64.5zM255 484q2 45 3 93q-53 -11 -55 -40q-3 -36 52 -53zM358 194q35 9 50.5 27.5t15.5 58.5q-1 34 -68 59q0 -8 1 -22v-2v-40.5t0.5 -40.5t0.5 -40z" glyph-name="dollar" horiz-adv-x="597" unicode="$"/><glyph d="M69 429.5q-1 1.5 -5 5.5q-18 27 -23.5 54.5t-4.5 68.5q1 5 1 9q7 64 11.5 79.5t13.5 38.5q2 4 11 19q6 9 24 28q12 14 26 21q21 10 44 14q29 5 45 4q8 0 18 -4q22 -10 37 -21q3 -2 13 -9l13.5 -13.5t26 -37.5t26 -61t3.5 -81.5t-32 -99.5q-2 -4 -7 -12t-7 -12 q-1 -1 -12 -15q-9 -10 -17 -17q-18 -14 -26 -18q-1 -1 -9.5 -5t-13.5 -5q-11 -4 -28 -3q-21 1 -49 12q-16 7 -29 17q-14 10 -42 34q-1 2 -4 5t-4 4.5zM153 608q-3 -12 -4 -40q-1 -23 5 -40.5t15 -25.5t18.5 -12t17.5 1l8 8q8 12 17 39q6 16 7 30q1 24 -1 38q-5 22 -16 38 q-6 11 -12 14t-19 1q-29 -18 -36 -51zM747 320q16 -28 18.5 -59.5t-4.5 -65.5q0 -5 -1 -9q-14 -63 -20 -78t-18 -37q-2 -4 -13 -17q-7 -9 -27 -26q-13 -12 -28 -17q-22 -9 -45 -10q-29 -2 -45 1q-8 1 -17 6q-22 12 -35 25q-2 2 -12 10q-4 5 -11.5 14.5t-22 40.5t-19.5 63.5 t5.5 81t41.5 96.5q3 3 9 10.5t8 11.5q1 1 14 13q10 10 18 15q20 13 28 15q1 1 10 4t14 5q12 2 28 -1q21 -3 47 -18q16 -8 28 -19q12 -12 37 -38q2 -2 4 -6t3 -5t5 -6zM648 197q4 30 -3.5 51t-20 28t-23.5 3q-9 -6 -9 -7q-9 -10 -21 -36q-7 -16 -10 -29q-4 -24 -3 -38 q2 -22 11 -40q6 -11 11.5 -15t17.5 -3q31 15 42 47q4 11 8 39zM451 357q-1 -1 -2 -3q-46 -52 -99.5 -113.5t-98 -112.5t-55.5 -64q-16 -19 -29.5 -31.5t-21.5 -18.5t-16 -9t-11 -2.5t-7.5 1.5t-5.5 1l-39 14q-6 3 -8.5 8t-1 12t4.5 14t9.5 16.5t13 17.5t16 19t16.5 19 t17.5 19t16.5 18q26 29 42 49l16 19q103 123 206 254l1 2q21 25 58.5 72t48.5 59q37 46 60 77q52 72 97 77q14 2 26 1t23.5 -6.5t14.5 -17t-2 -31.5q-7 -19 -118 -156q-31 -38 -53 -63q-23 -27 -28 -33q-79 -92 -91 -108z" glyph-name="percent" horiz-adv-x="802" unicode="%"/><glyph d="M621 165q12 -9 33 -15.5t30.5 -13t5.5 -20.5q-9 -32 -43.5 -75t-64.5 -40q-16 2 -109 82q-3 3 -10 9.5t-8 7.5q-77 -76 -126 -90q-30 -11 -71.5 -8.5t-80 12.5t-70 32.5t-41.5 50.5q-13 40 -19 60.5t-10 48t2 47t19.5 44.5t38.5 53t52 49l-0.5 0.5t-0.5 1.5 q-25 25 -31 43q-50 81 -51 152.5t46 120t133 63.5q59 9 101.5 0.5t71 -33.5t43 -57t18.5 -71q2 -22 3 -44.5t-5.5 -47t-18.5 -47t-38 -44.5t-63 -39q-3 -1 -7 -2q8 -7 13 -11q10 -9 18 -16q36 -31 71 -61q79 89 63 131q-5 14 3 22q11 12 28 20q20 11 44 9t38 -16 q21 -21 27.5 -48.5t1.5 -47.5q-11 -50 -99 -161l10 -9q31 -27 53 -42zM217 588q-6 -45 28 -91q1 -2 3.5 -5t4.5 -4q4 4 10 7q38 15 60.5 37t27.5 43t1.5 40.5t-12 32t-16.5 14.5q-51 16 -76 -7.5t-31 -66.5zM223 145q40 -23 124 58q-5 4 -9 7q-1 1 -1 2q-37 36 -84 83 q-1 0 -2 1q-8 6 -19 17q-36 -34 -45.5 -69.5t1.5 -60t35 -38.5z" glyph-name="ampersand" horiz-adv-x="727" unicode="&amp;"/><glyph d="M182 894q37 -34 33 -82.5t-25 -91t-43 -58.5q-14 -10 -28 -11t-23 13t-3 42q9 49 -16 63q-3 1 -6 3h-0.5t-1.5 1q-32 17 -33 59q-1 32 19 52.5t51 25.5q19 2 32.5 1t20.5 -4l7 -3q7 -3 14 -9h0.5t0.5 -1h1z" glyph-name="quotesingle" horiz-adv-x="251" unicode="'"/><glyph d="M182 894q37 -34 33 -82.5t-25 -91t-43 -58.5q-14 -10 -28 -11t-23 13t-3 42q9 49 -16 63q-3 1 -6 3h-0.5t-1.5 1q-32 17 -33 59q-1 32 19 52.5t51 25.5q19 2 32.5 1t20.5 -4l7 -3q7 -3 14 -9h0.5t0.5 -1h1z" glyph-name="quotesingle" horiz-adv-x="251" unicode=""/><glyph d="M276 118q12 -6 23.5 -24.5t9.5 -37.5q-4 -28 -19 -43t-33 -11q-14 3 -28 7q-83 27 -137 123t-56 257q-1 50 6 93.5t16.5 75t29.5 62t34.5 48.5t42 40.5t42.5 33t46 30.5q12 8 22 -6q27 -36 24 -74.5t-41 -60.5q-60 -35 -83 -97t-24 -152q0 -61 13 -110t34.5 -79.5t40 -47 t37.5 -27.5z" glyph-name="parenleft" horiz-adv-x="345" unicode="("/><glyph d="M125 758q82 -29 133.5 -126.5t48.5 -258.5q0 -50 -8.5 -93.5t-19 -74.5t-30.5 -60.5t-35.5 -47.5t-43.5 -40t-43.5 -32t-46.5 -29q-13 -8 -22 7q-26 37 -22 75.5t43 59.5q61 33 85.5 94t27.5 151q3 61 -9 110.5t-32.5 80.5t-38.5 48.5t-37 27.5q-12 7 -23 25.5t-8 38.5 q5 28 20.5 42.5t32.5 10.5q14 -4 28 -9z" glyph-name="parenright" horiz-adv-x="344" unicode=")"/><glyph d="M404 769q26 -18 12 -52q-10 -25 -45 -21q-15 2 -38 2q-8 0 -23 0.5t-18 0.5q1 0 1.5 -1t0.5 -2q9 -12 18 -26q14 -23 19 -36q6 -15 5 -37q-1 -31 -37 -38q-27 -5 -42 27q-7 13 -20 33q-4 7 -12.5 21t-12.5 20q-4 -6 -12.5 -19.5t-12.5 -20.5q-13 -19 -20 -32 q-17 -31 -44 -25q-19 4 -34.5 15t-15.5 29q-1 10 38 67q10 14 18 26l1 1h-2q-10 0 -25 -1q-26 -2 -45 -4q-10 -1 -17 7t-5 17l3 43q3 12 15 13h6.5h7.5h-6h6h2.5t3 0.5t2.5 0.5q29 2 60 4l-1 1.5l-1 1.5l-5 8q-6 9 -15 21q-15 21 -28 36q-6 7 -3 17t12 14l37 20q12 5 19 -5 q1 -1 4 -5.5t4 -5.5l-3 4l3 -4q1 -1 2.5 -3.5t2.5 -3.5q25 -33 49 -66l30 37.5t22 28.5q5 7 10.5 12t9.5 6.5t8 1.5t6 -0.5t5 -2t4 -2.5l28 -24q8 -5 10.5 -11t-1 -12t-7.5 -10.5t-11.5 -12t-11.5 -12.5l-15 -20l-1 -2h32q26 0 40 -3q15 -3 33 -16z" glyph-name="asterisk" horiz-adv-x="458" unicode="*"/><glyph d="M458 421q26 -22 5 -60q-14 -28 -53 -22q-17 3 -43 4q-9 0 -30 1t-33 2v-1q0 -14 0.5 -40.5t0.5 -33.5q1 -26 3 -43q5 -39 -24 -54q-54 -26 -76 2q-6 8 -8 86q0 18 1 36q1 15 1 19q0 8 0.5 19t0.5 15q-29 1 -55 1l-11 1q-11 0 -28 -1q-30 -1 -51 -3h-1q-10 0 -16.5 9 t-3.5 20l10 48q4 13 18 14h7.5h7.5h-6h6h10q59 3 117 4q1 26 3.5 62t2.5 43q1 11 3 19t4 12.5t6 7.5t6 4t6.5 1.5t4.5 1.5l36 6q8 1 13.5 -1t8.5 -6.5t4.5 -9.5t1.5 -13t-0.5 -13.5t-1.5 -15t-2 -13.5q-1 -17 -1 -29v-10v-45h20h19h36q30 -2 45 -5q17 -4 36 -19z" glyph-name="plus" horiz-adv-x="509" unicode="+"/><glyph d="M182 120q37 -33 33 -81.5t-25 -91t-43 -58.5q-14 -10 -28 -11t-23 12.5t-3 42.5q9 48 -16 63q-3 1 -6 3h-0.5h-1.5q-32 18 -33 59q-1 33 19 53.5t51 25.5q19 2 32.5 1t20.5 -4l7 -3q7 -3 14 -9l0.5 -0.5l0.5 -0.5z" glyph-name="comma" horiz-adv-x="251" unicode=","/><glyph d="M500 355q1 -8 -1 -13.5t-6.5 -8.5t-9 -4.5t-13 -1.5t-13.5 0.5t-14.5 1.5t-14.5 1q-17 2 -28 2h-11q-69 1 -143 -2h-2q-14 0 -40.5 -1t-33.5 -1q-26 0 -43 -2q-39 -5 -53 24q-27 53 1 76q8 6 86 7h36q16 -1 19 -1q53 -2 62 -2h2q30 -1 66 -3t65.5 -4t37.5 -2 q10 -1 18.5 -3t12.5 -4.5t7 -6t4 -6t2 -6.5t1 -5z" glyph-name="hyphen" horiz-adv-x="660" unicode="-"/><glyph d="M166 141q16 -7 29 -26t12 -39q-1 -45 -37 -61q-12 -5 -29 -11q-30 -8 -56 -1q-47 14 -49 65q-1 33 19 53.5t51 25.5q19 2 32.5 1t20.5 -4z" glyph-name="period" horiz-adv-x="243" unicode="."/><glyph d="M461 777q16 3 33 4t28.5 -10.5t9.5 -34.5q-2 -18 -77 -159q-17 -31 -35 -64q-16 -28 -20 -34q-53 -95 -62 -111q0 -1 -1 -2q-31 -54 -68 -117.5t-68 -116t-38 -65.5q-11 -19 -21 -32.5t-16 -20.5t-13 -10t-9.5 -3.5t-7.5 0t-6 0.5l-40 7q-7 2 -10.5 6.5t-3.5 11t1 13.5 t5.5 16.5t8.5 17.5t10.5 19t11.5 19.5t12.5 20t11.5 18.5q18 30 29 51l10 19q70 126 138 259q0 1 1 2q15 26 39.5 73.5t31.5 61.5q25 46 40 78q33 72 75 83z" glyph-name="slash" horiz-adv-x="568" unicode="/"/><glyph d="M610 500q15 -73 12 -142.5t-31.5 -139t-79.5 -125.5q-57 -61 -132 -79.5t-149 13.5q-171 76 -190 297q0 2 -1 18.5t-1 20.5q-16 174 87 308q51 66 125 91.5t149 -0.5q69 -23 117 -70q4 -3 16 -17t16 -20q44 -62 62 -155zM477 359q4 27 0 58q-9 61 -15 77q-30 74 -100 110 q-44 22 -80.5 8.5t-60.5 -58.5q-13 -26 -22 -52q-1 -2 -1.5 -4.5t-1.5 -3.5q-9 -29 -13 -60q-3 -22 0 -80q1 -15 3 -26q9 -55 36 -92q24 -32 59 -54q42 -26 79 -16t65 52q42 67 52 141z" glyph-name="zero" horiz-adv-x="659" unicode="0"/><glyph d="M555 145q6 -36 -14 -72.5t-52 -48.5q-38 -14 -61 -15q-99 -2 -349 -4q-34 -1 -43 30q3 13 9 24.5t11 18.5t17.5 17t17 13t21.5 13t20 12q10 6 21 5q36 0 76 -1q-5 23 -6 67q0 30 1 55q1 24 2 29q3 82 2 96q4 74 10 168q-11 -8 -38 -27.5t-41 -29.5q-29 -22 -54 -5 q-3 2 -4 5q-7 28 -9.5 44.5t0 35.5t12.5 41q6 12 16 19q18 12 78 71t67 66q4 3 8 4q55 19 114 8q15 -3 15 -18v0q0 -31 -3 -49q-1 -21 -2 -28q-4 -33 -7 -78q-1 -11 -1.5 -28.5l-0.5 -17.5q-3 -114 4 -233q-1 -22 0.5 -62.5t1.5 -51.5q0 -40 4 -65v-7q24 4 67.5 15t51.5 13 q16 4 27 -8l5 -5q4 -6 6 -16z" glyph-name="one" horiz-adv-x="592" unicode="1"/><glyph d="M573 183q7 -38 -14 -94.5t-53 -67.5q-40 -15 -63 -15q-102 -2 -359 -4q-35 -1 -44 30q-1 3 -1.5 18t2 40t8 55t17 64t28 66t44 62t60.5 49q32 19 70 35t60.5 25t43 22.5t29 34.5t6.5 55q-3 38 -42.5 63.5t-105.5 16.5q-17 -2 -28.5 -7t-16.5 -14.5t-7 -15.5t-3 -18.5 t-2 -16.5q-8 -47 -36 -68.5t-63 -4.5q-31 14 -50.5 59.5t-16.5 93t30 64.5q70 44 105 52q67 16 167 8q61 -5 112 -34t80.5 -70.5t37.5 -93t-8.5 -100.5t-67.5 -93.5t-131 -70.5q-34 -12 -60.5 -33.5t-43 -47t-26.5 -48t-15 -45.5q53 0 86 -1q24 -1 49 1h5q33 3 93 37.5 t86 40.5q16 4 28 -9l4 -4q4 -6 6 -16z" glyph-name="two" horiz-adv-x="610" unicode="2"/><glyph d="M502 425q45 -28 70 -74.5t19 -108.5q-13 -151 -136 -219q-55 -31 -125 -33.5t-128 16t-96 48.5q-39 32 -54 66.5t-16 77.5q-1 23 17.5 45.5t44.5 30.5q22 7 42 8q19 1 22 -16q4 -30 6 -40q1 -2 5.5 -10t5.5 -9q21 -49 65.5 -70t92.5 -11t83 45q28 30 24 76.5t-31 66.5 q-13 9 -78 14t-73 9q-33 15 -44.5 49t-3.5 54q8 17 28.5 26.5t46.5 9.5q51 -2 87 24t33 77q-1 35 -38 58.5t-98 15.5q-16 -2 -26.5 -7t-15 -13t-6.5 -13.5t-3 -17.5t-2 -15q-7 -44 -33 -63.5t-59 -4.5q-27 13 -45.5 55t-15.5 86t28 60q65 40 97 48q61 14 154 7 q55 -5 100.5 -30t72.5 -62.5t38 -81t-3 -90t-52 -84.5z" glyph-name="three" horiz-adv-x="628" unicode="3"/><glyph d="M478 457q2 -1 22 -10t24.5 -12t19.5 -12t20.5 -16t13.5 -18t12 -24q-9 -32 -47 -34q-25 -2 -76 -5v-1q-1 -26 0.5 -72t1.5 -59q0 -45 4 -75q8 -68 -39 -94q-21 -11 -41.5 -17t-44 -2.5t-37.5 22.5q-11 14 -13 150q0 35 1 64q1 27 2 33q0 11 1 42q-86 -5 -146 -7 q-25 -1 -69 10q-33 9 -44 44.5t-5 78.5v2v6v8q2 16 2 20q3 55 2 64v2q6 78 16 176q0 5 1 9v7v-7v8.5t1 8.5q1 14 23 18l76 10q17 3 31 -4t12 -18q-4 -23 -6 -53q-2 -18 -2 -30v-11q-2 -74 3 -150v-1q0 -14 2 -59q21 -2 44 -2h-1q2 -1 6 0q27 -1 52 2l6 1q3 59 8 141.5 t5 91.5q1 19 4.5 33t7 22t10 13t10 6.5t10 3t7.5 2.5l58 11q13 1 22 -2t13.5 -11.5t7 -16.5t2.5 -22.5t-0.5 -24t-2.5 -26t-3 -23.5q-2 -31 -2 -51v-19q-1 -54 0 -117q8 -1 15 -4z" glyph-name="four" horiz-adv-x="626" unicode="4"/><glyph d="M296 517q78 -2 138 -30.5t94 -85t28 -134.5q-14 -164 -127 -227q-55 -31 -116 -41t-113 -0.5t-94 32.5q-22 13 -40 40.5t-19 62.5q-1 22 17 44.5t45 31.5q22 7 41 8q20 1 22 -16q5 -31 7 -40q2 -12 11 -19q13 -12 32 -17q29 -7 66 2t67 30q37 27 47 63.5t9 87.5 q-1 38 -44.5 67t-103.5 22q-33 -3 -78 -49q-10 -14 -22 -18q-29 -13 -55 -10.5t-38.5 13.5t-15.5 31q-1 3 -2 4q-5 14 -5 41v33q2 15 2 18q2 49 2 57q3 52 10 118q-17 16 -24 39q-1 3 -1 6q6 29 37 34q236 39 329 53q21 3 59 -5q31 -7 53 -39.5t21 -68.5q0 -15 -8 -27 q-1 -1 -2 -2.5t-2.5 -3l-2.5 -2.5q-3 -4 -7 -4q-15 1 -63 5.5t-65 4.5t-66 -3q-34 -2 -131 -23q-1 -44 2 -93q50 11 106 10zM208 522q1 9 2 12z" glyph-name="five" horiz-adv-x="593" unicode="5"/><glyph d="M597 337q15 -48 12 -94.5t-30 -93t-77 -84.5q-53 -41 -125 -53t-143 9q-120 38 -161 127v1l-1 1q-11 26 -16 55q-23 82 -20 166.5t23.5 157t64.5 129t103 82.5q77 34 171 35q43 0 78 -17t54.5 -43.5t30 -56t9.5 -55.5t-13 -41q-10 -13 -30 -15t-40 5.5t-36.5 23.5 t-20.5 36q-6 33 -47.5 40t-88.5 -12q-26 -10 -50 -47.5t-38 -92.5q75 34 166 12q11 -2 33.5 -6t36 -7t32.5 -11.5t34 -21.5q3 -2 14.5 -11t15.5 -14q42 -41 59 -104zM455 245q3 16 0 35q-8 36 -13 45q-26 44 -88 65q-39 13 -70.5 5.5t-52.5 -34.5q-11 -15 -19 -31 q-1 -1 -1.5 -2.5l-0.5 -1.5q-8 -15 -11 -31v-2v-1l-1 -1v-1q-2 -13 0 -47q0 -9 2 -15v-1q8 -32 32 -54q21 -19 51 -32q37 -15 69.5 -9.5t56.5 31.5q37 39 46 82z" glyph-name="six" horiz-adv-x="646" unicode="6"/><glyph d="M541 769q36 0 45 -33q-7 -33 -27 -53t-56 -41q-20 -30 -42 -69q-7 -12 -17.5 -30.5t-9.5 -18.5q-5 -9 -10 -19q11 3 20 -7q2 -2 3 -4q4 -6 5 -14q12 -66 -37 -89q-29 -14 -47 -15q-2 0 -5.5 -0.5t-5.5 -0.5q-28 -57 -52 -108q-13 -24 -34.5 -69t-27.5 -57 q-22 -43 -34 -73q-26 -69 -79 -72q-35 -2 -55.5 9.5t-24.5 45.5q-5 43 4 73q9 28 33 78q17 32 32 60q14 25 18 31q7 12 20.5 37t19.5 35q-25 -2 -77 -4q-27 -2 -34 25q1 12 5.5 22.5t8.5 17t13.5 15.5t12.5 11.5t16 12t15 11.5q7 5 16 6q53 1 90 2q39 69 83 144h-11 q-24 2 -49 0q-4 0 -6 -1h1q-29 -2 -57.5 -7.5t-72 -16.5t-55.5 -13q-16 -4 -28 9l-5 5q-4 7 -6 17q-6 39 15 78.5t55 51.5q41 15 66 16q104 1 368 2z" glyph-name="seven" horiz-adv-x="622" unicode="7"/><glyph d="M584 332q14 -48 11.5 -94.5t-30 -93.5t-76.5 -84q-54 -41 -126 -53t-142 9q-163 51 -181 199q0 1 -1 12t-1 14q-16 116 83 206q12 11 26 19q-66 40 -76 112q0 1 -0.5 9t-1.5 10q-13 83 71 147q41 32 101.5 44.5t121.5 -0.5q56 -11 95 -34q13 -5 26 -17q36 -30 51 -75 q20 -46 4 -96t-70 -89q12 -5 25 -16q3 -2 14.5 -11.5t15.5 -13.5q42 -42 60 -104zM218 622q-2 -8 0 -29q0 -5 1 -9q6 -20 22 -33q15 -12 36 -19q52 -20 87 13q25 23 32 50q2 9 0 20q-6 22 -9 28q-18 26 -61 39q-55 16 -85 -18q-8 -9 -14 -18q0 -1 -0.5 -2l-0.5 -1 q-6 -11 -8 -21zM441 240q4 16 0 34q-7 37 -13 46q-26 44 -88 65q-38 13 -70 5t-52 -34q-12 -16 -20 -31q0 -1 -1 -2.5t-1 -2.5q-8 -17 -12 -35q-2 -13 0 -48q1 -8 2 -15h1q8 -32 32 -54q20 -19 51 -32q36 -16 69 -10t56 31q37 40 46 83z" glyph-name="eight" horiz-adv-x="632" unicode="8"/><glyph d="M357 769q16 12 51.5 12.5t66.5 -11.5t34 -32q-1 -23 -1 -81v-107t-1 -59q-2 -39 -5 -214q-2 -163 -3 -179q-1 -49 -16 -74t-55 -24q-75 2 -77 86q0 31 3 80.5t4 68.5q0 5 6 68t5 76q-7 -15 -29.5 -29t-53.5 -22t-73 -1t-81 32q-44 29 -68 71t-27 85.5t5 83t24 71.5 q16 31 43.5 52t49 28.5t42.5 10.5q62 9 142 5q10 0 14 3zM359 521q0 26 2.5 60.5t1.5 56.5q-18 9 -43 14t-55 1t-53 -19q-19 -13 -27.5 -45t1.5 -65t42 -44q35 -12 70 1t61 40z" glyph-name="nine" horiz-adv-x="545" unicode="9"/><glyph d="M166 141q16 -7 29 -26t12 -39q-1 -45 -37 -61q-12 -5 -29 -11q-30 -8 -56 -1q-47 14 -49 65q-1 33 19 53.5t51 25.5q19 2 32.5 1t20.5 -4zM85 334q-47 13 -49 65q-1 33 19 53t51 25q19 3 32.5 1.5t20.5 -3.5l7 -3q16 -7 29 -26.5t12 -38.5q-1 -45 -37 -61q-12 -6 -29 -11 q-30 -9 -56 -1z" glyph-name="colon" horiz-adv-x="243" unicode=":"/><glyph d="M85 325q-47 13 -49 65q-1 33 19 53t51 25q19 3 32.5 1.5t20.5 -3.5l7 -3q16 -7 29 -26.5t12 -38.5q-1 -45 -37 -61q-12 -6 -29 -11q-30 -9 -56 -1zM182 121q37 -33 33 -81.5t-25 -91t-43 -58.5q-14 -10 -28 -11t-23 13t-3 42q9 48 -16 63q-3 1 -6 3h-0.5h-1.5v1 q-32 17 -33 58q-1 33 19 53.5t51 25.5q19 2 32.5 1t20.5 -4l7 -3q7 -3 14 -9l0.5 -0.5l0.5 -0.5z" glyph-name="semicolon" horiz-adv-x="251" unicode=";"/><glyph d="M58 426q-10 -1 -16.5 8t-3.5 20l9 48q5 13 19 14h7h8h-6h6h5t4 1q93 3 170 4h1h62q4 0 19 1q17 -1 36 -1q30 -1 45 -5q17 -4 35 -19q27 -21 6 -60q-15 -27 -53 -22q-17 3 -43 4q-7 0 -33.5 1.5t-41.5 1.5h-1q-71 6 -143 7h-11q-11 0 -28 -1q-30 0 -51 -2h-1zM475 270 q0 -7 -1.5 -13t-6.5 -8.5t-9.5 -4t-13 -1.5t-13.5 0.5t-14.5 1.5t-13.5 1q-18 2 -29 1l-11 1q-71 1 -143 -3h-1q-15 1 -41.5 0t-33.5 -1q-26 0 -43 -2q-38 -5 -53 24q-26 53 1 75q8 7 86 8h36q16 -1 20 -1q52 -2 61 -2h2q30 -1 66 -3t65.5 -4t37.5 -3q11 0 19 -2t12 -4.5 t7.5 -6.5t4 -6l1.5 -6t1 -5z" glyph-name="equal" horiz-adv-x="511" unicode="="/><glyph d="M317 141q17 -7 29.5 -26t12.5 -39q-1 -45 -37 -61q-12 -5 -30 -11q-29 -8 -55 -1q-48 14 -49 65q-1 33 18.5 53.5t50.5 25.5q19 2 32.5 1t20.5 -4zM332 768q61 -5 111 -31.5t80 -64t43 -84t5 -91t-40 -85t-85 -64.5q-44 -20 -67.5 -47t-26.5 -71q-2 -29 -44 -40t-83 7 t-40 60q1 55 36 100t72 69q8 5 25 15t24 15t19.5 14.5t17.5 18t11 21t7 28.5t0 35q-4 37 -40.5 54.5t-103.5 8.5q-18 -2 -29 -7t-16.5 -14t-7 -15t-3 -19t-1.5 -17q-8 -46 -36 -67.5t-64 -5.5q-30 14 -49.5 59.5t-17 93t30.5 64.5q70 44 105 53q66 15 167 7z" glyph-name="question" horiz-adv-x="610" unicode="?"/><glyph d="M550 194q-5 0 -28 3q-25 3 -46 21q-8 7 -16 19q-1 1 -3.5 4t-4 5.5t-1.5 5.5q-1 0 -7 8q-1 -1 -4 -2t-4 -1q-17 -29 -45 -48q-23 -15 -50 -20q-10 -2 -25 2q-10 1 -26 9q-12 6 -36 27q-13 13 -23 34q-13 28 -15 48q0 2 -1.5 13.5t-1.5 17.5q1 15 5 31q3 11 6 23q3 8 7 18 q7 18 9.5 24t7.5 14q11 20 16 28q11 16 26 37q2 3 7 8q2 3 10.5 12.5t13.5 13.5q2 2 9.5 9t13 11t11.5 7q3 1 10 5t11 5q12 4 22 7q7 3 12.5 3.5t13 1t13.5 0.5q7 1 18.5 -1.5t15.5 -6.5q9 -10 12 -11q6 4 7 4q20 11 31 10q13 -1 20 -8l5 -5q6 -6 6 -14q0 -4 1 -13.5 t1 -14.5t-3 -33q-1 -3 -1.5 -8t-1.5 -6q-4 -30 -4 -32q-3 -16 -9 -36q-8 -29 -3 -52q0 -4 1 -11.5t2 -10.5q0 -1 6 -16q34 -9 58.5 -3.5t36.5 23t19 41.5t6 51.5t-2 54.5q-14 52 -50 88q-44 44 -115.5 64.5t-121.5 8.5q-29 -6 -50.5 -13.5t-52 -25.5t-51.5 -41.5t-39 -64.5 t-23.5 -93t0.5 -95t23.5 -73.5t29 -45t28.5 -31.5q5 -4 6 -6q20 -20 51 -36.5t70.5 -26t87 -4.5t92.5 28q33 16 66 20t86 1q13 -1 18 -15t-5 -24q-61 -63 -164 -96q-98 -31 -196 -12t-171 81q-67 57 -103 127t-38.5 140t18.5 142q26 92 85 153q6 7 21.5 21t20.5 16 q64 47 155 69q97 24 192.5 -3t165.5 -92q49 -46 66 -114t10 -138q-5 -49 -32 -97t-77.5 -82.5t-111.5 -35.5zM428 459q2 14 -2 20q-9 13 -26 8q-10 -3 -20 -11q-13 -9 -40 -41q0 -1 -2 -3q-6 -10 -10 -16q-3 -5 -3 -7q-1 -2 -4 -10t-5 -12q-4 -8 -7 -29q-3 -18 1 -38 q3 -18 16 -28q1 0 10 1q17 18 18 19q17 23 20 30q1 3 20 33l3 4q10 20 15 29q8 17 9 21q5 14 7 30z" glyph-name="at" horiz-adv-x="809" unicode="@"/><glyph d="M603 122q1 -4 9 -80q-45 -29 -79 -41t-72 -4q-18 21 -25.5 47.5t-12 63t-10.5 56.5q-22 -1 -61.5 -1t-72.5 -2.5t-61 -11.5q-2 -7 -7 -25.5t-7.5 -26.5t-9 -22.5t-13.5 -22t-18.5 -16t-26.5 -13.5q-27 -8 -37 -11t-32 -6.5t-40 0.5t-36 14q0 5 0.5 14.5t1.5 16.5t3 13 q83 243 194 562q3 8 11 23.5t11 24.5q9 26 24.5 45.5t38 31.5t43 18.5t50.5 12.5q29 6 47.5 -8t30.5 -51q79 -255 111 -372q7 -27 13.5 -58.5t11 -54t11.5 -60.5t10 -56zM381 307q5 118 -53 244q-8 -22 -24.5 -63.5t-25.5 -65.5t-17 -60t-9 -69q36 3 129 14z" glyph-name="A" horiz-adv-x="726" unicode="A"/><glyph d="M603 122q1 -4 9 -80q-45 -29 -79 -41t-72 -4q-18 21 -25.5 47.5t-12 63t-10.5 56.5q-22 -1 -61.5 -1t-72.5 -2.5t-61 -11.5q-2 -7 -7 -25.5t-7.5 -26.5t-9 -22.5t-13.5 -22t-18.5 -16t-26.5 -13.5q-27 -8 -37 -11t-32 -6.5t-40 0.5t-36 14q0 5 0.5 14.5t1.5 16.5t3 13 q83 243 194 562q3 8 11 23.5t11 24.5q9 26 24.5 45.5t38 31.5t43 18.5t50.5 12.5q29 6 47.5 -8t30.5 -51q79 -255 111 -372q7 -27 13.5 -58.5t11 -54t11.5 -60.5t10 -56zM381 307q5 118 -53 244q-8 -22 -24.5 -63.5t-25.5 -65.5t-17 -60t-9 -69q36 3 129 14z" glyph-name="A" horiz-adv-x="726" unicode=""/><glyph d="M628 367q40 -25 60 -65.5t18 -81t-18.5 -77.5t-43.5 -57q-77 -57 -160 -71q-38 -7 -89.5 -4t-86.5 17q-14 -12 -35 -17q-86 -17 -111 66q-17 59 -18 130.5t8 131.5q5 35 15.5 98t14.5 88q0 5 4 84q-62 -30 -67 -32q-22 -10 -43 1q-36 20 -40 72q-2 25 13 40.5t42 28.5 q113 58 202 65q22 4 102 2t99 -2q42 1 88.5 -29t82.5 -70q28 -31 31 -96t-19 -122.5t-58 -69.5q-8 -2 -26 -9q8 -5 19.5 -12t15.5 -9zM535 218q3 17 -4.5 44.5t-21.5 36.5q-18 11 -42.5 15t-38 4t-49.5 -3t-43 -3q3 -27 0.5 -75t3.5 -64q81 -26 142 -11q20 5 35 20t18 36z M517 517q15 9 24.5 29.5t6.5 35.5q-4 20 -24 38t-42 23q-10 2 -19.5 3.5t-21 0.5t-16.5 -1.5t-18.5 -4t-16 -4.5t-19.5 -6.5t-19 -6.5q-5 -24 -7 -70t-4 -68q117 -6 176 31z" glyph-name="B" horiz-adv-x="820" unicode="B"/><glyph d="M594 379q33 -1 55.5 -26t21.5 -59q-2 -50 -25.5 -98t-50.5 -75q-169 -165 -366 -103q-83 26 -135 95.5t-57 159.5q-5 83 18.5 159t69 135.5t107 105t134.5 72.5q101 37 186 31q28 -2 49 -9q31 -10 47.5 -54.5t11 -93t-30.5 -70.5q-30 -26 -62.5 -13.5t-53.5 54.5 q-8 17 -28.5 20t-53.5 1q-28 -2 -72 -33q-143 -101 -163 -265q-6 -55 19 -90t78 -44q86 -14 159 31q23 14 40 37q3 4 8 16t6 17q2 14 9 61q3 25 27 32q25 7 52 6z" glyph-name="C" horiz-adv-x="772" unicode="C"/><glyph d="M610 692q46 -47 71.5 -130.5t27.5 -168.5t-13 -162.5t-44 -117.5q-32 -43 -94 -73t-115 -34q-64 -6 -131 18q-14 -16 -39 -21q-45 -9 -78 10.5t-35 62.5q-3 69 -2 118t8 109q4 29 7.5 105t8.5 109q0 4 4 83q-62 -29 -67 -32q-22 -10 -43 2q-36 20 -40 72q-2 24 13 39.5 t42 29.5q113 58 202 65q33 2 76 2q27 1 50 4q43 4 99 -25t92 -65zM511 227q22 30 28 82t-2 109t-13.5 85t-11.5 50q-6 20 -39 52t-53 35q-39 5 -72 -11l-2 -18.5t-5 -51t-5 -56.5l-11 -171q-1 -29 3 -167q114 -30 183 62z" glyph-name="D" horiz-adv-x="823" unicode="D"/><glyph d="M615 139q6 -37 -13.5 -74.5t-50.5 -48.5q-37 -14 -59 -15q-94 0 -246 1q-15 -2 -27 0q-10 0 -29 0.5t-29 0.5q-26 0 -35 18q-6 12 -2 25q10 30 37 52q-11 49 -11 110q0 22 1.5 51.5t0.5 44.5q-1 10 -10 11q-19 3 -26.5 29t2.5 54t35 34q8 2 9 11q6 80 9 116q1 10 -8 13 q-6 2 -24 6.5t-25 7t-21.5 8.5t-22.5 11.5t-17 15t-16 20.5q-1 4 -1 7q4 30 39 38q267 62 373 85q24 5 69 1q36 -4 65 -33.5t32 -65.5q2 -16 -7 -29l-5 -8q-4 -5 -10 -5q-19 -1 -61.5 -1t-68 -1t-62 -5.5t-67.5 -13.5q-7 -2 -8 -10q-6 -55 -13 -131q-1 -5 2.5 -9t9.5 -4 q27 -1 36 0q19 1 60 3.5t62 4.5q23 1 38 -3q22 -6 39 -25.5t16 -38.5q0 -21 -14.5 -35.5t-41.5 -19.5q-20 -4 -44 -7.5t-53 -7.5t-44 -7q-10 -1 -46 -8q-8 -1 -10 -9q-3 -18 -4.5 -42.5t-1.5 -40t1 -46.5t1 -39q28 -1 48 -2q22 -1 44 0q4 0 5 1q19 1 42 5t39 8l42 10.5 t39 9.5q21 5 33 -13q4 -6 5 -15zM436 242h-6h3h2h1z" glyph-name="E" horiz-adv-x="750" unicode="E"/><glyph d="M510 778q37 -4 66.5 -35t30.5 -68q1 -10 -2 -17q-1 -1 -1 -2q-10 -19 -33 -20h-58.5t-69 -1.5t-57.5 -6.5t-68 -14q-2 -27 -7.5 -79t-7.5 -73h50q18 1 59 3.5t63 4.5q22 1 37 -3q23 -5 39.5 -25t16.5 -39q0 -21 -14.5 -35.5t-41.5 -19.5q-21 -4 -44.5 -7.5t-52.5 -7.5 t-45 -7q-2 0 -53 -9q-6 -27 -7.5 -53.5t0 -66.5t1.5 -51q0 -27 4 -55q7 -52 -39 -72q-65 -27 -99 9q-24 26 -30 49q-5 17 -7 81q0 10 1.5 31.5t1.5 24.5q3 83 0 107q-26 -4 -34 31q-10 40 12 69q12 17 33 19q7 83 11 135q-10 3 -31 8.5t-32.5 10t-27.5 12t-27 18.5t-18 27 q2 33 39 41q266 62 373 85q24 5 69 1z" glyph-name="F" horiz-adv-x="597" unicode="F"/><glyph d="M768 396q10 -23 3.5 -39.5t-29.5 -23.5q-2 -1 -5 -2q-19 -5 -26.5 -9t-12 -16.5t-0.5 -35.5q10 -77 -58 -144q-168 -165 -365 -103q-84 26 -135.5 95.5t-57.5 159.5q-5 82 18.5 158t69 136t107.5 105t134 72q101 38 187 32q27 -2 49 -9q48 -16 55.5 -52t-30.5 -70 q-25 -23 -49 -35q-21 -10 -52 -24q-41 -18 -75 7q-8 7 -20 9q-31 5 -72 -24q-143 -101 -162 -266q-7 -54 18 -89t78 -44q87 -14 159 31q23 14 40 37q15 19 8 35t-31 17q-11 1 -70 -3q-8 -1 -34.5 -3t-40.5 -3q-11 0 -20 1q-26 2 -41 24t-5 46q8 23 41 33q132 38 247 66 q59 14 109 -6q50 -22 68 -63z" glyph-name="G" horiz-adv-x="830" unicode="G"/><glyph d="M628 110q8 -68 -39 -93q-21 -11 -41.5 -17t-44 -2.5t-37.5 21.5q-11 14 -13 151q1 34 1 63q2 27 2 34q0 8 2 49q-109 -7 -184 -10q-1 -23 0.5 -64t1.5 -56q0 -46 4 -76q8 -68 -39 -93q-20 -11 -35 -14.5t-32.5 2t-31.5 24.5q-24 32 -31 62q-5 27 -6 79q0 34 1 63 q1 27 2 34q0 8 1 47q-34 12 -55.5 46.5t-16.5 69.5q1 10 5 17l5 5q12 13 29 10q14 -2 38 -6q5 106 12 219q0 3 0.5 8.5t0.5 7.5v10v-10q0 3 0.5 13.5t0.5 13.5q2 24 25 32l80 15q18 6 33 -5.5t13 -30.5v-1q-4 -37 -7 -89q-2 -30 -2 -50v-19q-1 -61 0 -132h0.5h1.5h-1h6 q27 0 52 3q50 3 133 10q3 56 7.5 135t4.5 89q1 19 4.5 33t7 21.5t10 13t10 7t10 3t8.5 1.5l57 11q13 2 22 -1.5t13.5 -11.5t7 -16.5t2.5 -23t-0.5 -23.5t-2.5 -26t-3 -24q-2 -30 -2 -50v-19q-2 -124 4 -252v-2q-1 -25 0.5 -71t1.5 -59q0 -46 4 -76z" glyph-name="H" horiz-adv-x="737" unicode="H"/><glyph d="M614 147q7 -36 -14.5 -73.5t-57.5 -49.5q-43 -14 -68 -15q-110 -2 -388 -3q-38 0 -48 31q3 13 10 25t12.5 19t19.5 17t19 13t24 13.5t21 11.5q11 6 24 6q37 -1 74 -1q-5 23 -6 65v55q2 23 2 29q3 82 3 95q5 104 14 236q-39 -6 -80 -14q-11 -2 -21 2q-5 2 -23 9t-24.5 10 t-20.5 10.5t-21 13.5t-15 16.5t-13 22.5q-1 3 -1 6q7 30 43 34q271 35 379 48q25 2 69 -6q36 -7 62 -40t25 -70q0 -15 -9 -26l-8 -9q-3 -4 -8 -3q-20 1 -57 4.5t-68 5.5t-60 2q-1 -13 -1 -24q-1 -11 -2 -28.5t0 -17.5q-3 -114 3 -233q0 -22 1 -63t2 -51q0 -40 3 -66 q1 -3 1 -10q25 3 51.5 8.5t60.5 13.5t50 11q17 4 30 -9q3 -2 5 -5q5 -6 6 -16z" glyph-name="I" horiz-adv-x="704" unicode="I"/><glyph d="M648 765q36 -7 62 -39.5t25 -69.5q0 -15 -9 -26q0 -1 -7 -9q-3 -4 -8 -4q-19 2 -67.5 6.5t-75.5 5.5q-1 -10 -1.5 -21.5l-0.5 -11.5q-2 -78 1 -209v-1v-14v-5v-15q-1 -37 -4.5 -71.5t-10.5 -76t-21 -75t-34 -63t-50.5 -46t-68.5 -17.5q-61 -1 -94.5 2t-66 17t-56 36.5 t-59.5 66.5q-22 26 -36 83t-10 110q2 34 27 56t58 20q27 -1 51 -11q23 -10 24 -35q2 -48 2 -61v-2q1 -8 1.5 -15.5t3 -25t9 -31.5t16 -28.5t26 -22.5t38.5 -9q54 0 72.5 51.5t19.5 167.5v15q0 11 -1 102.5t0 128.5q-49 -7 -107 -18q-11 -2 -21 2q-5 2 -23 9t-24.5 9.5 t-20.5 10t-21 14t-15 17t-13 22.5q-1 3 -1 6q7 29 43 34q272 35 379 47q25 3 69 -6z" glyph-name="J" horiz-adv-x="703" unicode="J"/><glyph d="M625 691q-13 -11 -52 -43t-66 -56t-49 -51q-31 -33 -107 -140q11 -11 19 -25q7 -10 16 -21q124 -139 189 -212l1 1q5 -5 12 -12.5t17 -29t6 -41.5q-6 -30 -18 -40.5t-43 -18.5q-35 -9 -63.5 7.5t-64.5 78.5q-16 28 -38 54t-54 59t-45 48q-21 23 -35 34q0 -17 1 -50t1 -50 q0 -46 4 -75q8 -69 -40 -94q-19 -10 -34 -14t-32.5 1.5t-31.5 24.5q-25 33 -31 62q-5 27 -6 79q0 35 1 63t1 34q4 93 3 109v2q6 132 16 297q0 3 0.5 8.5t0.5 7.5v11v-11q0 3 0.5 14t0.5 13q2 25 25 32l80 16q18 6 38 -6.5t18 -30.5q-4 -38 -7 -90q-2 -30 -2 -50v-19 q0 -33 -1 -71q106 135 169 213q16 19 53 44q31 20 72.5 15t66.5 -32q10 -11 12 -25l1 -11q0 -5 -4 -9z" glyph-name="K" horiz-adv-x="665" unicode="K"/><glyph d="M545 134q5 -37 -15 -74t-51 -48q-38 -14 -60 -14q-95 0 -336 3q-33 0 -41 32q7 29 24.5 47t46.5 35q-3 20 -3 57v63q2 27 2 34q3 93 3 108v3q5 132 16 297q0 2 0.5 7.5t0.5 8.5v10v-10q0 3 0.5 13.5t0.5 13.5q1 24 24 32l80 15q19 6 38.5 -6t18.5 -30v-1q-4 -38 -7 -89 q-2 -31 -2 -50v-19q-1 -52 -3 -113.5t-3 -97.5t-1 -41v-2q0 -25 1 -71.5t1 -59.5q1 -33 2 -56h9q22 -2 45 -1q4 0 6 1h-1q27 1 53 6t65.5 15t50.5 12q15 3 26 -9q2 -3 3 -5q5 -7 6 -16z" glyph-name="L" horiz-adv-x="647" unicode="L"/><glyph d="M690 36q1 -17 -18 -23q-24 -8 -58.5 -9.5t-38.5 2.5q-10 4 -16 12.5t-7.5 20t-1 21.5t1.5 23.5t1 20.5q-1 94 -7.5 201t-16.5 104q-17 -52 -52 -170.5t-53 -172.5q-6 -19 -27 -19h-37q-14 0 -19 12q-15 39 -48 133.5t-55.5 154t-28.5 59.5q-5 0 -6 -24q0 -33 -2.5 -127 t-3.5 -145q-2 -52 -24 -78t-72 -36q-25 -5 -44 7q-14 9 -15 26q0 2 -3 43.5t-2.5 45.5t0.5 46q7 103 3.5 183.5t0 183.5t19.5 182q3 11 13 16q48 25 60 30q29 12 50.5 6t39.5 -33q22 -34 43 -83q17 -41 110 -270q1 -3 4 -3t3 3q106 319 117 355q3 8 12 10q61 10 114 -28.5 t55 -94.5q2 -109 9 -585z" glyph-name="M" horiz-adv-x="791" unicode="M"/><glyph d="M622 616q-3 -77 -9.5 -220.5t-8.5 -168.5q-1 -35 2 -62q7 -63 -21 -93.5t-96 -49.5q-4 -1 -5 -2q-15 2 -23 17q-29 58 -108.5 195t-112.5 203q-2 2 -4.5 1.5t-2.5 -3.5q1 -44 8.5 -139.5t7.5 -133.5q0 -7 0.5 -19.5t0.5 -18.5q1 -56 -22.5 -85t-79.5 -41q-37 -8 -55 5 t-18 51q-1 214 1 383q1 74 10 194q1 20 11 74q2 15 13 24q2 1 3 2q53 32 81.5 36.5t50 -14.5t49.5 -73q13 -26 64.5 -139.5t81.5 -164.5q2 -3 5.5 -2t3.5 4q1 23 0.5 91t0.5 81q1 19 2 66.5t4 79.5q4 41 17 56.5t42 17.5q36 3 65.5 -15.5t37.5 -49.5q7 -31 4 -87z" glyph-name="N" horiz-adv-x="731" unicode="N"/><glyph d="M594 662q113 -135 92 -309q-1 -4 -2 -20.5t-1 -18.5q-24 -221 -215 -294q-83 -31 -166.5 -11.5t-145.5 80.5q-56 57 -86.5 127t-33 140t15.5 142q22 92 72 154q5 6 18.5 20t17.5 16q54 47 131 69q84 25 166 -1.5t137 -93.5zM525 346q4 58 1 80q-4 30 -14 60q0 1 -1 3.5 t-2 4.5q-9 26 -24 52q-25 46 -65 60t-90 -8q-79 -35 -113 -108q-7 -16 -18 -77q-5 -31 -1 -58q10 -74 56 -141q30 -44 71 -54t89 15q39 22 65 53q31 37 42 92h1q2 11 3 26z" glyph-name="O" horiz-adv-x="777" unicode="O"/><glyph d="M655 699q27 -20 44 -56.5t19.5 -77t-16.5 -81.5t-59 -66q-2 -2 -17.5 -12t-24.5 -15.5t-27 -15.5t-31.5 -16.5t-31 -12.5t-32.5 -9q-40 -8 -92 -11.5t-62 -2.5q-3 -60 -3 -63q1 -41 8 -169q3 -44 -11 -67t-46 -29q-86 -18 -111 66q-17 58 -18 130t8 131q5 35 15.5 98 t14.5 88q0 5 4 84q-62 -29 -67 -32q-22 -10 -43 1q-36 21 -40 72q-2 25 13 40.5t42 29.5q113 57 202 65q22 3 102 1t99 -1q29 0 59.5 -11t51 -23.5t50.5 -34.5zM517 500q15 9 24.5 29.5t6.5 35.5q-4 20 -24 38t-42 23q-10 2 -19.5 3.5t-21 0.5t-16.5 -1t-18.5 -4t-16 -4.5 t-19.5 -6.5t-19 -6q-5 -25 -7 -71t-4 -68q117 -6 176 31z" glyph-name="P" horiz-adv-x="684" unicode="P"/><glyph d="M675 124q5 -4 12.5 -12.5t17 -30.5t3.5 -42q-9 -30 -24 -39t-50 -15q-33 -6 -59.5 5.5t-53.5 50.5q-21 -11 -41 -19q-82 -30 -165.5 -11t-145.5 81q-56 57 -86.5 127t-33 139.5t15.5 141.5q22 93 72 154q5 7 18.5 21t17.5 16q54 47 131 69q84 24 166 -2.5t137 -92.5 q113 -136 92 -309q-1 -5 -2 -21.5t-1 -17.5q-10 -94 -50 -160q19 -22 29 -33zM538 348q3 59 1 81q-4 30 -14 60q0 1 -1 3.5t-2 3.5q-9 27 -24 53q-25 46 -65.5 59.5t-89.5 -7.5q-79 -35 -113 -109q-8 -15 -18 -77q-5 -30 -1 -58q10 -74 56 -141q30 -43 71 -53.5t87 14.5 q-20 26 -34 41q-18 21 -6 47l11 24q17 36 56.5 41.5t65.5 -23.5q4 -5 9 -11q5 13 7 26v1q3 11 4 25z" glyph-name="Q" horiz-adv-x="818" unicode="Q"/><glyph d="M757 152q5 -5 12.5 -13t17 -30.5t3.5 -41.5q-9 -30 -24 -39.5t-50 -14.5q-40 -7 -71.5 11.5t-66.5 83.5q-16 29 -38.5 56.5t-56 63t-46.5 51.5q-27 30 -49.5 44.5t-62.5 22.5q-3 -60 -3 -63q1 -42 8 -170q3 -43 -11 -66t-46 -30q-86 -18 -111 66q-17 59 -18 130.5 t8 131.5q5 34 15.5 97.5t14.5 88.5q0 4 4 83q-62 -29 -67 -31q-22 -11 -43 1q-36 20 -40 72q-2 24 13 39.5t42 29.5q113 58 202 65q22 4 102 2t99 -2q29 0 59.5 -11t51 -23.5t50.5 -34.5q27 -19 44 -56t19.5 -77.5t-16.5 -81.5t-59 -66q-13 -9 -28.5 -16.5t-36 -17 t-30.5 -14.5q122 -141 208 -240h1zM517 522q15 10 24.5 30.5t6.5 35.5q-4 20 -18.5 35t-35.5 20q-61 14 -142 -13q-5 -24 -7 -70t-4 -69q117 -5 176 31z" glyph-name="R" horiz-adv-x="879" unicode="R"/><glyph d="M647 370q36 -55 33 -151q-1 -43 -14.5 -74.5t-42 -54t-58.5 -37.5t-77 -32q-195 -69 -369 90q-29 26 -54 73t-29 97q-2 33 19.5 59t54.5 29q26 2 52 -5q24 -6 28 -31q2 -7 4.5 -20.5t4.5 -24t2 -15.5q4 -35 29 -61.5t58 -39.5t65 -18t54 0q58 11 82 33.5t23 77.5 q-1 61 -174 99q-84 9 -144 36t-88 63t-33.5 78t13.5 81t61 72.5t101 52.5q114 37 187 32q106 -8 122 -13q31 -10 47.5 -54.5t11 -93t-30.5 -70.5q-30 -26 -62.5 -13.5t-53.5 54.5q-10 21 -41.5 35.5t-74.5 10.5q-63 -5 -86.5 -19.5t-25.5 -34.5q-2 -28 20.5 -45.5t59.5 -24 t84.5 -16.5t92.5 -20.5t86 -37.5t63 -67z" glyph-name="S" horiz-adv-x="780" unicode="S"/><glyph d="M496 773q36 -7 61.5 -40t25.5 -70q0 -15 -10 -26l-7 -9q-3 -4 -8 -3q-20 1 -57 4.5t-68 5.5t-59 2q-2 -18 -2 -34q-1 -12 -2 -31t0 -19q-3 -123 3 -252q0 -24 1 -68t1 -56q1 -42 4 -70q8 -65 -39 -88q-20 -10 -35 -14t-32.5 1.5t-31.5 23.5q-24 30 -30 58q-6 26 -6 74v60 q2 25 2 31q3 89 2 104q6 116 15 264q-39 -6 -81 -14q-10 -2 -21 3q-4 1 -22.5 8t-24.5 10t-20 10.5t-21 13.5t-15.5 16.5t-13.5 22.5q-1 3 0 6q6 30 42 34q273 35 380 48q25 3 69 -6z" glyph-name="T" horiz-adv-x="491" unicode="T"/><glyph d="M526 773q14 1 24.5 -4t15.5 -15t8 -19.5t2.5 -24.5t-1 -23t-1.5 -20q-1 -8 -1 -126.5t1 -125.5h-1q1 -31 -2 -59q0 -5 -1 -21.5t-1 -17.5q-20 -221 -173 -295q-45 -21 -91.5 -23.5t-91.5 16t-76 58.5q-51 63 -71.5 149.5t-15.5 179.5v58.5v53.5q9 190 10 200q0 2 0.5 5.5 t0.5 5.5v6v-6q0 2 0.5 9t0.5 8q2 16 25 21l90 10q18 4 33 -3.5t14 -20.5q-5 -24 -7 -58q-3 -20 -2 -33v-12q-2 -51 -2.5 -156.5t0.5 -119.5q0 -5 0.5 -22t1 -24.5t1.5 -22t2.5 -23.5t3.5 -19t5 -17q38 -97 114 -63q19 9 31.5 25t17.5 36t6.5 37.5t1.5 36.5t1 26q0 7 -1 47 v41q2 17 2 22q3 60 3 70v2q2 34 5.5 75t6.5 75t4 42q1 12 4 21.5t7 14.5t10 8.5t9.5 4l10.5 1.5t8 2z" glyph-name="U" horiz-adv-x="658" unicode="U"/><glyph d="M526 773q14 1 24.5 -4t15.5 -15t8 -19.5t2.5 -24.5t-1 -23t-1.5 -20q-1 -8 -1 -126.5t1 -125.5h-1q1 -31 -2 -59q0 -5 -1 -21.5t-1 -17.5q-20 -221 -173 -295q-45 -21 -91.5 -23.5t-91.5 16t-76 58.5q-51 63 -71.5 149.5t-15.5 179.5v58.5v53.5q9 190 10 200q0 2 0.5 5.5 t0.5 5.5v6v-6q0 2 0.5 9t0.5 8q2 16 25 21l90 10q18 4 33 -3.5t14 -20.5q-5 -24 -7 -58q-3 -20 -2 -33v-12q-2 -51 -2.5 -156.5t0.5 -119.5q0 -5 0.5 -22t1 -24.5t1.5 -22t2.5 -23.5t3.5 -19t5 -17q38 -97 114 -63q19 9 31.5 25t17.5 36t6.5 37.5t1.5 36.5t1 26q0 7 -1 47 v41q2 17 2 22q3 60 3 70v2q2 34 5.5 75t6.5 75t4 42q1 12 4 21.5t7 14.5t10 8.5t9.5 4l10.5 1.5t8 2z" glyph-name="U" horiz-adv-x="658" unicode=""/><glyph d="M671 759q31 -11 39.5 -28.5t-2.5 -48.5q-12 -32 -54 -124q-18 -39 -50 -107.5t-58 -125t-48 -107.5q-27 -60 -51 -144q-16 -52 -41.5 -66t-76.5 5q-41 15 -65 41t-35 70q-36 143 -130 438q-7 21 -17 43t-24.5 50t-21.5 43q25 48 81 62q52 12 80 -2.5t41 -58.5 q3 -10 98 -319q1 -3 21 -71q37 69 70 144q61 141 100 240q22 55 66 76q13 6 27 3q37 -8 51 -13z" glyph-name="V" horiz-adv-x="697" unicode="V"/><glyph d="M1052 755q30 -11 38.5 -28.5t-2.5 -47.5q-12 -33 -54 -125q-18 -38 -50 -107t-58 -125.5t-48 -107.5q-27 -60 -51 -143q-16 -53 -41.5 -67t-75.5 5q-42 15 -66 41t-35 70q-37 149 -57 221q-37 -86 -53 -123q-27 -60 -51 -144q-16 -52 -41.5 -66t-76.5 5q-41 15 -65 41 t-35 70q-36 143 -130 438q-7 21 -17 43t-24.5 50t-21.5 43q25 48 81 62q52 12 80 -2.5t41 -58.5q3 -10 98 -319q1 -3 21 -71q37 69 70 144q18 43 26.5 67t21.5 59q10 31 30 54.5t43 29.5q52 12 80 -2.5t41 -57.5q16 -53 23 -113t23 -114q1 -3 21 -71q37 69 70 144 q61 142 100 240q22 55 66 76q13 6 27 3q38 -8 52 -13z" glyph-name="W" horiz-adv-x="1059" unicode="W"/><glyph d="M456 404q220 -345 224 -349q-14 -11 -124 -48q-18 -6 -32.5 -6.5t-26.5 5t-20.5 12t-17 19.5t-14.5 23.5t-14.5 26.5t-14.5 26q-30 51 -67 110h-7h-7q-36 -56 -75 -134q-34 -69 -55 -76q-10 -6 -34 -7.5t-50.5 3.5t-47.5 25.5t-23 52.5q26 34 191 303q-31 47 -98 146 q-14 20 -31 40.5t-40.5 46.5t-35.5 39q8 57 57 84q47 27 99.5 19t78.5 -48q47 -73 81 -137q43 82 63 115q27 45 90 63q19 6 39 -1q33 -12 48 -19q31 -16 38 -35.5t-9 -48.5q-18 -31 -76 -119q-23 -33 -89 -131z" glyph-name="X" horiz-adv-x="755" unicode="X"/><glyph d="M671 764q31 -7 39.5 -18t-2.5 -30q-12 -20 -54 -78q-6 -7 -64.5 -86.5t-88.5 -120.5q-25 -36 -56 -98q-5 -10 -11 -18q-1 -7 -1.5 -15.5l-0.5 -8.5q-3 -66 4 -133q-1 -13 0.5 -36t1.5 -30q0 -22 4 -37q8 -34 -39 -46q-65 -17 -99 6q-25 16 -31 30q-5 14 -6 40q0 17 1 31 q1 13 2 17q3 46 2 54q5 57 14 130q-22 51 -96 170.5t-91 153.5q-7 13 -17 26.5t-24.5 31.5t-21.5 27q25 30 81 38q52 8 80 -1t41 -36q12 -26 37.5 -69.5t53.5 -90.5t34 -57q3 -4 7.5 -4.5t7.5 3.5q25 32 75 103.5t74 110.5q18 28 50 42q24 10 51 6q29 -4 43 -7z" glyph-name="Y" horiz-adv-x="628" unicode="Y"/><glyph d="M279 525q1 5 1 12v-1.5t-0.5 -4.5t-0.5 -6zM492 477q-88 -115 -167 -235q-12 -15 -24.5 -33t-27.5 -40t-24 -34q46 0 77 -1q25 -1 52 1h6h-1q31 3 61 8t75.5 15.5t57.5 13.5q17 3 30 -9l11 -21q7 -36 -14.5 -73.5t-57.5 -49.5q-43 -14 -68 -15q-110 -2 -388 -3 q-38 0 -48 31l0.5 1t0.5 2q-8 14 -7 35q1 43 15 72q13 26 45 72q19 26 40 54q19 23 23 28q62 80 71 94q86 109 196 242q-23 -1 -39 -3v1q-49 -2 -190 -28q-11 -2 -21 2q-5 2 -23 9t-24 9.5t-20.5 10t-21 14t-15 17t-13.5 22.5q-1 3 0 6q6 29 42 34q273 35 380 47q24 3 68 -6 q36 -7 62 -39.5t25 -69.5l-11 -19h1q-3 -3 -7 -9l-7 -11h-1.5t-0.5 1q-13 -15 -21 -25q-27 -30 -62 -73q-9 -11 -22 -28z" glyph-name="Z" horiz-adv-x="672" unicode="Z"/><glyph d="M284 769q18 -7 30.5 -30t10.5 -46q0 -6 -2 -10l-2 -4q-6 -8 -15 -6q-6 1 -29 6.5t-38 8.5t-30 3q-1 0 -3 1q-13 0 -25 -1q-6 -1 -15 -1q-2 -21 -2 -44q-2 -31 -2 -51v-19q-2 -123 3 -251v-2q-1 -26 0 -72t1 -59q1 -45 3 -75q2 -15 1 -29h21q11 -1 22 0h2q13 2 25.5 5.5 t31.5 10.5t24 8q8 3 13 -5q1 -2 1 -3q2 -4 3 -10q2 -23 -7.5 -47t-24.5 -32q-18 -9 -29 -10q-47 -1 -142 -3q-10 -1 -39 0q-6 0 -10.5 7t-7.5 20.5t-5 24t-4 26t-2 17.5q-4 27 -5 79q0 35 1 63t1 34q2 93 2 109v2q4 132 12 297q1 13 1 16v11v-10v18q-13 13 -18 32 q3 21 22 21q53 3 79 4q4 1 8 0q61 3 105 4q12 0 34 -8z" glyph-name="bracketleft" horiz-adv-x="361" unicode="["/><glyph d="M537 45q3 -23 -9 -34.5t-28.5 -11t-32.5 3.5q-42 11 -76 83q-15 32 -40 78q-7 13 -32.5 60.5t-39.5 73.5q-1 1 -1 2q-68 132 -140 258l-11 19q-11 21 -29 51q-4 7 -11.5 18.5t-12.5 19.5t-12 19t-11 19.5t-8 18t-5.5 16.5t-1.5 13.5t3.5 10.5t10.5 7l40 7q1 0 5.5 0.5 t7.5 0t9.5 -4t13 -10t16.5 -19.5t21 -33q8 -13 39 -65t68.5 -115t69.5 -117q0 -1 1 -3q9 -16 63 -110q3 -6 20 -34q17 -30 36 -64q75 -140 77 -158z" glyph-name="backslash" horiz-adv-x="574" unicode="\"/><glyph d="M307 68q14 -14 18 -33q-3 -20 -22 -21q-52 -2 -79 -3q-3 -1 -7 0q-62 -3 -105 -4q-13 0 -35 8q-18 6 -30.5 29.5t-10.5 46.5q1 6 3 10q1 2 2 3q6 9 14 7q6 -2 29 -7.5t38 -8t30 -3.5h3q13 0 26 1q5 1 15 1q1 21 2 44q2 31 2 51v19q1 123 -3 251v2q0 26 -1 72t-1 59 q0 45 -3 75q-1 15 0 29h-22q-10 1 -21 0q-2 0 -3 -1q-12 -1 -24.5 -4.5t-32 -10.5t-24.5 -9q-7 -2 -12 6q-1 1 -2 3q-2 4 -3 10q-2 23 7.5 47t25.5 32q18 9 28 9q48 2 142 4q11 1 39 0q6 0 10.5 -7t8 -20.5t5 -24t3.5 -26t3 -18.5q4 -27 4 -78v-64q-1 -27 -1 -33 q-3 -94 -2 -109v-3q-5 -132 -12 -296q-1 -14 -1 -16v-11v10q0 -2 -1 -18z" glyph-name="bracketright" horiz-adv-x="361" unicode="]"/><glyph d="M530 527q3 -31 -32 -43q-26 -8 -45 21q-9 13 -24 30q-4 5 -18.5 23.5t-23.5 28.5h-1q-40 52 -81 99l-7 7q-2 2 -7 8q-4 -4 -5 -6l-7 -7q-43 -46 -84 -96h-1q-8 -10 -23.5 -27.5t-19.5 -22.5q-15 -17 -24 -30q-20 -29 -46 -19q-19 7 -33 20t-12 30q1 10 47 62q13 15 21 23 q11 10 13 12q32 34 37 40l1 1q19 19 41.5 41t41.5 40.5t24 23.5q19 18 32 16q8 1 13 -4q1 -1 4.5 -5t4.5 -5l-3 4l3 -4l6 -6q59 -60 104 -108q0 -1 1 -1q5 -6 36 -41q3 -2 12 -12q10 -11 21 -24q17 -21 24 -33q8 -14 10 -36z" glyph-name="asciicircum" horiz-adv-x="566" unicode="^"/><glyph d="M605 32q1 -8 -1 -14t-8.5 -9t-12.5 -5t-16.5 -1.5t-17.5 0.5t-19.5 1.5t-17.5 1.5q-22 2 -37 2h-14q-93 1 -186 -3h-2q-19 1 -53 0t-44 -1q-33 0 -55 -3q-51 -5 -69 26q-8 14 -12.5 27.5t-2 29.5t15.5 25q11 7 112 9q25 0 47 -1q20 -1 25 -1q68 -2 80 -2q1 1 2 0 q39 -1 85.5 -3.5t85.5 -4.5t48 -2q14 -1 24.5 -3t16.5 -4.5t9.5 -7t5 -6.5t2.5 -6.5t1 -5.5z" glyph-name="underscore" horiz-adv-x="642" unicode="_"/><glyph d="M504 383q79 -56 -12 -198q-28 -49 -29 -50q0 -1 -18 -34q-4 -6 -11 -17t-10 -17q-8 -14 -24 -30q-13 -12 -17 -14q-21 -13 -36 -12q-33 1 -44 3q-29 4 -53 24q-9 8 -18 22q-1 2 -4 5t-4.5 6t-2.5 6q0 1 -8 9q-2 0 -5 -1.5t-4 -1.5q-19 -33 -53 -56q-25 -17 -57 -22 q-12 -2 -29 1q-11 3 -30 12q-14 6 -42 31q-15 14 -26 38q-16 34 -18 56q0 2 -1.5 15.5t-1.5 21.5q0 17 5 36q4 12 8 26q3 10 7 21q8 21 11.5 28t8.5 16q13 23 19 32q13 19 29 43q3 4 9 10q3 2 12.5 13.5t15.5 16.5q2 2 11 10t15 12.5t13 8.5q3 1 11 5.5t13 6.5q14 5 26 8 q9 3 15 3.5t15 1t16 1.5q8 0 21 -3t17 -7q11 -11 15 -12l7 4q24 12 36 11q15 -1 23 -8l2 -2l2.5 -2.5l1.5 -1.5q8 -8 8 -16q0 -5 1 -16t1 -17t-4 -38q0 -4 -1 -9.5t-2 -7.5q-5 -35 -5 -36q-4 -19 -10 -43q-10 -33 -4 -60q1 -4 1.5 -12.5t1.5 -13.5q1 -1 8 -18q16 2 27 16 q2 3 5.5 8t4.5 6q1 2 4 6t4 5q26 36 28 39q8 12 21.5 37t15.5 29q5 8 11 21q5 10 23 40q4 7 15.5 9t18.5 -4zM195 317q2 17 -2 23q-11 16 -31 10q-11 -3 -23 -13q-14 -11 -46 -47q-1 -1 -2 -4q-7 -11 -12 -19l-4 -8t-4.5 -11t-5.5 -14q-5 -9 -8 -34q-3 -21 1 -44 q3 -21 19 -32q8 0 12 1q18 21 20 22q19 26 24 35q1 3 23 38q3 4 3 5q11 22 17 33q10 20 11 24q5 17 8 35z" glyph-name="a" horiz-adv-x="490" unicode="a"/><glyph d="M484 382q11 -12 9 -29q-4 -36 -52 -71.5t-128 -35.5q12 -96 -48 -173q-67 -78 -147 -76q-36 -1 -69.5 11t-55.5 37q-12 14 -13 15q-31 35 -35 72q-2 26 -2.5 47.5t2 45t5.5 44t8 56.5t9 71q31 264 42 304q14 50 40 66t76 2q14 -4 14 -19q0 -26 -1 -38q-2 -16 -14 -109.5 t-16 -108.5q-1 -4 -2 -10q62 12 97 -27q26 -28 51 -62q10 -13 20 -31q25 -6 41 -7.5t30 3t21 9.5t25 18.5t32 23.5q9 6 20 5t19 -9zM163 148q13 21 17 55.5t-3 66.5q-51 22 -74 66q-12 -9 -17 -18q3 -15 -6 -62t-8.5 -85t22.5 -48q43 -19 69 25z" glyph-name="b" horiz-adv-x="440" unicode="b"/><glyph d="M359 391q12 32 43 9q34 -26 44 -77q6 -32 -5 -59q-5 -13 -9 -21.5t-10 -17t-10 -13t-13.5 -15.5t-14.5 -18q-42 -48 -108 -112q-66 -62 -140 -58t-137 71q-31 38 -43 82t-8 78.5t17.5 70t23 52t19.5 29.5q25 33 51 61q38 42 108 26q52 -12 72 -57t-4 -92q-15 -27 -46 -29 q-6 -1 -10.5 4t-3.5 11q2 14 -14 26q-18 8 -31 2q-25 -13 -37.5 -49.5t-9 -76t19.5 -63.5q27 -42 69 -23q10 4 19.5 10t16.5 11t16.5 15t13.5 14.5t14 18t12 16.5t13 18t12 17q38 54 70 139z" glyph-name="c" horiz-adv-x="370" unicode="c"/><glyph d="M498 301q17 -18 14 -43q-3 -18 -6 -31t-5.5 -20t-9 -23t-12.5 -31q-8 -22 -20 -40q-46 -67 -55 -75q-43 -38 -80 -37t-75 44l-1 1l-2.5 2.5l-3.5 3.5q-19 -18 -33 -25q-85 -35 -152.5 -3.5t-99.5 118.5q-10 35 -10 69.5t8 61t23 52.5t29.5 43.5t32 33.5t27.5 23.5 t18 12.5q37 22 72 40q36 18 76 3q23 190 31 219q15 50 40.5 66t75.5 2q14 -4 14 -19q1 -26 -1 -38q-1 -16 -13.5 -109.5t-15.5 -108.5q-7 -31 -22.5 -141.5t-18.5 -160.5q-3 -42 16 -63q5 -7 13.5 -7t15.5 6q19 17 45 99q17 50 33 92q4 10 15.5 10t18.5 -8zM207 280 q5 31 6 40q-6 12 -15 19.5t-17 6.5q-29 -2 -54.5 -32.5t-37.5 -69.5t-7 -68q9 -50 56 -48q13 0 23.5 10.5t17.5 29t11 35.5t9 41t8 36z" glyph-name="d" horiz-adv-x="466" unicode="d"/><glyph d="M346 381q12 19 38 -2q34 -26 33 -73q-1 -21 -12 -42q-2 -6 -7 -12t-8 -12q-19 -37 -20 -42q-3 -12 -8.5 -21t-16.5 -22.5t-17 -22.5q-5 -9 -13 -18.5t-13 -14.5t-17 -16.5t-15 -14.5q-2 -2 -21.5 -15t-30.5 -17q-40 -18 -44 -19q-6 -2 -18 -3.5t-16 -2.5q-8 -2 -46 0 q-5 1 -14.5 3t-11.5 3q-15 2 -35 13q-5 2 -8 4q-30 22 -32 24q-36 35 -52 73t-13 92q2 38 4 45q2 10 5.5 28t4.5 27q8 34 31 67q3 5 9.5 16t10.5 17q21 29 42 39l10 5t15 7q11 5 24 7q20 4 34 3q1 0 8.5 -0.5t10.5 -0.5q13 -3 37 -9q5 -1 11 -4q33 -19 47 -34q19 -22 18 -54 q-1 -16 -7 -35q0 -2 -4 -14l-6 -18q-6 -16 -16 -35q-2 -4 -15 -29q-2 -4 -4 -5q-2 -4 -7 -9.5t-9 -10.5t-7 -9t-7.5 -7.5t-9.5 -8t-8 -6.5q-2 -1 -36 -29q-6 -5 -25 -21l-1 -1q5 -9 15 -9q1 0 41 3q5 1 6 1q2 2 10.5 5.5t11.5 7.5q2 2 7.5 5t7.5 5q23 19 31 28q3 3 23 29 q4 5 9 11q16 24 19 28q2 3 21 35l0.5 1.5t1.5 2.5q18 27 19 28q4 6 11.5 19t10.5 17q1 2 6.5 10t6.5 10zM51 236q6 3 20.5 15t18.5 18q2 3 11.5 17t14.5 22q12 22 11 43q-1 11 -19 16l-8 2q-16 -11 -17 -12q-13 -18 -18 -30q-2 -5 -7.5 -16t-7.5 -18.5t-3 -16.5 q-1 -27 4 -40z" glyph-name="e" horiz-adv-x="368" unicode="e"/><glyph d="M317 369q23 -5 28.5 -35t0.5 -58q-6 -46 -60 -91.5t-111 -66.5q-1 0 -2.5 -0.5l-1.5 -0.5q6 -19 14.5 -49.5t22.5 -95.5t12 -95q-4 -50 -11.5 -79t-25.5 -62q-36 -66 -134 -62q-74 3 -104 78q-9 23 -15 47.5t-10 43.5t-5 45t-1.5 40.5t1.5 43t3 39t5 41.5t5 38v1v2 q1 6 1 11q26 221 39 291q4 40 12 122q14 143 108 214q1 2 5 5l18 13.5t17 10.5t19 7.5t19 1.5t23 -4q34 -11 54 -31t30 -55q1 -2 2 -8q8 -25 11 -39.5t3.5 -37t-6.5 -42.5q-16 -45 -79 -139t-102 -129q14 -19 35 -27.5t39 -2.5q27 9 83 57q33 28 58 58zM80 493 q-11 -59 -7 -86q15 14 34 41.5t38 65.5t22.5 72.5t-13.5 61.5q-7 -2 -13 -5.5t-11 -8.5t-8 -8.5t-6.5 -11t-4.5 -10.5t-4.5 -12t-4.5 -11q-11 -30 -22 -88zM57 -182q30 19 41 62.5t4.5 91t-17 87t-21.5 59.5q-6 -9 -10 -18.5t-7 -22.5t-4 -17.5t-4 -21.5t-3 -18 q-12 -69 -11 -107v-13.5t0.5 -15t1 -13.5t3 -15t5.5 -12.5t9 -13.5t13 -12z" glyph-name="f" horiz-adv-x="301" unicode="f"/><glyph d="M478 395q8 -8 21 -17t20 -14t12 -15.5t2.5 -24t-13.5 -37t-32 -56.5q-58 -78 -73 -94q-48 -52 -114 -74q-4 -1 -4 -5q0 -54 -2 -81q-13 -149 -108 -255q-40 -45 -94 -28q-71 21 -79 75q-11 67 6 115q28 74 62 118q-11 -1 -26 2q-11 2 -31 11q-13 7 -41 32q-15 14 -27 38 q-15 34 -17 56q0 2 -2 15.5t-1 20.5q0 18 5 37q3 12 8 26q2 9 7 21q8 21 11 28t9 16q13 23 19 32q12 19 29 42q3 4 9 11q2 2 11.5 13.5t15.5 16.5q3 2 11.5 10t15 12.5t13.5 7.5q3 2 11 6.5t13 6.5q14 4 25 8q9 2 15.5 3t15.5 1.5t15 0.5q9 1 22 -2t17 -8q11 -11 15 -12 q6 4 7 5q23 12 36 11q15 -1 23 -9l2 -2l2 -2l2 -2q8 -7 8 -16q0 -5 1 -16t1 -16q-1 -7 -4 -39q-1 -3 -2 -9t-1 -7q-5 -36 -5 -37q-4 -19 -11 -42q-4 -15 -10 -54t-4 -46q1 -4 34.5 32t37.5 43q3 4 35 55t34 55.5t10 17t11 17.5q4 6 10 6.5t11 -4.5zM68 121q1 1 5 1h6 q19 21 20 23q20 26 24 35q2 3 24 37l3 5q11 23 17 34q10 20 11 24q5 17 8 35q2 16 -3 23q-10 15 -30 10q-12 -4 -23 -13q-15 -11 -46 -47q-1 -2 -3 -5q-6 -10 -11 -18l-4 -8t-4.5 -11t-6.5 -14q-4 -10 -8 -34q-3 -21 2 -45q3 -20 19 -32zM186 -78q6 41 1 60 q-11 -9 -26 -27.5t-29 -44t-15.5 -49.5t15.5 -44q6 1 10.5 3t8.5 5.5t6.5 5.5t5 7.5t3.5 7t3 8t3 7.5q8 21 14 61z" glyph-name="g" horiz-adv-x="471" unicode="g"/><glyph d="M447 311q75 -58 47 -114q-39 -79 -72 -110q-83 -75 -121 -81q-13 -3 -18 -2q-37 4 -59 19q-19 13 -25 28q-1 5 -5.5 14.5t-6.5 15.5q-4 14 -10 44q-3 22 -2 56.5t3 50.5q0 7 1.5 16.5t2 15t0.5 7.5q0 1 -4 8q-5 0 -8 -6q-4 -6 -15 -29.5t-13 -27.5t-22.5 -60.5 t-25.5 -69.5q-3 -9 -10 -22.5t-9 -18.5q-11 -27 -23 -33.5t-44 -7.5q-20 0 -30 4q-18 6 -25 26q-7 18 -4 46q1 7 3 18.5t2.5 16.5t2.5 19q3 54 10 109q4 35 20 166q6 52 13 106v0q20 163 28 189q14 50 39.5 66t75.5 2q15 -4 15 -19q0 -25 -1 -38q-2 -16 -14.5 -109.5 t-15.5 -108.5q-9 -37 -26 -163q4 7 12 24t11 21q0 1 0.5 2t1.5 1q2 3 19 26q20 28 46 49q18 14 31 17q13 4 35 5q12 0 25.5 -10t22.5 -22q19 -25 16 -52q-3 -30 -5 -57q-1 -5 -1 -7.5t-0.5 -19.5t-0.5 -27q-1 -7 -2.5 -21.5t-1.5 -21.5q-2 -22 -1 -41q0 -3 3 -31q0 -9 7 -9 q18 -3 37.5 16t33.5 53q1 1 8.5 20.5t15 37t8.5 19.5q4 7 11.5 8t13.5 -3z" glyph-name="h" horiz-adv-x="474" unicode="h"/><glyph d="M62 502q-35 -2 -55 11.5t-22 39.5q-2 28 12.5 45t44.5 20l60 -8q30 -10 31 -43q0 -36 -30 -50q-3 -1 -41 -15zM240 290q16 -20 11 -44q-3 -18 -7 -30.5t-7 -19.5t-10.5 -23t-13.5 -30q-10 -21 -23 -38q-49 -64 -59 -72q-46 -36 -82.5 -33t-72.5 48l-1.5 2.5t-4.5 6 t-6 7.5q-26 33 -31 74q-3 28 10.5 124t27.5 136q17 49 43 63t77 -2q14 -5 13 -20q-1 -25 -3 -38q-3 -14 -21.5 -104t-21.5 -107q-5 -41 13 -64q5 -7 13.5 -7.5t15.5 4.5q20 17 51 96q19 50 38 91q5 9 16 8.5t18 -8.5z" glyph-name="i" horiz-adv-x="199" unicode="i"/><glyph d="M31 525q-25 22 -15 56q9 32 41 34l60 -9q28 -10 37.5 -30.5t0.5 -46.5q-19 -53 -88 -29q-33 23 -36 25zM305 347q5 -4 17.5 -11.5t16 -11t8 -13t0.5 -21.5t-14 -33t-28 -50q-38 -52 -39 -53q-4 -5 -11.5 -11.5t-18 -14t-12.5 -9.5q-19 -16 -63 -44t-53 -27q0 -59 -3 -85 q-13 -149 -108 -255q-40 -45 -94 -28q-80 24 -89 75q-11 67 6 115q14 42 34 65q2 3 6 8.5t6 8.5q41 42 64 61q3 3 13.5 11.5t15 12.5t11 11.5t10.5 16.5q4 6 7 15q5 16 8.5 42.5t6 53.5t2.5 28q2 17 8.5 103.5t7.5 101.5q3 24 5 33q1 6 12 10.5t19 5.5q49 3 66 -21.5 t21 -81.5q3 -54 -8 -156q68 55 84 98q2 6 16 34q1 2 4.5 13t8.5 18q4 7 25.5 -0.5t31.5 -14.5zM-4 -92q6 41 1 60q-11 -9 -26 -27.5t-29 -44t-15 -49.5t15 -44q6 1 11 3t8.5 5.5t6 5.5t5 7.5t3.5 7t3.5 8t2.5 7.5q8 21 14 61z" glyph-name="j" horiz-adv-x="282" unicode="j"/><glyph d="M400 302q72 -60 43 -115q-42 -78 -77 -107q-84 -72 -123 -78q-13 -1 -18 -1q-1 0 -1.5 0.5l-0.5 0.5q-20 -2 -37 3q-21 6 -31 19q-3 4 -10.5 11.5t-10.5 12.5q-9 11 -25 38q-6 9 -17 36v0q-11 -29 -13 -36q-3 -8 -10 -21.5t-9 -18.5q-11 -27 -23 -34t-44 -7q-20 0 -30 3 q-18 7 -25 27q-7 18 -4 46l3 18t2.5 17t1.5 18q4 54 10 109q4 35 21 167q6 52 13 106v0q20 163 27 189q15 50 40.5 66t75.5 1q14 -4 15 -18q0 -26 -1 -38q-2 -17 -14.5 -110t-15.5 -108q-9 -37 -25 -162q0 1 1.5 3.5t2.5 3.5q2 5 6 13.5t7 14.5t5 9l0.5 1.5t1.5 1.5 q2 3 19 26q20 27 46 48q18 14 31 18t35 4q12 1 25 -9t23 -22q19 -25 16 -52q-69 2 -140 -109q-3 -5 -5 -8q-1 0 -1.5 -1t-0.5 -2q1 -4 2 -4q2 -7 6.5 -21t6.5 -21q7 -21 14 -37q9 -20 14 -28q12 -17 25 -23t19 -4.5t9 3.5q21 10 47 33.5t38 47.5q0 2 8.5 21t16.5 36.5 t9 19.5q5 6 12.5 7t13.5 -4z" glyph-name="k" horiz-adv-x="402" unicode="k"/><glyph d="M335 252q12 -45 -19 -108.5t-75 -104.5q-38 -37 -90.5 -39t-94.5 31q-46 38 -61 66q-29 53 -32 96q-2 16 -6.5 48.5t-7.5 58t-5 48.5q-12 205 82 367q17 31 42 43.5t64 12.5q37 0 65.5 -27.5t43 -68t21 -78.5t5.5 -67q-3 -60 -50 -161.5t-117 -161.5q19 -35 41.5 -48 t46.5 4q20 19 52 86q19 38 30 76q23 5 40 -20.5t25 -52.5zM61 434q-2 -20 -1 -48.5t8 -52.5q14 18 30 54.5t30 82t12 90t-26 68.5q-8 -4 -14 -8.5t-10 -11.5t-7 -11.5t-5.5 -14t-3 -13t-3 -15t-2.5 -13.5q-7 -36 -8 -107z" glyph-name="l" horiz-adv-x="291" unicode="l"/><glyph d="M717 312q74 -58 47 -113q-39 -80 -73 -110q-82 -76 -120 -82q-13 -2 -19 -2q-36 4 -58 19q-20 13 -25 29q-2 4 -6.5 14t-5.5 15q-4 14 -10 44q-3 22 -2 56.5t2 50.5q1 7 2.5 16.5t2 15t0.5 8.5l-4 8q-5 0 -9 -7q-3 -6 -14 -29t-13 -28q-2 -3 -23 -59.5t-25 -70.5 q-3 -8 -10 -22l-9 -18q-12 -29 -37 -37q-18 -5 -30 -4q-28 2 -31 3q-19 7 -27 17q-7 8 -13 27q-2 4 -6 14l-6 15q-4 14 -10 44q-3 22 -2 56.5t2 50.5q1 7 2.5 16.5t2 15t0.5 8.5l-4 8q-5 -1 -8 -7q-4 -6 -15 -29t-13 -28q-2 -4 -22.5 -60t-25.5 -70q-3 -8 -10 -22t-9 -19 q-10 -25 -39 -33l-4 -2q-9 -7 -24 -5q-27 2 -30 3q-18 6 -25 27q-7 18 -4 46q1 6 3 17.5t2.5 17t1.5 18.5q2 15 3 23q5 25 4 55q-1 36 -1 41q2 87 -18 163q-4 13 8 19q14 9 38 20q22 10 37 5t20 -9q18 -14 24 -27q15 -30 16 -70q1 -20 3 -27q3 -6 9 4t14 27.5t11 21.5l0.5 1 t1.5 2q2 3 19 26q20 27 46 48q18 14 31 18t35 4q3 0 31 -9q3 0 7 -3t7 -5.5t6.5 -5.5t4.5 -3q11 -9 20 -29q15 -29 16 -70q0 -20 3 -27q3 -6 9 4t14 27.5t11 21.5l0.5 1t0.5 2q3 3 20 26q20 27 46 48q18 14 31 18t35 4q12 0 25 -9.5t23 -22.5q19 -24 16 -51q-3 -31 -6 -58 v-3v-4t-0.5 -19.5t-1.5 -26.5q0 -7 -1.5 -22t-2.5 -22q-1 -22 -1 -40q1 -4 3 -31q1 -9 8 -10q18 -3 37.5 16t33.5 53q0 2 8 21.5t15 37t9 19.5q4 6 11.5 7.5t13.5 -3.5z" glyph-name="m" horiz-adv-x="716" unicode="m"/><glyph d="M463 312q74 -58 47 -113q-39 -80 -73 -110q-82 -76 -120 -82q-13 -2 -19 -2q-37 4 -59 19q-19 13 -24 29q-2 4 -6.5 14t-5.5 15q-5 14 -11 44q-2 22 -1.5 56.5t2.5 50.5q1 7 2 16.5t2 15t0 8.5l-3 8q-5 0 -9 -7q-3 -6 -14 -29t-14 -28q-10 -19 -48 -130q-2 -8 -9 -22 t-9 -19q-11 -25 -39 -33q-4 -2 -5 -2q-9 -7 -24 -5q-27 2 -30 3q-17 6 -25 27q-7 18 -3 46q0 6 2 17.5t3 17.5q1 5 2 18q1 15 3 23q5 25 4 55q-1 36 -1 41q1 87 -19 163q-3 13 8 19q15 9 39 20q22 10 36.5 5t20.5 -9q18 -14 24 -27q14 -30 16 -70q0 -20 3 -27q2 -6 8.5 4 t14.5 27.5t10 21.5q1 0 1.5 1t0.5 2q2 3 19 26q20 27 47 48q17 14 31 18q13 4 34 4q13 0 26 -9.5t23 -22.5q19 -24 16 -51q-3 -31 -6 -58v-3.5v-3.5q0 -2 -0.5 -19.5t-1.5 -26.5q0 -7 -1.5 -22t-2.5 -22q-1 -22 -1 -40q0 -4 3 -31q1 -9 7 -10q19 -3 38 16t33 53q1 2 9 21.5 t15 37t8 19.5q5 6 12.5 7.5t13.5 -3.5z" glyph-name="n" horiz-adv-x="467" unicode="n"/><glyph d="M435 311q5 5 16 -16q16 -32 15 -47q-3 -65 -76 -70q-20 -1 -87 16q-10 -49 -19 -71q-7 -17 -20 -42l-15 -20q-8 -9 -30 -29q-16 -14 -32 -20q-25 -9 -51 -11q-33 -2 -51 1q-10 2 -20 7q-24 13 -40 28q-2 3 -13 12q-5 6 -13.5 17t-25 46t-22 71.5t6.5 91.5t48 109 q3 5 9.5 13t9.5 12q1 2 15 15q12 11 21 18q22 14 31 17q2 1 12 4.5t16 4.5q13 3 32 0q23 -4 53 -20q18 -10 31 -22q15 -14 43 -44q2 -2 4.5 -6t3.5 -6q19 -32 25 -80q73 -34 123 21zM180 223q3 14 -2 19q-36 18 -46 65l-6 10q-9 -8 -10 -8q-10 -12 -23 -41q-9 -18 -12 -33 q-4 -27 -3 -43q2 -26 12 -46q7 -12 13.5 -16.5t20.5 -3.5q35 17 47 53q3 8 9 44z" glyph-name="o" horiz-adv-x="426" unicode="o"/><glyph d="M403 207q22 -5 27.5 -35t1.5 -58q-8 -50 -74.5 -81.5t-164.5 -31.5q-46 0 -74 4q-14 0 -23 2q-15 4 -25 9q-1 -16 -1 -23q0 -13 -8 -94.5t-10 -95.5q-2 -11 -7 -32q-4 -13 -18 -13q-52 -3 -74 15.5t-25 63.5q-2 35 26 265q6 46 19 197t13.5 158t6.5 11.5t15 4.5h83 q13 0 17 -2.5t4 -8.5q3 1 5 1q18 9 31 10q9 -4 21 -4h2h1q21 -10 30 -18q9 -7 20 -17q4 -3 9.5 -10.5t7.5 -9.5q5 -6 9 -12.5t8.5 -16.5t5.5 -14q4 -6 8 -19.5t5 -17.5q3 -7 4 -12q5 -27 9 -48q1 -10 4 -36q1 -10 1 -17q0 -8 -1 -29q-1 -12 -2 -21q-2 -14 -4 -26 q-3 -13 -8 -27q50 17 66 31q33 28 59 58zM190 208q0 5 0.5 13.5t0.5 10.5t-1 8q-1 7 -2 18q-1 3 -1 4q-13 39 -22 53q-7 12 -16 18q-15 12 -31 4q-7 -4 -12 -17q-5 -16 -7 -31q-1 -3 0 -22q0 -11 1 -32q0 -1 1 -6q6 -34 6 -37v-3v-1q7 -32 23 -60q1 0 1.5 -0.5t1.5 -0.5 q19 3 31 18q13 17 19 34q7 20 7 29z" glyph-name="p" horiz-adv-x="434" unicode="p"/><glyph d="M454 165q16 -5 18 -31t-3 -39q-9 -33 -51 -62.5t-85 -40.5h-2t-2 -1l20 -178q-6 -55 -36.5 -100.5t-101.5 -35.5q-55 7 -71 64q-6 19 -9.5 38t-3 41t0 33.5t4 37.5t5 31t7 35.5l6.5 30.5q3 12 8 29q-7 -4 -12 -5q-11 -5 -29 -5q-12 0 -33 5q-14 3 -48 21q-19 9 -36 30 q-23 28 -30 49q-1 2 -6 14.5t-7 19.5q-3 17 -3 35q0 13 1 27q1 9 3 21q3 21 4 29q2 7 5 17q8 24 11 34q8 20 19 46l6 12q2 2 9 15t11 19q3 3 9.5 12t11.5 14.5t12 10.5q2 2 9 8t11 8q14 8 24 13q21 12 59 12q22 0 35 -12q0 1 1 4t1 4t1.5 2.5t4 1.5t6.5 -0.5t10 -1.5 q36 -5 82 -13q8 -1 13 -5t5 -8t-12 -97t-14 -122q-3 -54 -8 -100q6 -20 23.5 -32.5t35.5 -8.5q20 5 64 36q26 18 47 38zM171 287q1 15 -1 31q-2 15 -9 19q-14 12 -32 3q-10 -4 -19 -14q-12 -12 -33 -49q-1 -1 -2 -3q-4 -11 -6 -18q-2 -6 -2 -8q-1 -2 -2 -10.5t-2 -12.5 q-2 -9 1 -31q2 -18 12 -37q9 -17 28 -24q2 0 5 1t6 1q13 22 14 23q12 26 14 34q1 3 13 36q2 4 2 5q6 21 8 31q5 19 5 23zM233 -188q19 12 25.5 45.5t1.5 70t-18 63.5q-9 -17 -18 -58q-8 -41 -9 -64q1 -10 0.5 -19.5t3.5 -19.5t14 -18z" glyph-name="q" horiz-adv-x="438" unicode="q"/><glyph d="M398 182q16 -2 22 -23.5t5 -42.5q-3 -64 -93 -106q-19 -10 -67 -10t-69 12q-28 17 -36 29q-13 19 -16 26q-10 18 -14 35q-7 26 -7 49q0 21 1 27q0 10 3 21q4 21 9 38q0 1 8 19q9 24 9 26q7 18 10 28q3 12 -7 19q-4 3 -7 3q-14 -1 -21 -3q-12 -3 -17 -13q-3 -6 -31 -68 t-32 -70q-17 -34 -44 -65q-9 -9 -21 -17q-7 -5 -15 -1.5t-10 11.5l-18 80q-3 11 5.5 19.5t17.5 21t16 27.5t14 31t13 33t10.5 32t9 30.5t7 25t4.5 18.5t2 10q1 2 2 7.5t2 7.5q2 7 9 13t14 6q25 1 30 2q12 1 20 -8t12 -9.5t14 5.5q8 4 31 10q21 4 39 7q1 0 35 2q14 1 17 1 q16 2 36 -7q14 -6 19 -21q7 -20 3 -41q-2 -12 -12 -33q-3 -8 -10 -22.5t-11 -22.5q-2 -7 -5.5 -20t-4.5 -16q-6 -22 -14 -59q-9 -40 -9 -61q0 -32 5 -42q15 -23 40 -27q26 5 43 16q13 10 36 34q4 5 6.5 8.5t5.5 8.5t6 9z" glyph-name="r" horiz-adv-x="406" unicode="r"/><glyph d="M387 351l0.5 -1t1 -3.5t1 -4.5t1 -5.5t1 -6t0.5 -5.5v-5.5v-4t-1 -1.5q-1 -1 -21 -35t-40.5 -68t-20.5 -35q-3 -3 -8.5 -12.5t-9.5 -14.5q-3 -4 -9.5 -13.5t-12 -16.5t-11.5 -13q-3 -4 -8.5 -11.5t-7.5 -10.5q-32 -36 -55 -50q-25 -15 -36 -19q-3 -1 -9.5 -4t-9.5 -3 q-11 -3 -24 -4q-7 0 -32 1.5t-54 35.5q-11 13 -26 37q-1 2 -8 14.5t-12.5 20.5t-7.5 9q-22 -36 -56 -62q-9 -7 -22 -15q-7 -5 -34.5 -18t-37.5 -17q-6 -1 -22.5 -2.5t-20.5 -2.5l-1 -1q-26 -1 -33.5 30.5t4 64.5t32.5 36q6 1 15 1.5t14.5 1.5t9.5 3q9 5 15 10q22 18 30 27 q11 12 30 39q17 23 19 27q3 5 8.5 14t9.5 16l4 7q14 21 40 63q1 1 8 10.5t16 21.5t13 18q10 14 30.5 38.5t27.5 30.5q21 15 45 14q12 0 19 -7q18 -18 23 -28q7 -15 17 -48q10 -35 12 -40q8 -20 15 -43q3 -11 7.5 -30.5t7.5 -34t3 -15.5q-1 -5 5 -7q5 1 9 9q4 6 9 14 q15 26 19 33q0 1 9 16.5t13 22.5q3 5 10 19q4 6 28 48q6 10 17.5 11t19.5 -8zM109 154q1 10 -3 51q-2 17 -9 44t-14 37q-5 7 -15 11q-7 -4 -13 -14t-12 -19q-1 -2 -1 -3q-21 -50 -21 -61q0 -18 2 -23q4 -8 10.5 -18t20 -21.5t26.5 -11.5t20.5 9t8.5 19z" glyph-name="s" horiz-adv-x="318" unicode="s"/><glyph d="M254 328q13 -20 17 -29q4 -13 4 -21q-1 -28 -3 -62q-1 -19 -4 -40q-3 -18 -24.5 -64t-41.5 -67l-1 -1q-19 -35 -73 -42q-36 -5 -76 7q-18 6 -48.5 50t-37.5 81q-11 56 -9 144.5t15 152.5q3 16 12.5 46.5t9.5 33.5q-5 11 -108 1q-9 -1 -20.5 7.5t-20.5 21t-14.5 26 t-4 25.5t12.5 17q3 3 18.5 4.5t35 2.5t25.5 2q17 3 43.5 4.5t30.5 1.5q4 1 8 1q17 -1 21 15q3 12 4 17q1 3 3 5q3 3 9 10t11 12t11 8q5 3 10 4q20 2 34 -15q11 -12 19 -25q2 -4 6 -11t5.5 -9.5t5 -6t7.5 -4t10 0.5q4 0 26 1.5t32 4.5q28 5 35 1q2 -2 4 -3.5t3.5 -3.5t2.5 -3 t2.5 -3.5t2 -3.5t2 -4.5t1.5 -4.5q5 -9 11 -32q7 -23 -17 -34q-9 -3 -34 -6t-50.5 -5t-27.5 -3q-24 -3 -25 -6q-2 -7 -6 -20.5t-6 -19.5q-5 -17 -9 -34t-6.5 -28t-5 -32.5t-3.5 -29t-3.5 -36t-3.5 -37.5q-4 -43 1 -77q0 -3 1 -11.5t2 -13.5t2.5 -13.5t3.5 -13.5t4.5 -10.5 t6.5 -8t8 -3.5q25 -2 41 21q4 7 8.5 21t6.5 24.5t4.5 27.5t3.5 19q0 3 2 9t3 8q1 3 3 11.5t3 12.5q8 26 13 37q7 13 24 21q17 -9 18 -10q9 -7 14 -13z" glyph-name="t" horiz-adv-x="226" unicode="t"/><glyph d="M487 281q15 -20 9 -44q-5 -17 -9 -29.5t-7.5 -19t-12 -21.5t-15.5 -29q-10 -21 -24 -37q-52 -61 -62 -68q-48 -33 -84.5 -28.5t-69.5 51.5q-8 11 -11 14q-29 -27 -63.5 -44t-68 -20t-57.5 15l-1 1q-6 5 -13 12q-31 27 -42 82.5t-5 114.5t16 114t21 91l10 35l15 3 l17.5 3.5t14.5 1.5q45 -2 58.5 -17.5t9.5 -59.5q-4 -35 -11.5 -100.5t-10.5 -89.5q-2 -15 -3 -54q0 -20 15.5 -20.5t34.5 14.5q14 10 37 45q6 57 16.5 122t22.5 93q19 48 45.5 60.5t76.5 -6.5q14 -5 12 -20q-2 -25 -5 -37q-15 -72 -42 -217q-8 -40 9 -64q5 -7 13.5 -8 t15.5 4q20 15 55 92q22 48 43 88q5 9 16.5 8t17.5 -10z" glyph-name="u" horiz-adv-x="478" unicode="u"/><glyph d="M496 333q5 -19 -0.5 -33.5t-15 -22.5t-24.5 -13.5t-25 -7t-21 -2.5q-18 -2 -50 11t-62 32l-1 -1v-1l-1 0.5l-1 0.5q-64 -121 -84 -160q-18 -35 -40 -96q-11 -29 -21 -34t-54 -6q-16 0 -26.5 4t-16 14t-8 17t-4.5 23.5t-3 22.5q-17 90 -66 277q-4 13 -9.5 27t-13.5 32 l-12 27q17 29 52 36q35 6 63.5 -7t34.5 -40q6 -24 10 -44t5.5 -31t4 -29t4.5 -27q12 -81 13 -110q25 41 48 87q12 25 41 98q-4 38 26.5 71t55.5 25q37 -11 39 -12q33 -13 22 -44q-4 -3 -17 -28q61 -56 121 -12q7 5 20 -13t16 -31z" glyph-name="v" horiz-adv-x="445" unicode="v"/><glyph d="M696 336q5 -19 -0.5 -34.5t-15 -23.5t-24.5 -14t-25 -7.5t-21 -2.5q-31 -3 -92 33q0 -2 -1 -2q-18 -43 -49.5 -109t-37.5 -76q0 -1 -0.5 -2l-0.5 -1q-2 -3 -17 -26q-16 -27 -40 -48q-16 -14 -29 -18t-35 -4q-3 0 -32 9q-3 0 -27 17q-12 9 -24 29q-18 30 -24 70 q-3 20 -6.5 27.5t-11.5 -11.5q-2 -6 -7 -20q-7 -18 -9 -22l-0.5 -1t-0.5 -2q-2 -2 -16 -26q-17 -27 -41 -47q-16 -14 -29 -18t-34 -4q-13 0 -27.5 9.5t-25.5 21.5q-21 24 -27 53q-2 7 -3 23t-1 28v12q-2 25 -5 90q-5 77 -6 78q-2 11 -6 28t-6.5 30t-5.5 29t-3 28t2 22.5 t8.5 16.5t16.5 6q4 1 21 0.5t26 -0.5q9 -3 21 -11q21 -12 28 -28q3 -7 11 -24q8 -21 6 -66q0 -14 1.5 -45.5t1.5 -33.5q1 -44 5 -64l0.5 -5.5t0.5 -11t2.5 -10t6.5 -4.5t6.5 1t4.5 4.5t3 6t3 9t3 9t6 14t9.5 23.5t6.5 23q3 13 14.5 52.5t12.5 45.5q2 8 7.5 22t6.5 18 q9 29 33 37q11 3 30 4q35 1 48 -13q5 -5 10 -21.5t6 -26.5q1 -7 6 -46t9 -74t7 -47q4 -21 6.5 -26.5t12.5 -6.5t16 12q2 4 12.5 26t17.5 38q12 26 26 78q-23 31 -14 62t33 53.5t43 21.5q12 2 30 0q27 -2 30 -3q18 -7 28 -27q3 -5 5 -11q-1 -8 -2 -14q-3 -13 -8 -28 q1 0 -2 -8q54 -40 106 0q7 5 20 -13.5t16 -32.5z" glyph-name="w" horiz-adv-x="652" unicode="w"/><glyph d="M414 307q74 -58 47 -114q-39 -79 -73 -110q-63 -58 -99 -74l-1 -0.5l-1 -0.5l-4 -2h-1t-1 -1h-0.5h-1.5q-4 -2 -8 -2q-1 -1 -2 -1h-1q-4 -1 -6 -1h-1.5h-0.5q-4 -1 -6 -1q-27 -1 -51 12q-7 3 -13 7q-15 10 -21 22q-11 13 -20 30q-7 13 -47 76q-1 -1 -3 -4t-3 -4 q-22 -34 -46 -83q-21 -44 -35 -48q-6 -4 -21 -5t-32 2.5t-30 16t-15 33.5q17 21 121 191q-27 41 -62 93q-9 13 -19.5 25.5t-25.5 29t-23 24.5q5 36 36 54q30 17 63 11.5t50 -30.5q30 -47 52 -87q27 52 39 73q20 34 70 43q40 -15 42 -16q32 -16 23 -42l-86 -134 q-3 -5 -11 -17l-12 -18q21 -33 51 -79l1 -2l22 -34q12 -13 28 -12q18 0 41.5 30.5t39.5 66.5q0 2 8 21.5t15 37t9 19.5q4 6 11.5 7.5t13.5 -3.5z" glyph-name="x" horiz-adv-x="403" unicode="x"/><glyph d="M471 348q2 -2 7 -5q14 -10 20 -15.5t12.5 -18t4 -26.5t-12.5 -38.5t-31 -56.5q-38 -52 -39 -54q-4 -4 -20 -19.5t-20 -21.5q-5 -9 -56.5 -37.5t-61.5 -26.5q-1 -70 -3 -89q-13 -131 -108 -224q-40 -39 -94 -25q-70 19 -79 66q-11 59 6 101q59 113 97 143q12 10 24 19 q-72 -31 -113 1l-1 1q-6 4 -13 11q-30 28 -41 83t-5.5 114t16 114.5t20.5 90.5l11 36q5 0 15 2.5t17.5 3.5t14.5 1q44 -1 58 -16.5t9 -59.5q-3 -36 -11 -101.5t-10 -88.5q-2 -16 -3 -55q-1 -20 14.5 -20.5t34.5 14.5q14 10 38 45q5 58 16 123t22 93q20 47 46.5 59.5 t75.5 -5.5q14 -6 13 -20q-3 -25 -5 -37q-15 -72 -43 -218q-3 -16 -1 -32q4 4 9 12t10 15t5 8q1 2 22 29q10 14 23 34q9 15 24 41q2 4 8.5 18.5t7.5 15.5q1 2 4.5 13t8.5 18q4 7 25.5 -0.5t31.5 -14.5zM159 -119q6 33 1 48q-10 -7 -23.5 -22t-26 -35t-13.5 -39t13 -35 q6 1 10 3t7.5 4.5t6 4t4.5 6t3 5.5t3 6t2 6q8 16 13 48z" glyph-name="y" horiz-adv-x="450" unicode="y"/><glyph d="M562 279q53 -77 10 -122q-61 -64 -102 -83q-1 0 -4.5 -1.5t-7.5 -3.5l-8 -4q37 -116 -49 -238q-53 -74 -167 -111q-34 -14 -111.5 -12t-95.5 23q-29 32 -37 60.5t1 60.5q10 33 41 74t59 64q15 13 54 36.5t71 41.5l32 18q-62 15 -110 -20q-22 -15 -56 18q-34 32 -30 61 q2 15 18 21q19 6 75 28q34 12 64 17q19 14 32 33q14 20 6 64t-28 59q-25 21 -69 14.5t-69 -37.5q-8 -10 -6 -30q2 -4 -8 -13t-28 -16.5t-33 -6.5q-25 1 -33 15.5t-8 52.5q0 36 28.5 75t78.5 54q1 0 5 2q169 55 246 -82q53 -107 9 -196q35 -15 64 -43q19 6 43 25t43 42 q2 1 15 17.5t25.5 30.5t14.5 16q6 5 13.5 4t11.5 -8zM271 -136q20 17 48.5 64.5t42.5 80.5q0 2 -1 5q-21 -5 -51 -17.5t-66 -33.5t-65.5 -45.5t-47.5 -56t-13 -62.5q30 -7 75 16t78 49z" glyph-name="z" horiz-adv-x="556" unicode="z"/><glyph d="M152 186q-18 -17 -25.5 -30t-7.5 -30q0 -29 8 -38t44 -18q21 -5 24 -30t-9 -36q-2 -3 -15 -3q-27 0 -48 5t-40.5 18.5t-28.5 41t-6 67.5q3 32 11 51.5t28 34.5q21 17 28.5 31.5t7.5 42.5q0 24 -21.5 44t-58.5 29q-1 1 -2 1q-3 1 -4 3v2v1q-1 9 -0.5 19t1.5 19l1 8 q1 7 9 8q37 8 52.5 21t15.5 37q1 27 -6 42t-27 32q-19 17 -26.5 36.5t-8.5 51.5q-2 40 8 67t30 39.5t41 17t49 3.5l3 -0.5t7 -1t5 -1.5q10 -12 6.5 -37t-24.5 -29q-37 -7 -45 -16t-9 -37q-1 -18 6 -31t24 -31q13 -14 20.5 -24.5t14.5 -34.5t7 -56q-1 -46 -53 -86 q61 -49 60 -89q-1 -32 -9 -56t-15.5 -34.5t-21.5 -23.5z" glyph-name="braceleft" horiz-adv-x="234" unicode="{"/><glyph d="M175 753q2 -13 2.5 -73.5t-0.5 -79.5q-2 -33 -4 -64q-2 -29 -2 -34q-7 -95 -7 -111v-2q-4 -54 -9.5 -117.5t-10 -116.5t-5.5 -66q-3 -39 -6.5 -58.5t-6.5 -24t-9 -6.5h-53q-9 -1 -15 2.5t-8.5 12t-4 17t-0.5 23t2 24t3 26.5t2 24q3 31 4 51l1 19q7 124 9 256v2 q2 25 3.5 72t1.5 60q2 46 1 76q-3 109 28 112q4 0 13 1t12.5 1.5t11.5 0.5t12 -0.5t10 -1t9.5 -2.5t7.5 -5t6 -7.5t2 -10.5z" glyph-name="verticalbar" horiz-adv-x="214" unicode="|"/><glyph d="M198 399v-11t-0.5 -12t-1 -11t-1 -8.5l-0.5 -3.5q-1 -7 -8 -8q-38 -8 -53 -20.5t-16 -37.5q-1 -27 6 -41.5t28 -32.5q18 -16 25.5 -36t8.5 -52q2 -40 -8 -67t-30 -39.5t-41 -17t-49 -3.5l-3 0.5t-7 1t-4 2.5q-11 11 -7 36t25 29q36 7 44 16t10 38q1 17 -6.5 30t-24.5 31 q-13 14 -20.5 24.5t-14.5 34.5t-7 56q1 46 53 86q-61 49 -60 90q1 31 9 55t16 34.5t21 23.5q18 17 26 30t7 30q0 29 -8 38t-44 18q-20 5 -23 30t8 36q2 3 15 3q27 0 48 -5t41 -18.5t28.5 -41t5.5 -67.5q-3 -31 -11 -51t-27 -35q-22 -17 -29.5 -31.5t-7.5 -41.5 q0 -25 21.5 -45t58.5 -29q1 -1 2 -1q3 -1 4 -3v-1q1 -1 1 -2z" glyph-name="braceright" horiz-adv-x="234" unicode="}"/><glyph glyph-name="nonbreakingspace" horiz-adv-x="322" unicode=""/><glyph d="M80 517q-17 7 -29.5 26.5t-12.5 38.5q1 45 37 61q12 6 30 11q29 8 55 1q48 -13 50 -65q1 -33 -19 -53.5t-51 -25.5q-19 -2 -32.5 -1t-20.5 4zM205 403q6 -21 7 -60q-1 -26 -1 -48q-1 -21 -2 -26q-3 -70 -2 -82v-2q-6 -100 -16 -225q0 -2 -0.5 -6t-0.5 -6v-8v8 q0 -2 -0.5 -10.5t-0.5 -10.5q-2 -18 -25 -24l-80 -12q-18 -4 -33 5t-13 23q4 29 7 68q2 23 2 38v15q2 93 -4 190v2q1 19 -0.5 54t-1.5 45q0 34 -4 57q-8 51 39 71q65 26 99 -9q24 -25 30 -47z" glyph-name="exclamdown" horiz-adv-x="248" unicode=""/><glyph d="M492 334q4 -33 -7.5 -64.5t-28.5 -49.5q-59 -63 -132 -77q1 -20 2 -33q5 -68 -25 -94q-9 -7 -17 -11t-16 -4.5t-16 6.5t-15 21q-15 33 -19 62q-3 24 -4 58q-1 0 -3.5 0.5t-3.5 0.5q-62 17 -106.5 62.5t-57.5 104.5q-24 106 29 189t153 121q2 28 2 48q1 10 1 16v11v-10 q0 2 0.5 13t0.5 14q1 24 15 31l52 16q11 6 20.5 -6t8.5 -31q-2 -34 -4 -79q19 1 36 0q20 -1 36 -5q17 -5 31 -24t20.5 -41.5t4.5 -44.5t-13 -33q-19 -17 -43.5 -9.5t-44.5 35.5q-8 12 -29 14q0 -113 3 -223v-2v-51q13 5 23 12q15 10 25 25q6 9 6 21v40q0 17 16 22q17 5 36 4 q24 -1 42.5 -17t21.5 -38zM217 377q2 57 4 125q-72 -63 -69 -159q2 -64 63 -83v2v4q2 93 2 109v2z" glyph-name="cent" horiz-adv-x="529" unicode=""/><glyph d="M577 158q4 -6 6 -16q6 -36 -13.5 -72.5t-51.5 -48.5q-39 -14 -62 -15q-103 -2 -305 -4q-9 -1 -18 0h-12.5h-12.5q-35 -1 -44 30q1 1 2 5q-1 4 -2 7q-1 23 28.5 112.5t32.5 138.5q-33 2 -39 2q-10 1 -18 3t-12 4.5t-7 6t-4 6t-1.5 6.5t-1.5 5l-6 35q0 8 1.5 13.5t6 8.5 t9 4.5t12.5 1.5t13 -0.5t14.5 -1.5t12.5 -2h1q-18 40 -27.5 80.5t-11 82.5t10.5 79t35.5 67t66.5 49.5t102 24.5q101 8 167 -8q35 -8 105 -52q27 -17 30 -64.5t-16.5 -93t-49.5 -59.5q-36 -16 -64 5t-36 68q-1 4 -2 16.5t-3 19t-7 15.5t-16.5 14t-28.5 7q-67 9 -104 -8.5 t-40 -54.5q1 -17 -0.5 -26.5t1.5 -24t3.5 -22.5t5.5 -21t7 -19.5t8 -19t9 -18.5l9 -18l9 -18h13h1q14 0 39.5 1t32.5 1q25 0 41 2q38 5 51 -24q26 -53 -1 -76q-8 -6 -83 -7h-34q-15 1 -19 1q-9 0 -26 1q-5 -28 -22 -82t-21 -71h79q23 -1 47 0q4 1 5 1q27 2 54 7.5t68 16 t52 12.5q16 4 27 -8q2 -3 4 -5z" glyph-name="sterling" horiz-adv-x="620" unicode=""/><glyph d="M671 758q31 -7 39.5 -18t-2.5 -30q-12 -20 -54 -78q-6 -7 -64.5 -86.5t-88.5 -120.5q-21 -30 -44 -75h20q29 -2 45 -5q16 -4 35 -19q26 -22 6 -60q-15 -28 -54 -22q-17 3 -42 4q-9 0 -35 2q-1 -22 0 -46q21 -2 51.5 -3.5t38.5 -2.5q10 0 18 -2.5t12.5 -4.5t7.5 -6t4 -6 t2 -6t1 -5l6 -36q1 -8 -1 -13.5t-6.5 -8t-9.5 -4.5t-13 -1.5t-13.5 0.5t-15 1.5t-13.5 1.5q-17 2 -28 1h-11q-12 1 -25 1q1 -16 1 -24q0 -22 4 -37q8 -34 -39 -46q-65 -17 -99 5q-25 17 -31 31q-5 14 -6 39q0 13 1 28h-25q-26 0 -43 -3q-39 -4 -53 25q-27 53 1 75q8 7 86 8 h36q1 0 2.5 -0.5t2.5 -0.5q2 23 5 47h-32h-11q-11 1 -29 0q-29 -1 -51 -3q-11 0 -17.5 9t-2.5 20l9 48q5 13 18 14h8h8h-6h6h4h5q40 2 79 3q-24 47 -87 148.5t-82 138.5q-7 13 -17 26.5t-24.5 31.5t-21.5 27q25 30 81 38q52 8 80 -1t41 -36q13 -26 38 -69.5t53 -90.5t34 -57 q3 -4 7.5 -4.5t7.5 3.5q25 32 75 103.5t74 109.5q18 29 50 43q24 10 51 6q29 -4 43 -7z" glyph-name="yen" horiz-adv-x="750" unicode=""/><glyph d="M453 289q10 -11 16 -23q25 -39 24 -107q-2 -58 -35 -87t-102 -53q-138 -49 -261 63q-20 18 -38 51.5t-21 69.5q-2 23 13.5 41.5t38.5 20.5q19 1 37 -3q17 -5 20 -22q1 -6 3 -15.5t3.5 -16.5t1.5 -11q3 -32 32 -54t60.5 -28.5t53.5 -1.5q41 8 58 23.5t16 54.5 q-1 44 -123 70q-64 7 -108.5 28.5t-62 50.5t-18 60.5t20.5 61.5t58 51q-46 23 -66 60t-13 73.5t39.5 69.5t83.5 49q34 11 92.5 13t92.5 -9q2 0 13.5 -4t15.5 -5.5t13.5 -5.5t14.5 -7t11.5 -9t11.5 -12q23 -28 19 -72t-35 -61q-24 -13 -45 1t-29 47q-3 14 -34.5 25.5 t-63.5 8.5q-77 -7 -80 -39q-1 -23 21 -35.5t59 -18.5t76 -13.5t76.5 -28t55.5 -53.5q25 -39 24 -107q-2 -58 -40 -91zM340 346q34 17 33 66q0 4 -1 7v2q-1 0 -1 1l-1 3v1q-10 18 -42.5 24.5t-66.5 3.5q-77 -7 -80 -39q-1 -15 6.5 -25t25.5 -16t34.5 -10t45.5 -9t47 -9z" glyph-name="section" horiz-adv-x="529" unicode=""/><glyph d="M384 571q13 0 23 -10t11 -23q1 -19 -6 -38t-16 -29q-58 -65 -138 -41q-34 11 -57 38t-29 62q-11 63 19.5 112.5t87.5 70.5q37 15 71 13q11 -1 19 -4q20 -6 27.5 -39t-6.5 -46q-10 -10 -23.5 -5t-23.5 21q-6 10 -33 8q-11 0 -26 -12q-52 -40 -52 -104q0 -45 44 -52 q34 -5 60 12q8 6 14 15q4 5 4 12q0 6 1 24q0 10 9 13t20 2zM482 762q90 -91 73 -208q0 -3 -1 -14.5t-1 -12.5q-20 -149 -172 -199q-66 -20 -133 -7t-116 54q-45 39 -69.5 86t-26 94t12.5 96q18 63 57 104q4 5 15 14t14 11q43 31 105 46q67 17 132.5 -1t109.5 -63zM455 540 q4 49 1 67q-3 25 -13 50l-1 2.5t-2 3.5q-9 22 -23 44q-26 38 -65.5 49.5t-87.5 -6.5q-78 -29 -112 -90q-7 -13 -17 -64q-5 -26 -1 -48q13 -83 55 -117q29 -25 72 -36t85 3q36 16 65 45q30 30 41 76q2 9 3 21z" glyph-name="copyright" horiz-adv-x="594" unicode=""/><glyph d="M341 760q0 -4 1 -12.5t1 -12.5q0 -5 -3 -30q0 -3 -1 -7.5t-1 -5.5q-4 -27 -4 -28q-3 -15 -8 -33q-8 -26 -3 -47v-1.5v-0.5q-1 -59 15 -123q-1 -8 -1 -13q-2 -11 -8 -20q-9 1 -15 1q-23 4 -41 20q-7 6 -14 16q-9 13 -9 14l-6 7q-3 -1 -7 -3q-15 -25 -41 -43 q-20 -13 -45 -18q-9 -1 -22 2q-9 1 -24 9q-10 4 -32 24q-12 11 -21 30q-12 26 -13 43q0 2 -1.5 12.5t-1.5 16.5q1 13 4 28q3 9 6 20q2 8 6 16q6 16 9 22q2 6 6 13q10 17 15 25q10 14 23 33q2 3 7 7q2 2 9 11t12 13q2 2 9 8t11.5 9.5t10.5 6.5q2 1 8.5 4.5t9.5 4.5q12 4 20 6 q5 2 36 5q6 0 16 -2t14 -6q8 -8 11 -9q5 3 6 3q18 10 28 9q12 -1 18 -7l2.5 -2.5l2.5 -2.5q5 -5 5 -12zM230 664q1 12 -2 17q-9 12 -24 8q-9 -3 -18 -10q-11 -9 -35 -37q-1 -1 -2 -3q-6 -9 -9 -14t-4 -6q0 -2 -3 -9t-5 -11q-3 -8 -6 -27q-2 -16 1 -34q3 -16 15 -25q8 1 9 1 q15 16 16 17q15 20 18 27q1 3 18 30l3 3q9 19 13 26q8 16 8 19q5 13 7 28z" glyph-name="ordfeminine" horiz-adv-x="379" unicode=""/><glyph d="M326 239q29 -20 19 -46q-6 -18 -19 -32t-31 -12q-10 1 -62 46q-12 12 -23 22l-12 12q-34 33 -40 38l-1 1q-19 19 -41 41.5t-40 41.5t-23 23q-19 20 -17 33q-1 7 5 12l5 5l5 5l-4 -4l4 4l6 6q58 57 108 103q0 1 1 1q6 5 40 37q3 2 13 12q10 9 24 21q20 17 33 24t35 9 q31 3 43 -32q9 -25 -21 -45q-12 -8 -30 -23q-5 -4 -23 -19t-28 -24h-1q-52 -41 -98 -82l-7 -6q-3 -2 -8 -7q4 -4 5 -6l7 -6q45 -42 96 -84l1 -1q9 -9 27 -24t23 -20q17 -15 29 -24zM512 239q28 -20 19 -46q-7 -18 -20 -32t-31 -12q-9 1 -61 46q-13 12 -24 22q-9 10 -12 12 q-33 33 -39 38q-1 0 -1 1q-19 19 -41 41.5t-40.5 41.5t-23.5 24q-18 19 -16 32q-1 7 4 12l5 5l5 5l-4 -4l4 4q4 3 6 6q59 57 108 103q0 1 1 1q6 5 41 37l12 12q11 9 24 21q20 17 33 24q14 7 36 9q31 3 43 -32q8 -25 -21 -45q-13 -8 -31 -23q-5 -4 -23 -19t-28 -24 q-52 -41 -99 -82l-7 -6q-2 -2 -8 -7l6 -6l7 -6q45 -42 96 -84v-1q10 -9 27.5 -24t22.5 -20q17 -15 30 -24z" glyph-name="guillemotleft" horiz-adv-x="578" unicode=""/><glyph glyph-name="softhyphen" horiz-adv-x="0" unicode=""/><glyph d="M397 766q72 -74 59 -169q-1 -2 -1.5 -11t-0.5 -10q-16 -121 -139 -161q-54 -16 -107.5 -5.5t-93.5 43.5q-55 46 -71.5 107t4.5 116q14 51 46 84q3 4 11.5 11.5t11.5 8.5q35 26 85 38q54 13 107 -1.5t89 -50.5zM377 591q3 34 1 46q-3 18 -11 36l-1 1.5t-1 2.5 q-8 16 -19 31q-42 54 -123 37q-31 -6 -52 -22t-39 -48q-6 -12 -14 -45q-4 -18 -1 -34q1 -2 3 -13.5t2.5 -15t3 -12.5t5 -14.5t7 -13t9.5 -14.5q20 -26 67.5 -36t78.5 4q8 3 16 8q-5 6 -11 15q-8 15 -23 31q-7 7 -16 18t-13 14.5t-11 7.5t-17 6q-1 -18 -1 -19q1 -18 -3 -39 q-4 -25 -23 -25q-27 0 -29 27q-2 18 3 56q1 11 4.5 30.5t4.5 26.5q1 6 1 19v1q0 5 1 9v4v1.5v1.5q1 7 4 17q0 1 0.5 3.5t0.5 3.5q3 17 21 20h6q7 1 31.5 0.5t30.5 -0.5q20 1 50 -21q19 -13 20 -41t-24 -46q-1 -1 -29 -15q22 -24 64 -74q1 0 2 -1q5 5 9 12.5t5.5 13.5 t3.5 15.5t3 14.5h1q1 6 2 15zM287 656q-2 14 -17 17q-19 4 -43 -4q-2 -8 -2.5 -22t-1.5 -21q36 -2 54 10q12 7 10 20z" glyph-name="registered" horiz-adv-x="494" unicode=""/><glyph d="M251 788q4 -3 11.5 -8.5t23 -24t23 -39t3 -52t-27.5 -63.5q-3 -3 -7 -8t-6 -7q-1 -1 -11 -9q-8 -7 -14 -11q-16 -10 -23 -12q-1 0 -8.5 -3t-11.5 -4q-10 -2 -25 -2q-18 1 -43 9q-14 4 -26 10q-12 7 -36 22q-2 1 -4.5 3t-3.5 3l-4 3q-17 17 -21.5 35t-3.5 44q0 3 1 5 q6 42 10 51.5t12 24.5q2 3 10 12q5 6 21 18q11 9 23 13q19 7 39 9q25 4 39 3q8 -1 16 -3q19 -6 33 -13q2 -1 11 -6zM213 680q1 15 -1 24q-4 14 -14 25t-27 9q-26 -11 -32 -32q-3 -8 -3 -26q-2 -28 15.5 -41t33.5 -8l7 5q7 8 15 25q5 10 6 19z" glyph-name="degree" horiz-adv-x="350" unicode=""/><glyph d="M306 648q3 -19 -7.5 -47.5t-26.5 -34.5q-20 -7 -32 -7q-51 -1 -180 -2q-18 0 -22 15q1 3 -0.5 15.5t3.5 35t12 45t24 45.5t41 37q15 9 34.5 17.5t30.5 12.5t21.5 11t14.5 17.5t3 27.5q-1 19 -21 32t-53 8q-9 -1 -14.5 -3.5t-8 -7t-3.5 -7.5t-1.5 -9.5t-1.5 -8.5 q-4 -23 -18 -34t-32 -2q-24 11 -31.5 53t13.5 56q35 22 53 26q33 8 84 4q37 -4 66 -23.5t40.5 -47.5t9 -58.5t-29.5 -59t-75 -43.5q-32 -12 -49.5 -37t-22.5 -50q25 -1 43 -1h24q2 0 3 1h-1q17 1 47.5 18.5t42.5 20.5q9 1 14 -5q2 -1 3 -2q2 -3 3 -8z" glyph-name="twosuperior" horiz-adv-x="342" unicode=""/><glyph d="M270 798q50 -31 45 -91q-7 -76 -69 -111q-46 -22 -95.5 -15t-79.5 31q-34 28 -35 72q0 12 9 23t22 16q11 3 21 4q10 0 11 -8q3 -16 3 -20q1 -1 3 -5t3 -5q16 -37 55.5 -41.5t65.5 23.5q14 15 12 38.5t-16 33.5q-6 4 -39 6.5t-36 4.5q-17 8 -23 25t-1 27q8 18 37 18 q25 -1 43.5 12t16.5 39q0 18 -19 29.5t-49 7.5q-8 -1 -13 -3.5t-7.5 -6.5t-3.5 -7t-1.5 -9t-0.5 -7q-4 -22 -17 -32t-30 -2q-22 10 -29 49t13 51q32 21 48 25q31 7 78 3q34 -3 60.5 -21.5t38.5 -44t7.5 -55.5t-28.5 -54z" glyph-name="threesuperior" horiz-adv-x="351" unicode=""/><glyph d="M296 629q3 -18 -6.5 -36.5t-25.5 -24.5q-20 -7 -31 -7q-48 -1 -175 -3q-18 0 -22 16q1 6 4.5 12t6 9.5t8.5 8.5t8.5 6.5t11 6.5t9.5 6q5 3 11 3q20 -1 38 -1q-3 12 -3 34v27q1 12 1 15q2 41 1 48q2 37 5 84q-5 -4 -18.5 -13.5t-20.5 -15.5q-15 -10 -27 -2q-2 1 -2 3 q-6 21 -6 31.5t7 28.5q3 7 8 10q9 6 39.5 35.5t33.5 33.5l4 2q28 9 57 4q8 -2 8 -10q0 -15 -2 -24q0 -10 -1 -14q-2 -16 -3 -39q-1 -6 -1 -14.5v-8.5q-2 -60 2 -117q-1 -11 0 -31.5t1 -26.5q0 -19 2 -32v-4l34 8.5l26 6.5q8 1 13 -5l2 -2q3 -3 3 -8z" glyph-name="onesuperior" horiz-adv-x="333" unicode=""/><glyph d="M328 741q7 -4 17 -11.5t31 -33.5t31.5 -54.5t4 -72t-38.5 -88.5q-3 -4 -9 -11t-8 -10q-1 -2 -15 -13q-10 -10 -20 -16q-21 -13 -30 -16q-2 0 -12.5 -4t-15.5 -5q-14 -4 -34 -3q-25 1 -59 12q-19 5 -34 14q-17 10 -50 31q-2 1 -5.5 4t-4.5 4t-6 5q-23 24 -29 48.5t-4 60.5 v8q9 57 14.5 71t16.5 34q2 4 13 17q7 8 28 25q15 12 31 18q26 10 53 13q34 5 54 4q10 -1 21 -4q27 -8 45 -19q3 -2 15 -8zM292 590q4 24 0 38q-7 23 -26 39q-12 11 -22.5 14t-32.5 0q-52 -20 -67 -54q-5 -12 -8 -41q-4 -45 30.5 -65.5t67.5 -10.5l14 8q15 12 32 40 q10 18 12 32z" glyph-name="ordmasculine" horiz-adv-x="450" unicode=""/><glyph d="M525 435q18 -19 16 -32q1 -7 -4 -13q-1 -1 -5 -4.5t-5 -4.5l4 3l-4 -3l-6 -6q-59 -57 -108 -104h-1q-6 -5 -41 -37l-12 -12q-11 -9 -24 -21q-20 -17 -33 -24q-14 -7 -36 -9q-31 -3 -43 31q-8 26 21 46q13 8 31 23q5 4 23 19t28 23v1q52 41 99 82l7 6q2 2 8 7l-6 6l-7 6 q-45 42 -95 84l-1 1q-10 9 -27.5 24t-22.5 20q-17 15 -30 24q-28 20 -19 46q7 18 20 32t31 12q9 -1 61 -46q13 -12 24 -22q9 -10 12 -12q33 -33 39 -38l1 -1q19 -19 41 -41.5t40.5 -41.5t23.5 -24zM228 272l-1 -1q-6 -5 -41 -37q-3 -2 -12 -12q-11 -9 -25 -21 q-20 -17 -32 -24q-14 -7 -36 -9q-31 -3 -43 31q-9 26 21 46q13 8 30 23q5 4 23.5 19t27.5 23l1 1q52 41 98 82l7 6q3 2 8 7q-3 4 -5 6l-7 6q-45 42 -96 84q0 1 -1 1q-9 9 -27 24t-22 20q-18 15 -30 24q-29 20 -19 46q7 18 19.5 32t30.5 12q10 -1 62 -46q12 -12 23 -22 l12 -12q34 -33 40 -38q0 -1 1 -1q19 -19 41 -41.5t40.5 -41.5t22.5 -24q19 -19 17 -32q1 -7 -5 -13q-1 -1 -5 -4.5t-5 -4.5l4 4l-4 -4q-3 -4 -5 -6q-59 -57 -108 -103z" glyph-name="guillemotright" horiz-adv-x="578" unicode=""/><glyph d="M292 520q-16 7 -29 26.5t-12 38.5q1 45 37 61q12 6 29 11q30 8 56 1q48 -13 49 -65q1 -33 -19 -53.5t-50 -25.5q-20 -2 -33 -1t-20 4zM514 170q30 -14 49.5 -59.5t16.5 -93t-30 -64.5q-70 -44 -105 -52q-66 -16 -167 -8q-61 5 -111 31.5t-80 64.5t-43 84t-5 90.5t40 85 t85 64.5q44 21 67.5 47.5t26.5 71.5q2 28 44 39t83 -7t40 -60q-1 -55 -36 -100t-72 -69q-8 -5 -25 -15t-24 -15t-19.5 -14.5t-17.5 -18t-11 -21t-7 -28t0 -35.5q3 -37 40 -54.5t104 -8.5q17 2 28.5 7t16.5 14.5t7 15.5t3 18.5t2 16.5q8 47 36 68t64 5z" glyph-name="questiondown" horiz-adv-x="616" unicode=""/><glyph d="M648 114q1 -4 9 -81q-45 -28 -78.5 -40t-72.5 -4q-17 21 -25 47.5t-12.5 62.5t-10.5 57q-22 -1 -61.5 -1t-72.5 -2.5t-61 -11.5q-2 -7 -7 -25.5t-7.5 -26.5t-9 -22.5t-13.5 -22.5t-18.5 -16t-26.5 -13q-27 -8 -37 -11t-32 -6.5t-40 0.5t-36 14q1 5 1 14.5t1 16.5t3 13 q83 243 194 562q3 8 11 23.5t11 23.5q9 27 24.5 46.5t38.5 31.5t43 18.5t50 12.5q29 6 47.5 -8t30.5 -51q79 -255 111 -373q7 -26 14 -57.5t11 -54t11 -60.5t10 -56zM427 299q4 118 -54 244q-8 -22 -24.5 -63.5t-25.5 -65.5t-17 -60t-9 -69q36 3 130 14zM290 893q-2 1 -8 3 t-8.5 3t-6.5 3.5t-5.5 5.5t-1.5 8t3 11l12 24l1.5 3t2.5 4l3.5 3.5t5 3t6.5 0t9 -2.5q4 -2 18 -7.5t31 -12.5t31 -13h1q4 -2 29 -14q1 0 9 -3l16 -8q36 -20 38 -26q7 -22 -19 -54q-14 -17 -30 -4q-8 5 -19 11q-4 2 -15.5 8.5t-18.5 10.5h-1q-32 19 -65 35l-5 2q-5 3 -13 6z " glyph-name="Agrave" horiz-adv-x="771" unicode=""/><glyph d="M648 114q1 -4 9 -81q-45 -28 -78.5 -40t-72.5 -4q-17 21 -25 47.5t-12.5 62.5t-10.5 57q-22 -1 -61.5 -1t-72.5 -2.5t-61 -11.5q-2 -7 -7 -25.5t-7.5 -26.5t-9 -22.5t-13.5 -22.5t-18.5 -16t-26.5 -13q-27 -8 -37 -11t-32 -6.5t-40 0.5t-36 14q1 5 1 14.5t1 16.5t3 13 q83 243 194 562q3 8 11 23.5t11 23.5q9 27 24.5 46.5t38.5 31.5t43 18.5t50 12.5q29 6 47.5 -8t30.5 -51q79 -255 111 -373q7 -26 14 -57.5t11 -54t11 -60.5t10 -56zM427 299q4 118 -54 244q-8 -22 -24.5 -63.5t-25.5 -65.5t-17 -60t-9 -69q36 3 130 14zM308 817 q-12 -8 -23 10q-20 35 -15 55q1 6 28 18q7 2 12 4q6 2 7 2q19 6 22 8q11 3 24 6.5t23.5 6.5t13.5 3q8 3 13 -1h1h2q2 -1 12.5 -4.5t23.5 -8t23 -8.5h1q3 -2 21 -9q1 -1 7 -2q5 -3 12 -6q26 -14 27 -19q4 -21 -17 -54q-12 -18 -24 -8q-5 4 -14 8q-2 1 -11 6t-14 7 q-24 15 -48 25l-4 2q-2 1 -7 3q-2 -1 -3 -1l-4 -2q-24 -8 -49 -21v-1q-5 -1 -14 -5.5t-12 -5.5q-9 -4 -14 -8z" glyph-name="Acircumflex" horiz-adv-x="771" unicode=""/><glyph d="M648 114q1 -4 9 -81q-45 -28 -78.5 -40t-72.5 -4q-17 21 -25 47.5t-12.5 62.5t-10.5 57q-22 -1 -61.5 -1t-72.5 -2.5t-61 -11.5q-2 -7 -7 -25.5t-7.5 -26.5t-9 -22.5t-13.5 -22.5t-18.5 -16t-26.5 -13q-27 -8 -37 -11t-32 -6.5t-40 0.5t-36 14q1 5 1 14.5t1 16.5t3 13 q83 243 194 562q3 8 11 23.5t11 23.5q9 27 24.5 46.5t38.5 31.5t43 18.5t50 12.5q29 6 47.5 -8t30.5 -51q79 -255 111 -373q7 -26 14 -57.5t11 -54t11 -60.5t10 -56zM427 299q4 118 -54 244q-8 -22 -24.5 -63.5t-25.5 -65.5t-17 -60t-9 -69q36 3 130 14zM313 773 q-35 -6 -60 0t-38 22.5t-19 34.5t-8 42q0 12 2 14q9 10 31 9.5t28 -18.5q10 -31 18.5 -37.5t33.5 -4.5q16 1 26.5 8.5t24.5 24.5q11 13 19 20.5t28.5 16.5t48.5 12q18 2 41.5 -10.5t41.5 -28.5q16 -16 32.5 -47.5t14.5 -39.5q-2 -1 -3 -2l-11 -4q-2 0 -7 -1t-15.5 -3 t-17.5 -1h-1h-1q-2 1 -3 3q-1 1 -1 2q-11 32 -30 49.5t-40 15.5q-25 -2 -37 -9.5t-25 -27.5q-13 -18 -29.5 -26.5t-43.5 -13.5z" glyph-name="Atilde" horiz-adv-x="771" unicode=""/><glyph d="M648 114q1 -4 9 -81q-45 -28 -78.5 -40t-72.5 -4q-17 21 -25 47.5t-12.5 62.5t-10.5 57q-22 -1 -61.5 -1t-72.5 -2.5t-61 -11.5q-2 -7 -7 -25.5t-7.5 -26.5t-9 -22.5t-13.5 -22.5t-18.5 -16t-26.5 -13q-27 -8 -37 -11t-32 -6.5t-40 0.5t-36 14q1 5 1 14.5t1 16.5t3 13 q83 243 194 562q3 8 11 23.5t11 23.5q9 27 24.5 46.5t38.5 31.5t43 18.5t50 12.5q29 6 47.5 -8t30.5 -51q79 -255 111 -373q7 -26 14 -57.5t11 -54t11 -60.5t10 -56zM427 299q4 118 -54 244q-8 -22 -24.5 -63.5t-25.5 -65.5t-17 -60t-9 -69q36 3 130 14zM261 838q-4 8 -7 21 q-5 21 2 39q14 33 57 32q26 -1 41.5 -16.5t18.5 -37.5q1 -12 -1 -22.5t-5 -14.5l-3 -5q-6 -11 -22.5 -19t-32.5 -7q-37 3 -48 30zM477 808q-26 3 -40 19.5t-14 38.5q0 12 3 22.5t6 14.5l3 4q8 11 25 18t32 4q37 -6 45 -33q3 -8 5 -21q4 -22 -6 -39q-17 -32 -59 -28z" glyph-name="Adieresis" horiz-adv-x="771" unicode=""/><glyph d="M648 114q1 -4 9 -81q-45 -28 -78.5 -40t-72.5 -4q-17 21 -25 47.5t-12.5 62.5t-10.5 57q-22 -1 -61.5 -1t-72.5 -2.5t-61 -11.5q-2 -7 -7 -25.5t-7.5 -26.5t-9 -22.5t-13.5 -22.5t-18.5 -16t-26.5 -13q-27 -8 -37 -11t-32 -6.5t-40 0.5t-36 14q1 5 1 14.5t1 16.5t3 13 q83 243 194 562q3 8 11 23.5t11 23.5q18 54 69 81q-10 6 -21 13q-1 1 -3 2.5t-3 2.5l-4 3q-22 24 -20 67v4q6 35 9 43.5t10 21.5q1 2 8 10q4 5 17 15q10 8 19 11q16 6 33 8q21 3 33 2q6 0 13 -2q16 -5 27 -11q2 -1 9 -5l10 -7.5t19 -20.5t19.5 -33t2.5 -44t-23 -54 q-2 -2 -5.5 -6.5t-5.5 -6.5l-0.5 -0.5l-0.5 -0.5q13 -15 22 -43q79 -255 111 -373q7 -26 14 -57.5t11 -54t11 -60.5t10 -56zM427 299q4 118 -54 244q-8 -22 -24.5 -63.5t-25.5 -65.5t-17 -60t-9 -69q36 3 130 14zM441 839q3 15 0 24q-4 14 -17 24t-37 8q-35 -13 -45 -34 q-4 -7 -6 -25q-3 -27 20 -39.5t45 -6.5q10 5 10 6q10 7 22 24q7 11 8 19z" glyph-name="Aring" horiz-adv-x="771" unicode=""/><glyph d="M1002 132q6 -36 -13.5 -73.5t-50.5 -49.5q-37 -14 -59 -14q-78 -1 -310 1q-33 -7 -61 -1q-13 20 -13.5 46.5t4.5 62t4 56.5q-23 -2 -63.5 -2t-74 -2.5t-64.5 -10.5q-4 -7 -14 -25.5t-15 -26t-15 -22t-19 -22t-23 -15.5t-31 -13q-29 -8 -40 -10.5t-34.5 -6t-40.5 0 t-33 13.5q2 5 5 14.5t5.5 16.5t6.5 13q149 239 346 553q5 8 17.5 23t17.5 23q42 69 134 94q21 6 53 12q9 2 17 2q64 10 158 6q3 0 108 -10q36 -3 65 -33t32 -66q2 -16 -7 -29l-5 -8q-4 -5 -10 -5q-29 -1 -80 3.5t-95.5 4.5t-83.5 -12q-3 -1 -7 -5.5t-4 -8.5q-2 -20 -5 -69.5 t-5 -74.5q-1 -5 2.5 -9t8.5 -4h37q19 1 60 4t62 4q22 1 37 -3q23 -5 39.5 -24.5t16.5 -39.5t-14.5 -34.5t-41.5 -20.5q-21 -4 -44.5 -7.5t-52.5 -7.5t-45 -6q-9 -2 -45 -9q-8 -1 -10 -9q-4 -18 -5 -42.5t-1 -40t1 -46.5t1 -39q28 -1 48 -1q21 -2 44 0h5q19 1 42 5t39 8 l42 10.5t39 9.5q21 5 33 -13q4 -6 5 -15zM509 300q36 116 10 241q-14 -23 -42 -63.5t-43 -64t-32.5 -59t-27.5 -68.5q92 9 135 14zM823 236q-2 -1 -6 -1q1 0 3 1h2h1z" glyph-name="AE" horiz-adv-x="1118" unicode=""/><glyph d="M671 291q-2 -50 -25.5 -98t-50.5 -75q-103 -101 -214 -117q9 -23 43 -37q32 -15 49 -40t16 -52.5t-13.5 -53.5t-41 -44t-64.5 -22q-50 -5 -84 2q-17 4 -53 26q-21 13 -14 55.5t30 53.5q18 8 32.5 -2.5t18.5 -33.5q0 -2 1 -8.5t2 -9.5t3.5 -7.5t8.5 -7t14 -3.5 q34 -3 52.5 6t19.5 27q1 12 -1 21t-4 14.5t-9 12t-10.5 8.5t-14.5 8.5t-14 8.5q-18 11 -35 31.5t-20 46.5q-33 4 -64 14q-83 26 -135 95.5t-57 159.5q-5 82 18.5 158.5t69 136t107 105t134.5 71.5q101 38 186 32q28 -2 49 -9q31 -10 47.5 -54.5t11 -93t-30.5 -70.5 q-30 -26 -62.5 -14t-53.5 55q-8 16 -28.5 19.5t-53.5 1.5q-28 -2 -72 -33q-143 -101 -163 -265q-6 -55 19 -90t78 -44q86 -14 159 31q23 14 40 37q3 4 8 16t6 17q2 14 9 60q3 25 27 33q25 7 52 6q33 -2 55.5 -26.5t21.5 -58.5z" glyph-name="Ccedilla" horiz-adv-x="785" unicode=""/><glyph d="M615 137q6 -37 -13.5 -74.5t-50.5 -48.5q-37 -14 -59 -14q-94 -1 -246 0q-15 -2 -27 0q-10 0 -29 0.5t-29 0.5q-26 0 -35 18q-6 12 -2 25q10 30 37 52q-11 49 -11 110q0 22 1.5 51.5t0.5 44.5q-1 10 -10 11q-19 3 -26.5 29.5t2.5 54t35 34.5q8 2 9 10q6 80 9 117 q1 9 -8 12q-6 2 -24 6.5t-25 7t-21.5 8.5t-22.5 11.5t-17 15t-16 21.5q-1 3 -1 7q4 29 39 37q267 62 373 85q24 5 69 1q36 -3 65 -33t32 -66q2 -16 -7 -29l-5 -8q-4 -5 -10 -5q-19 -1 -61.5 -1t-68 -1t-62 -5.5t-67.5 -13.5q-7 -2 -8 -10q-6 -55 -13 -131q-1 -5 2.5 -9 t9.5 -4q27 -1 36 0q19 1 60 4t62 4q23 1 38 -3q22 -5 39 -25t16 -39q0 -20 -14.5 -35t-41.5 -20q-20 -4 -44 -7.5t-53 -7.5t-44 -7q-10 -1 -46 -8q-8 -1 -10 -9q-3 -18 -4.5 -42.5t-1.5 -40t1 -46.5t1 -39q28 -1 48 -1q22 -2 44 -1q4 1 5 1q19 1 42 5t39 8l42 10.5t39 9.5 q21 5 33 -13q4 -6 5 -15zM436 240h-6h3h2h1zM273 870q-1 1 -7 3t-8.5 3t-7 3.5t-5.5 5.5t-1 8t3 11l12 24l1.5 3t2.5 4l3 3t4.5 2.5t7 0.5t9.5 -2q4 -2 18 -7.5t31 -12.5t31 -13h1q4 -3 28 -14q2 0 10 -3q8 -4 16 -9q35 -19 38 -25q7 -22 -19 -54q-14 -17 -31 -5 q-7 6 -19 12q-3 2 -15 8.5t-18 9.5l-1 1q-32 19 -65 35l-5 2q-5 3 -14 6z" glyph-name="Egrave" horiz-adv-x="731" unicode=""/><glyph d="M615 137q6 -37 -13.5 -74.5t-50.5 -48.5q-37 -14 -59 -14q-94 -1 -246 0q-15 -2 -27 0q-10 0 -29 0.5t-29 0.5q-26 0 -35 18q-6 12 -2 25q10 30 37 52q-11 49 -11 110q0 22 1.5 51.5t0.5 44.5q-1 10 -10 11q-19 3 -26.5 29.5t2.5 54t35 34.5q8 2 9 10q6 80 9 117 q1 9 -8 12q-6 2 -24 6.5t-25 7t-21.5 8.5t-22.5 11.5t-17 15t-16 21.5q-1 3 -1 7q4 29 39 37q267 62 373 85q24 5 69 1q36 -3 65 -33t32 -66q2 -16 -7 -29l-5 -8q-4 -5 -10 -5q-19 -1 -61.5 -1t-68 -1t-62 -5.5t-67.5 -13.5q-7 -2 -8 -10q-6 -55 -13 -131q-1 -5 2.5 -9 t9.5 -4q27 -1 36 0q19 1 60 4t62 4q23 1 38 -3q22 -5 39 -25t16 -39q0 -20 -14.5 -35t-41.5 -20q-20 -4 -44 -7.5t-53 -7.5t-44 -7q-10 -1 -46 -8q-8 -1 -10 -9q-3 -18 -4.5 -42.5t-1.5 -40t1 -46.5t1 -39q28 -1 48 -1q22 -2 44 -1q4 1 5 1q19 1 42 5t39 8l42 10.5t39 9.5 q21 5 33 -13q4 -6 5 -15zM436 240h-6h3h2h1zM302 767q-17 -11 -31 7q-24 34 -16 56q2 6 38 22q10 4 17 7q7 2 9 3q26 8 30 10v1q15 4 32 9.5t31.5 10t17.5 5.5q5 1 9.5 1.5t7 -0.5t4.5 -3.5t3 -3.5t2.5 -4t1.5 -4l11 -24q2 -7 2 -12t-1.5 -7.5t-5.5 -5t-6.5 -3.5t-8.5 -2 t-8 -2q-9 -2 -14 -4l-5 -2q-33 -13 -66 -30h-1q-6 -2 -18.5 -8t-15.5 -7q-12 -5 -19 -10z" glyph-name="Eacute" horiz-adv-x="731" unicode=""/><glyph d="M615 137q6 -37 -13.5 -74.5t-50.5 -48.5q-37 -14 -59 -14q-94 -1 -246 0q-15 -2 -27 0q-10 0 -29 0.5t-29 0.5q-26 0 -35 18q-6 12 -2 25q10 30 37 52q-11 49 -11 110q0 22 1.5 51.5t0.5 44.5q-1 10 -10 11q-19 3 -26.5 29.5t2.5 54t35 34.5q8 2 9 10q6 80 9 117 q1 9 -8 12q-6 2 -24 6.5t-25 7t-21.5 8.5t-22.5 11.5t-17 15t-16 21.5q-1 3 -1 7q4 29 39 37q267 62 373 85q24 5 69 1q36 -3 65 -33t32 -66q2 -16 -7 -29l-5 -8q-4 -5 -10 -5q-19 -1 -61.5 -1t-68 -1t-62 -5.5t-67.5 -13.5q-7 -2 -8 -10q-6 -55 -13 -131q-1 -5 2.5 -9 t9.5 -4q27 -1 36 0q19 1 60 4t62 4q23 1 38 -3q22 -5 39 -25t16 -39q0 -20 -14.5 -35t-41.5 -20q-20 -4 -44 -7.5t-53 -7.5t-44 -7q-10 -1 -46 -8q-8 -1 -10 -9q-3 -18 -4.5 -42.5t-1.5 -40t1 -46.5t1 -39q28 -1 48 -1q22 -2 44 -1q4 1 5 1q19 1 42 5t39 8l42 10.5t39 9.5 q21 5 33 -13q4 -6 5 -15zM436 240h-6h3h2h1zM256 811q-12 -9 -23 10q-20 35 -15 54q2 6 28 18q7 3 13 5q5 1 7 2l21 7h1q11 4 23.5 7.5t23.5 6t13 3.5q8 2 14 -1q0 -1 1 -1h1l13.5 -4.5t23 -8t23.5 -8.5q3 -1 21 -9q2 0 7 -2q7 -3 13 -6q26 -13 27 -19q4 -20 -18 -54 q-12 -18 -24 -8q-5 4 -13 9q-3 1 -11.5 6t-13.5 7h-1q-23 14 -48 25l-3 1q-2 1 -8 3q-2 -1 -3 -1l-3 -1q-25 -9 -49 -22h-1q-5 -2 -14 -6t-11 -5q-9 -4 -15 -8z" glyph-name="Ecircumflex" horiz-adv-x="731" unicode=""/><glyph d="M615 137q6 -37 -13.5 -74.5t-50.5 -48.5q-37 -14 -59 -14q-94 -1 -246 0q-15 -2 -27 0q-10 0 -29 0.5t-29 0.5q-26 0 -35 18q-6 12 -2 25q10 30 37 52q-11 49 -11 110q0 22 1.5 51.5t0.5 44.5q-1 10 -10 11q-19 3 -26.5 29.5t2.5 54t35 34.5q8 2 9 10q6 80 9 117 q1 9 -8 12q-6 2 -24 6.5t-25 7t-21.5 8.5t-22.5 11.5t-17 15t-16 21.5q-1 3 -1 7q4 29 39 37q267 62 373 85q24 5 69 1q36 -3 65 -33t32 -66q2 -16 -7 -29l-5 -8q-4 -5 -10 -5q-19 -1 -61.5 -1t-68 -1t-62 -5.5t-67.5 -13.5q-7 -2 -8 -10q-6 -55 -13 -131q-1 -5 2.5 -9 t9.5 -4q27 -1 36 0q19 1 60 4t62 4q23 1 38 -3q22 -5 39 -25t16 -39q0 -20 -14.5 -35t-41.5 -20q-20 -4 -44 -7.5t-53 -7.5t-44 -7q-10 -1 -46 -8q-8 -1 -10 -9q-3 -18 -4.5 -42.5t-1.5 -40t1 -46.5t1 -39q28 -1 48 -1q22 -2 44 -1q4 1 5 1q19 1 42 5t39 8l42 10.5t39 9.5 q21 5 33 -13q4 -6 5 -15zM436 240h-6h3h2h1zM190 829q-4 9 -7 22q-6 21 2 39q14 33 56 31q27 0 42.5 -15.5t17.5 -37.5q1 -12 -1 -22.5t-4 -15.5l-3 -4q-7 -11 -23.5 -19.5t-31.5 -6.5q-37 3 -48 29zM406 800q-27 3 -41 19t-14 39q0 12 3 22t6 15l4 4q7 11 24.5 18t32.5 4 q37 -6 45 -33q3 -9 5 -21q3 -22 -6 -40q-17 -31 -59 -27z" glyph-name="Edieresis" horiz-adv-x="731" unicode=""/><glyph d="M614 140q7 -36 -14.5 -73.5t-57.5 -49.5q-43 -14 -68 -15q-108 -2 -388 -3q-38 0 -48 31q3 13 10 25t12.5 19t19.5 17t19 13t24 13.5t21 11.5q11 6 24 6q37 -1 74 -1q-5 22 -6 65v55q2 23 2 29q3 81 3 95q5 104 14 236q-38 -6 -80 -14q-11 -2 -21 2q-5 2 -23 9t-24.5 10 t-20.5 10t-21 13.5t-15 17t-13 22.5q-1 3 -1 6q7 29 43 34q272 35 379 47q25 3 69 -5q36 -7 62 -40t25 -70q0 -15 -9 -26l-8 -9q-3 -4 -8 -3q-20 1 -57 4.5t-68 5.5t-60 2q-1 -13 -1 -24q-1 -11 -2 -28.5t0 -17.5q-3 -114 3 -233q0 -23 1 -63.5t2 -51.5q0 -39 3 -65 q1 -3 1 -10q25 3 51.5 8.5t60.5 13.5t50 11q17 3 30 -9l5 -5q5 -6 6 -16zM247 886q-2 1 -8 3t-8.5 3t-6.5 3.5t-5 5.5t-1 8t2 11l12 24l1.5 3t2.5 4t3.5 3t5 3t7 0.5t9.5 -2.5q3 -2 17 -7.5t31 -12.5t32 -13q4 -3 29 -14q1 0 9 -3q7 -4 17 -9q35 -19 37 -25q7 -22 -18 -54 q-14 -17 -31 -5q-7 6 -19 12q-3 2 -15 8.5t-19 9.5v1q-33 20 -65 35l-5 2q-5 3 -14 6z" glyph-name="Igrave" horiz-adv-x="730" unicode=""/><glyph d="M614 140q7 -36 -14.5 -73.5t-57.5 -49.5q-43 -14 -68 -15q-108 -2 -388 -3q-38 0 -48 31q3 13 10 25t12.5 19t19.5 17t19 13t24 13.5t21 11.5q11 6 24 6q37 -1 74 -1q-5 22 -6 65v55q2 23 2 29q3 81 3 95q5 104 14 236q-38 -6 -80 -14q-11 -2 -21 2q-5 2 -23 9t-24.5 10 t-20.5 10t-21 13.5t-15 17t-13 22.5q-1 3 -1 6q7 29 43 34q272 35 379 47q25 3 69 -5q36 -7 62 -40t25 -70q0 -15 -9 -26l-8 -9q-3 -4 -8 -3q-20 1 -57 4.5t-68 5.5t-60 2q-1 -13 -1 -24q-1 -11 -2 -28.5t0 -17.5q-3 -114 3 -233q0 -23 1 -63.5t2 -51.5q0 -39 3 -65 q1 -3 1 -10q25 3 51.5 8.5t60.5 13.5t50 11q17 3 30 -9l5 -5q5 -6 6 -16zM300 783q-17 -11 -31 7q-24 34 -16 56q2 6 38 22q10 4 17 7q8 2 9 3q26 8 30 10v1q15 4 32 9.5t31.5 10t17.5 5.5q5 1 9.5 1.5t7 -0.5t4.5 -3.5t3 -3.5t2.5 -4t1.5 -4l11 -24q2 -7 2 -12t-1.5 -7.5 t-5.5 -5t-6.5 -3.5t-8.5 -2t-8 -2q-9 -2 -14 -4l-5 -2q-33 -13 -66 -30h-1q-6 -2 -18.5 -8t-15.5 -7q-12 -5 -19 -10z" glyph-name="Iacute" horiz-adv-x="730" unicode=""/><glyph d="M614 140q7 -36 -14.5 -73.5t-57.5 -49.5q-43 -14 -68 -15q-108 -2 -388 -3q-38 0 -48 31q3 13 10 25t12.5 19t19.5 17t19 13t24 13.5t21 11.5q11 6 24 6q37 -1 74 -1q-5 22 -6 65v55q2 23 2 29q3 81 3 95q5 104 14 236q-38 -6 -80 -14q-11 -2 -21 2q-5 2 -23 9t-24.5 10 t-20.5 10t-21 13.5t-15 17t-13 22.5q-1 3 -1 6q7 29 43 34q272 35 379 47q25 3 69 -5q36 -7 62 -40t25 -70q0 -15 -9 -26l-8 -9q-3 -4 -8 -3q-20 1 -57 4.5t-68 5.5t-60 2q-1 -13 -1 -24q-1 -11 -2 -28.5t0 -17.5q-3 -114 3 -233q0 -23 1 -63.5t2 -51.5q0 -39 3 -65 q1 -3 1 -10q25 3 51.5 8.5t60.5 13.5t50 11q17 3 30 -9l5 -5q5 -6 6 -16zM238 827q-13 -9 -23 10q-20 35 -15 55q1 5 28 17q7 3 12 5q6 1 7 2q19 6 22 7q11 4 24 7.5t23.5 6t13.5 3.5q8 2 13 -1l1 -0.5t2 -0.5q2 -1 12.5 -4.5t23.5 -8t23 -8.5h1q3 -1 21 -9q1 0 7 -2l12 -6 q26 -13 27 -19q4 -20 -17 -54q-12 -18 -24 -8q-5 4 -14 9q-2 1 -11 6t-14 7q-24 14 -48 25l-4 1q-2 1 -7 3q-2 -1 -3 -1l-4 -1q-24 -9 -49 -22q-5 -2 -14 -6t-12 -5q-9 -4 -14 -8z" glyph-name="Icircumflex" horiz-adv-x="730" unicode=""/><glyph d="M614 140q7 -36 -14.5 -73.5t-57.5 -49.5q-43 -14 -68 -15q-108 -2 -388 -3q-38 0 -48 31q3 13 10 25t12.5 19t19.5 17t19 13t24 13.5t21 11.5q11 6 24 6q37 -1 74 -1q-5 22 -6 65v55q2 23 2 29q3 81 3 95q5 104 14 236q-38 -6 -80 -14q-11 -2 -21 2q-5 2 -23 9t-24.5 10 t-20.5 10t-21 13.5t-15 17t-13 22.5q-1 3 -1 6q7 29 43 34q272 35 379 47q25 3 69 -5q36 -7 62 -40t25 -70q0 -15 -9 -26l-8 -9q-3 -4 -8 -3q-20 1 -57 4.5t-68 5.5t-60 2q-1 -13 -1 -24q-1 -11 -2 -28.5t0 -17.5q-3 -114 3 -233q0 -23 1 -63.5t2 -51.5q0 -39 3 -65 q1 -3 1 -10q25 3 51.5 8.5t60.5 13.5t50 11q17 3 30 -9l5 -5q5 -6 6 -16zM189 845q-3 9 -6 22q-6 21 2 39q14 33 56 32q27 -1 42.5 -16.5t17.5 -37.5q1 -12 -1 -22.5t-5 -15.5l-2 -4q-7 -11 -23.5 -19t-32.5 -7q-36 3 -48 29zM406 816q-27 3 -41 19t-14 39q0 12 3 22t6 15 l3 4q8 11 25 18t33 4q36 -6 45 -33q3 -9 5 -21q3 -22 -6 -40q-17 -31 -59 -27z" glyph-name="Idieresis" horiz-adv-x="730" unicode=""/><glyph d="M584 621q-3 -77 -10 -221.5t-8 -167.5q-2 -35 1 -62q7 -63 -21 -93.5t-96 -49.5q-4 -1 -4 -2h-1q-15 2 -22 17q-30 58 -109.5 195t-112.5 203q-1 2 -4 1.5t-3 -3.5q1 -44 8.5 -139.5t7.5 -133.5q0 -7 0.5 -19.5t0.5 -18.5q1 -56 -22.5 -85t-79.5 -41q-37 -8 -54.5 5 t-17.5 51q-2 214 0 383q1 74 10 194q2 20 11 74q3 15 14 24q1 1 3 2q52 32 80.5 36.5t50 -14.5t49.5 -72q13 -27 64.5 -140.5t81.5 -164.5q2 -3 5.5 -2t3.5 4q1 23 0.5 91t0.5 81q1 19 2 66.5t4 79.5q4 41 17 56.5t42 17.5q36 3 66 -15.5t37 -49.5t5 -87zM264 812 q-35 -6 -60 0t-38 22t-19 34.5t-8 42.5q0 12 2 13q9 11 31 10t28 -19q10 -31 18.5 -37t33.5 -5q16 1 26.5 9t24.5 25q11 13 19 20.5t28.5 16t48.5 11.5q18 2 41.5 -10t41.5 -29q16 -15 32.5 -47t14.5 -40q-2 -1 -4 -1l-10 -4q-3 -1 -7.5 -2t-15 -2.5t-17.5 -1.5h-1l-1 1 q-2 1 -3 3q-1 1 -1 2q-11 32 -30 49.5t-41 15.5q-24 -2 -36 -10t-25 -27t-29.5 -27t-43.5 -13z" glyph-name="Ntilde" horiz-adv-x="699" unicode=""/><glyph d="M594 663q113 -135 92 -309q-1 -4 -2 -21t-1 -18q-24 -221 -215 -294q-83 -31 -166.5 -12t-145.5 81q-56 57 -86.5 127t-33 140t15.5 142q22 92 72 153q5 7 18.5 21t17.5 16q54 47 131 69q84 24 166 -2t137 -93zM525 346q4 59 1 81q-4 30 -14 60q0 1 -1 3.5t-2 4.5 q-9 26 -24 52q-25 46 -65 59.5t-90 -7.5q-79 -35 -113 -108q-7 -16 -18 -77q-5 -31 -1 -58q10 -74 56 -141q30 -44 71 -54t89 15q39 22 65 53q31 37 42 92h1q2 11 3 25zM321 880q-1 0 -7 2t-8.5 3t-7 4t-5.5 6t-1 8t3 11l11 23q1 1 2.5 3.5t2.5 4t3 3.5t4.5 2.5t7 0 t9.5 -2.5q3 -1 17.5 -6.5t31.5 -12.5t31 -13l1 -1q3 -2 28 -13q2 -1 9 -4q9 -4 17 -8q35 -19 38 -26q7 -22 -19 -53q-14 -17 -31 -5q-7 6 -19 12q-3 2 -15 8.5t-18 9.5h-1q-32 20 -65 36l-5 2q-5 3 -14 6z" glyph-name="Ograve" horiz-adv-x="803" unicode=""/><glyph d="M594 663q113 -135 92 -309q-1 -4 -2 -21t-1 -18q-24 -221 -215 -294q-83 -31 -166.5 -12t-145.5 81q-56 57 -86.5 127t-33 140t15.5 142q22 92 72 153q5 7 18.5 21t17.5 16q54 47 131 69q84 24 166 -2t137 -93zM525 346q4 59 1 81q-4 30 -14 60q0 1 -1 3.5t-2 4.5 q-9 26 -24 52q-25 46 -65 59.5t-90 -7.5q-79 -35 -113 -108q-7 -16 -18 -77q-5 -31 -1 -58q10 -74 56 -141q30 -44 71 -54t89 15q39 22 65 53q31 37 42 92h1q2 11 3 25zM339 809q-17 -11 -30 7q-25 34 -17 56q3 6 39 22q9 4 16 7q8 2 10 3q25 9 29 10v1q15 5 32 10t31.5 9.5 t17.5 5.5q6 2 10 2t6.5 -1t5 -3t3 -3.5t2 -4.5l1.5 -3l11 -25q3 -7 2.5 -12t-1.5 -7.5t-5.5 -5t-7 -3t-8.5 -2t-8 -2.5q-8 -2 -14 -4l-5 -2q-33 -13 -66 -29v-1q-7 -2 -19 -7.5t-16 -7.5q-12 -5 -19 -10z" glyph-name="Oacute" horiz-adv-x="803" unicode=""/><glyph d="M594 663q113 -135 92 -309q-1 -4 -2 -21t-1 -18q-24 -221 -215 -294q-83 -31 -166.5 -12t-145.5 81q-56 57 -86.5 127t-33 140t15.5 142q22 92 72 153q5 7 18.5 21t17.5 16q54 47 131 69q84 24 166 -2t137 -93zM525 346q4 59 1 81q-4 30 -14 60q0 1 -1 3.5t-2 4.5 q-9 26 -24 52q-25 46 -65 59.5t-90 -7.5q-79 -35 -113 -108q-7 -16 -18 -77q-5 -31 -1 -58q10 -74 56 -141q30 -44 71 -54t89 15q39 22 65 53q31 37 42 92h1q2 11 3 25zM285 804q-12 -9 -23 10q-20 35 -15 55q2 5 28 17q7 3 13 5q5 1 7 2l21 7l1 1q11 3 23.5 6.5t23.5 6 t13 3.5q8 2 14 -1l1 -0.5l1 -0.5l13.5 -4.5t23 -7.5t23.5 -8v-1q3 -1 22 -9q1 0 6 -2q6 -2 13 -5q26 -14 27 -20q4 -20 -18 -53q-11 -19 -23 -9q-6 4 -14 9q-3 1 -11.5 6t-13.5 7h-1q-23 14 -48 25l-3 2q-2 1 -8 2q-2 0 -2 -1l-4 -1q-25 -9 -49 -22h-1q-5 -2 -14 -6t-11 -5 q-9 -4 -15 -8z" glyph-name="Ocircumflex" horiz-adv-x="803" unicode=""/><glyph d="M594 650q113 -135 92 -309q-1 -4 -2 -21t-1 -18q-24 -221 -215 -294q-83 -31 -166.5 -12t-145.5 81q-56 57 -86.5 127t-33 140t15.5 142q22 92 72 154q5 6 18.5 20t17.5 16q54 47 131 69q84 25 166 -1.5t137 -93.5zM525 333q4 59 1 81q-4 30 -14 60q0 1 -1 3.5t-2 4.5 q-9 26 -24 52q-25 46 -65 59.5t-90 -7.5q-79 -35 -113 -108q-7 -16 -18 -77q-5 -31 -1 -58q10 -74 56 -141q30 -44 71 -54t89 15q39 22 65 53q31 37 42 92h1q2 11 3 25zM292 785q-35 -6 -59.5 0t-37.5 22t-19 34.5t-8 42.5q0 12 1 13q9 11 31.5 10t28.5 -19q10 -31 18.5 -37 t33.5 -5q15 2 26 9.5t24 24.5q11 13 19.5 20.5t29 16t48.5 11.5q18 2 41.5 -10t40.5 -29q17 -15 33 -47t14 -40q-1 -1 -3 -1l-10 -4q-3 -1 -7.5 -2t-15.5 -2.5t-17 -1.5q-1 0 -1 1h-1q-3 1 -3 3q-1 1 -1 2q-11 32 -30 49.5t-41 15.5q-24 -2 -36 -9.5t-26 -27.5 q-12 -19 -28.5 -27t-44.5 -13z" glyph-name="Otilde" horiz-adv-x="803" unicode=""/><glyph d="M594 663q113 -135 92 -309q-1 -4 -2 -21t-1 -18q-24 -221 -215 -294q-83 -31 -166.5 -12t-145.5 81q-56 57 -86.5 127t-33 140t15.5 142q22 92 72 153q5 7 18.5 21t17.5 16q54 47 131 69q84 24 166 -2t137 -93zM525 346q4 59 1 81q-4 30 -14 60q0 1 -1 3.5t-2 4.5 q-9 26 -24 52q-25 46 -65 59.5t-90 -7.5q-79 -35 -113 -108q-7 -16 -18 -77q-5 -31 -1 -58q10 -74 56 -141q30 -44 71 -54t89 15q39 22 65 53q31 37 42 92h1q2 11 3 25zM214 824q-3 9 -6 21q-6 22 2 40q14 33 56 31q27 -1 42.5 -16t17.5 -37q1 -12 -1 -22.5t-5 -15.5l-2 -4 q-7 -12 -23.5 -20t-32.5 -6q-36 3 -48 29zM441 795q-27 3 -40.5 19t-14.5 38q0 12 3 22.5t7 14.5l3 5q7 11 24.5 17.5t32.5 4.5q37 -6 45 -33q3 -9 5 -22q3 -22 -6 -39q-17 -32 -59 -27z" glyph-name="Odieresis" horiz-adv-x="803" unicode=""/><glyph d="M374 348q9 -15 12 -38q3 -34 -38 -47q-30 -9 -54 23q-10 14 -27 33q-7 6 -21 22t-22 24v0q-11 -10 -29 -29.5t-23 -24.5q-18 -18 -28 -32q-24 -31 -55 -20q-22 7 -38.5 21t-14.5 33q1 10 55 66q13 12 26 25q12 11 15 13q5 6 13.5 13.5t11.5 9.5q-21 22 -38 40l-8 8 q-7 8 -20 20q-22 20 -38 34h-1q-8 7 -6 18t12 17l41 27q12 6 22 -3q2 -1 6 -5.5t6 -5.5l-4 4l4 -4l3 -3l3 -3q45 -41 86 -80q19 17 46.5 41t32.5 28q8 8 15 12t12 5.5t9.5 1t7 -1.5t6 -3.5l3.5 -2.5l30 -21q6 -5 8.5 -10t1.5 -10.5t-3.5 -10t-8 -10t-9.5 -9t-12 -9.5t-11 -9 q-13 -11 -21 -19l-8 -8q-15 -14 -31 -31q7 -8 14 -14q2 -3 14 -14q11 -11 25 -26q20 -21 28 -35z" glyph-name="multiply" horiz-adv-x="433" unicode=""/><glyph d="M607 647q98 -130 79 -293q-1 -4 -2 -21t-1 -18q-24 -221 -215 -294q-67 -25 -133.5 -17.5t-124.5 44.5q-23 -32 -33 -39.5t-19 -6.5l-52 30q-15 7 -14.5 22.5t9 31.5t24.5 39q-65 81 -83 181.5t10 192.5q22 92 72 153q5 7 18.5 21t17.5 16q54 47 131 69q112 33 216 -24 q40 60 64 48q4 -1 13.5 -5.5t13 -6t12 -6t12 -7t9 -7t7.5 -8.5t4 -8.5t1.5 -10.5t-2.5 -12q-5 -12 -34 -64zM198 356q6 -45 25 -87q71 110 133 215q1 1 1 2q2 3 73 116q-45 22 -100 -3q-79 -35 -113 -108q-8 -16 -18 -77q-5 -31 -1 -58zM525 346q3 59 1 81q-4 30 -14 60 q-1 2 -1 3q-11 -16 -17 -24q-59 -89 -69 -105q0 -1 -1 -2q-51 -75 -127 -186q53 -32 117 3q39 22 65 53q31 37 42 92v0q3 11 4 25z" glyph-name="Oslash" horiz-adv-x="803" unicode=""/><glyph d="M513 780q14 0 24.5 -4.5t16 -14.5t8 -19.5t2.5 -24.5t-1 -23t-2 -21q-1 -8 -1 -126.5t1 -124.5l-1 -1q1 -30 -2 -59q0 -4 -1 -20.5t-1 -18.5q-20 -220 -173 -294q-44 -21 -91 -24t-92 16t-76 58q-51 64 -71.5 150.5t-15.5 178.5v59v54q9 190 10 200q1 2 1 5.5v4.5v7v-7 q1 2 1 9v9q2 16 25 20l91 11q17 3 32 -4.5t14 -19.5q-5 -25 -7 -58q-3 -20 -2 -33v-12q-2 -52 -2.5 -157t0.5 -119q0 -5 1 -22t1 -25t1.5 -22.5t2.5 -23t3 -18.5t5 -17q38 -98 114 -64q20 9 32 25.5t17 36t6.5 37t1.5 37t1 26.5q0 6 -1 46q0 21 1 41q1 18 1 22q3 61 3 71v1 q2 35 5.5 75.5t6.5 74.5t4 43q1 12 4.5 21t7 14t9.5 8.5t9.5 4.5t10.5 2t8 1zM212 885q-2 1 -8 2.5t-8.5 2.5t-6.5 4t-5.5 6t-1.5 8t3 11l12 24l1.5 3t2.5 4l3 3t5 2.5t7 0.5t9 -3q4 -1 18 -6.5t31 -12.5t31 -13h1q4 -3 29 -14q1 -1 9 -4q7 -3 16 -8q36 -19 38 -25 q7 -23 -19 -54q-14 -17 -30 -5q-8 6 -19 12q-4 2 -15.5 8.5t-18.5 9.5l-1 1q-33 19 -65 35l-5 2q-5 3 -13 6z" glyph-name="Ugrave" horiz-adv-x="678" unicode=""/><glyph d="M513 780q14 0 24.5 -4.5t16 -14.5t8 -19.5t2 -24.5t-1 -23t-1.5 -21q-1 -8 -1 -126.5t1 -124.5l-1 -1q1 -30 -2 -59q0 -4 -1 -20.5t-1 -18.5q-20 -220 -173 -294q-44 -21 -91 -24t-92 16t-76 58q-51 64 -71.5 150.5t-15.5 178.5v59v54q9 190 10 200q1 2 1 5.5v4.5v7v-7 q1 2 1 9v9q2 16 25 20l91 11q17 3 32 -4.5t14 -19.5q-5 -25 -7 -58q-3 -20 -2 -33v-12q-2 -52 -2.5 -157t0.5 -119q0 -5 1 -22t1 -25t1.5 -22.5t2.5 -23t3 -18.5t5 -17q38 -98 114 -64q20 9 32 25.5t17 36t6.5 37t1.5 37t1 26.5q0 6 -1 46q0 21 1 41q1 18 1 22q3 61 3 71v1 q2 35 5.5 75.5t6.5 74.5t4 43q1 12 4.5 21t7 14t9.5 8.5t9.5 4.5t10.5 2t8 1zM223 822q-13 -9 -24 10q-20 35 -15 55q2 6 28 18q9 3 13 4q6 2 7 2q19 6 22 8q11 3 23.5 6.5t23.5 6.5t13 3q9 3 14 -1h1t1 -1q3 0 13.5 -3.5t23 -8t23.5 -8.5q3 -2 22 -9q1 -1 6 -3q8 -3 13 -5 q26 -14 27 -20q4 -20 -18 -53q-11 -18 -23 -8q-6 4 -14 8q-3 1 -11.5 6t-13.5 7h-1q-23 15 -48 25l-3 2q-2 1 -7 3l-3 -1l-4 -2q-25 -9 -49 -21l-1 -1q-5 -1 -14 -5.5l-11 -5.5q-9 -4 -14 -8z" glyph-name="Ucircumflex" horiz-adv-x="678" unicode=""/><glyph d="M513 780q14 0 24.5 -4.5t16 -14.5t8 -19.5t2.5 -24.5t-1 -23t-2 -21q-1 -8 -1 -126.5t1 -124.5l-1 -1q1 -30 -2 -59q0 -4 -1 -20.5t-1 -18.5q-20 -220 -173 -294q-44 -21 -91 -24t-92 16t-76 58q-51 64 -71.5 150.5t-15.5 178.5v59v54q9 190 10 200q1 5 1 10v7v-7 q1 2 1 9v9q2 16 25 20l91 11q17 3 32 -4.5t14 -19.5q-5 -25 -7 -58q-3 -20 -2 -33v-12q-2 -52 -2.5 -157t0.5 -119q0 -5 1 -22t1 -25t1.5 -22.5t2.5 -23t3 -18.5t5 -17q38 -98 114 -64q20 9 32 25.5t17 36t6.5 37t1.5 37t1 26.5q0 6 -1 46q0 23 1 41t1 22q3 61 3 71v1 q2 35 5.5 75.5t6.5 74.5t4 43q1 12 4.5 21t7 14t9.5 8.5t9.5 4.5t10.5 2t8 1zM184 853q-4 9 -7 22q-6 21 2 39q14 33 56 32q27 -1 42.5 -16.5t17.5 -37.5q1 -12 -1 -22.5t-4 -15.5l-3 -4q-7 -11 -23.5 -19t-31.5 -7q-37 3 -48 29zM400 824q-27 3 -41 19.5t-14 38.5 q0 12 3 22t6 15l3 4q8 11 25.5 18t32.5 4q36 -6 45 -33q3 -9 5 -21q3 -22 -6 -40q-17 -31 -59 -27z" glyph-name="Udieresis" horiz-adv-x="678" unicode=""/><glyph d="M671 771q31 -7 39.5 -18.5t-2.5 -29.5q-12 -21 -54 -78q-6 -8 -64.5 -87t-88.5 -121q-25 -35 -56 -97q-5 -11 -11 -18q-1 -7 -1.5 -16l-0.5 -9q-3 -65 4 -133q-1 -13 0.5 -36t1.5 -29q0 -23 4 -38q8 -33 -39 -46q-65 -17 -99 6q-25 16 -31 31q-5 13 -6 39q0 17 1 31t2 17 q3 46 2 54q5 57 14 130q-22 52 -96 171t-91 153q-7 13 -17 27t-24.5 31.5t-21.5 26.5q25 31 81 39q52 8 80 -1.5t41 -36.5q12 -26 37.5 -69.5t53.5 -90.5t34 -57q3 -4 7.5 -4.5t7.5 3.5q25 32 75 104t74 110q18 28 50 42q24 10 51 7q29 -4 43 -7zM359 801q-17 -12 -30 7 q-24 34 -16 55q2 7 38 23q10 3 17 6q7 2 9 3q25 9 29 11h1q15 5 32 10.5t31 9.5t18 5q5 2 9.5 2t7 -0.5t4.5 -3t3 -4t2.5 -4.5l1.5 -3l11 -25q2 -6 2 -11t-1.5 -8t-5.5 -5.5t-6.5 -3t-9 -2t-7.5 -1.5q-9 -3 -14 -5l-5 -2q-33 -12 -66 -29h-1q-7 -3 -19 -8.5t-15 -7.5 q-12 -5 -20 -9z" glyph-name="Yacute" horiz-adv-x="775" unicode=""/><glyph d="M449 375q79 -56 -12 -198q-28 -49 -29 -50q0 -1 -18 -34q-3 -6 -10.5 -17t-10.5 -17q-8 -14 -24 -30q-13 -12 -16 -14q-22 -13 -37 -12q-33 1 -43 3q-29 4 -53 24q-10 8 -19 22q-1 2 -3.5 5t-4.5 6t-3 6q0 1 -7 9q-2 0 -5.5 -1.5t-4.5 -1.5q-19 -33 -52 -56 q-26 -17 -58 -22q-12 -2 -29 1q-11 3 -30 12q-13 6 -41 31q-16 14 -27 38q-15 34 -17 56q-1 2 -2.5 15.5t-1.5 21.5q1 17 6 36q3 12 7 26l7 21l12 28t8 16q14 24 19 32q13 19 30 43q3 4 8 10q3 2 12.5 13.5t15.5 16.5q3 2 11.5 10t15 12.5t13.5 8.5q3 1 11 5.5t12 6.5 q14 5 26 8q9 3 15 3.5t15 1t16 0.5q8 1 21 -2t18 -7q10 -11 14 -12l7 4q24 12 37 11q15 -1 23 -9l5 -5q8 -8 8 -16q0 -5 1 -16t1 -17t-4 -38q0 -4 -1 -9.5t-1 -7.5q-5 -35 -6 -36q-4 -19 -10 -43q-10 -33 -4 -60q1 -4 2 -12.5t2 -13.5q0 -1 7 -18q16 2 28 16q2 3 5 8t4 6 q1 2 4 6t4 5q26 36 28 39q8 12 21.5 36.5t16.5 29.5q4 8 10 21q5 10 23 40q4 7 15.5 9t18.5 -4zM140 309q3 17 -2 23q-11 15 -31 10q-11 -3 -23 -13q-14 -11 -45 -47q-1 -1 -3 -4q-6 -10 -11 -19q-4 -6 -5 -8t-4.5 -11t-5.5 -14q-5 -9 -8 -34q-3 -21 1 -44q4 -21 19 -32 q10 0 12 1q19 20 20 22q19 26 24 35q1 3 23 38q3 4 3 5q12 22 17 33q10 20 11 24q6 17 8 35zM59 569q-1 0 -7 2t-8.5 3t-7 3.5t-5.5 5.5t-1 8t3 12l11 23q1 1 2.5 3.5t2.5 4t3 3.5t4.5 2.5t7 0t9.5 -2.5q3 -1 17.5 -7t31.5 -12.5t31 -13.5h1q4 -2 28 -13q2 -1 9 -4 q9 -4 17 -8q35 -19 38 -26q7 -22 -19 -53q-14 -18 -31 -5q-7 5 -19 12q-3 1 -15 8t-18 10h-1q-32 20 -65 35l-5 3q-5 3 -14 6z" glyph-name="agrave" unicode=""/><glyph d="M449 379q79 -56 -12 -198q-28 -49 -29 -51l-18 -33q-3 -6 -10.5 -17t-10.5 -17q-8 -15 -24 -30q-13 -12 -16 -14q-22 -13 -37 -13q-33 2 -43 3q-29 4 -53 25q-10 8 -19 22q-1 1 -3.5 4.5t-4.5 6.5t-3 6q0 1 -7 9q-2 -1 -5.5 -2t-4.5 -1q-19 -33 -52 -56q-26 -17 -58 -23 q-12 -2 -29 2q-11 2 -30 11q-13 7 -41 32q-16 14 -27 38q-15 33 -17 56q-1 2 -2.5 15.5t-1.5 20.5q1 18 6 37q3 12 7 26l7 21l12 28t8 16q14 23 19 32q13 19 30 42q2 4 8 11q3 2 12.5 13.5t15.5 16.5q3 2 11.5 10t15 12.5t13.5 7.5q3 2 11 6.5t12 6.5q14 4 26 8q9 2 15 3 t15 1.5t16 0.5q8 1 21 -2t18 -8q10 -11 14 -12l7 4q24 13 37 12q15 -1 22 -9l2 -2t2.5 -2t1.5 -2q8 -7 8 -16q0 -5 1 -16t1 -16q0 -7 -4 -39q0 -3 -1 -9t-1 -7q-5 -36 -6 -37q-4 -19 -10 -42q-10 -33 -4 -60q1 -4 2 -13t2 -13q0 -1 7 -18q16 1 28 16q2 3 5 8t4 6q1 2 4 6 t4 5q26 35 28 38q8 13 21.5 37.5t16.5 28.5q4 8 10 21q5 10 23 40q4 8 15.5 9.5t18.5 -3.5zM140 313q3 16 -2 23q-11 15 -31 10q-11 -4 -23 -13q-14 -11 -45 -47q-1 -2 -3 -5q-7 -11 -11 -18q-4 -6 -5 -8q-1 -3 -4.5 -11.5t-5.5 -13.5q-5 -10 -8 -35q-3 -20 1 -44 q4 -20 19 -32q10 1 12 1q19 21 20 23q19 26 24 35q1 3 23 37l3 5q12 23 17 34q10 20 11 24q6 17 8 35zM133 495q-17 -11 -30 7q-24 34 -16 56q2 6 38 22q10 4 17 7q8 2 9 3q25 8 29 10l1 1q15 4 32 9.5t31 10t18 5.5q5 2 9.5 2t7 -1t4.5 -3t3 -3.5t2.5 -4.5t1.5 -4l11 -24 q2 -7 2 -12t-1.5 -7.5t-5.5 -5t-7 -3.5t-9 -2t-7 -2q-9 -2 -14 -4l-5 -2q-33 -13 -66 -30h-1q-7 -2 -19 -8t-15 -7q-12 -5 -20 -10z" glyph-name="aacute" unicode=""/><glyph d="M449 379q79 -56 -12 -198q-28 -49 -29 -51l-18 -33q-3 -6 -10.5 -17t-10.5 -17q-8 -15 -24 -30q-13 -12 -16 -14q-22 -13 -37 -13q-33 2 -43 3q-29 4 -53 25q-10 8 -19 22q-1 1 -3.5 4.5t-4.5 6.5t-3 6q0 1 -7 9q-2 -1 -5.5 -2t-4.5 -1q-19 -33 -52 -56q-26 -17 -58 -23 q-12 -2 -29 2q-11 2 -30 11q-13 7 -41 32q-16 14 -27 38q-15 33 -17 56q-1 2 -2.5 15.5t-1.5 20.5q1 18 6 37q3 12 7 26l7 21l12 28t8 16q14 23 19 32q13 19 30 42q3 4 8 11q3 2 12.5 13.5t15.5 16.5q3 2 11.5 10t15 12.5t13.5 7.5q3 2 11 6.5t12 6.5q14 4 26 8q9 2 15 3 t15 1.5t16 0.5q8 1 21 -2t18 -8q10 -11 14 -12l7 4q24 13 37 12q15 -1 23 -9l5 -6q8 -7 8 -16q0 -5 1 -16t1 -16q0 -7 -4 -39q0 -3 -1 -9t-1 -7q-5 -36 -6 -37q-4 -19 -10 -42q-10 -33 -4 -60q1 -4 2 -13t2 -13q0 -1 7 -18q16 1 28 16q2 3 5 8t4 6q1 2 4 6t4 5q26 35 28 38 q8 13 21.5 37.5t16.5 28.5q4 8 10 21q5 10 23 40q4 8 15.5 9.5t18.5 -3.5zM140 313q3 16 -2 23q-11 15 -31 10q-11 -4 -23 -13q-14 -11 -45 -47q-1 -2 -3 -5q-6 -10 -11 -18q-4 -6 -5 -8q-1 -3 -4.5 -11.5t-5.5 -13.5q-5 -10 -8 -35q-3 -20 1 -44q4 -20 19 -32q10 1 12 1 q19 21 20 23q19 26 24 35q1 3 23 37l3 5q12 23 17 34q10 20 11 24q6 17 8 35zM67 502q-12 -9 -23 10q-20 35 -15 55q1 6 28 18q8 3 12 4q6 2 7 2q19 6 22 8q11 3 24 6.5t23.5 6.5t13.5 3q8 3 13 -1h1t2 -1q2 0 12.5 -3.5t23.5 -8t23 -8.5h1q3 -2 21 -9q2 -1 7 -2l12 -6 q26 -14 27 -20q5 -20 -17 -53q-12 -18 -24 -8q-5 4 -14 8q-2 1 -11 6t-14 7q-24 15 -48 25l-4 2q-2 1 -7 3q-2 -1 -3 -1l-4 -2q-24 -9 -49 -21v-1q-5 -1 -14 -5.5t-12 -5.5q-9 -4 -14 -8z" glyph-name="acircumflex" unicode=""/><glyph d="M449 379q79 -56 -12 -198q-28 -49 -29 -51l-18 -33q-3 -6 -10.5 -17t-10.5 -17q-8 -15 -24 -30q-13 -12 -16 -14q-22 -13 -37 -13q-33 2 -43 3q-29 4 -53 25q-10 8 -19 22q-1 1 -3.5 4.5t-4.5 6.5t-3 6q0 1 -7 9q-2 -1 -5.5 -2t-4.5 -1q-19 -33 -52 -56q-26 -17 -58 -23 q-12 -2 -29 2q-11 2 -30 11q-13 7 -41 32q-16 14 -27 38q-15 33 -17 56q-1 2 -2.5 15.5t-1.5 20.5q1 18 6 37q3 12 7 26l7 21l12 28t8 16q13 23 19 32q13 19 30 42q3 4 8 11q3 2 12.5 13.5t15.5 16.5q3 2 11.5 10t15 12.5t13.5 7.5q3 2 11 6.5t12 6.5q14 4 26 8q9 2 15 3 t15 1.5t16 0.5q8 1 21 -2t18 -8q10 -11 14 -12l7 4q24 13 37 12q15 -1 23 -9q0 -1 1 -2t2.5 -2t1.5 -2q8 -7 8 -16q0 -5 1 -16t1 -16q0 -7 -4 -39q0 -3 -1 -9t-1 -7q-5 -36 -6 -37q-4 -19 -10 -42q-10 -33 -4 -60q1 -4 2 -13t2 -13q0 -1 7 -18q16 1 28 16q2 3 5 8t4 6 q1 2 4 6t4 5q26 35 28 38q8 13 21.5 37.5t16.5 28.5q4 8 10 21q5 10 23 40q4 8 15.5 9.5t18.5 -3.5zM140 313q3 16 -2 23q-11 15 -31 10q-11 -4 -23 -13q-14 -11 -45 -47q-1 -2 -3 -5q-7 -11 -11 -18q-4 -6 -5 -8q-1 -3 -4.5 -11.5t-5.5 -13.5q-5 -10 -8 -35q-3 -20 1 -44 q4 -20 19 -32q10 1 12 1q19 21 20 23q19 26 24 35q1 3 23 37l3 5q12 23 17 34q10 20 11 24q6 17 8 35zM98 510q-35 -6 -60 0t-38 22t-19 34t-8 42q0 12 2 14q9 10 31.5 9.5t27.5 -18.5q10 -31 18.5 -37.5t34.5 -4.5q15 1 25.5 9t24.5 24q11 13 19.5 20.5t29 16.5t48.5 12 q18 2 41.5 -10t40.5 -29q17 -16 33 -47.5t14 -39.5q-1 -1 -3 -2l-10 -3q-3 -1 -7.5 -2t-15.5 -2.5t-17 -1.5h-2h-1q-2 1 -3 3q0 1 -1 3q-10 31 -29.5 48.5t-40.5 15.5q-24 -2 -36 -9.5t-26 -27.5q-12 -18 -28.5 -26.5t-44.5 -12.5z" glyph-name="atilde" unicode=""/><glyph d="M449 379q79 -56 -12 -198q-28 -49 -29 -51l-18 -33q-3 -6 -10.5 -17t-10.5 -17q-8 -15 -24 -30q-13 -12 -16 -14q-22 -13 -37 -13q-33 2 -43 3q-29 4 -53 25q-10 8 -19 22q-1 1 -3.5 4.5t-4.5 6.5t-3 6q0 1 -7 9q-2 -1 -5.5 -2t-4.5 -1q-19 -33 -52 -56q-26 -17 -58 -23 q-12 -2 -29 2q-11 2 -30 11q-13 7 -41 32q-16 14 -27 38q-15 33 -17 56q-1 2 -2.5 15.5t-1.5 20.5q1 18 6 37q3 12 7 26l7 21l12 28t8 16q14 23 19 32q13 19 30 42q3 4 8 11q3 2 12.5 13.5t15.5 16.5q3 2 11.5 10t15 12.5t13.5 7.5q3 2 11 6.5t12 6.5q14 4 26 8q9 2 15 3 t15 1.5t16 0.5q8 1 21 -2t18 -8q10 -11 14 -12l7 4q24 13 37 12q15 -1 23 -9l5 -6q8 -7 8 -16q0 -5 1 -16t1 -16q0 -7 -4 -39q0 -3 -1 -9t-1 -7q-5 -36 -6 -37q-4 -19 -10 -42q-10 -33 -4 -60q1 -4 2 -13t2 -13q0 -1 7 -18q16 1 28 16q2 3 5 8t4 6q1 2 4 6t4 5q26 35 28 38 q8 13 21.5 37.5t16.5 28.5q4 8 10 21q5 10 23 40q4 8 15.5 9.5t18.5 -3.5zM140 313q3 16 -2 23q-11 15 -31 10q-11 -4 -23 -13q-14 -11 -45 -47q-1 -2 -3 -5q-6 -10 -11 -18q-4 -6 -5 -8q-1 -3 -4.5 -11.5t-5.5 -13.5q-5 -10 -8 -35q-3 -20 1 -44q4 -20 19 -32q10 1 12 1 q19 21 20 23q19 26 24 35q1 3 23 37l3 5q12 23 17 34q10 20 11 24q6 17 8 35zM21 566q-4 9 -7 22q-5 21 2 39q14 33 57 31q26 -1 41.5 -16t18.5 -37q1 -12 -1 -22.5t-5 -15.5l-3 -4q-6 -11 -22.5 -19.5t-32.5 -6.5q-37 3 -48 29zM237 537q-26 3 -40 19t-14 38q0 13 3 23 t6 15l3 4q8 11 25 17.5t32 4.5q37 -6 45 -33q3 -9 5 -22q4 -21 -6 -39q-17 -32 -59 -27z" glyph-name="adieresis" unicode=""/><glyph d="M449 379q79 -56 -12 -198q-28 -49 -29 -51l-18 -33q-3 -6 -10.5 -17t-10.5 -17q-8 -15 -24 -30q-13 -12 -16 -14q-22 -13 -37 -13q-33 2 -43 3q-29 4 -53 25q-10 8 -19 22q-1 1 -3.5 4.5t-4.5 6.5t-3 6q0 1 -7 9q-2 -1 -5.5 -2t-4.5 -1q-19 -33 -52 -56q-26 -17 -58 -23 q-12 -2 -29 2q-11 2 -30 11q-13 7 -41 32q-16 14 -27 38q-15 33 -17 56q-1 2 -2.5 15.5t-1.5 20.5q1 18 6 37q3 12 7 26l7 21l12 28t8 16q13 23 19 32q13 19 30 42q3 4 8 11q3 2 12.5 13.5t15.5 16.5q3 2 11.5 10t15 12.5t13.5 7.5q3 2 11 6.5t12 6.5q14 4 26 8q9 2 15 3 t15 1.5t16 0.5q8 1 21 -2t18 -8q10 -11 14 -12l7 4q24 13 37 12q15 -1 23 -9q0 -1 1 -2t2.5 -2t1.5 -2q8 -7 8 -16q0 -5 1 -16t1 -16q0 -7 -4 -39q0 -3 -1 -9t-1 -7q-5 -36 -6 -37q-4 -19 -10 -42q-10 -33 -4 -60q1 -4 2 -13t2 -13q0 -1 7 -18q16 1 28 16q2 3 5 8t4 6 q1 2 4 6t4 5q26 35 28 38q8 13 21.5 37.5t16.5 28.5q4 8 10 21q5 10 23 40q4 8 15.5 9.5t18.5 -3.5zM140 313q3 16 -2 23q-11 15 -31 10q-11 -4 -23 -13q-14 -11 -45 -47q-1 -2 -3 -5q-7 -11 -11 -18q-4 -6 -5 -8q-1 -3 -4.5 -11.5t-5.5 -13.5q-5 -10 -8 -35q-3 -20 1 -44 q4 -20 19 -32q10 1 12 1q19 21 20 23q19 26 24 35q1 3 23 37l3 5q12 23 17 34q10 20 11 24q6 17 8 35zM68 561q-1 1 -4 3q-22 24 -20 67v4q5 36 8.5 44t10.5 21q1 2 8 10q4 5 17 15q9 8 19 11q16 6 33 8q20 3 32 3q7 -1 13 -3q17 -5 28 -11q2 -1 9 -5l10 -7.5t19 -20.5 t19.5 -33t2.5 -44t-24 -54q-1 -2 -4.5 -6.5t-5.5 -6.5q-1 -1 -9 -8q-6 -6 -12 -9q-13 -8 -19 -10q-1 -1 -7 -3t-10 -3q-8 -2 -21 -2q-15 1 -35 7q-12 4 -22 9q-10 6 -30 19q-1 1 -3 2.5t-3 2.5zM105 633q-3 -27 20 -39.5t45 -6.5q9 5 10 6q10 7 21 24q7 11 9 19q3 15 0 24 q-4 14 -17 24t-37 8q-36 -13 -46 -34q-3 -7 -5 -25z" glyph-name="aring" unicode=""/><glyph d="M576 369q12 19 38 -1q34 -27 32 -73q0 -22 -11 -42q-3 -6 -7.5 -12.5t-7.5 -12.5q-19 -37 -20 -42q-4 -12 -9 -21t-16 -22.5t-17 -22.5q-5 -9 -13.5 -18.5t-13 -14.5t-16.5 -16.5t-15 -13.5q-3 -3 -22 -15.5t-30 -17.5q-40 -17 -44 -19q-7 -2 -18.5 -3.5t-15.5 -2.5 q-8 -1 -46 1q-5 0 -14.5 2.5t-11.5 2.5q-15 3 -36 13q-4 3 -7 5q-30 22 -32 23q-34 33 -49 67q-5 -6 -11 -13l-9 -10.5t-4 -4.5q-31 -37 -53 -60q-26 -18 -58 -23q-12 -2 -29 2q-11 2 -30 11q-13 6 -41 32q-16 14 -27 38q-15 33 -17 56q-1 2 -2.5 15.5t-1.5 20.5q1 18 6 36 q3 13 7 27q3 9 7 20q8 21 12 29q3 7 8 16q13 23 19 32q13 19 30 42q3 4 8 10q3 3 12.5 14.5t15.5 16.5q3 2 11.5 10t15 12.5t13.5 7.5q3 1 11 6t12 6q15 5 26 8q9 3 15 4t15 1t16 1q8 1 21 -2t18 -8q10 -11 14 -12l7 4q24 13 37 12q15 -2 23 -9l5 -5q8 5 14 7q10 4 24 6 q20 4 34 3h8t11 -1q13 -2 37 -8q5 -2 10 -5q34 -18 47 -34q19 -21 19 -53q-1 -17 -7 -36q-1 -1 -4.5 -13t-5.5 -18q-7 -17 -16 -36q-2 -4 -16 -29q-2 -3 -3 -5q-3 -3 -8 -9t-8.5 -10.5t-7.5 -9.5q-3 -4 -7 -7.5t-9 -7.5t-8 -7q-2 -1 -36 -28q-10 -9 -25 -21l-1 -2 q5 -9 15 -8q1 0 41 3h5q3 3 11 6.5t12 6.5q2 2 7.5 5t7.5 5q22 20 31 29q3 3 23 28l8 12q17 23 20 27q1 3 20 35q1 1 1.5 2t0.5 2q3 3 6.5 8.5t7 10.5t5.5 9q5 7 12.5 19.5l10.5 17.5q1 1 6.5 9.5t6.5 9.5zM140 315q3 16 -2 23q-11 15 -31 9q-11 -3 -23 -12q-14 -11 -45 -48 q-1 -1 -3 -4q-7 -12 -11 -18t-5 -8q-1 -3 -4.5 -12t-5.5 -13q-5 -10 -8 -35q-3 -20 1 -44q4 -20 19 -32q1 0 12 1q18 21 20 23q19 26 24 35q1 3 23 37l3 5q12 23 17 34q10 20 11 24q6 17 8 35zM280 224q7 3 21.5 15.5t18.5 18.5q2 3 11.5 16.5t14.5 22.5q12 21 10 43 q0 10 -18 15q0 1 -9 2q-15 -11 -16 -12q-14 -17 -19 -30q-2 -4 -7 -15t-7 -18.5t-3 -16.5q-1 -27 3 -41z" glyph-name="ae" horiz-adv-x="598" unicode=""/><glyph d="M358 382q13 32 43 9q34 -26 44 -77q6 -32 -5 -60q-4 -12 -8.5 -21t-10.5 -17.5t-9.5 -13t-13.5 -15t-15 -17.5q-42 -49 -108 -112q-54 -52 -117 -58q8 -19 36 -32q33 -14 46.5 -42.5t6 -56t-33.5 -50t-63 -26.5q-42 -4 -69 2q-15 3 -44 21q-18 11 -12 46t25 44 q15 7 26.5 -1.5t15.5 -27.5q0 -2 1 -7l1.5 -7.5t3 -6.5t7 -6t11.5 -3q28 -3 43 4.5t16 22.5q1 10 -0.5 17.5t-3 12t-7.5 10t-8.5 7.5t-12 7t-11.5 7q-16 9 -30.5 27.5t-15.5 41.5q-1 3 0 6q-47 17 -87 60q-32 38 -43.5 82.5t-8 78.5t17 70t23.5 52.5t19 29.5q25 33 51 61 q38 42 109 26q51 -12 71.5 -57.5t-4.5 -91.5q-14 -28 -46 -30q-6 0 -10.5 4.5t-3.5 11.5q2 14 -13 26q-19 8 -31 2q-26 -13 -38 -49.5t-9 -76t19 -63.5q27 -42 70 -23q9 4 18.5 10t16.5 11t16.5 15t14 14.5t14 17.5t12 16.5t13 18.5t11.5 16q38 55 70 140z" glyph-name="ccedilla" horiz-adv-x="375" unicode=""/><glyph d="M345 371q12 19 39 -1q33 -27 32 -73q-1 -22 -11 -43q-3 -5 -8 -11.5t-8 -12.5q-18 -37 -20 -42q-3 -12 -8.5 -21t-16 -22.5l-17.5 -22.5q-5 -9 -13 -18.5t-12.5 -14.5t-17 -16.5t-14.5 -14.5l-22.5 -15t-29.5 -17q-41 -17 -45 -19q-6 -2 -18 -3.5t-16 -2.5q-7 -2 -45 1 q-6 0 -15.5 2.5t-11.5 2.5q-15 3 -35 13q-5 3 -7 5q-31 22 -32 23q-36 35 -52.5 73.5t-12.5 92.5q2 37 3 44q2 10 5.5 28t5.5 27q7 35 30 68q3 5 10 15.5t10 16.5q21 29 42 39l10 5.5t16 7.5q10 4 23 6q20 4 34 3h8.5t11.5 -1q13 -3 36 -8q5 -2 11 -5q33 -18 47 -34 q19 -22 18 -53q0 -17 -7 -36q0 -2 -3.5 -13.5t-6.5 -17.5q-6 -17 -15 -36q-2 -4 -16 -29q-2 -4 -3 -5q-3 -3 -8 -9t-9 -10.5t-7 -9.5q-3 -4 -7 -7.5t-9.5 -7.5t-8.5 -7q-1 -1 -35 -29q-10 -7 -26 -20l-1 -2q5 -9 15 -8q1 0 41 3h6q3 2 11 6t12 7q2 2 7 5t7 5q23 19 32 28 q2 3 22 29q5 6 9 11q16 24 19 28q2 3 21 35l1 1.5t1 2.5l19 28q4 7 11.5 19.5l10.5 17.5q1 1 6.5 9t6.5 10zM50 226q6 3 21 15.5t18 18.5q2 2 12 16t14 23q12 21 11 43q-1 10 -18 15q-1 0 -9 2q-16 -11 -16 -12q-14 -18 -19 -30q-2 -5 -7 -15.5t-7.5 -18t-2.5 -16.5 q-1 -28 3 -41zM47 566q-1 1 -7 3l-9 3t-7 3.5t-5 5.5t-1 8t2 11l12 24q1 0 2 3t2 4t3.5 3t5 2.5t7 0.5t9.5 -2q3 -2 17.5 -7.5t31 -12.5t31.5 -13q4 -3 29 -14q2 0 9 -3q8 -4 17 -9q35 -19 37 -25q7 -22 -18 -54q-14 -17 -31 -5q-7 6 -19 12q-3 2 -15 8.5t-19 9.5v1 q-32 19 -65 35l-5 2q-6 3 -14 6z" glyph-name="egrave" horiz-adv-x="368" unicode=""/><glyph d="M345 371q12 19 39 -1q33 -27 32 -73q-1 -22 -11 -43q-3 -5 -8 -11.5t-8 -12.5q-18 -37 -20 -42q-3 -12 -8.5 -21t-16 -22.5l-17.5 -22.5q-5 -9 -13 -18.5t-12.5 -14.5t-17 -16.5t-14.5 -14.5l-22.5 -15t-29.5 -17q-41 -17 -45 -19q-6 -2 -18 -3.5t-16 -2.5q-7 -2 -45 1 q-6 0 -15.5 2.5t-11.5 2.5q-15 3 -35 13q-5 3 -7 5q-31 22 -32 23q-36 35 -52.5 73.5t-12.5 92.5q2 37 3 44q2 10 5.5 28t5.5 27q7 35 30 68q3 5 10 15.5t10 16.5q21 29 42 39l10 5.5t16 7.5q10 4 23 6q20 4 34 3h8.5t11.5 -1q13 -3 36 -8q5 -2 11 -5q33 -18 47 -34 q19 -22 18 -53q0 -17 -7 -36q0 -2 -3.5 -13.5t-6.5 -17.5q-6 -17 -15 -36q-2 -4 -16 -29q-2 -4 -3 -5q-3 -3 -8 -9t-9 -10.5t-7 -9.5q-3 -4 -7 -7.5t-9.5 -7.5t-8.5 -7q-1 -1 -35 -29q-10 -7 -26 -20l-1 -2q5 -9 15 -8q1 0 41 3h6q3 2 11 6t12 7q2 2 7 5t7 5q23 19 32 28 q2 3 22 29q5 6 9 11q16 24 19 28q2 3 21 35l1 1.5t1 2.5l19 28q4 7 11.5 19.5l10.5 17.5q1 1 6.5 9t6.5 10zM50 226q6 3 21 15.5t18 18.5q2 2 12 16t14 23q12 21 11 43q-1 10 -18 15q-1 0 -9 2q-16 -11 -16 -12q-14 -18 -19 -30q-2 -5 -7 -15.5t-7.5 -18t-2.5 -16.5 q-1 -28 3 -41zM95 502q-17 -11 -30 7q-25 34 -17 56q3 6 38 22q10 4 17 6q8 3 10 3q25 9 29 11q15 5 32 10.5t31.5 9.5t17.5 6q6 1 10 1t6.5 -0.5t5 -3t3 -4t2 -4t1.5 -3.5l11 -25q3 -6 2.5 -11t-1.5 -8t-5.5 -5t-7 -3t-8.5 -2.5t-8 -1.5q-8 -2 -14 -5l-5 -2 q-33 -12 -66 -29q-7 -3 -19 -8.5t-16 -6.5q-12 -5 -19 -10z" glyph-name="eacute" horiz-adv-x="368" unicode=""/><glyph d="M345 371q12 19 39 -1q33 -27 32 -73q-1 -22 -11 -43q-3 -5 -8 -11.5t-8 -12.5q-18 -37 -20 -42q-3 -12 -8.5 -21t-16 -22.5l-17.5 -22.5q-5 -9 -13 -18.5t-12.5 -14.5t-17 -16.5t-14.5 -14.5l-22.5 -15t-29.5 -17q-41 -17 -45 -19q-6 -2 -18 -3.5t-16 -2.5q-7 -2 -45 1 q-6 0 -15.5 2.5t-11.5 2.5q-15 3 -35 13q-5 3 -7 5q-31 22 -32 23q-36 35 -52.5 73.5t-12.5 92.5q2 37 3 44q2 10 5.5 28t5.5 27q7 35 30 68q3 5 10 15.5t10 16.5q21 29 42 39l10 5.5t16 7.5q10 4 23 6q20 4 34 3h8.5t11.5 -1q13 -3 36 -8q5 -2 11 -5q33 -18 47 -34 q19 -22 18 -53q0 -17 -7 -36q0 -2 -3.5 -13.5t-6.5 -17.5q-6 -17 -15 -36q-2 -4 -16 -29q-2 -4 -3 -5q-3 -3 -8 -9t-9 -10.5t-7 -9.5q-3 -4 -7 -7.5t-9.5 -7.5t-8.5 -7q-1 -1 -35 -29q-10 -7 -26 -20l-1 -2q5 -9 15 -8q1 0 41 3h6q3 2 11 6t12 7q2 2 7 5t7 5q23 19 32 28 q2 3 22 29q5 6 9 11q16 24 19 28q2 3 21 35l1 1.5t1 2.5l19 28q4 7 11.5 19.5l10.5 17.5q1 1 6.5 9t6.5 10zM50 226q6 3 21 15.5t18 18.5q2 2 12 16t14 23q12 21 11 43q-1 10 -18 15q-1 0 -9 2q-16 -11 -16 -12q-14 -18 -19 -30q-2 -5 -7 -15.5t-7.5 -18t-2.5 -16.5 q-1 -28 3 -41zM28 513q-13 -9 -24 10q-20 34 -15 54q2 6 28 18q7 2 13 5q5 1 7 1q19 6 22 8q11 3 23.5 6.5t23.5 6.5t14 4q8 2 13 -2h1h1l13.5 -4.5t23 -8t23.5 -8.5q3 -2 22 -9q1 0 7 -2l12 -6q26 -13 27 -19q4 -21 -17 -54q-12 -18 -24 -8q-6 4 -14 8q-3 2 -11.5 6.5 t-13.5 6.5q-24 15 -49 25l-3 2q-2 1 -7 3l-3 -1l-4 -2q-24 -8 -49 -21h-1q-5 -2 -13.5 -6.5t-11.5 -5.5q-9 -4 -14 -7z" glyph-name="ecircumflex" horiz-adv-x="368" unicode=""/><glyph d="M345 371q12 19 39 -1q33 -27 32 -73q-1 -22 -11 -43q-3 -5 -8 -11.5t-8 -12.5q-18 -37 -20 -42q-3 -12 -8.5 -21t-16 -22.5l-17.5 -22.5q-5 -9 -13 -18.5t-12.5 -14.5t-17 -16.5t-14.5 -14.5l-22.5 -15t-29.5 -17q-41 -17 -45 -19q-6 -2 -18 -3.5t-16 -2.5q-7 -2 -45 1 q-6 0 -15.5 2.5t-11.5 2.5q-15 3 -35 13q-5 3 -7 5q-31 22 -32 23q-36 35 -52.5 73.5t-12.5 92.5q2 37 3 44q2 10 5.5 28t5.5 27q7 35 30 68q3 5 10 15.5t10 16.5q21 29 42 39l10 5.5t16 7.5q10 4 23 6q20 4 34 3h8.5t11.5 -1q13 -3 36 -8q5 -2 11 -5q33 -18 47 -34 q19 -22 18 -53q0 -17 -7 -36q0 -2 -3.5 -13.5t-6.5 -17.5q-6 -17 -15 -36q-2 -4 -16 -29q-2 -4 -3 -5q-3 -3 -8 -9t-9 -10.5t-7 -9.5q-3 -4 -7 -7.5t-9.5 -7.5t-8.5 -7q-1 -1 -35 -29q-10 -7 -26 -20l-1 -2q5 -9 15 -8q1 0 41 3h6q3 2 11 6t12 7q2 2 7 5t7 5q23 19 32 28 q2 3 22 29q5 6 9 11q16 24 19 28q2 3 21 35l1 1.5t1 2.5l19 28q4 7 11.5 19.5l10.5 17.5q1 1 6.5 9t6.5 10zM50 226q6 3 21 15.5t18 18.5q2 2 12 16t14 23q12 21 11 43q-1 10 -18 15q-1 0 -9 2q-16 -11 -16 -12q-14 -18 -19 -30q-2 -5 -7 -15.5t-7.5 -18t-2.5 -16.5 q-1 -28 3 -41zM-10 533q-4 8 -7 21q-6 21 2 39q14 33 56 32q27 -1 42.5 -16.5t17.5 -37.5q1 -12 -1 -22.5t-5 -14.5l-2 -5q-7 -11 -23.5 -19t-31.5 -7q-37 3 -48 30zM206 503q-27 3 -41 19.5t-14 38.5q0 12 3 22.5t6 14.5l3 4q8 11 25.5 18t32.5 4q36 -6 45 -33q3 -8 5 -21 q3 -22 -6 -39q-17 -32 -59 -28z" glyph-name="edieresis" horiz-adv-x="368" unicode=""/><glyph d="M239 296q16 -19 11 -43q-3 -18 -7 -30.5t-7 -19.5t-10.5 -23t-13.5 -30q-10 -21 -23 -38q-49 -65 -59 -72q-46 -36 -82.5 -33t-71.5 48q-10 12 -13 16q-25 33 -30 74q-4 28 9.5 124t27.5 136q18 49 44 63t76 -2q14 -5 13 -20q-1 -25 -3 -38q-2 -15 -21 -104.5t-21 -106.5 q-6 -41 12 -64q5 -7 13.5 -7.5t15.5 4.5q20 17 51 96q19 50 38 91q5 9 16 8.5t18 -8.5zM-37 564q-1 1 -7 3t-8.5 3t-7 3.5t-5.5 5.5t-1 8t2 11l12 24q1 0 2.5 3t2 4.5t3 3.5t5 2.5t7 0t9.5 -2.5q3 -2 17.5 -7.5t31 -12.5t31.5 -13q4 -2 29 -13q2 -1 9 -4q8 -4 17 -8 q35 -19 37 -26q8 -22 -18 -54q-14 -17 -31 -4q-7 5 -19 11q-3 2 -15 9t-19 10q-32 20 -65 35l-5 3q-5 2 -14 5z" glyph-name="igrave" horiz-adv-x="198" unicode=""/><glyph d="M239 296q16 -19 11 -43q-3 -18 -7 -30.5t-7 -19.5t-10.5 -23t-13.5 -30q-10 -21 -23 -38q-49 -65 -59 -72q-46 -36 -82.5 -33t-71.5 48q-10 12 -13 16q-25 33 -30 74q-4 28 9.5 124t27.5 136q18 49 44 63t76 -2q14 -5 13 -20q-1 -25 -3 -38q-2 -15 -21 -104.5t-21 -106.5 q-6 -41 12 -64q5 -7 13.5 -7.5t15.5 4.5q20 17 51 96q19 50 38 91q5 9 16 8.5t18 -8.5zM31 503q-17 -12 -30 7q-25 34 -17 55q3 7 39 23q9 3 17 6q7 2 9 3q25 9 29 11h1q14 5 31 10.5t31.5 9.5t18.5 5q5 2 9 2t6.5 -0.5t5 -3t3 -4t2 -4t1.5 -3.5l11 -25q3 -6 2.5 -11 t-1.5 -8t-5.5 -5t-7 -3t-8.5 -2.5t-8 -1.5q-8 -2 -13 -5l-5 -2q-33 -12 -67 -29q-7 -3 -19 -8.5t-16 -6.5q-12 -6 -19 -10z" glyph-name="iacute" horiz-adv-x="198" unicode=""/><glyph d="M243 296q15 -19 11 -43q-4 -18 -8 -30.5t-7 -19.5t-10.5 -23t-13.5 -30q-9 -21 -23 -38q-49 -65 -59 -72q-45 -36 -82 -33t-72 48q-9 12 -13 16q-25 33 -30 74q-4 28 10 124t28 136q17 49 43 63t76 -2q14 -5 13 -20q-1 -25 -3 -38q-2 -15 -21 -104.5t-21 -106.5 q-6 -41 12 -64q5 -7 13.5 -7.5t15.5 4.5q20 17 51 96q19 50 38 91q5 9 16 8.5t18 -8.5zM-29 517q-12 -9 -23 10q-20 35 -15 55q1 6 28 17q6 3 13 5q5 2 6 2q19 6 22 7l1 1q10 3 23 6.5t23.5 6t13.5 3.5q8 2 13 -1l1 -0.5t2 -0.5q2 -1 13 -4.5t23.5 -7.5t22.5 -8l1 -1 q3 -1 21 -8q2 -1 7 -3q7 -3 12 -5q26 -14 28 -20q4 -20 -18 -53q-12 -19 -24 -9q-5 5 -14 9q-2 1 -11 6t-14 7q-24 14 -48 25l-4 2q-2 1 -7 2q-2 0 -3 -1l-3 -1q-25 -9 -50 -22q-5 -2 -14 -6t-11 -5q-9 -4 -15 -8z" glyph-name="icircumflex" horiz-adv-x="201" unicode=""/><glyph d="M248 292q16 -19 11 -43q-4 -18 -8 -31t-7 -19.5t-10.5 -22.5t-13.5 -30q-9 -21 -23 -39q-49 -64 -58 -71q-46 -36 -83 -33t-72 48l-2 2.5t-5 6t-5 7.5q-26 33 -31 74q-4 28 10 124t28 136q17 49 43 63t76 -2q14 -5 13 -20q-1 -25 -3 -38q-2 -15 -21 -104.5t-21 -106.5 q-6 -41 12 -64q5 -7 14 -7.5t15 4.5q20 17 51 96q20 50 39 91q4 9 15.5 8.5t18.5 -8.5zM-11 499q-37 3 -48 29q-4 9 -7 21q-5 22 2 40q14 33 57 31q26 -1 41.5 -16t18.5 -37q1 -12 -1 -22.5t-5 -15.5l-3 -4q-6 -12 -22.5 -20t-32.5 -6zM157 499q-26 3 -40 19t-14 38 q0 12 3 22.5t6 14.5l3 5q8 10 25 17t32 5q37 -6 45 -33q3 -9 5 -22q4 -22 -6 -39q-17 -32 -59 -27z" glyph-name="idieresis" horiz-adv-x="206" unicode=""/><glyph d="M462 306q75 -57 47 -113q-39 -79 -72 -110q-83 -75 -121 -82q-13 -2 -18 -1q-37 4 -59 18q-19 13 -25 29q-1 4 -5.5 14t-6.5 15q-4 14 -10 45q-3 22 -2 56t3 50q0 7 1.5 17t2 15.5t0.5 7.5q0 1 -4 8q-5 0 -8 -7q-4 -6 -15 -29t-13 -28q-2 -3 -22.5 -59.5t-25.5 -70.5 q-3 -8 -10 -22l-9 -18q-10 -25 -39 -34q-4 -1 -4 -2q-9 -6 -24 -5q-27 2 -30 4q-18 6 -25 26q-7 18 -4 46l3 18t2.5 17t1.5 18v1q2 14 3 22q5 25 4 55q0 36 -1 42q2 86 -18 162q-4 13 8 20q15 8 39 19q21 10 36 5t21 -9q17 -14 23 -26q15 -30 16 -71q1 -19 3 -27q3 -6 9 4 t14 27.5t11 21.5q0 1 0.5 2t1.5 1q2 3 19 26q20 27 46 48q18 14 31 18t35 4q12 1 25.5 -9t22.5 -22q19 -25 16 -52q-3 -31 -5 -58q0 -1 -0.5 -3t-0.5 -3q0 -3 -0.5 -20.5t-1.5 -26.5q0 -7 -1.5 -21.5t-1.5 -22.5q-2 -22 -1 -40q0 -4 2 -31q1 -9 8 -10q18 -2 37.5 17t33.5 52 q1 2 8.5 21.5t15 37t8.5 19.5q4 7 11.5 8t13.5 -4zM106 490q-35 -6 -59.5 0t-37.5 22.5t-19 34.5t-8 42q0 12 1 13q9 11 31.5 10t28.5 -19q10 -31 18.5 -37t33.5 -4q15 1 26 8.5t25 24.5q10 13 18.5 20.5t29 16.5t48.5 12q18 1 41.5 -11t40.5 -28t33 -47.5t14 -40.5 q-1 -1 -3 -1l-10 -4q-3 -1 -7.5 -2t-15.5 -2.5t-17 -0.5h-1h-1q-3 1 -3 3q-1 1 -1 2q-11 32 -30 49.5t-41 15.5q-24 -2 -36 -9.5t-26 -27.5q-12 -18 -28.5 -26.5t-44.5 -13.5z" glyph-name="ntilde" horiz-adv-x="467" unicode=""/><glyph d="M435 320q5 5 16 -15q16 -33 15 -48q-3 -65 -76 -70q-20 -1 -87 16q-10 -49 -19 -71q-7 -17 -20 -42l-15 -20q-8 -9 -30 -29q-16 -13 -32 -19q-25 -10 -51 -12q-33 -2 -51 1q-10 2 -20 8q-24 13 -40 28q-2 2 -13 11v1q-5 5 -13.5 16t-25 46t-22 72t6.5 92t48 108 q3 5 9.5 13.5t9.5 12.5l15 15q12 11 21 17q22 14 31 17q2 1 12 4.5t16 5.5q13 3 32 -1q23 -4 53 -20q18 -9 31 -22q15 -14 43 -44q2 -2 4.5 -6t3.5 -5q19 -32 25 -80q73 -35 123 20zM180 233q3 14 -2 18q-36 18 -46 65q0 1 -6 10q-9 -7 -10 -8q-10 -12 -23 -41 q-9 -18 -11 -33q-5 -27 -4 -43q2 -25 12 -46q7 -12 13.5 -16t20.5 -4q35 17 47 53q3 9 9 45zM78 573q-2 0 -8 2t-8.5 3t-7 3.5t-5.5 5.5t-1 8t3 11l12 24q0 1 1.5 3.5t2.5 4t3 3.5t4.5 2.5t7 0t9.5 -2.5q4 -2 18 -7.5t31 -12t31 -13.5h1q4 -2 28 -13q2 -1 10 -4q7 -4 16 -8 q36 -19 38 -26q7 -22 -19 -54q-14 -17 -30 -4q-8 5 -19 12q-4 1 -16 8t-18 10h-1q-33 20 -65 35l-5 3q-5 2 -13 6z" glyph-name="ograve" horiz-adv-x="442" unicode=""/><glyph d="M435 313q5 5 16 -15q16 -33 15 -48q-3 -65 -76 -70q-20 -1 -87 16q-10 -49 -19 -71q-7 -17 -20 -42l-15 -20q-8 -9 -30 -29q-16 -14 -32 -20q-25 -9 -51 -11q-33 -2 -51 1q-10 2 -20 7q-24 14 -40 28q-2 3 -13 12q-5 6 -13.5 17t-25 46t-22 71.5t6.5 91.5t48 109 q3 5 9.5 13t9.5 12q1 2 15 15q12 11 21 18q22 14 31 17q2 1 12 4.5t16 4.5q13 3 32 0q23 -4 53 -20q18 -10 31 -22q15 -14 43 -44q2 -2 4.5 -6t3.5 -6q19 -32 25 -80q73 -34 123 21zM180 225q3 14 -2 19q-36 18 -46 65l-6 10q-9 -8 -10 -8q-10 -12 -23 -41q-9 -18 -11 -33 q-5 -27 -4 -43q2 -26 12 -46q7 -12 13.5 -16.5t20.5 -3.5q35 17 47 53q3 8 9 44zM95 511q-17 -11 -31 7q-24 34 -16 55q2 7 38 23q10 3 17 6q8 3 10 3q25 9 29 11q15 5 32 10.5t31.5 9.5t17.5 6q5 1 9.5 1t7 -0.5t5 -3t3 -4t2 -4t1.5 -3.5l11 -25q3 -6 2.5 -11t-2 -8 t-5.5 -5t-6.5 -3t-8.5 -2.5t-8 -1.5q-8 -2 -14 -5l-5 -2q-33 -12 -66 -29q-7 -3 -19 -8.5t-16 -6.5q-12 -6 -19 -10z" glyph-name="oacute" horiz-adv-x="442" unicode=""/><glyph d="M435 305q5 5 16 -15q16 -33 15 -48q-3 -65 -76 -70q-20 -1 -87 16q-10 -49 -19 -71q-7 -17 -20 -42l-15 -20q-8 -9 -30 -29q-16 -14 -32 -20q-25 -9 -51 -11q-33 -2 -51 1q-10 2 -20 7q-24 14 -40 29q-2 2 -13 11q-5 6 -13.5 17t-25 46t-22 71.5t6.5 92t48 108.5 q3 5 9.5 13t9.5 12q1 2 15 15q12 11 21 18q22 14 31 17q2 1 12 4.5t16 4.5q13 3 32 0q23 -4 53 -20q18 -10 31 -22q15 -14 43 -44q2 -2 4.5 -6t3.5 -6q19 -32 25 -80q73 -34 123 21zM180 217q3 14 -2 19q-36 18 -46 65l-6 10q-9 -8 -10 -8q-10 -12 -23 -41q-9 -18 -11 -33 q-5 -27 -4 -43q2 -26 12 -46q7 -12 13.5 -16.5t20.5 -3.5q35 17 47 53q3 8 9 44zM41 488q-12 -9 -23 10q-20 35 -15 55q1 6 28 17q7 3 13 5q5 2 7 2l21 7l1 1q11 3 23.5 6.5t23 6t13.5 3.5q8 2 13 -1q1 0 1.5 -0.5t1.5 -0.5l13.5 -4.5t23 -7.5t23.5 -8q3 -2 21 -9q1 -1 7 -3 q7 -3 12 -5q27 -14 28 -20q4 -20 -18 -53q-12 -19 -24 -9q-5 5 -14 9q-2 1 -10.5 6t-13.5 7h-1q-24 15 -48 25l-4 2q-2 1 -7 2q-2 0 -3 -1l-3 -1q-25 -9 -49 -22h-1q-5 -2 -14 -6t-11 -5q-9 -4 -15 -8z" glyph-name="ocircumflex" horiz-adv-x="442" unicode=""/><glyph d="M445 305q5 5 16 -15q17 -33 16 -48q-4 -65 -76 -70q-21 -1 -88 16q-9 -49 -19 -71q-7 -17 -20 -42q-2 -4 -15 -20q-7 -9 -30 -29q-15 -14 -31 -20q-26 -9 -52 -11q-33 -2 -51 1q-10 2 -20 7q-24 14 -39 29q-3 2 -13 11q-6 6 -14.5 17t-24.5 46t-22 71.5t6 92t48 108.5 q3 5 9.5 13t9.5 12q1 2 15 15q12 11 21 18q22 14 31 17q3 1 13 4.5t15 4.5q13 3 32 0q23 -4 54 -20q17 -10 31 -22q14 -14 42 -44q2 -2 4.5 -6t3.5 -6q20 -32 25 -80q74 -34 123 21zM191 217q2 14 -2 19q-37 18 -46 65l-7 10l-9 -8q-11 -12 -24 -41q-8 -18 -11 -33 q-5 -27 -4 -43q2 -26 13 -46q6 -12 12.5 -16.5t20.5 -3.5q35 17 48 53q3 8 9 44zM75 486q-35 -6 -60 0t-38 22.5t-19 34.5t-8 42q0 12 2 13q9 11 31 10t28 -19q10 -31 18.5 -37t33.5 -4q16 1 26.5 8.5t24.5 24.5q11 13 19 20.5t29 16.5t48 11q18 2 41.5 -10t41.5 -28 q16 -16 32.5 -47.5t14.5 -40.5q-2 -1 -3 -1l-11 -4q-2 -1 -7 -2t-15.5 -2.5t-17.5 -0.5h-1h-1q-2 1 -3 3q-1 1 -1 2q-11 32 -30 49.5t-40 15.5q-25 -2 -37 -9.5t-25 -27.5q-12 -18 -29 -26.5t-44 -13.5z" glyph-name="otilde" horiz-adv-x="452" unicode=""/></font>
</defs>
</svg>
