<?xml version="1.0" standalone="no"?>
<!DOCTYPE svg PUBLIC "-//W3C//DTD SVG 1.1//EN" "http://www.w3.org/Graphics/SVG/1.1/DTD/svg11.dtd">
<svg xmlns="http://www.w3.org/2000/svg"><metadata>This SVG WebFont was generated by YouWorkForThem.
</metadata><defs><font horiz-adv-x="1523" id="ywftsvg"><font-face ascent="1638" bbox="-83.6944 -164 2222 2079.46" cap-height="1505" descent="-410" font-family="" font-stretch="normal" font-weight="400" panose-1="0 0 0 0 0 0 0 0 0 0" underline-position="0" underline-thickness="0" unicode-range="U+000A-20AC" units-per-em="2048" x-height="1487"/><missing-glyph d="M102 1434h875v-1434h-875v1434zM160 1393l379 -633l381 633h-760zM514 717l-369 614v-1231zM541 674l-379 -631h758zM565 717l371 -621v1239z" horiz-adv-x="1079"/><glyph d="M102 1434h875v-1434h-875v1434zM160 1393l379 -633l381 633h-760zM514 717l-369 614v-1231zM541 674l-379 -631h758zM565 717l371 -621v1239z" glyph-name=".notdef" horiz-adv-x="1079"/><glyph glyph-name="glyph1" horiz-adv-x="0"/><glyph glyph-name="glyph1" horiz-adv-x="0"/><glyph glyph-name="glyph2" horiz-adv-x="681"/><glyph glyph-name="uni000A" horiz-adv-x="0" unicode="&#x0a;"/><glyph glyph-name="space" horiz-adv-x="729" unicode=" "/><glyph d="M311 313q-49 0 -82.5 34t-33.5 83v948q0 47 33.5 82t82.5 35t83 -35t34 -82v-948q0 -49 -34 -83t-83 -34zM319.5 252q59.5 0 101.5 -42t42 -100.5t-42 -100.5t-101.5 -42t-101.5 42t-42 100.5t42 100.5t101.5 42z" glyph-name="exclam" horiz-adv-x="632" unicode="!"/><glyph d="M1100 750h-154l-35 -97l131 -2q39 0 67 -26.5t28 -65.5t-28 -66.5t-67 -27.5h-196l-70 -195q-10 -29 -34.5 -45t-53.5 -16q-16 0 -33 4q-37 14 -53 49t-2 72l47 131h-127l-59 -164q-10 -29 -35 -45t-53 -16q-16 0 -33 4q-35 14 -52.5 49t-2.5 72l37 100h-103 q-39 2 -66.5 28.5t-27.5 65.5t27.5 66.5t66.5 27.5h168l35 99h-148q-39 0 -65.5 27.5t-26.5 66.5t27 65.5t65 26.5h215l72 203q14 37 49 53t71 3t53.5 -48t2.5 -72l-49 -139h127l62 172q12 37 48 53.5t71.5 3t53 -48.5t3.5 -71l-39 -109h86q39 0 66.5 -27.5t27.5 -66.5 t-27.5 -66.5t-66.5 -27.5zM713 653l35 99h-127l-35 -99h127z" glyph-name="numbersign" horiz-adv-x="1318" unicode="#"/><glyph d="M621 854q279 -92 280 -356q2 -129 -84 -217q-74 -74 -196 -103v-69q0 -39 -28 -67t-67 -28t-66.5 28t-27.5 67v67q-92 23 -160 82q-121 111 -120 299q0 39 27.5 66.5t66.5 27.5t65.5 -27.5t26.5 -66.5q0 -106 59 -160q16 -14 35 -24v340q-49 16 -88 34.5t-80 50t-63.5 82 t-22.5 115.5q2 121 69.5 203t184.5 109v71q0 39 27.5 67t66.5 28t67 -28t28 -67v-69q104 -27 175.5 -109t73.5 -199q0 -39 -26.5 -67.5t-65.5 -28.5t-66.5 26.5t-27.5 65.5q-2 27 -17.5 60t-45.5 53v-256zM432 911v199q-66 -33 -65 -115q0 -31 14 -49.5t51 -34.5zM684 412 q31 33 31 84q-2 106 -94 155v-276q40 14 63 37z" glyph-name="dollar" horiz-adv-x="1054" unicode="$"/><glyph d="M1144 1484.5q44 -20.5 60.5 -66.5t-2.5 -89l-586 -1270q-14 -33 -43.5 -51t-62.5 -18q-25 0 -49 12q-43 20 -60.5 65.5t2.5 88.5l586 1271q20 43 65.5 60.5t89.5 -3zM1161 670q139 0 238.5 -99.5t99.5 -238.5t-99.5 -237.5t-238.5 -98.5t-237.5 98.5t-98.5 237.5 t98.5 238.5t237.5 99.5zM1162 229q42 0 72 31t30 73t-30 71.5t-72 29.5t-72.5 -29.5t-30.5 -71.5t30.5 -73t72.5 -31zM797 1159q0 -139 -99.5 -238.5t-239 -99.5t-237.5 99.5t-98 238.5t98 237.5t237.5 98.5t239 -98.5t99.5 -237.5zM356 1158q0 -42 31 -71.5t73 -29.5 t71.5 29.5t29.5 71.5t-29.5 73t-71.5 31t-73 -31t-31 -73z" glyph-name="percent" horiz-adv-x="1619" unicode="%"/><glyph d="M1251 190q33 -37 30 -85t-39 -79.5t-85 -28.5t-80 38q-39 45 -104 121q-141 -154 -342 -172q-23 -2 -45 -2q-168 0 -295 110q-141 129 -146 311q-2 125 66 245t180 202q-2 2 -5 6t-5 6q-68 82 -93.5 184.5t1.5 194.5q43 162 198 219q178 68 332 -8q135 -68 180 -213 q47 -150 -36 -293q-68 -117 -193 -186q80 -96 162 -195q10 35 16 68q6 47 46 75.5t87 21.5t76 -46t23 -86q-18 -113 -74 -238q96 -113 145 -170zM514 1182q-10 -39 3 -85t44 -85q18 -23 53 -64q98 33 146 115q33 55 16 108q-14 47 -61 70q-29 14 -66 14q-39 0 -80 -14 q-43 -16 -55 -59zM606 215q125 12 213 121q-127 152 -278 332q-72 -47 -117 -121t-45 -139q2 -80 67 -140q70 -61 160 -53z" glyph-name="ampersand" horiz-adv-x="1400" unicode="&amp;"/><glyph d="M403 1362q10 -154 -110 -246q-33 -23 -72 -22q-57 0 -92 45q-31 39 -23.5 87t46.5 77q14 12 16 30q4 20 -6 37q-37 25 -47.5 69t12.5 85q23 43 70 56t90 -11q47 -27 78.5 -83t37.5 -124z" glyph-name="quotesingle" horiz-adv-x="507" unicode="'"/><glyph d="M403 1362q10 -154 -110 -246q-33 -23 -72 -22q-57 0 -92 45q-31 39 -23.5 87t46.5 77q14 12 16 30q4 20 -6 37q-37 25 -47.5 69t12.5 85q23 43 70 56t90 -11q47 -27 78.5 -83t37.5 -124z" glyph-name="quotesingle" horiz-adv-x="507" unicode="’"/><glyph d="M403 1362q10 -154 -110 -246q-33 -23 -72 -22q-57 0 -92 45q-31 39 -23.5 87t46.5 77q14 12 16 30q4 20 -6 37q-37 25 -47.5 69t12.5 85q23 43 70 56t90 -11q47 -27 78.5 -83t37.5 -124z" glyph-name="quotesingle" horiz-adv-x="507" unicode="‘"/><glyph d="M561 143q27 -39 18.5 -87t-47.5 -76q-31 -20 -67 -21q-61 0 -96 49q-135 193 -184.5 469.5t2 542.5t188.5 430q31 37 80 41t86 -27.5t41 -80t-27 -85.5q-106 -125 -143 -340t3 -440t146 -375z" glyph-name="parenleft" horiz-adv-x="729" unicode="("/><glyph d="M358 1442q135 -193 184.5 -469.5t-2 -542.5t-188.5 -430q-35 -41 -90 -41q-43 0 -76 27q-37 31 -41 80t27 86q106 123 143 339t-3 440t-144 376q-29 39 -20.5 87t47 75.5t86.5 19.5t77 -47z" glyph-name="parenright" horiz-adv-x="729" unicode=")"/><glyph d="M936 1460q6 -18 6 -37q0 -37 -22.5 -67.5t-59.5 -42.5l-149 -47l90 -129q29 -39 20.5 -87.5t-47.5 -74.5q-31 -23 -67 -23q-61 0 -97 49v3l-90 124l-94 -124q-29 -39 -77 -46.5t-87 21.5t-46 77t22 87l94 127l-150 49q-37 12 -58.5 43t-21.5 68q0 18 7 36q14 47 58 68.5 t89 5.5l150 -49l2 158q0 47 33.5 80.5t82.5 33.5t83 -33.5t34 -82.5l-2 -158l149 47q47 14 90.5 -8.5t57.5 -67.5z" glyph-name="asterisk" horiz-adv-x="1044" unicode="*"/><glyph d="M762 852q49 0 84 -34t34 -83t-35 -83t-83 -34h-150l-2 -143q0 -49 -33.5 -84t-82 -35t-83 35t-34.5 84v143h-152q-49 0 -82.5 35t-33.5 83t34.5 82t81.5 34h152v160q0 47 34.5 81.5t83 34.5t83 -34.5t34.5 -81.5v-160h150z" glyph-name="plus" horiz-adv-x="989" unicode="+"/><glyph d="M350 283q39 -39 55.5 -101.5t4.5 -128.5q-14 -72 -58.5 -127t-111.5 -82q-23 -8 -45 -8q-35 0 -65 19.5t-44 52.5q-18 45 1 90t63 63q20 6 26 25q8 18 4 37q-31 33 -29.5 79t33.5 79q35 35 83 35t83 -33z" glyph-name="comma" horiz-adv-x="512" unicode=","/><glyph d="M739 860q49 0 84 -34.5t34 -83t-35 -83t-83 -34.5l-536 2q-49 0 -83 33.5t-34 82t35 83t82 34.5h536z" glyph-name="hyphen" horiz-adv-x="944" unicode="-"/><glyph d="M169 201q38 0 64.5 -27t26.5 -63.5t-26.5 -63.5t-64.5 -27t-64.5 27t-26.5 63.5t26.5 63.5t64.5 27z" glyph-name="period" horiz-adv-x="337" unicode="."/><glyph d="M857 1476.5q44 -20.5 61.5 -65.5t-3.5 -90l-585 -1270q-14 -33 -43 -50t-64 -17q-25 0 -49 10q-43 20 -60.5 65t3.5 91l585 1269q20 45 65.5 61.5t89.5 -4z" glyph-name="slash" horiz-adv-x="1034" unicode="/"/><glyph d="M1352 752.5q0 -199.5 -80 -369.5t-219.5 -268.5t-302 -98.5t-301 98.5t-219 268.5t-80.5 369.5t80.5 368.5t219 267.5t301 98.5t302 -98.5t219.5 -267.5t80 -368.5zM1118 753q0 208 -107.5 354t-259 146t-260 -146t-108.5 -354t108.5 -355.5t260 -147.5t259 147.5 t107.5 355.5z" glyph-name="zero" horiz-adv-x="1503" unicode="0"/><glyph d="M674 117q0 -49 -34 -83t-83 -34t-83 34t-34 83v977l-127 -136q-35 -35 -83 -35.5t-82.5 32t-36.5 81.5t32 84l328 348q27 25 61.5 33t67.5 -5t53.5 -43t20.5 -67v-1269z" glyph-name="one" horiz-adv-x="862" unicode="1"/><glyph d="M1090 118q0 -48 -34 -83t-83 -35h-694q-43 0 -77 28.5t-40 71.5q0 12 -1 28.5t1 63t11 91.5t34.5 107.5t63.5 117.5t102.5 115.5t150.5 109.5q25 14 82 43q135 66 192.5 120t57.5 144q-2 127 -50 178.5t-169 51.5q-127 0 -184.5 -54.5t-57.5 -177.5q0 -49 -33.5 -82.5 t-83 -33.5t-83 33.5t-33.5 82.5q0 219 126 343t349 124q57 0 111.5 -9t119 -39t111.5 -78t79 -136t32 -203q0 -59 -14.5 -112.5t-34 -92t-54.5 -77.5t-62.5 -62.5t-73.5 -52.5t-70.5 -42t-69.5 -36q-51 -25 -72 -37q-195 -109 -236 -295h570q47 0 82 -33.5t35 -81.5z" glyph-name="two" horiz-adv-x="1245" unicode="2"/><glyph d="M1190 578q-2 -270 -137 -424t-371 -154q-117 0 -226.5 53t-185.5 146q-70 86 -96.5 190.5t-3.5 206.5q10 47 51 73.5t88 16.5t74 -51t16 -88q-23 -106 54 -201q43 -53 103 -83t126 -30q55 0 100 15.5t73 37t48.5 55.5t29.5 61.5t15 67.5t7 59.5t1 50.5q0 96 -49 172.5 t-137 115.5q-133 57 -262 4l-102 -67q-37 -27 -82 -18.5t-74 44t-25 80.5t37 76q59 55 133 90l289 193h-408q-49 0 -82.5 34.5t-33.5 83t33.5 83t82.5 34.5h797q39 0 70 -23.5t42 -60.5t-2.5 -73.5t-43.5 -57.5l-299 -198q12 -4 26 -11q152 -68 239 -202.5t85 -300.5z" glyph-name="three" horiz-adv-x="1353" unicode="3"/><glyph d="M985 117q0 -49 -33.5 -83t-83 -34t-83 34t-33.5 83v366h-525q-74 0 -105.5 66.5t15.5 124.5l641 788q23 29 58.5 38t70.5 -3t56.5 -42t21.5 -69v-669h129q49 0 84 -35t35 -83t-35 -82t-84 -34h-129v-366zM752 1059l-279 -342h279v342z" glyph-name="four" horiz-adv-x="1347" unicode="4"/><glyph d="M1176 676q16 -145 -24 -283.5t-126 -234.5q-141 -158 -354 -158q-117 0 -226.5 52t-185.5 147q-70 86 -96.5 190.5t-3.5 206.5q10 47 51 73.5t88 16.5t73.5 -51t16.5 -88q-23 -106 53 -201q41 -53 102.5 -83t127.5 -30q109 0 180 80q53 59 77.5 149.5t12.5 186.5 q-23 199 -174 256q-86 31 -182.5 7.5t-173.5 -97.5q-2 0 -3 -1l-1 -1q-6 -4 -13 -8l-6 -4t-14 -6l-2 -1l-2 -1q-10 -4 -21 -7h-3h-3q-8 -2 -12 -2h-3h-1h-2h-2q-8 2 -19 4h-2l-2 2q-2 1 -4 1q-10 2 -14 6q-2 0 -11 5l-10 5l-12 12l-2 1q-2 1 -2 3q-8 8 -15 19l-5 9 q-5 9 -5 11l-3 10l-3 11v12v6v6q0 10 2 23l119 485q8 39 40 64.5t73 25.5h565q49 0 82.5 -34.5t33.5 -83t-33.5 -83t-82.5 -34.5h-473l-33 -137q178 53 342 -9q137 -51 222.5 -167.5t103.5 -280.5z" glyph-name="five" horiz-adv-x="1339" unicode="5"/><glyph d="M1167 528q0 -252 -133 -390t-377 -138q-231 0 -369 168t-138 448q0 289 164.5 535t424.5 346q45 16 89 -3t61.5 -64.5t-2 -89.5t-64.5 -62q-178 -68 -295 -227q88 18 166 12q213 -23 343 -170.5t130 -364.5zM444 754q-61 -55 -61 -138q0 -43 5 -85t21.5 -98t44 -98 t81 -72t122.5 -30q147 0 212 69t65 226q0 113 -64.5 200t-197.5 101q-53 6 -118 -14t-110 -61z" glyph-name="six" horiz-adv-x="1308" unicode="6"/><glyph d="M621 115q0 -47 -35 -81t-82 -34h-2q-49 0 -83 35t-32 84q10 729 346 1151h-524q-49 0 -83 34.5t-34 83t34 83t83 34.5h813q37 0 68.5 -22.5t43 -59.5t-1 -72.5t-42.5 -58.5q-51 -37 -101.5 -86t-119 -149.5t-119 -222t-88 -311t-41.5 -408.5z" glyph-name="seven" horiz-adv-x="1232" unicode="7"/><glyph d="M950 819q82 -66 129 -159t47 -197q0 -193 -142 -328t-343 -135t-343 135t-142 328q0 104 47 197.5t129 158.5q-117 117 -117 279q0 168 125 287.5t301 119.5t301 -119.5t125 -287.5q0 -162 -117 -279zM449 1097.5q0 -71.5 56 -121.5t136 -50t135 50t55 121.5t-55 122 t-135 50.5t-136 -50.5t-56 -122zM641 233q104 0 177 68t73 162t-73 160.5t-177 66.5t-178 -66.5t-74 -160.5t74 -162t178 -68z" glyph-name="eight" horiz-adv-x="1282" unicode="8"/><glyph d="M569 8q-20 -8 -43 -8q-35 0 -65.5 20.5t-42.5 55.5q-18 45 2 89t65 62q178 68 295 228q-88 -20 -168 -13q-213 20 -343 168t-130 367q0 252 133.5 390t376.5 138q231 0 369.5 -168t138.5 -448q0 -289 -164 -535t-424 -346zM924 889q0 43 -4.5 84t-21.5 98t-45 98t-81 71 t-123 30q-147 0 -211.5 -68.5t-64.5 -224.5q0 -113 64.5 -201t199.5 -100q51 -6 115.5 13.5t109.5 60.5q62 55 62 139z" glyph-name="nine" horiz-adv-x="1308" unicode="9"/><glyph d="M193.5 109q-37.5 0 -64.5 26.5t-27 63.5t27 63.5t64.5 26.5t64.5 -26.5t27 -63.5t-27 -63.5t-64.5 -26.5zM193.5 614q-37.5 0 -64.5 27t-27 64.5t27 64.5t64.5 27t64.5 -27t27 -64.5t-27 -64.5t-64.5 -27z" glyph-name="colon" horiz-adv-x="387" unicode=":"/><glyph d="M271 614q-38 0 -64.5 27t-26.5 64.5t26.5 64.5t64.5 27t64.5 -27t26.5 -64.5t-26.5 -64.5t-64.5 -27zM362 283q39 -39 55.5 -101.5t4.5 -128.5q-14 -72 -58.5 -127t-111.5 -82q-23 -8 -45 -8q-35 0 -64.5 19.5t-44.5 52.5q-18 45 1.5 90t62.5 63q20 6 26 25q8 18 5 37 q-31 33 -30 79t34 79q35 35 82.5 35t82.5 -33z" glyph-name="semicolon" horiz-adv-x="536" unicode=";"/><glyph d="M391 745l223 -245q33 -35 31 -84t-37 -82q-35 -29 -80 -29q-51 0 -86 37l-299 328q-31 35 -29.5 82t33.5 79l299 302q33 33 82.5 33.5t83 -34t33.5 -83t-33 -82.5z" glyph-name="less" horiz-adv-x="776" unicode="&lt;"/><glyph d="M229 766q-49 0 -82.5 34t-33.5 83t34.5 82.5t81.5 33.5h537q49 0 84 -34.5t34 -82.5t-35 -83t-83 -35zM766 705q49 0 84 -34t34 -83t-35 -83t-83 -34h-537q-49 0 -82.5 35t-33.5 83t34.5 82t81.5 34h537z" glyph-name="equal" horiz-adv-x="997" unicode="="/><glyph d="M631 791q33 -33 32 -80t-34 -80l-299 -301q-35 -35 -83 -35t-83 33.5t-35 83t35 84.5l219 221l-223 244q-33 37 -31 85t38 80.5t84 30.5t81 -39z" glyph-name="greater" horiz-adv-x="776" unicode=">"/><glyph d="M870 1380q115 -115 115 -299q0 -152 -92 -275.5t-219 -170.5l-4 -207q-2 -49 -36 -82t-81 -33h-2q-49 0 -83 35t-32 84l4 299q0 47 35 81t82 34q57 0 126 72.5t69 162.5q0 88 -45 133q-49 47 -154 48q-92 -2 -145.5 -58.5t-55.5 -154.5q0 -49 -33.5 -83t-82.5 -34 t-83 34.5t-34 84.5q2 193 122.5 317.5t309.5 126.5q200 2 319 -115zM560 -33q-58 0 -100 42t-42 100.5t42 100.5t100 42t100 -42t42 -100.5t-42 -100.5t-100 -42z" glyph-name="question" horiz-adv-x="1118" unicode="?"/><glyph d="M889 1483q201 0 371 -99.5t269 -269.5t99 -371q0 -78 -20.5 -160.5t-36 -116.5t-27.5 -56q-43 -86 -124 -139.5t-167 -53.5q-16 0 -32 2q-68 10 -116 56.5t-67 117.5q-90 -63 -192 -63q-20 0 -41 2q-72 10 -134.5 54t-101.5 114q-78 135 -54 301t134 272q123 117 275 96 q88 -12 153 -63q35 49 94 43q43 -4 71 -37t26 -78q-45 -487 -29 -575q4 -25 10 -31q16 -6 53 17.5t56 60.5v1v1q59 111 59 235q0 219 -154.5 374t-373.5 155t-375 -154.5t-156 -374.5q0 -244 136 -376q152 -147 471 -142q43 2 74.5 -28.5t32.5 -73.5t-28.5 -75t-74.5 -34 h-31q-385 0 -592 203q-199 195 -199 526q0 201 99.5 371t270.5 269.5t372 99.5zM1006 731q12 86 -19 156q-29 66 -92 74h-12q-45 0 -86 -39q-59 -57 -72.5 -151.5t27.5 -166.5q33 -57 83 -64.5t97 40.5q60 57 74 151z" glyph-name="at" horiz-adv-x="1773" unicode="@"/><glyph d="M1354 162q18 -45 -0.5 -89t-63.5 -63.5t-89 -1t-64 63.5l-148 358h-545l-149 -358q-14 -33 -44 -52.5t-65 -19.5q-23 0 -45 8q-45 20 -63.5 64.5t0.5 89.5l180 432l350 838q14 33 43 53t65 20t65.5 -20.5t41.5 -52.5l351 -838zM543 666h348l-174 417z" glyph-name="A" horiz-adv-x="1433" unicode="A"/><glyph d="M1354 162q18 -45 -0.5 -89t-63.5 -63.5t-89 -1t-64 63.5l-148 358h-545l-149 -358q-14 -33 -44 -52.5t-65 -19.5q-23 0 -45 8q-45 20 -63.5 64.5t0.5 89.5l180 432l350 838q14 33 43 53t65 20t65.5 -20.5t41.5 -52.5l351 -838zM543 666h348l-174 417z" glyph-name="A" horiz-adv-x="1433" unicode="Á"/><glyph d="M1227 455l1 -2t1 -3t-1 -4l-1 -2q-4 -188 -127 -311q-133 -133 -359 -133h-438q-49 0 -83 34t-34 83v1269q0 49 34 84t83 35h410q221 0 346 -129q113 -111 117 -276v-2v-3v-2v-2v-3.5v-3.5v-3v-2q-4 -160 -111 -272q18 -14 35 -31q123 -123 127 -309q0 -2 1 -4t1 -4 l-1 -1zM893 1212q-57 57 -180 58h-293v-361h293q123 0 180 60q49 47 49 121q0 73 -49 122zM741 233q127 0 193 66q59 59 59 156q0 96 -59 155q-66 66 -193 66h-321v-443h321z" glyph-name="B" horiz-adv-x="1361" unicode="B"/><glyph d="M1315 551q-20 -145 -80.5 -256t-142.5 -173.5t-170 -92t-179 -29.5q-168 0 -311 100.5t-227 274.5t-84 377.5t84 377t227 274.5t311 101q117 0 215.5 -43t166 -113.5t110.5 -157.5t59 -181q8 -47 -19.5 -87t-75.5 -48.5t-87 19.5t-47 75q-23 125 -103.5 213t-218.5 88 q-160 0 -274.5 -151.5t-114.5 -365.5t115 -367t274 -153q137 0 226.5 93.5t113.5 259.5q6 47 45 75.5t87.5 22.5t77 -45t22.5 -88z" glyph-name="C" horiz-adv-x="1441" unicode="C"/><glyph d="M1315 551q-20 -145 -80.5 -256t-142.5 -173.5t-170 -92t-179 -29.5q-168 0 -311 100.5t-227 274.5t-84 377.5t84 377t227 274.5t311 101q117 0 215.5 -43t166 -113.5t110.5 -157.5t59 -181q8 -47 -19.5 -87t-75.5 -48.5t-87 19.5t-47 75q-23 125 -103.5 213t-218.5 88 q-160 0 -274.5 -151.5t-114.5 -365.5t115 -367t274 -153q137 0 226.5 93.5t113.5 259.5q6 47 45 75.5t87.5 22.5t77 -45t22.5 -88z" glyph-name="C" horiz-adv-x="1441" unicode="Ç"/><glyph d="M1210 1051q25 -129 25 -300t-23 -294q-35 -209 -189.5 -333t-375.5 -124h-317l-13 2q-12 -2 -14 -2q-49 0 -83 35t-34 82v1269q0 49 34 84t83 35q2 0 14 -2q12 2 13 2h323q219 0 365.5 -118.5t191.5 -335.5zM983 496q16 102 17 253.5t-19 251.5q-57 268 -328 269h-233 v-1037h227q76 0 136.5 23t95 52.5t58.5 69.5t33 66.5t13 51.5z" glyph-name="D" horiz-adv-x="1376" unicode="D"/><glyph d="M1122 233q47 0 82 -33.5t35 -82.5t-35 -83t-82 -34h-819q-49 0 -83 34t-34 83v1269q0 49 34 84t83 35h819q47 0 82 -34.5t35 -83t-35 -83t-82 -34.5h-702v-324h483q49 0 84 -33.5t35 -83t-35 -83t-84 -33.5h-483v-480h702z" glyph-name="E" horiz-adv-x="1333" unicode="E"/><glyph d="M1122 1505q47 0 82 -34.5t35 -83t-35 -83t-82 -34.5h-702v-324h483q49 0 84 -33.5t35 -83t-35 -83t-84 -33.5h-483v-596q0 -49 -34 -83t-83 -34t-83 34t-34 83v1269q0 49 34 84t83 35h819z" glyph-name="F" horiz-adv-x="1298" unicode="F"/><glyph d="M1317 752v-2v0q-4 -113 -20.5 -211.5t-56.5 -200.5t-101.5 -174t-163 -118t-232.5 -46q-168 0 -311 100.5t-227 274.5t-84 377.5t84 377t227 274.5t311 101q119 0 230.5 -49t199 -152.5t111.5 -242.5q8 -49 -19.5 -89t-75.5 -48.5t-87 19.5t-49 75q-20 119 -111.5 185.5 t-198.5 66.5q-160 0 -274.5 -151.5t-114.5 -365.5t115 -367t274 -153q29 0 45.5 1.5t51 9.5t58.5 22.5t54.5 44t52 70.5t41 106.5t27.5 147.5h-354q-49 0 -83 35t-34 83t34 81.5t83 33.5h481h2h6h4q10 -2 13 -2q2 0 11 -3t10 -4t9.5 -5t10.5 -5t9 -7t9 -8l6 -8q6 -9 6 -11 q2 0 6.5 -8t6.5 -10q0 -2 2 -11.5t4 -11.5v-10q0 -2 1 -6t1 -6z" glyph-name="G" horiz-adv-x="1445" unicode="G"/><glyph d="M1156 1505q48 0 82 -34.5t34 -84.5v-1269q0 -49 -34 -83t-82 -34t-83 34t-35 83v518h-618v-518q0 -49 -34 -83t-83 -34t-83 34t-34 83v1269q0 49 34 84t83 35t83 -34.5t34 -84.5v-518h618v518q0 49 35 84t83 35z" glyph-name="H" horiz-adv-x="1460" unicode="H"/><glyph d="M420 117q0 -49 -34 -83t-83 -34t-83 34t-34 83v1269q0 49 34 84t83 35t83 -34.5t34 -84.5v-1269z" glyph-name="I" horiz-adv-x="608" unicode="I"/><glyph d="M984 1505q48 0 83 -34.5t35 -84.5v-720q0 -2 -2 -15q-10 -311 -141.5 -480t-360.5 -169q-262 0 -395 203q-109 166 -109 461q0 47 34 81.5t83 34.5t83 -34.5t34 -81.5q0 -90 12 -160t28.5 -114t43 -75.5t48 -47t53.5 -23.5t46 -9t39 -1q270 0 270 477v673q0 49 34 84 t82 35z" glyph-name="J" horiz-adv-x="1263" unicode="J"/><glyph d="M705 842l475 -621q29 -39 22.5 -87t-45.5 -77q-31 -25 -70 -24q-59 0 -94 47l-454 596l-119 -119v-440q0 -49 -34 -83t-83 -34t-83 34t-34 83v1269q0 49 34 84t83 35t83 -34.5t34 -84.5v-497l584 581q35 35 83 35t82.5 -34.5t34.5 -83t-35 -82.5z" glyph-name="K" horiz-adv-x="1300" unicode="K"/><glyph d="M1118 274q47 0 82 -33.5t35 -82.5t-35 -83t-82 -34h-819q-49 0 -83 34t-34 83v1269q0 49 34 83t83 34t83 -33.5t34 -83.5v-1153h702z" glyph-name="L" horiz-adv-x="1288" unicode="L"/><glyph d="M1477 117q0 -49 -34 -83t-83 -34t-83 34t-34 83v725l-305 -676q-14 -33 -43 -51.5t-63.5 -18.5t-63.5 18.5t-43 51.5l-305 676v-725q0 -49 -34 -83t-83 -34t-83 34t-34 83v1269q0 43 26 75t66.5 41t77.5 -10t54 -56l421 -936l422 936q16 37 53 56t78 10t67 -40.5 t26 -75.5v-1269z" glyph-name="M" horiz-adv-x="1665" unicode="M"/><glyph d="M1180 4q-16 -4 -33 -4q-63 0 -98 53l-629 946v-882q0 -49 -34 -83t-83 -34t-83 34t-34 83v1269q0 39 23.5 71t60.5 43t73 -2t58 -46l629 -946v880q0 49 34 84t82 35t83 -34.5t35 -84.5v-1269q0 -39 -23.5 -70t-60.5 -43z" glyph-name="N" horiz-adv-x="1449" unicode="N"/><glyph d="M1405 752.5q0 -199.5 -86 -369.5t-234.5 -268.5t-322.5 -98.5t-322.5 98.5t-234.5 268.5t-86 369.5t86 368.5t234.5 267.5t322.5 98.5t322.5 -98.5t234.5 -267.5t86 -368.5zM1169 753q0 208 -119.5 354t-288.5 146t-289 -146t-120 -354t120 -355.5t289 -147.5 t288.5 147.5t119.5 355.5z" glyph-name="O" unicode="O"/><glyph d="M1233 1066v-2v-3l-1 -2t-1 -4q-4 -174 -121 -291q-133 -135 -367 -135h-323v-510q0 -47 -34 -82t-83 -35t-83 35t-34 82v1233q0 6 2 16q-2 12 -2 18q0 47 34 82t83 35h440q233 0 367 -135q117 -117 121 -291l1 -2q1 -2 1 -4v-2v-3zM743 864q135 0 201 66q53 53 53 137 q0 82 -53 137q-66 63 -201 64h-323v-404h323z" glyph-name="P" horiz-adv-x="1323" unicode="P"/><glyph d="M1536 277.5q41 -25.5 51 -73.5t-16 -89q-61 -94 -166 -113q-18 -2 -37 -2q-94 0 -170 61q-18 14 -84 76q-160 -121 -352 -121q-174 0 -322.5 98.5t-234.5 268.5t-86 369.5t86 368.5t234.5 267.5t322.5 98.5t322.5 -98.5t234.5 -267.5t86 -369q0 -246 -131 -443 q57 -55 74 -67q12 -10 20 -9l6 9q27 41 74 51t88 -15.5zM762 250q94 0 178 53q-47 45 -86 84q-35 33 -36 81t33 83t82 36t83 -32q47 -45 86 -82q68 127 67 279q0 209 -119.5 355t-288.5 146t-289 -146t-120 -354t120 -355.5t290 -147.5z" glyph-name="Q" horiz-adv-x="1667" unicode="Q"/><glyph d="M1303 133q23 -43 9 -89t-57 -69q-27 -14 -55 -14q-70 0 -102 62l-320 585q-16 -2 -20 -2h-338v-528q0 -49 -34 -83t-83 -34t-83 34t-34 83v1270q0 6 2 18q-2 10 -2 16q0 49 34 83t83 34h455q238 0 372 -137q121 -119 125 -297q0 -2 1 -4l1 -2v-3v-2v-3v-2q0 -2 -1 -5 l-1 -2q-4 -178 -125 -299q-49 -49 -114 -81zM420 1266v-424h338q139 0 207 67q57 57 57 144q0 88 -57 143q-68 70 -207 70h-338z" glyph-name="R" horiz-adv-x="1427" unicode="R"/><glyph d="M1004 133q-76 -78 -185.5 -113.5t-212.5 -35.5q-184 0 -317 120q-158 143 -158 392q0 47 35 81.5t83 34.5t82 -34.5t34 -81.5q0 -145 81 -217q66 -61 160 -62q61 0 127 20.5t105 59.5q45 45 43 117q0 104 -58.5 163.5t-195.5 98.5q-16 6 -58 16q-45 12 -70.5 19.5 t-73.5 26t-78 36t-67.5 48t-59 65.5t-37 85t-15.5 109q0 188 128 303t341 119q201 0 326 -141q109 -121 110 -277q2 -47 -31.5 -81.5t-83 -35.5t-84 32.5t-34.5 80.5q0 27 -11.5 56.5t-33 60.5t-62.5 51.5t-94 18.5q-236 -2 -238 -189q0 -63 46.5 -94t183.5 -67 q41 -10 61 -17q86 -25 156 -61.5t113 -71.5t74.5 -81t46 -80t22.5 -78t9 -63.5t3 -49.5q1 -170 -112 -283z" glyph-name="S" horiz-adv-x="1247" unicode="S"/><glyph d="M1155 1495q47 0 82 -34t35 -83t-35 -82.5t-82 -33.5h-375v-1153q0 -49 -34.5 -84t-83 -35t-83 34.5t-34.5 84.5v1153h-375q-49 0 -83 33.5t-34 82.5t34 83t83 34h985z" glyph-name="T" horiz-adv-x="1325" unicode="T"/><glyph d="M1056 1495q48 0 83 -35t35 -82v-723q0 -2 -3 -12q-10 -311 -141 -481t-360 -170q-262 0 -396 203q-109 168 -108 460v723q0 47 33.5 82t83 35t83 -35t33.5 -82v-723q0 -88 12.5 -158.5t29 -114.5t43 -76t48 -47t53 -23.5t46 -9.5t39.5 -1q270 0 270 477v676q0 47 34 82 t82 35z" glyph-name="U" horiz-adv-x="1337" unicode="U"/><glyph d="M1056 1495q48 0 83 -35t35 -82v-723q0 -2 -3 -12q-10 -311 -141 -481t-360 -170q-262 0 -396 203q-109 168 -108 460v723q0 47 33.5 82t83 35t83 -35t33.5 -82v-723q0 -88 12.5 -158.5t29 -114.5t43 -76t48 -47t53 -23.5t46 -9.5t39.5 -1q270 0 270 477v676q0 47 34 82 t82 35z" glyph-name="U" horiz-adv-x="1337" unicode="Ú"/><glyph d="M702 74q-12 -33 -41.5 -53.5t-66.5 -20.5h-4q-37 2 -66.5 24.5t-40.5 57.5l-399 1270q-14 47 7.5 90t68.5 57t90 -8.5t57 -67.5l301 -960l393 969q16 45 61.5 63t90.5 1t63.5 -62t0.5 -91z" glyph-name="V" horiz-adv-x="1296" unicode="V"/><glyph d="M2025.5 1496q45.5 -17 63.5 -62t0 -91l-514 -1269q-12 -35 -42 -54.5t-67 -19.5h-4q-37 2 -65.5 23.5t-40.5 56.5l-293 878l-361 -884q-12 -35 -41.5 -54.5t-66.5 -19.5h-4q-37 2 -66.5 24.5t-40.5 57.5l-399 1270q-14 47 7.5 90t68.5 57t90 -8.5t57 -67.5l301 -960 l357 878l1 3l1 2l5 10t5 9t7 9t8 8t9.5 7.5t9.5 7.5t9 5t12 5l1 1t2 1h3h4q6 2 11.5 3t11.5 1h11h11t11 -2l12 -4h4t3 -1t2 -1h1q4 -4 13 -6q4 -4 8 -6q2 -2 8 -7.5t8 -7.5q2 -4 8 -10q4 -6 6.5 -9t6.5 -9q2 -6 4 -11q0 -2 1 -3l1 -1l293 -880l395 977q18 45 63 63t90.5 1z " glyph-name="W" horiz-adv-x="2168" unicode="W"/><glyph d="M786 772l371 -610q25 -43 13.5 -90t-54.5 -72q-27 -16 -59 -16q-66 0 -101 55l-315 520l-340 -493q-35 -51 -96 -52q-37 0 -66 21q-41 27 -49 75t19 87l399 583l-332 547q-27 41 -14.5 88t53.5 72.5t88 13.5t72 -53l278 -457l308 449q27 39 74.5 48t87.5 -18.5 t48.5 -74.5t-18.5 -88z" glyph-name="X" horiz-adv-x="1275" unicode="X"/><glyph d="M1195 1473.5q38 -29.5 43 -77.5t-24 -87l-446 -570v-594q0 -49 -35 -82.5t-83 -33.5t-83 33.5t-35 82.5v594l-450 570q-29 39 -24 87t43 77.5t86.5 24.5t78.5 -44l383 -485l381 485q29 39 78 44t87 -24.5z" glyph-name="Y" horiz-adv-x="1298" unicode="Y"/><glyph d="M1194 262q47 0 82 -34.5t35 -83t-35 -82t-82 -33.5h-985q-74 0 -105.5 65.5t13.5 122.5l833 1049h-741q-49 0 -83 33.5t-34 82t34 83t83 34.5h985q72 0 104.5 -66.5t-14.5 -123.5l-831 -1047h741z" glyph-name="Z" horiz-adv-x="1402" unicode="Z"/><glyph d="M668 225q49 0 82.5 -34.5t33.5 -83t-33.5 -83t-82.5 -34.5h-365q-49 0 -83 34.5t-34 84.5v1269q0 47 34 82t83 35h365q49 0 82.5 -35t33.5 -83t-33.5 -81.5t-82.5 -33.5h-248v-1037h248z" glyph-name="bracketleft" horiz-adv-x="913" unicode="["/><glyph d="M823 123q18 -45 -2 -90t-65 -62q-20 -6 -41 -6q-37 0 -68 20.5t-43 55.5l-483 1313q-18 45 2 89t66.5 60.5t90.5 -4t60 -65.5z" glyph-name="backslash" horiz-adv-x="944" unicode="\"/><glyph d="M608 1495q49 0 83 -35t34 -82v-1269q0 -49 -34 -84t-83 -35h-364q-49 0 -83 34.5t-34 83t34 83t83 34.5h248v1037h-248q-49 0 -83 33.5t-34 81.5t34 83t83 35h364z" glyph-name="bracketright" horiz-adv-x="913" unicode="]"/><glyph d="M928 1161q35 -33 35 -82t-34 -82.5t-83 -33.5t-84 32l-221 222l-244 -224q-35 -31 -80 -30q-51 0 -86 36q-33 37 -31 85.5t39 80.5l326 299q35 31 82 30t80 -34z" glyph-name="asciicircum" horiz-adv-x="1062" unicode="^"/><glyph d="M1028 225q49 0 83 -33.5t34 -83t-35 -83t-82 -33.5h-825q-49 0 -83 34.5t-34 83t35 83t82 34.5z" glyph-name="underscore" horiz-adv-x="1232" unicode="_"/><glyph d="M1354 162q18 -45 -0.5 -89t-63.5 -63.5t-89 -1t-64 63.5l-148 358h-545l-149 -358q-14 -33 -44 -52.5t-65 -19.5q-23 0 -45 8q-45 20 -63.5 64.5t0.5 89.5l180 432l350 838q14 33 43 53t65 20t65.5 -20.5t41.5 -52.5l351 -838zM543 666h348l-174 417z" glyph-name="a" horiz-adv-x="1433" unicode="a"/><glyph d="M1227 455l1 -2t1 -3t-1 -4l-1 -2q-4 -188 -127 -311q-133 -133 -359 -133h-438q-49 0 -83 34t-34 83v1269q0 49 34 84t83 35h410q221 0 346 -129q113 -111 117 -276v-2v-3v-2v-2v-3.5v-3.5v-3v-2q-4 -160 -111 -272q18 -14 35 -31q123 -123 127 -309q0 -2 1 -4t1 -4 l-1 -1zM893 1212q-57 57 -180 58h-293v-361h293q123 0 180 60q49 47 49 121q0 73 -49 122zM741 233q127 0 193 66q59 59 59 156q0 96 -59 155q-66 66 -193 66h-321v-443h321z" glyph-name="b" horiz-adv-x="1361" unicode="b"/><glyph d="M1315 551q-20 -145 -80.5 -256t-142.5 -173.5t-170 -92t-179 -29.5q-168 0 -311 100.5t-227 274.5t-84 377.5t84 377t227 274.5t311 101q117 0 215.5 -43t166 -113.5t110.5 -157.5t59 -181q8 -47 -19.5 -87t-75.5 -48.5t-87 19.5t-47 75q-23 125 -103.5 213t-218.5 88 q-160 0 -274.5 -151.5t-114.5 -365.5t115 -367t274 -153q137 0 226.5 93.5t113.5 259.5q6 47 45 75.5t87.5 22.5t77 -45t22.5 -88z" glyph-name="c" horiz-adv-x="1441" unicode="c"/><glyph d="M1315 551q-20 -145 -80.5 -256t-142.5 -173.5t-170 -92t-179 -29.5q-168 0 -311 100.5t-227 274.5t-84 377.5t84 377t227 274.5t311 101q117 0 215.5 -43t166 -113.5t110.5 -157.5t59 -181q8 -47 -19.5 -87t-75.5 -48.5t-87 19.5t-47 75q-23 125 -103.5 213t-218.5 88 q-160 0 -274.5 -151.5t-114.5 -365.5t115 -367t274 -153q137 0 226.5 93.5t113.5 259.5q6 47 45 75.5t87.5 22.5t77 -45t22.5 -88z" glyph-name="c" horiz-adv-x="1441" unicode="ç"/><glyph d="M1210 1051q25 -129 25 -300t-23 -294q-35 -209 -189.5 -333t-375.5 -124h-317l-13 2q-12 -2 -14 -2q-49 0 -83 35t-34 82v1269q0 49 34 84t83 35q2 0 14 -2q12 2 13 2h323q219 0 365.5 -118.5t191.5 -335.5zM983 496q16 102 17 253.5t-19 251.5q-57 268 -328 269h-233 v-1037h227q76 0 136.5 23t95 52.5t58.5 69.5t33 66.5t13 51.5z" glyph-name="d" horiz-adv-x="1376" unicode="d"/><glyph d="M1122 233q47 0 82 -33.5t35 -82.5t-35 -83t-82 -34h-819q-49 0 -83 34t-34 83v1269q0 49 34 84t83 35h819q47 0 82 -34.5t35 -83t-35 -83t-82 -34.5h-702v-324h483q49 0 84 -33.5t35 -83t-35 -83t-84 -33.5h-483v-480h702z" glyph-name="e" horiz-adv-x="1333" unicode="e"/><glyph d="M1122 1505q47 0 82 -34.5t35 -83t-35 -83t-82 -34.5h-702v-324h483q49 0 84 -33.5t35 -83t-35 -83t-84 -33.5h-483v-596q0 -49 -34 -83t-83 -34t-83 34t-34 83v1269q0 49 34 84t83 35h819z" glyph-name="f" horiz-adv-x="1298" unicode="f"/><glyph d="M1317 752v-2v0q-4 -113 -20.5 -211.5t-56.5 -200.5t-101.5 -174t-163 -118t-232.5 -46q-168 0 -311 100.5t-227 274.5t-84 377.5t84 377t227 274.5t311 101q119 0 230.5 -49t199 -152.5t111.5 -242.5q8 -49 -19.5 -89t-75.5 -48.5t-87 19.5t-49 75q-20 119 -111.5 185.5 t-198.5 66.5q-160 0 -274.5 -151.5t-114.5 -365.5t115 -367t274 -153q29 0 45.5 1.5t51 9.5t58.5 22.5t54.5 44t52 70.5t41 106.5t27.5 147.5h-354q-49 0 -83 35t-34 83t34 81.5t83 33.5h481h2h6h4q10 -2 13 -2q2 0 11 -3t10 -4t9.5 -5t10.5 -5t9 -7t9 -8l6 -8q6 -9 6 -11 q2 0 6.5 -8t6.5 -10q0 -2 2 -11.5t4 -11.5v-10q0 -2 1 -6t1 -6z" glyph-name="g" horiz-adv-x="1445" unicode="g"/><glyph d="M1156 1505q48 0 82 -34.5t34 -84.5v-1269q0 -49 -34 -83t-82 -34t-83 34t-35 83v518h-618v-518q0 -49 -34 -83t-83 -34t-83 34t-34 83v1269q0 49 34 84t83 35t83 -34.5t34 -84.5v-518h618v518q0 49 35 84t83 35z" glyph-name="h" horiz-adv-x="1460" unicode="h"/><glyph d="M420 117q0 -49 -34 -83t-83 -34t-83 34t-34 83v1269q0 49 34 84t83 35t83 -34.5t34 -84.5v-1269z" glyph-name="i" horiz-adv-x="608" unicode="i"/><glyph d="M984 1505q48 0 83 -34.5t35 -84.5v-720q0 -2 -2 -15q-10 -311 -141.5 -480t-360.5 -169q-262 0 -395 203q-109 166 -109 461q0 47 34 81.5t83 34.5t83 -34.5t34 -81.5q0 -90 12 -160t28.5 -114t43 -75.5t48 -47t53.5 -23.5t46 -9t39 -1q270 0 270 477v673q0 49 34 84 t82 35z" glyph-name="j" horiz-adv-x="1263" unicode="j"/><glyph d="M705 842l475 -621q29 -39 22.5 -87t-45.5 -77q-31 -25 -70 -24q-59 0 -94 47l-454 596l-119 -119v-440q0 -49 -34 -83t-83 -34t-83 34t-34 83v1269q0 49 34 84t83 35t83 -34.5t34 -84.5v-497l584 581q35 35 83 35t82.5 -34.5t34.5 -83t-35 -82.5z" glyph-name="k" horiz-adv-x="1300" unicode="k"/><glyph d="M1118 274q47 0 82 -33.5t35 -82.5t-35 -83t-82 -34h-819q-49 0 -83 34t-34 83v1269q0 49 34 83t83 34t83 -33.5t34 -83.5v-1153h702z" glyph-name="l" horiz-adv-x="1288" unicode="l"/><glyph d="M1477 117q0 -49 -34 -83t-83 -34t-83 34t-34 83v725l-305 -676q-14 -33 -43 -51.5t-63.5 -18.5t-63.5 18.5t-43 51.5l-305 676v-725q0 -49 -34 -83t-83 -34t-83 34t-34 83v1269q0 43 26 75t66.5 41t77.5 -10t54 -56l421 -936l422 936q16 37 53 56t78 10t67 -40.5 t26 -75.5v-1269z" glyph-name="m" horiz-adv-x="1665" unicode="m"/><glyph d="M1180 4q-16 -4 -33 -4q-63 0 -98 53l-629 946v-882q0 -49 -34 -83t-83 -34t-83 34t-34 83v1269q0 39 23.5 71t60.5 43t73 -2t58 -46l629 -946v880q0 49 34 84t82 35t83 -34.5t35 -84.5v-1269q0 -39 -23.5 -70t-60.5 -43z" glyph-name="n" horiz-adv-x="1449" unicode="n"/><glyph d="M1405 752.5q0 -199.5 -86 -369.5t-234.5 -268.5t-322.5 -98.5t-322.5 98.5t-234.5 268.5t-86 369.5t86 368.5t234.5 267.5t322.5 98.5t322.5 -98.5t234.5 -267.5t86 -368.5zM1169 753q0 208 -119.5 354t-288.5 146t-289 -146t-120 -354t120 -355.5t289 -147.5 t288.5 147.5t119.5 355.5z" glyph-name="o" unicode="o"/><glyph d="M1233 1066v-2v-3l-1 -2t-1 -4q-4 -174 -121 -291q-133 -135 -367 -135h-323v-510q0 -47 -34 -82t-83 -35t-83 35t-34 82v1233q0 6 2 16q-2 12 -2 18q0 47 34 82t83 35h440q233 0 367 -135q117 -117 121 -291l1 -2q1 -2 1 -4v-2v-3zM743 864q135 0 201 66q53 53 53 137 q0 82 -53 137q-66 63 -201 64h-323v-404h323z" glyph-name="p" horiz-adv-x="1323" unicode="p"/><glyph d="M1536 277.5q41 -25.5 51 -73.5t-16 -89q-61 -94 -166 -113q-18 -2 -37 -2q-94 0 -170 61q-18 14 -84 76q-160 -121 -352 -121q-174 0 -322.5 98.5t-234.5 268.5t-86 369.5t86 368.5t234.5 267.5t322.5 98.5t322.5 -98.5t234.5 -267.5t86 -369q0 -246 -131 -443 q57 -55 74 -67q12 -10 20 -9l6 9q27 41 74 51t88 -15.5zM762 250q94 0 178 53q-47 45 -86 84q-35 33 -36 81t33 83t82 36t83 -32q47 -45 86 -82q68 127 67 279q0 209 -119.5 355t-288.5 146t-289 -146t-120 -354t120 -355.5t290 -147.5z" glyph-name="q" horiz-adv-x="1667" unicode="q"/><glyph d="M1303 133q23 -43 9 -89t-57 -69q-27 -14 -55 -14q-70 0 -102 62l-320 585q-16 -2 -20 -2h-338v-528q0 -49 -34 -83t-83 -34t-83 34t-34 83v1270q0 6 2 18q-2 10 -2 16q0 49 34 83t83 34h455q238 0 372 -137q121 -119 125 -297q0 -2 1 -4l1 -2v-3v-2v-3v-2q0 -2 -1 -5 l-1 -2q-4 -178 -125 -299q-49 -49 -114 -81zM420 1266v-424h338q139 0 207 67q57 57 57 144q0 88 -57 143q-68 70 -207 70h-338z" glyph-name="r" horiz-adv-x="1427" unicode="r"/><glyph d="M1004 133q-76 -78 -185.5 -113.5t-212.5 -35.5q-184 0 -317 120q-158 143 -158 392q0 47 35 81.5t83 34.5t82 -34.5t34 -81.5q0 -145 81 -217q66 -61 160 -62q61 0 127 20.5t105 59.5q45 45 43 117q0 104 -58.5 163.5t-195.5 98.5q-16 6 -58 16q-45 12 -70.5 19.5 t-73.5 26t-78 36t-67.5 48t-59 65.5t-37 85t-15.5 109q0 188 128 303t341 119q201 0 326 -141q109 -121 110 -277q2 -47 -31.5 -81.5t-83 -35.5t-84 32.5t-34.5 80.5q0 27 -11.5 56.5t-33 60.5t-62.5 51.5t-94 18.5q-236 -2 -238 -189q0 -63 46.5 -94t183.5 -67 q41 -10 61 -17q86 -25 156 -61.5t113 -71.5t74.5 -81t46 -80t22.5 -78t9 -63.5t3 -49.5q1 -170 -112 -283z" glyph-name="s" horiz-adv-x="1247" unicode="s"/><glyph d="M1155 1495q47 0 82 -34t35 -83t-35 -82.5t-82 -33.5h-375v-1153q0 -49 -34.5 -84t-83 -35t-83 34.5t-34.5 84.5v1153h-375q-49 0 -83 33.5t-34 82.5t34 83t83 34h985z" glyph-name="t" horiz-adv-x="1325" unicode="t"/><glyph d="M1056 1495q48 0 83 -35t35 -82v-723q0 -2 -3 -12q-10 -311 -141 -481t-360 -170q-262 0 -396 203q-109 168 -108 460v723q0 47 33.5 82t83 35t83 -35t33.5 -82v-723q0 -88 12.5 -158.5t29 -114.5t43 -76t48 -47t53 -23.5t46 -9.5t39.5 -1q270 0 270 477v676q0 47 34 82 t82 35z" glyph-name="u" horiz-adv-x="1337" unicode="u"/><glyph d="M702 74q-12 -33 -41.5 -53.5t-66.5 -20.5h-4q-37 2 -66.5 24.5t-40.5 57.5l-399 1270q-14 47 7.5 90t68.5 57t90 -8.5t57 -67.5l301 -960l393 969q16 45 61.5 63t90.5 1t63.5 -62t0.5 -91z" glyph-name="v" horiz-adv-x="1296" unicode="v"/><glyph d="M2025.5 1496q45.5 -17 63.5 -62t0 -91l-514 -1269q-12 -35 -42 -54.5t-67 -19.5h-4q-37 2 -65.5 23.5t-40.5 56.5l-293 878l-361 -884q-12 -35 -41.5 -54.5t-66.5 -19.5h-4q-37 2 -66.5 24.5t-40.5 57.5l-399 1270q-14 47 7.5 90t68.5 57t90 -8.5t57 -67.5l301 -960 l357 878l1 3l1 2l5 10t5 9t7 9t8 8t9.5 7.5t9.5 7.5t9 5t12 5l1 1t2 1h3h4q6 2 11.5 3t11.5 1h11h11t11 -2l12 -4h4t3 -1t2 -1h1q4 -4 13 -6q4 -4 8 -6q2 -2 8 -7.5t8 -7.5q2 -4 8 -10q4 -6 6.5 -9t6.5 -9q2 -6 4 -11q0 -2 1 -3l1 -1l293 -880l395 977q18 45 63 63t90.5 1z " glyph-name="w" horiz-adv-x="2168" unicode="w"/><glyph d="M786 772l371 -610q25 -43 13.5 -90t-54.5 -72q-27 -16 -59 -16q-66 0 -101 55l-315 520l-340 -493q-35 -51 -96 -52q-37 0 -66 21q-41 27 -49 75t19 87l399 583l-332 547q-27 41 -14.5 88t53.5 72.5t88 13.5t72 -53l278 -457l308 449q27 39 74.5 48t87.5 -18.5 t48.5 -74.5t-18.5 -88z" glyph-name="x" horiz-adv-x="1275" unicode="x"/><glyph d="M1195 1473.5q38 -29.5 43 -77.5t-24 -87l-446 -570v-594q0 -49 -35 -82.5t-83 -33.5t-83 33.5t-35 82.5v594l-450 570q-29 39 -24 87t43 77.5t86.5 24.5t78.5 -44l383 -485l381 485q29 39 78 44t87 -24.5z" glyph-name="y" horiz-adv-x="1298" unicode="y"/><glyph d="M1194 262q47 0 82 -34.5t35 -83t-35 -82t-82 -33.5h-985q-74 0 -105.5 65.5t13.5 122.5l833 1049h-741q-49 0 -83 33.5t-34 82t34 83t83 34.5h985q72 0 104.5 -66.5t-14.5 -123.5l-831 -1047h741z" glyph-name="z" horiz-adv-x="1402" unicode="z"/><glyph d="M645 225q49 0 84 -34.5t35 -83t-35 -83t-84 -34.5q-213 0 -285 164q-37 80 -36 260q0 145 -19.5 189t-87.5 56q-10 0 -22 5q-2 2 -5 2l-2 2l-12 6q-2 2 -7 5t-11 7q-2 4 -6 6q-4 4 -9 10q-4 4 -4 7q-4 4 -8 12l-1 3l-1 3q-2 4 -6 14v3q0 4 -2 4v2v3v3q-2 12 -2 16t2 14v4 v5q0 6 4 16q0 2 1 4l1 2q0 2 6 12q6 12 14 23q2 0 3.5 1t1.5 2t8 9q8 4 14 8q8 6 14 9l2 1l3 1q10 4 18 6q80 16 100.5 57t18.5 166q0 68 2 106.5t20.5 96t57.5 96.5q80 82 235 84q49 0 83 -34t35 -82t-33 -82.5t-83 -34.5q-57 -2 -72 -15q-12 -14 -12 -131q2 -68 0 -110.5 t-24.5 -113.5t-65.5 -120q39 -47 59.5 -119.5t22.5 -118t2 -120.5q0 -129 16 -164q11 -25 72 -25z" glyph-name="braceleft" horiz-adv-x="899" unicode="{"/><glyph d="M303 1487q49 0 83 -34t34 -83v-1288q0 -49 -34 -83t-83 -34t-83 34t-34 83v1288q0 49 34 83t83 34z" glyph-name="bar" horiz-adv-x="608" unicode="|"/><glyph d="M778 729q0 -10 1 -14t-1 -17v-3v-3v-2q0 -2 -1 -4t-1 -4q-4 -8 -4 -12q-2 -2 -3 -4t-1 -4q-4 -8 -6 -13l-4 -6q-6 -6 -8 -10q-2 -2 -7 -6q-6 -4 -10 -9q-4 -2 -8 -6q-4 -2 -10 -6q-6 -2 -8 -2q-6 -4 -15 -6h-2h-2q-82 -18 -101.5 -59t-19.5 -166q2 -68 0 -107t-20.5 -95 t-57.5 -95q-80 -84 -235 -86h-2q-47 0 -82 33.5t-35 83t34 83t83 35.5q57 0 70 15q14 14 12 131q0 68 2 109.5t23.5 112.5t66.5 120q-39 49 -59.5 120.5t-23.5 117.5t-3 120q0 131 -14 164q-12 27 -74 27q-49 0 -83 33.5t-34 81.5t34 83t83 35q213 0 287 -164 q35 -80 34 -260q0 -143 20.5 -187t88.5 -57q4 -2 16 -4q0 -2 3.5 -2t3.5 -2q2 0 4 -1l2 -1q25 -10 41 -33q6 -6 10 -12q6 -8 8 -12v-4v-2q4 -10 6 -17v-3z" glyph-name="braceright" horiz-adv-x="899" unicode="}"/><glyph glyph-name="uni00A0" horiz-adv-x="729" unicode=" "/><glyph d="M309.5 1069q-59.5 0 -101.5 42t-42 101.5t42 101.5t101.5 42t101.5 -42t42 -101.5t-42 -101.5t-101.5 -42zM309 1018q49 0 83 -34t34 -83v-948q0 -49 -34 -83t-83 -34t-82.5 34t-33.5 83v948q0 49 33.5 83t82.5 34z" glyph-name="exclamdown" horiz-adv-x="618" unicode="¡"/><glyph d="M800 713q38 -6 61.5 -37t17.5 -70q-18 -131 -92 -219t-185 -113v-10q0 -39 -27.5 -66.5t-66.5 -27.5t-65.5 27.5t-26.5 66.5v21q-123 43 -201 164.5t-78 276.5t78 276.5t201 164.5v45q0 39 26.5 66t65.5 27t66.5 -27t27.5 -66v-34q102 -25 174 -104t90 -195 q8 -37 -14.5 -69t-60 -39t-69.5 15.5t-40 61.5q-16 90 -80 131v-506q74 45 92 160q4 39 36 62.5t70 17.5zM416 500v452q-92 -82 -92 -226t92 -226z" glyph-name="cent" horiz-adv-x="1019" unicode="¢"/><glyph d="M981 225q49 0 83 -34.5t34 -83t-34 -83t-83 -34.5h-694q-63 0 -98 55t-9 113q68 141 111 276h-4q-49 2 -83 36t-34 82t34 83t83 35q-8 14 -21 41q-31 57 -46 92t-32.5 95t-17.5 116q0 115 31.5 203t78 136t112 77.5t119.5 39t112 9.5q223 0 349 -124t126 -343 q0 -47 -34 -82t-83 -35t-83 35t-34 82q0 123 -57 177t-184 54q-121 0 -170.5 -51t-49.5 -178q0 -61 70 -197q51 -96 66 -147h284q49 0 84 -35t34 -83t-35 -83t-83 -35h-291q-23 -92 -67 -209h516z" glyph-name="sterling" horiz-adv-x="1251" unicode="£"/><glyph d="M1250 1453q38 -30 43 -78t-23 -87l-387 -491h92q47 0 82 -35t35 -83t-35 -83t-82 -35h-2h-150v-106h152q47 0 82 -34t35 -83t-35 -83t-82 -34h-2h-150v-96q0 -49 -34.5 -83t-83 -34t-83 34t-34.5 83v96h-152q-47 0 -82 35t-35 83t35 82t82 34h152v106l-152 2 q-47 0 -82 34t-35 82t35 83t82 35h90l-389 491q-29 39 -23.5 87t43.5 78t86 25t79 -44l383 -486l380 486q29 39 78 44t87 -25z" glyph-name="yen" horiz-adv-x="1409" unicode="¥"/><glyph d="M891 776q2 -133 -88 -229q88 -92 88 -232q2 -127 -84 -215q-45 -45 -110.5 -71.5t-104.5 -31.5t-72 -5q-135 0 -233 90q-117 104 -117 285q0 47 35 81.5t83 34.5t81.5 -34.5t33.5 -81.5q0 -76 39 -113q33 -29 78 -29q82 0 121 41q16 16 16 47q0 49 -26.5 78t-108.5 53 l-10 2l-10 5h-2q-49 14 -79 23t-83 36t-85 57.5t-57.5 82.5t-25.5 114q0 23 4 49q18 111 105 199q-86 74 -84 196q0 139 95 226.5t249 89.5h3h3q137 0 227 -95.5t92 -216.5q2 -49 -31.5 -83.5t-82.5 -34.5q-49 -2 -84 31.5t-35 82.5q0 6 -4 21.5t-25.5 37t-56.5 21.5h-2 q-41 0 -66.5 -9t-35 -24.5t-11.5 -24.5t-2 -24q0 -18 19.5 -30.5t97.5 -32.5q29 -8 43 -13q43 -12 82 -30l3 -1t5 -1q12 -4 22 -13q191 -100 191 -309zM625 698q33 31 32 76q0 39 -13 62.5t-52 44.5q-68 25 -121 -13q-51 -35 -63 -88q2 -29 33.5 -50t107.5 -48l18 -6l2 -2 q27 -1 56 24z" glyph-name="section" horiz-adv-x="1062" unicode="§"/><glyph d="M424 1401q127 0 216 -90t89 -216t-89 -216.5t-216 -90.5t-217 90.5t-90 216.5t90 216t217 90zM422.5 836q107.5 0 183.5 75.5t76 183t-76 183.5t-183.5 76t-183 -76t-75.5 -183.5t75.5 -183t183 -75.5zM560.5 1070q23.5 -3 21.5 -26q-8 -70 -49 -111.5t-101 -43.5h-6 q-70 0 -119 57q-51 57 -55 141q-4 86 44 148.5t120 64.5q59 4 100 -33.5t53 -92.5q6 -23 -17.5 -28t-27.5 17q-8 39 -35.5 65.5t-72.5 26.5q-51 -2 -85 -51t-32 -114q2 -68 43 -113q37 -43 88 -41q37 0 67.5 28.5t37.5 84.5q2 24 25.5 21z" glyph-name="copyright" horiz-adv-x="847" unicode="©"/><glyph d="M506 967q6 -12 0 -26.5t-19 -18.5q-6 -4 -14 -4q-23 0 -33 22l-47 117h-178l-49 -117q-6 -14 -19.5 -19.5t-27 0t-18.5 19.5t-1 27l58 139h2l110 268q10 23 34 23t32 -23l113 -268zM244 1126h118l-59 144z" glyph-name="ordfeminine" horiz-adv-x="608" unicode="ª"/><glyph d="M854 745l225 -245q33 -35 30 -84t-38 -82q-35 -29 -80 -29q-51 0 -86 37l-299 328q-31 35 -29.5 82t33.5 79l299 302q35 33 83 33.5t82 -34t35 -83t-34 -82.5zM391 745l223 -245q33 -35 31 -84t-37 -82q-35 -29 -80 -29q-51 0 -86 37l-299 328q-31 35 -29.5 82t33.5 79 l299 302q33 33 82.5 33.5t83 -34t33.5 -83t-33 -82.5z" glyph-name="guillemotleft" horiz-adv-x="1239" unicode="«"/><glyph glyph-name="uni00AD" horiz-adv-x="0" unicode="­"/><glyph d="M343 1401q97 0 166 -68.5t69 -166t-69 -166t-166 -68.5t-165.5 68.5t-68.5 166t68.5 166t165.5 68.5zM342 979q49 0 92 25l-61 114h-2h-4h-76v-119q0 -6 -4 -12q26 -8 55 -8zM291 1262v-97h76q31 0 47 15q12 14 12 33.5t-12 31.5q-16 16 -47 17h-76zM473 1032 q57 55 57 135q0 78 -55 132.5t-132 54.5t-132 -54.5t-55 -132.5q0 -104 88 -159v270l1 1q1 1 1 2t-1 2l-1 1q0 10 7 17.5t17 7.5h99q51 0 79 -31q25 -25 27 -61v-3v-2v-2q-2 -39 -27 -63q-10 -10 -26 -19z" glyph-name="registered" horiz-adv-x="686" unicode="®"/><glyph d="M403.5 1425q118.5 0 203.5 -85t85 -203.5t-85 -203.5t-203.5 -85t-203.5 85t-85 203.5t85 203.5t203.5 85zM403.5 942q79.5 0 137 56.5t57.5 137.5t-57.5 138t-137 57t-137 -57t-57.5 -138t57.5 -137.5t137 -56.5z" glyph-name="degree" horiz-adv-x="806" unicode="°"/><glyph d="M332 1233q14 0 24.5 -10.5t10.5 -24.5t-10.5 -25.5t-24.5 -11.5h-199q-31 0 -35 31v15.5t3 32t13.5 44t33 47t55.5 43.5q8 4 22 12q39 18 55.5 34t16.5 40q0 35 -13.5 49.5t-47.5 14.5q-66 0 -66 -64q0 -14 -11.5 -25.5t-25.5 -11.5t-24.5 11.5t-10.5 25.5q0 61 37 97 t101 36q51 0 91 -28.5t40 -104.5q0 -29 -10.5 -52.5t-30 -39.5t-32.5 -24.5t-36 -20.5q-14 -6 -20 -10q-53 -31 -66 -80h160z" glyph-name="uni00B2" horiz-adv-x="462" unicode="²"/><glyph d="M299 1473q45 -18 69.5 -57.5t24.5 -86.5q0 -80 -39 -124t-106 -44q-74 0 -119 58q-43 53 -31 114q4 14 16.5 22.5t27 5.5t21.5 -15.5t5 -26.5q-6 -29 14 -55q25 -31 66 -31q12 0 20 2t22.5 9t23 28.5t10.5 56.5q0 57 -54 80q-37 16 -71 2l-29 -20q-29 -16 -48.5 8t3.5 47 q18 16 39 27l78 51h-111q-14 0 -24.5 10t-10.5 24.5t10.5 24.5t24.5 10h227q25 0 33 -24.5t-14 -38.5l-82 -55q2 0 4 -2z" glyph-name="uni00B3" horiz-adv-x="489" unicode="³"/><glyph d="M231.5 1591q22.5 -8 22.5 -32v-361q0 -14 -10.5 -25.5t-24.5 -11.5t-24.5 11.5t-10.5 25.5v272l-32 -34q-10 -10 -24.5 -11.5t-26 9t-11.5 25t10 26.5l93 98q16 16 38.5 8z" glyph-name="uni00B9" horiz-adv-x="358" unicode="¹"/><glyph d="M326 1397q90 0 153.5 -71t63.5 -169t-63.5 -168.5t-153.5 -70.5t-153.5 70.5t-63.5 168.5t63.5 169t153.5 71zM325.5 989q61.5 0 104.5 49t43 119t-43 119t-104.5 49t-104.5 -49t-43 -119t43 -119t104.5 -49z" glyph-name="ordmasculine" horiz-adv-x="653" unicode="º"/><glyph d="M631 801q33 -35 32 -82t-34 -80l-299 -301q-35 -33 -83 -33t-83 34t-35 82t35 83l219 221l-223 246q-33 35 -31 84t38 80.5t84 29.5t81 -37zM1096 801q31 -35 29.5 -82t-33.5 -80l-299 -301q-35 -33 -83 -33t-83 34t-35 82t35 83l219 221l-223 246q-33 35 -31 84t38 80.5 t85 29.5t80 -37z" glyph-name="guillemotright" horiz-adv-x="1239" unicode="»"/><glyph d="M874 399q47 -2 82 -35.5t33 -82.5q0 -195 -120.5 -319t-311.5 -126h-8q-195 0 -310.5 113.5t-115.5 300.5q0 150 92 273.5t221 172.5l4 207q0 49 35 82t83 33t82 -35t34 -84l-6 -299q0 -49 -34 -83t-83 -34q-55 0 -125 -72.5t-70 -160.5t47 -133q49 -47 152 -47 q94 2 147.5 58t53.5 155q0 49 34.5 82.5t83.5 33.5zM557 1069q-59 0 -101 42t-42 101.5t42 101.5t101 42t101 -42t42 -101.5t-42 -101.5t-101 -42z" glyph-name="questiondown" horiz-adv-x="1101" unicode="¿"/><glyph d="M1354 162q18 -45 -0.5 -90t-63.5 -64q-20 -8 -45 -8q-35 0 -64.5 19.5t-43.5 52.5l-148 358h-545l-149 -358q-18 -45 -63.5 -63.5t-90.5 0t-63.5 63.5t0.5 90l180 430v2l350 838q14 33 43 53t65 20t65.5 -20.5t41.5 -52.5l351 -838v-2zM543 666h348l-174 417zM643 1589 l-262 215q-39 31 -43 79t26.5 85t79 42t84.5 -25l263 -216q37 -31 42 -79t-26 -84q-35 -43 -90 -43q-43 -1 -74 26z" glyph-name="Agrave" horiz-adv-x="1433" unicode="À"/><glyph d="M1354 162q18 -45 -0.5 -90t-63.5 -64q-20 -8 -45 -8q-35 0 -64.5 19.5t-41.5 52.5l-150 358h-545l-149 -358q-18 -45 -63.5 -63.5t-90.5 0t-63.5 63.5t0.5 90l180 430v2l350 838q14 33 43 53t65 20t65.5 -20.5t41.5 -52.5l351 -838v-2zM543 666h348l-174 417zM446 1540 q-55 0 -90 43q-31 37 -26.5 85t43.5 79l260 215q35 27 78 25q43 2 77 -25l261 -215q39 -31 43 -79t-27 -85q-35 -43 -90 -43q-41 0 -74 27l-190 155l-191 -155q-33 -27 -74 -27z" glyph-name="Acircumflex" horiz-adv-x="1433" unicode="Â"/><glyph d="M1352 137q18 -45 -0.5 -90t-63.5 -63q-20 -8 -45 -9q-35 0 -64.5 19.5t-43.5 52.5l-148 359h-545l-149 -359q-18 -45 -63.5 -63.5t-90.5 0t-63.5 63.5t0.5 90l180 430v2l350 838q14 33 43 52.5t65 19.5t65.5 -19.5t41.5 -52.5l350 -838v-2zM541 639h348l-174 420z M346 1561.5q-39 29.5 -45 78t23 84.5q43 57 88 93t82.5 52.5t79.5 17.5t71 -4t64.5 -23.5t53 -28.5t46.5 -31q41 -29 58.5 -39t43 -13t48 12.5t56.5 49t83 33.5t82.5 -33.5t33.5 -83t-34 -81.5q-131 -131 -267 -132q-102 0 -239 95q-66 47 -82 47q-27 0 -82 -72 q-29 -39 -77 -45t-87 23.5z" glyph-name="Atilde" horiz-adv-x="1429" unicode="Ã"/><glyph d="M1354 162q18 -45 -0.5 -90t-63.5 -63.5t-89 0t-64 63.5l-148 358h-545l-149 -358q-14 -33 -44 -52.5t-65 -19.5q-23 0 -45 8q-45 18 -63.5 63.5t0.5 90.5l180 430v2l350 838q14 33 43 53t65 20t65.5 -20.5t43.5 -52.5l349 -838v-2zM543 666h348l-174 417zM532.5 1571 q-51.5 0 -88 35.5t-36.5 88t36.5 88.5t88 36t87 -36t35.5 -88.5t-35.5 -88t-87 -35.5zM901 1571q-51 0 -88 35.5t-37 88t37 88.5t88 36t87 -36t36 -88.5t-36 -88t-87 -35.5z" glyph-name="Adieresis" horiz-adv-x="1433" unicode="Ä"/><glyph d="M1354 162q18 -45 -0.5 -90t-63.5 -63.5t-89 0t-62 63.5l-150 358h-545l-149 -358q-14 -33 -44 -52.5t-65 -19.5q-23 0 -45 8q-45 18 -63.5 63.5t0.5 90.5l180 430v2l309 739q-74 41 -119 114t-45 161q0 129 92.5 220t221.5 91t220 -91t91 -220q0 -88 -44 -161t-118 -114 l308 -739v-2zM717 1686q-33 0 -55.5 -23t-22.5 -55.5t22.5 -55t55.5 -22.5t55.5 22.5t22.5 55t-22.5 55.5t-55.5 23zM543 666h348l-174 417z" glyph-name="Aring" horiz-adv-x="1433" unicode="Å"/><glyph d="M2052 233q47 0 82 -33.5t35 -82.5t-35 -83t-82 -34h-819q-47 0 -82 34t-35 83v313h-528l-324 -387q-35 -43 -90 -43q-43 0 -74 27q-39 31 -43 80t27 86l1059 1269q2 0 3 2t3 2q2 4 4 7q4 4 12 8q0 2 1 3t3 1q8 6 19 10l2 1l2 1q8 2 14 4q2 0 8 2h15l2 1l2 1h819 q47 0 82 -34.5t35 -83t-35 -83t-82 -34.5h-702v-324h483q49 0 84 -33.5t35 -83t-35 -83t-84 -33.5h-483v-480h702zM1116 666v397l-332 -397h332z" glyph-name="AE" horiz-adv-x="2263" unicode="Æ"/><glyph d="M1122 233q47 0 82 -33.5t35 -82.5t-35 -83t-82 -34h-819q-49 0 -83 34t-34 83v1269q0 49 34 84t83 35h819q47 0 82 -34.5t35 -83t-35 -83t-82 -34.5h-702v-324h483q49 0 84 -33.5t35 -83t-35 -83t-84 -33.5h-483v-480h702zM662 1597l-263 215q-37 31 -42 79t26 86t79 42 t87 -26l260 -213q39 -31 43 -80t-27 -86q-35 -43 -90 -43q-40 -1 -73 26z" glyph-name="Egrave" horiz-adv-x="1333" unicode="È"/><glyph d="M1122 233q47 0 82 -33.5t35 -82.5t-35 -83t-82 -34h-819q-49 0 -83 34t-34 83v1269q0 49 34 84t83 35h819q47 0 82 -34.5t35 -83t-35 -83t-82 -34.5h-702v-324h483q49 0 84 -33.5t35 -83t-35 -83t-84 -33.5h-483v-480h702zM662 1571q-55 0 -93 43q-31 37 -25.5 86 t42.5 80l262 213q39 31 87 26.5t78.5 -42.5t25.5 -86t-42 -79l-262 -215q-32 -26 -73 -26z" glyph-name="Eacute" horiz-adv-x="1333" unicode="É"/><glyph d="M1122 233q47 0 82 -33.5t35 -82.5t-35 -83t-82 -34h-819q-49 0 -83 34t-34 83v1269q0 49 34 84t83 35h819q47 0 82 -34.5t35 -83t-35 -83t-82 -34.5h-702v-324h483q49 0 84 -33.5t35 -83t-35 -83t-84 -33.5h-483v-480h702zM449 1571q-55 0 -93 43q-31 37 -25.5 86 t42.5 80l262 213q33 27 78 26q43 0 75 -26l263 -213q39 -31 43 -80t-27 -86q-35 -43 -90 -43q-41 0 -74 26l-190 156l-191 -156q-32 -26 -73 -26z" glyph-name="Ecircumflex" horiz-adv-x="1333" unicode="Ê"/><glyph d="M1122 233q47 0 82 -33.5t35 -82.5t-35 -83t-82 -34h-819q-49 0 -83 34t-34 83v1269q0 49 34 84t83 35h819q47 0 82 -34.5t35 -83t-35 -83t-82 -34.5h-702v-324h483q49 0 84 -33.5t35 -83t-35 -83t-84 -33.5h-483v-480h702zM510 1608q-51 0 -88 35.5t-37 88t37 88t88 35.5 t87 -35.5t36 -88t-36 -88t-87 -35.5zM878.5 1608q-51.5 0 -88 35.5t-36.5 88t36.5 88t88 35.5t88.5 -35.5t37 -88t-37 -88t-88.5 -35.5z" glyph-name="Edieresis" horiz-adv-x="1333" unicode="Ë"/><glyph d="M303 1505q49 0 83 -34.5t34 -84.5v-1269q0 -49 -34 -83t-83 -34t-83 34t-34 83v1269q0 49 34 84t83 35zM299 1630q-41 0 -74 27l-262 215q-37 31 -42 79t25.5 86t79 42t85.5 -27l262 -213q39 -31 43 -80t-27 -86q-35 -43 -90 -43z" glyph-name="Igrave" horiz-adv-x="608" unicode="Ì"/><glyph d="M303 1505q49 0 83 -34.5t34 -84.5v-1269q0 -49 -34 -83t-83 -34t-83 34t-34 83v1269q0 49 34 84t83 35zM651.5 2037q30.5 -38 26.5 -86t-43 -79l-262 -215q-31 -27 -74 -27q-55 0 -90 43q-31 37 -26 86t42 80l262 213q37 31 85.5 27t79 -42z" glyph-name="Iacute" horiz-adv-x="608" unicode="Í"/><glyph d="M302 1505q48 0 83 -34.5t35 -84.5v-1269q0 -49 -35 -83t-83 -34t-82 34t-34 83v1269q0 49 34 84t82 35zM639 1792q37 -31 42 -79t-26 -87q-35 -43 -90 -43q-43 0 -76 27l-190 155l-190 -155q-31 -27 -74 -27q-55 0 -90 43q-31 39 -26 87t42 79l262 213q33 29 76 27 q45 2 78 -27z" glyph-name="Icircumflex" horiz-adv-x="606" unicode="Î"/><glyph d="M304 1505q48 0 83 -34.5t35 -84.5v-1269q0 -49 -35 -83t-83 -34t-83 34t-35 83v1269q0 49 35 84t83 35zM236 1744q0 -52 -36 -88t-87.5 -36t-88 36t-36.5 88t36.5 88t88 36t87.5 -36t36 -88zM481 1868q51 0 88 -36t37 -88t-37 -88t-88 -36t-88 36t-37 88t37 88t88 36z " glyph-name="Idieresis" horiz-adv-x="608" unicode="Ï"/><glyph d="M1146 1505q48 0 83 -34.5t35 -84.5v-1269q0 -39 -23.5 -70t-60.5 -43q-16 -4 -33 -4q-63 0 -98 51l-629 948v-882q0 -49 -34 -83t-83 -34t-83 34t-34 83v1269q0 39 23.5 71t60.5 43t73 -2t58 -46l629 -946v880q0 49 34 84t82 35zM346 1621q-39 30 -45 78t23 87 q43 55 88 91t81.5 52.5t79.5 17.5t72 -4.5t64.5 -22.5t53 -28.5t46.5 -29.5q41 -31 58.5 -40.5t43 -12.5t48 11.5t56.5 49.5t83 35t82.5 -35t33.5 -83t-34 -83q-131 -131 -267 -131q-102 0 -239 96q-66 45 -82 45q-27 0 -82 -72q-29 -39 -77 -45t-87 24z" glyph-name="Ntilde" horiz-adv-x="1449" unicode="Ñ"/><glyph d="M762 1505q174 0 322.5 -99t234.5 -268t86 -369t-86 -370t-234.5 -268t-322.5 -98t-322.5 98t-234.5 268t-86 370t86 369t234.5 268t322.5 99zM761 268q169 0 288.5 146.5t119.5 354.5t-119.5 354.5t-288.5 146.5t-289 -146.5t-120 -354.5t120 -354.5t289 -146.5z M760 1634l-262 215q-37 31 -42 79t25.5 85t78.5 42t87 -25l262 -213q37 -31 42 -80t-25 -86q-37 -43 -92 -43q-41 -1 -74 26z" glyph-name="Ograve" unicode="Ò"/><glyph d="M762 1505q174 0 322.5 -99t234.5 -268t86 -369t-86 -370t-234.5 -268t-322.5 -98t-322.5 98t-234.5 268t-86 370t86 369t234.5 268t322.5 99zM761 268q169 0 288.5 146.5t119.5 354.5t-119.5 354.5t-288.5 146.5t-289 -146.5t-120 -354.5t120 -354.5t289 -146.5z M694 1616q-55 0 -90 43q-31 37 -26.5 85t43.5 81l260 213q39 31 87 25.5t78.5 -42t25.5 -85t-42 -78.5l-262 -216q-33 -26 -74 -26z" glyph-name="Oacute" unicode="Ó"/><glyph d="M762 1487q174 0 322.5 -98.5t234.5 -267.5t86 -368.5t-86 -369.5t-234.5 -268.5t-322.5 -98.5t-322.5 98.5t-234.5 268.5t-86 369.5t86 368.5t234.5 267.5t322.5 98.5zM761 250q169 0 288.5 147.5t119.5 354t-119.5 354t-288.5 147.5t-289 -147.5t-120 -354t120 -354 t289 -147.5zM498 1616q-55 0 -92 43q-31 37 -26 85t42 81l262 213q33 27 76 26q45 2 78 -26l262 -213q39 -33 43 -81t-27 -85q-35 -43 -90 -43q-41 0 -74 26l-190 156l-191 -156q-32 -26 -73 -26z" glyph-name="Ocircumflex" unicode="Ô"/><glyph d="M762 1487q174 0 322.5 -98.5t234.5 -267.5t86 -368.5t-86 -369.5t-234.5 -268.5t-322.5 -98.5t-322.5 98.5t-234.5 268.5t-86 369.5t86 368.5t234.5 267.5t322.5 98.5zM761 250q169 0 288.5 147.5t119.5 354t-119.5 354t-288.5 147.5t-289 -147.5t-120 -354t120 -354 t289 -147.5zM350 1604.5q-39 29.5 -45 78t23 84.5q43 57 88 93t83 52.5t80 17.5t70.5 -4t64.5 -23.5t53 -28.5t46 -31q41 -29 58.5 -39t43 -13t48 12.5t56.5 49t83 33.5t83 -33.5t34 -83t-35 -81.5q-131 -131 -264 -132q-104 0 -242 95q-66 47 -82 47q-27 0 -82 -72 q-29 -39 -77 -45t-87 23.5z" glyph-name="Otilde" unicode="Õ"/><glyph d="M762 1487q174 0 322.5 -98.5t234.5 -267.5t86 -368.5t-86 -369.5t-234.5 -268.5t-322.5 -98.5t-322.5 98.5t-234.5 268.5t-86 369.5t86 368.5t234.5 267.5t322.5 98.5zM761 250q169 0 288.5 147.5t119.5 354t-119.5 354t-288.5 147.5t-289 -147.5t-120 -354t120 -354 t289 -147.5zM577.5 1636q-51.5 0 -88 37t-36.5 88t36.5 88t88 37t87 -37t35.5 -88t-35.5 -88t-87 -37zM946 1636q-51 0 -88 37t-37 88t37 88t88 37t88 -37t37 -88t-37 -88t-88 -37z" glyph-name="Odieresis" unicode="Ö"/><glyph d="M594 737l106 -106q35 -35 34 -83t-34.5 -83t-82 -35t-82.5 35l-107 106l-102 -100q-35 -35 -83 -35t-83 34t-35 83t35 82l102 102l-106 109q-35 33 -35 82t34.5 82.5t83 33.5t83.5 -34l106 -107l113 113q35 33 83 33t81.5 -34t33.5 -83t-32 -82z" glyph-name="multiply" horiz-adv-x="862" unicode="×"/><glyph d="M1303 1188q117 -188 116 -420q0 -199 -86 -369t-234.5 -268t-322.5 -98q-182 0 -338 110l-55 -67q-35 -43 -90 -43q-41 0 -74 26q-39 31 -43 80t27 86l71 86q-141 201 -141 457q0 201 86 370t234.5 268t322.5 99q205 0 371 -137l63 78q33 37 81 41t85 -26.5t42 -79 t-25 -85.5zM430 502l569 686q-102 82 -223 82q-170 0 -289.5 -146.5t-119.5 -355.5q0 -143 63 -266zM776 268q168 0 288 146.5t120 353.5q0 119 -43 225l-553 -669q90 -56 188 -56z" glyph-name="Oslash" horiz-adv-x="1556" unicode="Ø"/><glyph d="M1054 1511q48 0 82.5 -33.5t34.5 -82.5v-723l-2 -13q-10 -311 -141 -481t-360 -170q-262 0 -396 203q-109 168 -108 461v723q0 49 33.5 82.5t83 33.5t83 -33.5t33.5 -82.5v-723q0 -88 12.5 -158t29 -115t43 -76.5t48 -46t53 -22.5t46 -9t39.5 -1q270 0 270 477v674 q0 49 34 82.5t82 33.5zM674 1597l-262 215q-37 31 -42 79t25.5 86t78.5 42t87 -26l260 -213q39 -31 44 -79t-25 -87q-37 -43 -92 -43q-41 -1 -74 26z" glyph-name="Ugrave" horiz-adv-x="1333" unicode="Ù"/><glyph d="M1056 1503q48 0 83 -33.5t35 -83.5v-722l-3 -13q-10 -311 -141 -481t-360 -170q-262 0 -396 203q-109 168 -108 461v722q0 49 33.5 83t83 34t83 -33.5t33.5 -83.5v-722q0 -88 12.5 -159t29 -115t43 -75.5t48 -46t53 -22.5t46 -9t39.5 -1q270 0 270 477v673q0 49 34 83 t82 34zM406 1616q-55 0 -91 43q-31 39 -26.5 87t43.5 79l260 213q33 27 78 26q43 2 78 -26l260 -213q39 -31 43 -79t-27 -87q-35 -43 -90 -43q-41 0 -74 26l-190 156l-191 -156q-32 -26 -73 -26z" glyph-name="Ucircumflex" horiz-adv-x="1337" unicode="Û"/><glyph d="M1056 1503q48 0 83 -33.5t35 -83.5v-722l-3 -13q-10 -311 -141 -481t-360 -170q-262 0 -396 203q-109 168 -108 461v722q0 49 33.5 83t83 34t83 -33.5t33.5 -83.5v-722q0 -88 12.5 -159t29 -115t43 -75.5t48 -46t53 -22.5t46 -9t39.5 -1q270 0 270 477v673q0 49 34 83 t82 34zM485.5 1554q-51.5 0 -88.5 36t-37 88.5t37 88t88.5 35.5t88 -35.5t36.5 -88t-36.5 -88.5t-88 -36zM854 1554q-51 0 -88 36t-37 88.5t37 88t88 35.5t88 -35.5t37 -88t-37 -88.5t-88 -36z" glyph-name="Udieresis" horiz-adv-x="1337" unicode="Ü"/><glyph d="M1195 1463.5q38 -29.5 43 -78t-24 -87.5l-446 -569v-596q0 -47 -35 -82t-83 -35t-83 35t-35 82v596l-450 569q-29 37 -24 85.5t43 79t86.5 24.5t78.5 -43l383 -486l381 484q29 39 78 45t87 -23.5zM582 1499q-55 0 -90 43q-31 37 -26 86t42 80l262 213q37 31 86 27t80 -42 t25.5 -86t-43.5 -79l-261 -215q-32 -27 -75 -27z" glyph-name="Yacute" horiz-adv-x="1298" unicode="Ý"/><glyph d="M1352 123q18 -45 -0.5 -89t-63.5 -63q-20 -10 -45 -10q-35 0 -64.5 19.5t-43.5 52.5l-148 358h-545l-149 -358q-18 -43 -63.5 -62.5t-90.5 0t-63.5 63.5t0.5 89l180 432l350 840q14 33 43 52t65 19t65.5 -19.5t41.5 -51.5l350 -840zM541 627h348l-174 417zM641 1550 l-262 215q-39 31 -43 79t26.5 86t78.5 42t85 -26l262 -213q37 -31 42.5 -79t-25.5 -87q-35 -43 -90 -43q-43 -1 -74 26z" glyph-name="agrave" horiz-adv-x="1429" unicode="à"/><glyph d="M1352 123q18 -45 -0.5 -89t-63.5 -63q-20 -10 -45 -10q-35 0 -64.5 19.5t-41.5 52.5l-150 358h-545l-149 -358q-18 -43 -63.5 -62.5t-90.5 0t-63.5 63.5t0.5 89l180 432l350 840q14 33 43 52t65 19t65.5 -19.5t43.5 -51.5l348 -840zM541 627h348l-174 417zM715 1524 q-55 0 -92 43q-31 39 -26 87t44 79l260 213q39 31 87 26.5t79 -42.5t25.5 -86t-41.5 -79l-263 -215q-32 -26 -73 -26z" glyph-name="aacute" horiz-adv-x="1429" unicode="á"/><glyph d="M1352 123q18 -45 -0.5 -89t-63.5 -63q-20 -10 -45 -10q-35 0 -64.5 19.5t-41.5 52.5l-150 358h-545l-149 -358q-18 -43 -63.5 -62.5t-90.5 0t-63.5 63.5t0.5 89l180 432l350 840q14 33 43 52t65 19t65.5 -19.5t41.5 -51.5l350 -840zM541 627h348l-174 417zM444 1501 q-55 0 -90 43q-31 37 -26.5 85t43.5 79l260 215q35 27 78 27t77 -27l261 -215q39 -31 43 -79t-27 -85q-35 -43 -90 -43q-41 0 -74 27l-190 155l-191 -155q-33 -27 -74 -27z" glyph-name="acircumflex" horiz-adv-x="1429" unicode="â"/><glyph d="M1352 127q18 -45 -0.5 -89t-63.5 -65q-20 -8 -45 -8q-35 0 -64.5 19.5t-43.5 52.5l-148 358h-545l-149 -358q-18 -45 -63.5 -63.5t-90.5 1t-63.5 63.5t0.5 89l180 432l350 838q14 33 43 53t65 20t65.5 -20t41.5 -53l350 -838zM541 631h348l-174 418zM346 1551.5 q-39 29.5 -45 77.5t23 87q43 55 88 91t82.5 52.5t79.5 17.5t71 -4t64.5 -22.5t53 -29t46.5 -31.5q41 -29 58.5 -39t43 -13t48 12t56.5 50t83 35t82.5 -35t33.5 -83t-34 -83q-131 -131 -267 -131q-102 0 -239 96q-66 45 -82 46q-27 2 -82 -72q-29 -39 -77 -45t-87 23.5z" glyph-name="atilde" horiz-adv-x="1429" unicode="ã"/><glyph d="M1352 123q18 -45 -0.5 -89t-63.5 -63.5t-89 0t-64 62.5l-148 358h-545l-149 -358q-14 -33 -44 -52.5t-65 -19.5q-23 0 -45 10q-45 18 -63.5 62.5t0.5 89.5l180 432l350 840q14 33 43 52t65 19t65.5 -19.5t43.5 -51.5l348 -840zM541 627h348l-174 417zM530.5 1532 q-51.5 0 -88 37t-36.5 88t36.5 87t88 36t87 -36t35.5 -87t-35.5 -88t-87 -37zM899 1532q-51 0 -88 37t-37 88t37 87t88 36t87 -36t36 -87t-36 -88t-87 -37z" glyph-name="adieresis" horiz-adv-x="1429" unicode="ä"/><glyph d="M1352 123q18 -45 -0.5 -89t-63.5 -63.5t-89 0t-62 62.5l-150 358h-545l-149 -358q-14 -33 -44 -52.5t-65 -19.5q-23 0 -45 10q-45 18 -63.5 62.5t0.5 89.5l180 432l309 739q-74 41 -119 115t-45 160q0 129 92.5 221t221.5 92t220 -92t91 -221q0 -86 -44 -160t-118 -115 l307 -739zM715 1647q-33 0 -55.5 -22.5t-22.5 -55.5t22.5 -55.5t55.5 -22.5t55.5 22.5t22.5 55.5t-22.5 55.5t-55.5 22.5zM541 627h348l-174 417z" glyph-name="aring" horiz-adv-x="1429" unicode="å"/><glyph d="M2048 197q47 0 82 -35t35 -83t-35 -83t-82 -35h-819q-47 0 -82 35t-35 82v313h-528l-324 -387q-35 -43 -90 -43q-43 0 -74 27q-39 33 -43 81t27 85l1059 1269l3 3t3 1q2 4 4 7q4 4 12 10l1 1t3 1q8 6 19 10l2 1l2 1q8 2 14 4q2 0 8 2q6 0 15 2h2h2h819q47 0 82 -34.5 t35 -83t-35 -83t-82 -34.5h-702v-322h483q49 0 84 -34.5t35 -83t-35 -83t-84 -34.5h-483v-477h702zM1112 627v399l-332 -399h332z" glyph-name="ae" horiz-adv-x="2256" unicode="æ"/><glyph d="M1120 197q47 0 82 -35t35 -83t-35 -83t-82 -35h-819q-49 0 -83 35t-34 82v1272q0 47 34 81.5t83 34.5h819q47 0 82 -34.5t35 -83t-35 -83t-82 -34.5h-702v-322h483q49 0 84 -34.5t35 -83t-35 -83t-84 -34.5h-483v-477h702zM659 1559l-262 215q-37 31 -42 79t26 85.5 t79 42t87 -26.5l260 -213q39 -31 43 -79t-27 -87q-35 -43 -90 -43q-41 0 -74 27z" glyph-name="egrave" horiz-adv-x="1329" unicode="è"/><glyph d="M1120 197q47 0 82 -35t35 -83t-35 -83t-82 -35h-819q-49 0 -83 35t-34 82v1272q0 47 34 81.5t83 34.5h819q47 0 82 -34.5t35 -83t-35 -83t-82 -34.5h-702v-322h483q49 0 84 -34.5t35 -83t-35 -83t-84 -34.5h-483v-477h702zM659 1532q-55 0 -92 43q-31 39 -25.5 87 t42.5 79l262 213q39 31 87 26.5t78.5 -42t25.5 -86t-42 -78.5l-262 -215q-33 -27 -74 -27z" glyph-name="eacute" horiz-adv-x="1329" unicode="é"/><glyph d="M1120 197q47 0 82 -35t35 -83t-35 -83t-82 -35h-819q-49 0 -83 35t-34 82v1272q0 47 34 81.5t83 34.5h819q47 0 82 -34.5t35 -83t-35 -83t-82 -34.5h-702v-322h483q49 0 84 -34.5t35 -83t-35 -83t-84 -34.5h-483v-477h702zM446 1532q-55 0 -92 43q-31 39 -25.5 87 t42.5 79l262 213q33 29 78 26q43 2 75 -26l263 -213q39 -31 43 -79t-27 -87q-35 -43 -90 -43q-41 0 -74 27l-190 155l-191 -155q-33 -27 -74 -27z" glyph-name="ecircumflex" horiz-adv-x="1329" unicode="ê"/><glyph d="M1120 197q47 0 82 -35t35 -83t-35 -83t-82 -35h-819q-49 0 -83 35t-34 82v1272q0 47 34 81.5t83 34.5h819q47 0 82 -34.5t35 -83t-35 -83t-82 -34.5h-702v-322h483q49 0 84 -34.5t35 -83t-35 -83t-84 -34.5h-483v-477h702zM508 1569q-51 0 -88 36.5t-37 88t37 87.5t88 36 t87 -36t36 -87.5t-36 -88t-87 -36.5zM876.5 1569q-51.5 0 -88 36.5t-36.5 88t36.5 87.5t88 36t88 -36t36.5 -87.5t-36.5 -88t-88 -36.5z" glyph-name="edieresis" horiz-adv-x="1329" unicode="ë"/><glyph d="M301 1466q49 0 83 -34.5t34 -81.5v-1272q0 -47 -34 -82t-83 -35t-83 35t-34 82v1272q0 47 34 81.5t83 34.5zM297 1591q-41 0 -74 27l-262 215q-37 31 -42 79t25.5 86t79 42t85.5 -27l262 -213q39 -31 43 -79t-27 -87q-35 -43 -90 -43z" glyph-name="igrave" horiz-adv-x="604" unicode="ì"/><glyph d="M301 1466q49 0 83 -34.5t34 -81.5v-1272q0 -47 -34 -82t-83 -35t-83 35t-34 82v1272q0 47 34 81.5t83 34.5zM649 1998q31 -38 27 -86t-43 -79l-262 -215q-31 -27 -74 -27q-55 0 -90 43q-31 39 -26 87t42 79l262 213q37 31 85 27t79 -42z" glyph-name="iacute" horiz-adv-x="604" unicode="í"/><glyph d="M300 1466q48 0 83 -34.5t35 -81.5v-1272q0 -47 -35 -82t-83 -35t-82 35t-34 82v1272q0 47 34 81.5t82 34.5zM637 1753q37 -31 42 -79t-26 -85q-35 -43 -90 -43q-43 0 -76 25l-190 158l-191 -158q-31 -25 -73 -25q-55 0 -90 43q-31 37 -26 85t42 79l262 215q33 27 76 25 q45 2 78 -25z" glyph-name="icircumflex" horiz-adv-x="602" unicode="î"/><glyph d="M300 1466q48 0 83 -34.5t35 -81.5v-1272q0 -47 -35 -82t-83 -35t-83 35t-35 82v1272q0 47 35 81.5t83 34.5zM231 1706q0 -51 -35.5 -88t-87 -37t-88 37t-36.5 88t36.5 88t88 37t87 -37t35.5 -88zM477 1831q51 0 88 -37t37 -88t-37 -88t-88 -37t-88 37t-37 88t37 88t88 37 z" glyph-name="idieresis" horiz-adv-x="602" unicode="ï"/><glyph d="M1144 1466q48 0 83 -34.5t35 -81.5v-1272q0 -39 -24 -70t-60 -41q-16 -6 -33 -6q-63 0 -98 53l-629 947v-883q0 -47 -34 -82t-83 -35t-83 35t-34 82v1272q0 37 23.5 68.5t60.5 43t73 -2t58 -46.5l629 -946v883q0 47 34 81.5t82 34.5zM344 1582q-39 30 -45 78t23 87 q43 55 88 91t81.5 53.5t79.5 18.5t72 -5.5t64.5 -23.5t53 -28.5t46.5 -29.5q41 -29 58.5 -39t43 -13.5t48 12t56.5 49.5t83 34t82.5 -35t33.5 -83t-34 -83q-131 -131 -267 -131q-102 0 -239 96q-66 45 -82 47q-27 0 -82 -73q-29 -37 -77 -44.5t-87 22.5z" glyph-name="ntilde" horiz-adv-x="1445" unicode="ñ"/><glyph d="M762 1470q174 0 322.5 -98t234.5 -267t86 -368.5t-86 -369.5t-234.5 -268.5t-322.5 -98.5t-322.5 98.5t-234.5 268.5t-86 369.5t86 368.5t234.5 267t322.5 98zM761 233q169 0 288.5 147.5t119.5 354.5t-119.5 354.5t-288.5 147.5t-289 -147.5t-120 -354.5t120 -354.5 t289 -147.5zM760 1602l-262 213q-37 31 -42 80t25.5 85.5t78.5 42t87 -25.5l262 -215q37 -31 42 -79t-25 -85q-37 -43 -92 -43q-41 0 -74 27z" glyph-name="ograve" unicode="ò"/><glyph d="M762 1466q174 0 322.5 -98t234.5 -268t86 -370t-86 -368.5t-234.5 -268t-322.5 -99.5t-322.5 99.5t-234.5 268t-86 368.5t86 370t234.5 268t322.5 98zM761 229q169 0 288.5 146.5t119.5 354.5t-119.5 354.5t-288.5 146.5t-289 -146.5t-120 -354.5t120 -354.5t289 -146.5z M694 1577q-55 0 -90 43q-31 39 -26.5 87t43.5 79l260 213q39 31 87 26.5t78.5 -42t25.5 -86t-42 -78.5l-262 -215q-33 -27 -74 -27z" glyph-name="oacute" unicode="ó"/><glyph d="M762 1450q174 0 322.5 -99.5t234.5 -268.5t86 -368.5t-86 -368.5t-234.5 -268.5t-322.5 -99.5t-322.5 99.5t-234.5 268.5t-86 368.5t86 368.5t234.5 268.5t322.5 99.5zM761 213q169 0 288.5 146.5t119.5 354.5t-119.5 354t-288.5 146t-289 -146t-120 -354t120 -354.5 t289 -146.5zM498 1577q-55 0 -92 43q-31 39 -26 87t42 79l262 213q33 27 76 26q45 2 78 -26l262 -213q39 -31 43 -79t-27 -87q-35 -43 -90 -43q-41 0 -74 27l-190 155l-191 -155q-32 -27 -73 -27z" glyph-name="ocircumflex" unicode="ô"/><glyph d="M762 1450q174 0 322.5 -99.5t234.5 -268.5t86 -368.5t-86 -368.5t-234.5 -268.5t-322.5 -99.5t-322.5 99.5t-234.5 268.5t-86 368.5t86 368.5t234.5 268.5t322.5 99.5zM761 213q169 0 288.5 146.5t119.5 354.5t-119.5 354t-288.5 146t-289 -146t-120 -354t120 -354.5 t289 -146.5zM350 1565.5q-39 29.5 -45 78t23 87.5q43 55 88 91t83 52t80 17t70.5 -4t64.5 -22.5t53 -28.5t46 -32q41 -29 58.5 -39t43 -13t48 12.5t56.5 50t83 34.5t83 -34.5t34 -83t-35 -82.5q-131 -131 -264 -131q-104 0 -242 96q-66 45 -82 45q-27 0 -82 -72 q-29 -39 -77 -45t-87 23.5z" glyph-name="otilde" unicode="õ"/><glyph d="M762 1450q174 0 322.5 -99.5t234.5 -268.5t86 -368.5t-86 -368.5t-234.5 -268.5t-322.5 -99.5t-322.5 99.5t-234.5 268.5t-86 368.5t86 368.5t234.5 268.5t322.5 99.5zM761 213q169 0 288.5 146.5t119.5 354.5t-119.5 354t-288.5 146t-289 -146t-120 -354t120 -354.5 t289 -146.5zM577.5 1597q-51.5 0 -88 37t-36.5 88.5t36.5 88t88 36.5t87 -36.5t35.5 -88t-35.5 -88.5t-87 -37zM946 1597q-51 0 -88 37t-37 88.5t37 88t88 36.5t88 -36.5t37 -88t-37 -88.5t-88 -37z" glyph-name="odieresis" unicode="ö"/><glyph d="M1303 1151q117 -190 116 -420q0 -201 -86 -369.5t-234.5 -268t-322.5 -99.5q-182 0 -338 110l-55 -67q-35 -43 -90 -43q-41 0 -74 29q-39 31 -43 79t27 84l71 86q-141 201 -141 459q0 199 86 369t234.5 268t322.5 98q205 0 371 -137l63 78q33 37 81 42t85 -26.5t42 -80 t-25 -85.5zM430 463l569 686q-102 82 -223 82q-170 0 -289.5 -146.5t-119.5 -353.5q0 -145 63 -268zM776 229q168 0 288 146.5t120 355.5q0 117 -43 223l-553 -669q90 -56 188 -56z" glyph-name="oslash" horiz-adv-x="1558" unicode="ø"/><glyph d="M1056 1475q48 0 83 -35t35 -84v-721q0 -2 -3 -14q-10 -311 -141 -480.5t-360 -169.5q-262 0 -396 203q-109 166 -108 461v721q0 49 33.5 84t83 35t83 -35t33.5 -84v-721q0 -90 12.5 -159.5t29 -114t43 -76t48 -47t53 -23.5t46 -9t39.5 -1q270 0 270 477v674q0 49 34 84 t82 35zM676 1559l-262 215q-37 31 -42 79t25.5 85.5t78.5 43t87 -25.5l260 -215q39 -31 44 -79t-25 -87q-37 -41 -92 -41q-41 0 -74 25z" glyph-name="ugrave" horiz-adv-x="1337" unicode="ù"/><glyph d="M1056 1464q48 0 83 -33.5t35 -82.5v-721q0 -2 -3 -15q-10 -311 -141 -481t-360 -170q-262 0 -396 205q-109 166 -108 461v721q0 49 33.5 82.5t83 33.5t83 -33.5t33.5 -82.5v-721q0 -90 12.5 -160t29 -114t43 -75.5t48 -47t53 -23.5t46 -9t39.5 -1q270 0 270 477v674 q0 49 34 82.5t82 33.5zM625 1534q-55 0 -90 41q-31 39 -27 87t43 79l260 215q39 31 87 25.5t79 -43t25.5 -86t-41.5 -78.5l-263 -215q-32 -25 -73 -25z" glyph-name="uacute" horiz-adv-x="1337" unicode="ú"/><glyph d="M1056 1464q48 0 83 -33.5t35 -82.5v-721q0 -2 -3 -15q-10 -311 -141 -481t-360 -170q-262 0 -396 205q-109 166 -108 461v721q0 49 33.5 82.5t83 33.5t83 -33.5t33.5 -82.5v-721q0 -90 12.5 -160t29 -114t43 -75.5t48 -47t53 -23.5t46 -9t39.5 -1q270 0 270 477v674 q0 49 34 82.5t82 33.5zM406 1579q-55 0 -91 43q-31 37 -26.5 85t43.5 79l260 215q33 27 78 24q43 2 78 -24l260 -215q39 -31 43 -79t-27 -85q-35 -43 -90 -43q-41 0 -74 27l-190 155l-191 -155q-32 -27 -73 -27z" glyph-name="ucircumflex" horiz-adv-x="1337" unicode="û"/><glyph d="M1056 1464q48 0 83 -33.5t35 -82.5v-721q0 -2 -3 -15q-10 -311 -141 -481t-360 -170q-262 0 -396 205q-109 166 -108 461v721q0 49 33.5 82.5t83 33.5t83 -33.5t33.5 -82.5v-721q0 -90 12.5 -160t29 -114t43 -75.5t48 -47t53 -23.5t46 -9t39.5 -1q270 0 270 477v674 q0 49 34 82.5t82 33.5zM485.5 1516q-51.5 0 -88.5 36.5t-37 88t37 88t88.5 36.5t88 -36.5t36.5 -88t-36.5 -88t-88 -36.5zM854 1516q-51 0 -88 36.5t-37 88t37 88t88 36.5t88 -36.5t37 -88t-37 -88t-88 -36.5z" glyph-name="udieresis" horiz-adv-x="1337" unicode="ü"/><glyph d="M1197 1424.5q38 -29.5 43 -78t-23 -86.5l-447 -570v-596q0 -47 -35 -82t-83 -35t-82.5 35t-34.5 82v596l-451 570q-29 39 -23.5 87t43 77.5t86 23.5t78.5 -43l383 -485l381 485q29 37 78 43t87 -23.5zM584 1460q-55 0 -90 43q-31 39 -26 87t42 79l262 213q37 31 86 27 t80 -42t25.5 -86t-43.5 -79l-261 -215q-32 -27 -75 -27z" glyph-name="yacute" horiz-adv-x="1302" unicode="ý"/><glyph d="M1195 1440.5q38 -29.5 43 -77.5t-24 -87l-446 -569v-594q0 -49 -35 -84t-83 -35t-83 34.5t-35 84.5v594l-450 569q-29 39 -24 87t43 77.5t86.5 24.5t78.5 -44l383 -485l381 485q29 39 78 44t87 -24.5zM465 1565q-51 0 -87 35.5t-36 88t36 88t87 35.5t88 -35.5t37 -88 t-37 -88t-88 -35.5zM834.5 1565q-52.5 0 -88 35.5t-35.5 88t35.5 88t88 35.5t88 -35.5t35.5 -88t-35.5 -88t-88 -35.5z" glyph-name="ydieresis" horiz-adv-x="1298" unicode="ÿ"/><glyph d="M301 1466q49 0 83 -34.5t34 -81.5v-1272q0 -47 -34 -82t-83 -35t-83 35t-34 82v1272q0 47 34 81.5t83 34.5z" glyph-name="dotlessi" horiz-adv-x="604" unicode="ı"/><glyph d="M2105 233q49 0 83 -33.5t34 -82.5t-34 -83t-83 -34h-817q-49 0 -84 34t-35 83v67q-178 -168 -407 -168q-174 0 -322.5 98.5t-234.5 268.5t-86 369.5t86 368.5t234.5 267.5t322.5 98.5q229 0 407 -168v67q0 49 35 84t84 35h817q49 0 83 -34.5t34 -83t-34 -83t-83 -34.5 h-700v-324h483q47 0 82 -33.5t35 -83t-35 -83t-82 -33.5h-483v-480h700zM761 250q169 0 288.5 147.5t119.5 354t-119.5 354t-288.5 147.5t-289 -147.5t-120 -354t120 -354t289 -147.5z" glyph-name="OE" horiz-adv-x="2318" unicode="Œ"/><glyph d="M2105 197q49 0 83 -35t34 -83t-34 -83t-83 -35h-817q-49 0 -84 35t-35 82v67q-178 -168 -407 -168q-174 0 -322.5 99.5t-234.5 268.5t-86 368.5t86 368.5t234.5 268.5t322.5 99.5q229 0 407 -168v68q0 47 35 81.5t84 34.5h817q49 0 83 -34.5t34 -83t-34 -83t-83 -34.5 h-700v-322h483q47 0 82 -34.5t35 -83t-35 -83t-82 -34.5h-483v-477h700zM761 213q169 0 288.5 146.5t119.5 354.5t-119.5 354t-288.5 146t-289 -146t-120 -354t120 -354.5t289 -146.5z" glyph-name="oe" horiz-adv-x="2316" unicode="œ"/><glyph d="M692 911q86 -27 156 -62.5t113 -71.5t74.5 -82t46 -79.5t22.5 -76.5t9 -63.5t3 -49.5q0 -170 -112 -285q-76 -76 -185.5 -112.5t-212.5 -36.5q-184 0 -317 121q-158 143 -158 391q0 49 35 83t83 34t82 -34t34 -83q0 -143 81 -217q66 -59 160 -60q61 0 127 20.5t105 59.5 q45 45 43 117q0 102 -57.5 161.5t-196.5 100.5q-16 4 -58 14q-45 12 -70.5 20.5t-73.5 26t-78 36t-67.5 49t-59 65.5t-37 85t-15.5 108q0 190 128 304.5t341 116.5q199 2 326 -139q109 -121 110 -276q2 -49 -31.5 -84t-83.5 -35q-49 -2 -83.5 31.5t-34.5 83.5 q0 25 -11.5 55.5t-33 61t-62.5 50t-94 19.5q-236 -4 -238 -188q0 -63 46.5 -94t183.5 -68q41 -11 61 -17zM547 1587l-262 215q-37 31 -42 79t25.5 86t78.5 43t85 -25l191 -158l190 158q39 31 87 25.5t79 -43.5t25.5 -86t-41.5 -79l-263 -215q-33 -27 -73 -26q-2 0 -3 1l-1 1 l-1 -1l-1 -1q-43 -1 -74 26z" glyph-name="Scaron" horiz-adv-x="1247" unicode="Š"/><glyph d="M692 872q86 -27 156 -62.5t113 -71.5t74.5 -82t46 -78.5t22.5 -76.5t9 -64.5t3 -49.5q0 -170 -112 -283q-76 -78 -185.5 -113.5t-212.5 -35.5q-184 0 -317 121q-158 141 -158 389q0 49 35 84t83 35t82 -35t34 -84q0 -143 81 -217q66 -59 160 -60q61 0 127 20.5t105 59.5 q45 45 43 117q0 102 -57.5 161.5t-196.5 100.5q-16 4 -58 17q-45 12 -70.5 19t-73.5 25.5t-78 36t-67.5 48t-59 65.5t-37 85t-15.5 108q0 190 128 304.5t341 117.5q199 4 326 -140q109 -121 110 -276q2 -49 -31.5 -84t-83.5 -35q-49 -2 -83.5 32t-34.5 83q0 27 -11.5 56.5 t-33 60t-62.5 50t-94 19.5q-236 -4 -238 -188q0 -63 46.5 -94t183.5 -68q41 -11 61 -17zM547 1550l-262 213q-37 31 -42 79t25.5 86t78.5 43t85 -25l191 -156l190 156q39 31 87 25.5t79 -43.5t25.5 -86t-41.5 -79l-263 -213q-33 -27 -73 -26h-3h-1h-2q-43 -1 -74 26z" glyph-name="scaron" horiz-adv-x="1247" unicode="š"/><glyph d="M1195 1479.5q38 -29.5 43 -77.5t-24 -87l-446 -570v-595q0 -47 -35 -82t-83 -35t-83 34.5t-35 82.5v595l-450 570q-29 37 -24 86t43 78.5t86.5 23.5t78.5 -43l383 -485l381 485q29 37 78 43t87 -23.5zM465 1602q-51 0 -87 36.5t-36 88t36 88t87 36.5t88 -36.5t37 -88 t-37 -88t-88 -36.5zM834.5 1602q-52.5 0 -88 36.5t-35.5 88t35.5 88t88 36.5t88 -36.5t35.5 -88t-35.5 -88t-88 -36.5z" glyph-name="Ydieresis" horiz-adv-x="1298" unicode="Ÿ"/><glyph d="M1194 213q47 0 82 -35t35 -83t-35 -83t-82 -35h-985q-74 0 -105.5 67t13.5 124l833 1046h-741q-47 0 -82 35t-35 83t35 83t82 35h985q74 0 105.5 -66.5t-15.5 -123.5l-831 -1047h741zM625 1567l-263 215q-37 31 -42 79t26 85q35 43 90 43q43 0 74 -27l190 -156l191 156 q33 27 76 27q55 0 90 -43q31 -37 25.5 -85.5t-42.5 -78.5l-262 -215q-33 -27 -78 -27q-42 0 -75 27z" glyph-name="zcaron" horiz-adv-x="1402" unicode="ž"/><glyph d="M1028 852q49 0 83 -34t34 -83t-34 -83t-83 -34h-825q-49 0 -83 35t-34 83t35 83t82 35z" glyph-name="endash" horiz-adv-x="1232" unicode="–"/><glyph d="M1495 852q49 0 83 -34t34 -83t-34 -83t-83 -34h-1292q-49 0 -83 34t-34 83t34 83t83 34h1292z" glyph-name="emdash" horiz-adv-x="1699" unicode="—"/><glyph d="M659 1307q37 -25 47.5 -70t-12.5 -84q-33 -59 -100 -59q-31 0 -57 14q-49 27 -81 83t-36 124q-12 154 108 246q39 29 87.5 22.5t78 -45.5t23.5 -87t-45 -77q-16 -12 -19 -31q-4 -20 6 -36zM358 1374q-16 -12 -18 -31q-4 -20 6 -36q37 -25 47 -70t-12 -84 q-33 -59 -102 -59q-31 0 -58 14q-47 27 -78.5 83t-38.5 124q-10 152 111 246q39 29 87 22.5t78 -45.5t22.5 -87t-44.5 -77z" glyph-name="quotedblleft" horiz-adv-x="823" unicode="“"/><glyph d="M287 1569q47 -27 78.5 -83t37.5 -124q10 -154 -110 -246q-33 -23 -72 -22q-57 0 -92 45q-31 39 -23.5 87t46.5 77q14 12 16 30q4 20 -6 37q-37 25 -47.5 69t12.5 85q23 43 70 56.5t90 -11.5zM717 1362q10 -154 -111 -246q-31 -23 -71 -22q-57 0 -93 45q-29 39 -22.5 87 t45.5 77q14 12 18 30q2 20 -6 37q-39 25 -49 69t12 85q23 43 70 56t90 -11q47 -27 80 -83t37 -124z" glyph-name="quotedblright" horiz-adv-x="821" unicode="”"/><glyph d="M331 518q-93 0 -159 65.5t-66 159t66 160t159 66.5t159.5 -66.5t66.5 -160t-66.5 -159t-159.5 -65.5z" glyph-name="bullet" horiz-adv-x="663" unicode="•"/><glyph d="M169 174q38 0 64.5 -26.5t26.5 -64.5t-26.5 -64.5t-64.5 -26.5t-64.5 26.5t-26.5 64.5t26.5 64.5t64.5 26.5zM439 -8q-38 0 -64.5 26.5t-26.5 64.5t26.5 64.5t64.5 26.5t64.5 -26.5t26.5 -64.5t-26.5 -64.5t-64.5 -26.5zM712 -8q-38 0 -64.5 26.5t-26.5 64.5t26.5 64.5 t64.5 26.5t64.5 -26.5t26.5 -64.5t-26.5 -64.5t-64.5 -26.5z" glyph-name="ellipsis" horiz-adv-x="882" unicode="…"/><glyph d="M1389.5 675q48.5 -7 77 -46t22.5 -86q-20 -145 -80.5 -257t-142.5 -173.5t-170 -92t-178 -30.5q-180 0 -331 115.5t-229 306.5h-108q-49 0 -83 33.5t-34 83t35 83t82 33.5h51q-6 51 -6 98v5v4h-45q-49 0 -83 34.5t-34 83t35 83t82 34.5h78q66 223 227.5 365.5 t362.5 142.5q117 0 215 -42t165.5 -113.5t110.5 -157.5t59 -183q8 -47 -19.5 -87t-75.5 -48t-87 19.5t-47 77.5q-23 123 -103.5 212t-217.5 89q-109 0 -201 -76t-142 -199l211 -2q49 0 84 -33.5t34 -83t-34.5 -83t-83.5 -33.5h-258v-4v-5q0 -49 9 -98h249q49 0 84 -35 t34 -83t-34.5 -81.5t-83.5 -33.5h-165q53 -88 130.5 -137.5t166.5 -49.5q135 0 225 93.5t114 256.5q6 49 45 78t87.5 22z" glyph-name="Euro" horiz-adv-x="1644" unicode="€"/></font>
</defs>
</svg>
